<svg xmlns="http://www.w3.org/2000/svg" width="1365.333" height="1365.333" viewBox="0 0 1024 1024"><path d="M381 203.7v203.8l-3.4-5c-4.5-6.6-91.1-92.8-95.6-95.1-3.4-1.8-8.9-1.9-137-1.9H11.5l-.3 21.2L11 348h251.4l36.9 36.8 36.9 36.8-1.9 3.5c-2.5 4.3-8.4 8.5-14.4 10-6.7 1.8-13.1-.3-19-6.2-3.9-3.9-4.9-5.5-5.9-10.5-3.5-17.6-6.8-22.2-18.1-25.3-5.3-1.5-11-.3-16.9 3.6-5.3 3.4-9.8 12.5-10 20.1 0 4.3-4.2 11.2-8.4 14.1-6.3 4.2-11.5 5.4-17.3 3.9-9.9-2.5-15.2-8.8-17.3-20.8-2.1-11.8-7.4-18.3-17.1-20.9-5.5-1.5-11.4-.3-17.2 3.6-5.2 3.6-7.4 7.6-9.3 17.4-1.9 9.2-4.5 13.9-9.6 17.3-5.5 3.7-11 4.8-16.5 3.5-11.2-2.8-15-8-18.4-24.9-1.1-5.6-1.9-7.1-5.8-11-8.6-8.6-21.1-8.8-29.6-.4-4.4 4.3-5.8 7.5-7.5 17.2-1.1 6.4-5 13-9.4 15.8-5.5 3.6-11.5 4.4-34 4.4H11v43.2l28.8-.4c20.2-.4 29.7-.9 32.2-1.8 8-3 16.7-7.3 20-9.9 5.4-4.2 6.5-4.3 10.7-.9 4.5 3.6 15.9 9 22.8 10.9 6.5 1.8 26.6 1.8 32.5 0 7.4-2.2 16.1-6.4 21.4-10.4 2.8-2 5.4-3.7 5.7-3.7.4 0 2.7 1.5 5.1 3.3 11.2 8.5 22.4 12 38.3 12.1 15.3.1 24.3-2.5 36.5-10.4 3-2 6-3.9 6.6-4.3s3 .7 5.3 2.3c2.3 1.7 7 4.5 10.4 6.3l6.2 3.3.3 78.2.2 78.2H11v21.4c0 18.6.2 21.5 1.6 22 .9.3 64.5.6 141.5.6H294v21l-141.2.2-141.3.3-.3 21.2L11 740l2.2.5c1.3.3 71.2.4 155.3.3l153-.3 4.5-2.7c2.5-1.4 5.5-4 6.8-5.7 5.3-7.3 5.2-3.1 5.2-134.6v-122l5.9-2.8c8-3.8 17.7-11.4 22.7-17.9 4.6-5.9 9.9-15.7 11-20.2.4-1.6 1.3-4.1 2-5.5 1.2-2.2 1.4 28 1.4 187.1v189.6l-13.2.4c-14.4.4-18.2 1.5-23.4 6.6-5.9 6-5.9 5.7-6.4 44.2l-.5 35.5-13.7.6c-12.4.6-14.2.9-18.2 3.3-5.3 3.1-8.8 7.5-10.4 13.2-.8 2.8-1.2 15-1.2 37.3V980h-87v-46.8l6.4-3.1c16.4-7.9 28.7-22.5 34.6-41 2.2-7.1 2.8-25.4 1.1-33.3-.6-2.4-1.5-6.8-2.1-9.8-1.6-7.6-4.7-18.4-7.2-25-1.1-3-2.3-6.4-2.7-7.5-2.3-6.3-12.3-24.5-16.4-30-5-6.7-13.7-14.3-19.7-17.2-1.9-.9-6.3-2.2-9.7-2.9-20.1-3.8-39 10.4-53.3 40.1-2.4 4.9-4.7 9.8-5.2 10.7-.4 1-.8 2.5-.8 3.3 0 3.2-1.9 1.3-4.1-4.2-3.2-8.3-11.6-24.1-15.2-28.8-12.8-16.6-27.1-23.8-42.2-21-18.7 3.4-34.8 20.9-46 50-1.5 3.9-3.1 7.9-3.6 9-1.2 2.7-4.1 13.8-8.1 31-.6 2.7-1.1 10.6-1.1 17.5 0 13.8 1.4 19.9 7.5 31.9 4.8 9.3 17.2 21.5 27.1 26.5l7.7 3.8V980l-21.3.2-21.2.3-.3 21.7-.2 21.8h1002l-.2-21.8-.3-21.7-97.8-.3-97.7-.2V0h-43v358.2c0 197.1-.4 358.9-.8 359.6-.7.9-5.7 1.2-21.8 1l-20.9-.3-.6-34.5c-.3-19-.9-35.6-1.4-37-1-3-4.3-8-6.5-9.7-4.9-3.9-8.6-4.8-22-5.3l-13.5-.5-.5-35.5c-.6-40.6-.6-40.5-9.5-47-4.7-3.4-4.9-3.4-16.9-3.7-6.7-.2-13.1-.6-14.3-.8l-2.2-.5-.3-34.8c-.3-37.9-.5-38.7-6.4-44.5-6.2-6.2-5.7-6.2-44.4-6.7l-35.5-.5-.3-228.8L556 0h-44l-.2 228.7-.3 228.8h-86l-.3-228.8L425 0h-44zm217.8 318.7c.2 16.1-.1 21.1-1 21.8-1.5.9-168.8 1.1-171.2.2-1.4-.5-1.6-3.4-1.6-21.3 0-11.4.3-21.1.7-21.4.3-.4 39.4-.6 86.7-.5l86.1.3zm43.7 67.8c.3 1.3.4 11.1.3 21.8l-.3 19.5h-217l-.3-20.5c-.1-11.2 0-21 .2-21.7.4-1 21.8-1.3 108.5-1.3H642zM686 697.5V719l-130.2-.2-130.3-.3-.3-21.3-.2-21.2h261zm86.9 65.9c.8.9 1.1 7.7.9 21.7l-.3 20.4-174.2.3-174.3.2v-21.4c0-16.2.3-21.6 1.3-21.9.6-.3 78.7-.6 173.3-.6 144.4-.1 172.4.1 173.3 1.3m-585.1 49.1c1.2 1.9 2.2 3.7 2.2 4.1 0 .3.8 1.8 1.8 3.2 1 1.5 3.1 5.8 4.6 9.7 2.5 6.3 3.8 10 6.5 19 2 6.4 3.3 15.3 3.4 22.1 0 6-.4 7.9-2.6 11.6-1.4 2.5-4.5 5.7-6.9 7.3-3.6 2.4-5.3 2.8-11.4 2.9-6.2 0-7.7-.3-11.3-2.7-2.3-1.6-5.5-4.9-7.2-7.4-2.4-3.9-2.9-5.7-2.9-10.9 0-13.4 6.9-38.2 14.3-51.4 1.1-1.9 2.9-5.2 4-7.3 1.2-2 2.3-3.7 2.6-3.7s1.6 1.6 2.9 3.5m-108.1 1.2C85.9 825 90.3 835 92 841.5c5.3 19.5 6.6 28.7 5.2 34.2-1.6 5.8-5.1 10.9-9.8 14.1-3.2 2.1-5 2.5-10.9 2.6-6.2 0-7.8-.3-11.3-2.6-8.3-5.5-11.6-13.7-10-24.5 1.1-7.2 2.7-15 3.7-18.3.5-1.4 1.4-4.3 2-6.5 1.3-4.1 1.6-4.9 4.6-12 2.6-6 5.3-11.4 9.2-17.8 1-1.7 3.1-.5 5 3m694.1 55.8c.1 10.4 0 20-.3 21.2l-.5 2.3H577.6c-177.2 0-195.4-.1-196-1.6-.8-2.1-.8-39.9.1-40.7.3-.4 88.6-.6 196.2-.5l195.6.3zm-618.5 59.9c5.2 2.6 7.9 4.5 8.2 6 .3 1.1.4 11.5.3 23.1l-.3 21-32.7.3-32.8.2v-46.7l7.4-3.7c8.2-4.1 16.3-10.6 21.4-17.2l3.4-4.3 8.7 8.7c6.6 6.6 10.6 9.6 16.4 12.6m618.2 9.8c.3 1.3.4 10.8.3 21.3l-.3 19-217.7.3-217.8.2v-43h435zm-174.3-773c.3 160.3.4 166.4 2.2 169.8 1 1.9 2.6 4.3 3.5 5.4 1.4 1.6 82 62.4 90.6 68.3 5.4 3.7 10.9 4.8 16.8 3.3 9.2-2.3 13.7-6.5 16.4-15.5 1-3.1 1.3-47.5 1.3-200.8V0h-44v130.1c0 113.9-.2 130-1.5 129.6-.8-.4-10.4-7.4-21.5-15.7l-20-15V0h-44zM665.4 300c10.7 8 19.8 15.4 20.1 16.5s.4 8.6.3 16.7l-.3 14.8-21-15.8-21-15.7-.3-16.3c-.2-13.9 0-16.2 1.2-15.5.8.4 10.2 7.3 21 15.3M11 43.4c0 18.6.2 21.5 1.6 22 .9.3 54.6.6 119.5.6H250v174H11l.2 21.2.3 21.3h268l4.1-2.8c5-3.4 7.9-7.2 9.3-12.3s1.5-224.4.1-229.3c-1.6-5.8-5.9-10.9-11.3-13.6l-5.1-2.5H11zm864.5-20.1c-7.8 3.1-12.3 8.6-14.3 17.5-1.7 7.6-1.6 172.4.1 180.2 2.3 10.4 7.5 15.7 17.8 17.9 3.9.9 23.3 1.1 69.4.9l64-.3.3-21.8.2-21.7H904V66h52.9c29.1 0 53.6-.3 54.5-.6 1.4-.5 1.6-3.4 1.6-22V22l-67.2.1c-49 0-68.1.4-70.3 1.2m2.9 260.6c-8.7 1.4-15 8-17.2 17.9-1.7 7.7-1.6 173.6.1 180.7 1.6 6.8 4.8 11.7 9.9 15.1l4.3 2.9h137l.3-21.2.2-21.3-54.2-.2-54.3-.3v-130l54-.5 54-.5.3-20.9c.2-16.1-.1-21.1-1-21.8-1.5-.9-127.5-.8-133.4.1M137.7 539.8C108.2 569.3 84 594.2 84 595c0 1.5 27.9 30 29.3 30 .4 0 25-24.4 54.8-54.1l54.2-54.1-15.4-15.4-15.4-15.4zm738.7 6.1c-7 1.7-12.9 8.4-15 17-1.8 7.7-1.9 172.7-.1 181.1 1.7 7.6 4.1 11.2 10.1 14.9l5.2 3.1H1013l-.2-21.3-.3-21.2-54-.5-54-.5v-130l54.3-.3 54.2-.2v-43l-66.7.1c-36.8.1-68.2.4-69.9.8m-685.2 27.4L170 594.5l15.5 15.5 15.5 15.4 21-20.9c11.5-11.5 21-21.6 21-22.5 0-1.7-27.9-30-29.5-30-.6 0-10.6 9.6-22.3 21.3"/></svg>