<svg xmlns="http://www.w3.org/2000/svg" width="1365.333" height="1365.333" viewBox="0 0 1024 1024"><path d="M116 1c-.8.5-2.6 1-3.9 1-2.4 0-12.3 3.1-17.1 5.3C82.3 13.2 66.4 28.6 60.2 41c-6.5 12.8-8.5 20.9-8.5 33.5-.1 19.8 5.1 34.5 19.4 56 8.5 12.6 12.5 17.4 31.3 36.5 18.4 18.7 27.4 29 35.3 40.7 8.4 12.4 15.7 27.2 18.4 36.8 3.3 12.1 5.2 21.1 6.8 32.5.5 4.1 1.3 9.3 1.6 11.5s1 8.9 1.5 15c.5 6 1.2 13.1 1.6 15.7l.7 4.8h-17.9c-28.8.1-43.7 3.6-59.9 14.4-12.5 8.2-25 22.7-30.5 35.2-1.2 2.7-2.6 5.8-3.1 6.9s-1.7 4.7-2.6 8c-1.7 5.6-1.8 21.3-2.3 261.9-.4 226.1-.7 256-2 256.7-.8.4-4.2 1.8-7.5 3-17.9 6.7-34.1 24.4-39.4 42.9-.7 2.5-1.7 5.9-2.2 7.6-1.2 3.9-1.2 35.9 0 38.2.5.9 1.9 3.8 3.2 6.5 2.6 5.6 9.9 12.7 15.5 15.1 2.1 1 4.7 2.2 5.6 2.7 2.3 1.2 971.2 1.2 973.6 0 .9-.5 3.8-1.9 6.5-3.2 5.6-2.6 12.7-9.9 15.1-15.5 1-2.1 2.2-4.7 2.7-5.6 1.2-2.3 1.2-34.3 0-38.2-.5-1.7-1.5-5.1-2.2-7.6-5.3-18.6-21.4-36.1-39.4-42.9-3.3-1.2-6.7-2.6-7.5-3-1.3-.7-1.6-30.6-2-256.2-.4-185.4-.9-256.6-1.7-259.9-6.7-26.3-25-48.7-48.3-58.9-15.4-6.7-23.9-8.1-48.3-8.1-15.7 0-17.7-.2-17.7-1.6 0-.9.4-5.5 1-10.3.5-4.7 1.4-13.3 2-19.1 2.3-22.1 6.6-43.1 11.2-55 9.1-23.4 21-40.1 49.4-69 21-21.4 24.8-25.7 33.3-38.5 9.3-13.8 14.7-25.8 17.9-39.5 5.4-22.7-1.7-47.8-18.4-65.9-6.7-7.2-16.6-14.8-23.4-17.8-10.8-4.9-23.8-7.6-34.5-7-22.7 1.2-38.3 8.6-54 25.6-15.3 16.6-25.7 38.3-35.6 74.6-1.5 5.5-8.9 29-9.8 31-.5 1.1-1.7 3.8-2.6 6-12.3 28.8-28 48.5-54 67.9-6.6 4.9-13.7 10.2-15.7 11.8-2 1.5-4.1 2.8-4.7 2.8s-2.8-3-5-6.8c-8.1-13.7-25.7-34.9-39.5-47.4-12.2-11-17-14.8-30.1-23.5-20.1-13.4-44.5-24.8-65-30.3-41.3-11.2-74.5-12.6-113.5-4.8-42.8 8.5-80.1 27.6-114.8 58.7-13.4 12-34.6 37.6-40.3 48.8-1.2 2.3-2.8 4.4-3.6 4.7s-3.1-.7-5.1-2.2c-2-1.6-9.1-6.9-15.7-11.8-16.3-12.1-29.5-25.4-38.1-38.4-6-9-13.5-23.1-16.5-30.8-.5-1.2-1.3-3.2-1.9-4.5-1.1-2.5-8.6-26.1-10.2-32.2-7.5-27.9-17.1-50-28-64.7-6.4-8.8-20.1-21.5-26.9-25.2-7-3.7-17.7-7.6-21.1-7.6-1.5 0-3-.5-3.3-1C138.7-.3 118-.3 116 1m23 35.1c19.7 6.5 34.3 27.8 44.9 65.9 1.2 4.1 2.6 9.3 3.3 11.5.6 2.2 1.7 5.9 2.4 8.3.8 2.3 1.4 4.9 1.4 5.7 0 .7-3.4 3.3-7.7 5.7-8.4 4.7-9.4 5.3-20.3 11.8-4.1 2.4-8.8 5.3-10.5 6.2-1.6 1-4.9 2.8-7.3 4l-4.4 2.3-15.7-16c-21.9-22.3-33-38-37.7-53.4-1.7-5.5-1.8-20.9-.3-24.8 3.3-8.1 5.8-12 11.4-17.2 12-11.2 26.2-14.7 40.5-10m767.5-.7c12.6 3.3 22.8 11.8 28.2 23.3 2.9 6.4 3.3 8.1 3.3 15.9 0 10.2-1 13.9-6.6 25.4-6 12.2-14.6 23.3-32.5 41.5l-15.7 16-4.4-2.2c-2.3-1.3-5.6-3.1-7.3-4.1-1.6-.9-5.9-3.5-9.5-5.6-6.3-3.8-11.4-6.7-15.5-9-10.6-6.1-13.5-8-13.5-9.1 0-.7.7-3.5 1.5-6.1.8-2.7 2.9-9.9 4.5-15.9 6.6-23.3 11.6-35.3 20.1-48.1 12.6-18.8 29.7-26.8 47.4-22M524.7 137c15.7 1.3 30.1 3.5 38.3 6 1.4.4 4.5 1.3 7 2 6.8 1.9 11 3.3 17 5.8 16.6 6.8 26.3 12 39.8 21.1 32.7 22.1 58.1 53 73.7 89.6.9 2.2 2.1 4.9 2.6 6 3.7 8.7 9.5 31 11.9 46.5.7 4.1 1.3 16.2 1.3 27 0 24.3-1.5 35-8.3 59.5-5.9 21.3-20.3 48.7-35.9 68.5-7.1 8.9-22.1 24-31 31.2C603.7 530.3 559.4 546 512 546c-62.3 0-120.9-28.2-160-77-15.8-19.7-30-46.7-36-68.5-3.3-11.8-4.8-18.5-7.1-31.5-1.5-8.7-1.5-45.5 0-55 2.6-15.5 8.3-37.8 12-46.5.5-1.1 1.7-3.8 2.6-6 16-37.5 42.5-69.1 76.4-91.4 7.9-5.2 29.3-16.4 36.6-19.2 1.1-.4 4-1.5 6.5-2.4 2.5-1 5.9-2.1 7.5-2.6 1.7-.4 4.8-1.3 7-1.9 12-3.4 20.9-5 36.5-6.5 17.8-1.7 16.1-1.6 30.7-.5m-316 32.1c2.3 4.1 4.9 8.8 5.8 10.4.8 1.7 5.2 7.7 9.6 13.4s7.9 10.4 7.7 10.6c-.7.6-14 8.5-14.3 8.5-.2 0-4 2.2-8.4 4.9-11 6.8-20.6 12.1-21.8 12.1-.5 0-1.6-1.9-2.4-4.3-.7-2.3-2.6-6.8-4.1-10-1.6-3.1-2.8-6-2.8-6.2 0-.7-8.4-14.7-11.7-19.7-2.7-4.1-2.6-5 1.5-7.1 3.8-2 18.3-10.5 27.2-16 4.1-2.5 8-4.5 8.5-4.3.6.1 2.9 3.6 5.2 7.7m620.6-3.2c4.5 2.6 13.1 7.7 19 11.1 5.9 3.5 11 6.7 11.3 7.2s-1 3.2-2.9 6.1c-3.8 5.8-10.7 17.6-10.7 18.2 0 .3-1.2 3.1-2.8 6.2-1.5 3.2-3.4 7.7-4.1 10-.8 2.4-1.8 4.3-2.3 4.3s-3.7-1.6-7.1-3.6-7.5-4.5-9.2-5.4c-12.6-7.3-20.6-12-24.2-14.3l-4.2-2.7 7.7-10c4.3-5.4 8.7-11.6 9.9-13.7 8.5-15.6 10.1-18.3 10.9-18.3.3 0 4.2 2.2 8.7 4.9m-569.1 62.8c.3.9 16.9 13.3 24.1 18.2 6.7 4.5 6.7 4.6 2.7 14.6-1.2 3-2.6 7.4-4 12.5-.7 2.5-1.6 5.6-2 7-1.6 5.1-3.8 15.9-6.1 30-1.8 11.1-1.5 51.1.4 63 3.5 20.6 5.1 27.8 9.5 41.5 6.3 19.4 17.5 42.2 29.3 59.7 3.8 5.7 9.6 13.5 10.9 14.8.3.3 3 3.4 6 7 13.7 16.3 34.8 34.6 53 45.8 9.9 6.1 13.4 8.1 21.5 12.1 14 6.8 27 12 35.8 14.3 4.8 1.2 6.1 3.3 2.9 4.6-.9.4-7.3 4.1-14.2 8.2-31.9 19.1-37.9 22-45.9 22-3.6 0-9.7-1.5-14.6-3.5-9.9-4.1-16.6-7.3-20.8-9.7-2.6-1.5-5-2.8-5.3-2.8-1.3 0-23-15.2-30.4-21.4-29.7-24.6-55.6-60.1-73.2-100.6-.9-1.9-2.3-5.1-3.1-7s-3.2-7.8-5.2-13-4.1-10.4-4.5-11.5c-.5-1.1-1.3-3.6-1.9-5.5s-1.9-6.2-2.9-9.5c-1.1-3.3-2.5-8-3.2-10.5s-1.6-5.6-2-7c-1.3-4.1-6.1-24.3-7.9-33.5-3.4-17.6-5.1-29.8-8.1-58-2.6-24-3.2-29.3-4.1-34.4-2-11.7-2.5-10.9 12.4-19.7 7.2-4.3 14.1-8.4 15.2-9 4.8-2.7 9.7-5.5 16-9.3 3.7-2.3 6.9-4.1 7.1-4.1s2.5-1.4 5.1-3c4.7-3 6.8-3.6 7.5-2.3m509 1.2c1.8 1 7.4 4.2 12.3 7.1 5 2.9 10.4 6 12 7 1.7 1 7.1 4.1 12 7 5 2.9 12 7.1 15.8 9.2 7.5 4.4 7.7 4.9 5.8 15.9-.9 5.1-1.5 10.4-4.1 34.4-3 28.1-5.2 43.8-8 57-.5 2.2-1.4 6.7-2.1 10-1.1 5.6-4.9 20.7-7 28.5-.6 1.9-1.4 4.8-1.8 6.5-1.2 4.2-6.2 19.6-7.1 22-.5 1.1-2.5 6.3-4.5 11.5s-4.3 11-5.1 12.7c-.8 1.8-2.1 5-3 7-10.8 25.2-27.3 51.8-45.3 73.3-18.7 22.2-44.7 42.5-70.6 55-28.8 14-31.7 13.7-64-5.9-3.7-2.3-6.8-4.1-7-4.1-.5 0-13.7-8.1-16.7-10.2-1.6-1.1-2.8-2.3-2.8-2.7s2.1-1.2 4.8-1.9c4.6-1.2 12.7-4.1 18.7-6.7 1.7-.7 5-2.1 7.5-3.1 14.5-5.8 39.3-21 54.5-33.5 13-10.6 27.8-26 39.1-40.4 3.5-4.6 13.4-19.2 13.4-19.9 0-.2 1.7-3.3 3.8-6.7 17.6-29.3 28.7-67.9 30.7-106.4 1.1-21.9-2.6-57.1-7.4-71.5-.5-1.4-1.4-4.5-2.1-7-1.9-6.8-3-10.1-5.9-17.3-1.8-4.6-1.3-6.1 3.4-9 2.4-1.6 9.5-6.6 15.7-11.2 6.2-4.7 11.4-8.4 11.5-8.5.1 0 1.7.8 3.5 1.9M173.1 361c.4 1.4 1.2 5.9 1.9 10s1.6 8.8 2 10.5c.4 1.6 1.3 5.7 2 9 1.4 6.4 2.6 11.3 6 23.9 2 7.6 10.2 33 11.9 37.1 2.7 6.5 3.1 7.9 2.3 8.7-.4.4-26 .7-56.8.6l-55.9-.3-.3-28c-.2-19.4.1-29.7.9-33.5 4.3-19.5 20-35.2 39.7-39.5 3.7-.8 12.9-1.2 25.6-1.1l19.9.1zm723.2-1.6c20.3 4.3 36.2 19.8 40.6 39.6.8 3.8 1.1 14.1.9 33.5l-.3 28-55.9.3c-30.8.1-56.4-.2-56.8-.6-.8-.8-.4-2.2 2.3-8.7 5.3-12.7 15.4-48.1 19.8-70 .6-2.8 1.5-7.1 2.1-9.7.5-2.6 1-5.6 1-6.7s.4-3.1 1-4.5l1-2.6h18.7c12.4 0 21.1.5 25.6 1.4M218.4 500.2c20.5 41 47.3 73.2 82.1 99.2 3.3 2.5 7.1 5.4 8.5 6.4s5.7 3.8 9.5 6.2c30.1 18.4 49.3 26 65.3 26 13.1 0 30.3-5.8 42.4-14.2 1.4-1 2.9-1.8 3.3-1.8s1.9-.8 3.3-1.9c1.5-1 4.3-2.8 6.2-3.9 7.5-4.2 20.8-12 27.4-16 3.7-2.3 7-4.2 7.1-4.2.2 0 4-2.2 8.5-5 4.5-2.7 8.3-5 8.5-5 .3 0 2.6-1.4 5.2-3 4.5-2.9 5.1-3 16.2-3h11.6l8.4 5c4.6 2.8 8.5 5 8.6 5 .2 0 6.2 3.6 13.5 8s13.4 8 13.6 8c.3 0 2.1 1.1 4.2 2.4 2 1.3 8.9 5.4 15.2 9.1 11.1 6.5 14.1 8.3 21.4 12.4 7.5 4.3 22.7 8.1 32.1 8.1 7.8 0 19.8-2.9 29-6.9 36.2-16.1 68.8-39.9 95.1-69.6 16-18 27.2-34.7 39.7-58.8l4-7.7H938v409H666l-.2-105.3c-.3-101.1-.4-105.4-2.2-110.5-3.2-8.8-12.4-17.7-21.6-20.9-5.1-1.8-254.9-1.8-260 0-9.2 3.2-18.4 12.1-21.6 20.9-1.8 5.1-1.9 9.4-2.2 110.5L358 904H86V495h129.8zm276.4 302.1L495 904l-51.2-.2-51.3-.3-.3-100.5c-.1-55.3 0-101.1.3-101.8.3-1 11.1-1.2 51.2-1l50.8.3zm136.7-.3v101.5l-51.2.3-51.3.2V802.7c0-55.8.3-101.7.7-102 .3-.4 23.4-.6 51.2-.5l50.6.3zm338.7 139.9c8.9 4.4 16.2 13.4 18.7 23.1.7 2.5 1.1 8.9.9 14.5l-.3 10h-955l-.3-10c-.2-5.6.2-12 .9-14.5 3.2-12.2 13-22.3 24.4-25.1 1.7-.4 206.2-.6 454.5-.6l451.5.2zM519 171.6c-14.4 2.8-30.2 15.1-36.1 28.2-12.7 27.9.3 59.1 29.3 70.4 7.6 3 26 3 33.6 0 8.5-3.3 14.3-7.1 20.2-13.3 9.3-9.7 14-21.6 14-35.7 0-21.7-12.6-38.8-35.5-48.2-3.1-1.2-21-2.2-25.5-1.4m19.5 36c3.9 2.6 7.5 9.4 7.5 14.4 0 9.4-7.3 16.3-17.3 16.3-4.9 0-6.3-.4-9.5-3-8.7-7-9.5-18.2-1.7-26 4.5-4.4 15.4-5.4 21-1.7m84 32c-16 2.5-33.5 17.3-39 32.9-1.7 4.9-3.4 13.4-3.5 17.2 0 4.2 1.6 13.2 3 16.8 5.8 14.6 13.3 23 26.6 29.5 6.9 3.4 9.3 4.1 17 4.6 15.9 1.1 28.7-3.1 38.9-12.7 11.8-11.1 16.5-21.9 16.5-37.6 0-23.2-11.9-39.7-35.4-49.2-3.1-1.3-19.2-2.2-24.1-1.5m18 36.3c4.9 2.8 7.5 7.6 7.5 13.8 0 6.5-1.8 10.3-6.7 14-3.1 2.4-4.6 2.8-9.9 2.8-5.5 0-6.7-.4-10-3.1-2.2-1.7-4.6-5-5.7-7.7-1.8-4.2-1.8-5.2-.6-9.4 1.5-5.5 7.4-11.9 11.6-12.6 4.4-.7 10.5.2 13.8 2.2m-140 15.6c-10 2.4-20 8.4-27.3 16.4-4.5 5-10 16.4-11.3 23.6-1.2 6.6-.5 20.8 1.2 25.2 7.1 17.6 18.9 28.9 35.8 34.2 4.5 1.4 21.5 1.4 26 0 17.5-5.6 29.3-16.9 36.2-34.9.9-2.3 1.4-7.5 1.3-15-.1-12.3-1.4-17.4-6.8-26.3-11.1-18.4-34.6-28.3-55.1-23.2m19 34.6c1.6.8 4.2 3.1 5.9 5.2 2.7 3.4 3.1 4.6 3.1 10.1 0 5.3-.4 6.8-2.7 9.9-3.6 4.6-7.9 6.7-13.8 6.7-14.7 0-22.2-16.5-12.6-27.6 5.3-6.1 13-7.7 20.1-4.3M157.3 668.5c-10.4 4.7-17.8 13.9-20.2 25.3-1.7 8.1-1.5 124.9.3 132.2 2.6 11.1 9.4 19.6 19.1 24.2l5 2.3h121l5-2.5c6.4-3.1 13.4-10.1 16.5-16.5l2.5-5v-138l-2.5-5c-3.6-7.4-11.4-14.8-18.3-17.3-5.7-2.2-6.8-2.2-64.5-2.1h-58.7zm115.5 90.7-.3 59.3-50.7.3c-33.7.1-50.8-.1-50.8-.8V700.5c0-.3 23-.5 51-.5h51zm465.2-91c-6.6 2.5-14.5 10.1-18 17.3l-2.5 5v138l2.5 5c3.1 6.4 10.1 13.4 16.5 16.5l5 2.5h122l5-2.9c10.4-6 15.7-13 18.1-24.1 1.9-8.7 1.9-124.6 0-132.5-2.7-11.5-9.7-19.9-20.2-24.6l-5.5-2.4-58.7.1c-57.1 0-58.8.1-64.2 2.1m115 90.5V818c0 .7-17.1.9-50.7.8l-50.8-.3-.3-59.3-.2-59.2 51 .2 51 .3z"/></svg>