<svg xmlns="http://www.w3.org/2000/svg" width="1365.333" height="1365.333" viewBox="0 0 1024 1024"><path d="M199 1c0 .5-.6 1-1.4 1s-2.8 1.7-4.5 3.7L190 9.5V133c0 67.9-.4 124-.8 124.7-.6.9-11.7 1.3-44.7 1.5-49.5.3-45.4-.3-54.7 8.3-2.3 2.2-8.6 7.8-13.8 12.5s-11.7 10.6-14.5 13.1c-2.7 2.5-7.2 6.6-10 9-2.7 2.4-5.2 4.6-5.5 4.9s-4.8 4.3-10 9-9.7 8.7-10 9-4.8 4.3-10 9c-12 10.7-11.2 9.9-13.8 13.7-3.1 4.4-2.9 10.2.4 15.3 4.7 7.1 4 7 48.1 7H90v450.2l2.2 3.9c1.4 2.5 3.6 4.5 6.5 5.9 4 1.9 6.2 2 34.3 2h30l-.7 5.7c-.4 3.2-.8 24.5-.8 47.3 0 43.6-.1 42.3 4.8 55 7.1 18.6 24.1 33.8 44.6 39.7 4 1.2 11.6 1.8 26.5 2.2 19.5.6 21 .7 22 2.6 6.8 12.4 13.4 19.9 23.1 26.4 8.5 5.7 14.3 8.4 21.5 10.1 3 .7 6.5 1.6 7.8 2.1 3 1.2 21.4 1.2 24.4 0 1.3-.5 4.8-1.4 7.8-2.1s6.2-1.6 7-2.1c.8-.4 3.7-1.8 6.3-3 11.4-5.6 24.3-18.2 30.3-29.7l2-3.7L542 982c141-.5 152.7-.6 155.6-2.2 4.7-2.6 6.8-6.5 6.8-12.5 0-5.9-1.9-9.3-7.4-13.1l-3.3-2.2h-61.4c-37.5 0-61.3-.4-61.1-.9s2.6-3.4 5.3-6.3c2.8-2.9 8.8-9.6 13.5-14.8s9.2-10.2 10-11 5.3-5.8 10-11 9.2-10.2 10-11 5.3-5.8 10-11 10.8-12 13.6-15 7.3-8 10-11 7.2-8 10-11 7-7.6 9.4-10.2l4.3-4.8h123.8c87.9 0 125.3-.3 129.1-1.1 12.1-2.6 21.8-10 26.8-20.4l3-6.3v-28.1c0-27.5 0-28.1-2.4-33.5-4.8-10.8-15.4-19.1-27.4-21.5-3.4-.7-30.8-1.1-77.7-1.1-39.9 0-72.5-.3-72.5-.6 0-.7 15.5-17.9 22.2-24.7l3.7-3.8 84.3.3c80.7.3 84.4.4 87.8 2.2 8.1 4.4 12 8.8 14.7 16.6 1 2.7 1.3 27.1 1.3 105.5v101.9l-2.2 7c-4.4 13.9-18.2 24.5-33 25.4l-6.8.4v-3.8c0-4.7-2.1-15-4.5-21.9-5-14.6-13.6-25.7-26.5-34.4-8.1-5.5-12.5-7.3-26.6-11-5.7-1.5-23.8-1.3-30.4.3-23.4 5.8-39.6 18.3-48.8 37.7-3.9 8.1-6.1 16.3-7 25.4l-.7 7-28 .5c-30.6.5-31.4.7-36 6.8-2.9 3.9-2.7 12.7.3 16.9 4.3 6 5.6 6.3 39.5 6.5l30.8.3 3.2 5.7c12.2 21.9 36.8 35.8 63.2 35.8 5.2 0 10.4-.4 11.7-.9s4.8-1.4 7.8-2.1 6.2-1.6 7-2.1c.8-.4 3.7-1.8 6.3-3 11.4-5.6 24.3-18.2 30.3-29.7l2-3.7 11.4-.6c17.3-1 28.1-4.6 39.8-13.4 10.2-7.7 19-19.4 22.7-30.2 4.6-13.4 4.5-9.5 4.5-121.3 0-60-.4-106.9-.9-108.2s-1.5-4.3-2.2-6.8c-3.7-12.6-15.4-26.6-27.2-32.3-10.9-5.4-13.8-5.9-37.4-6.4l-22.3-.5V370h39.5c39.3 0 39.5 0 43-2.3 7-4.5 9.5-14.1 5.3-20-2.6-3.8-1.8-3-13.8-13.7-5.2-4.7-9.7-8.7-10-9s-4.8-4.3-10-9-9.7-8.7-10-9-4.3-3.9-9-8-8.7-7.7-9-8c-.6-.6-7.7-7.1-20.4-18.5-4.9-4.4-10.4-9.1-12.4-10.5l-3.5-2.5-44.6-.5-44.6-.5-.3-124.4L834 9.7l-2.5-3.3C826.2-.6 848.8 0 579.4 0H336.1l-3.5 2.1c-5.1 3-7 6.5-7 12.9-.1 4.2.5 6.3 2.2 8.8 4.8 6.7-14.3 6.2 242.8 6.2H804v229h-74v-41.6c0-40.5-.1-41.7-2.1-45.4-1.2-2.1-3.8-4.7-5.9-5.9l-3.8-2.1H305.7l-4.3 2.5c-2.4 1.4-4.9 3.6-5.6 4.8-1 1.6-1.4 13-1.8 44.7l-.5 42.5-36.7.3-36.8.2V30h30.7c30.6 0 30.6 0 34.7-2.4 9.2-5.4 9.8-16.8 1.4-24L282.6 0h-41.8C213.6 0 199 .3 199 1m501 225.5V259H324v-65h376zm218.3 67.2c2.9 2.7 5.4 5 5.7 5.3s4.3 3.9 9 8 8.7 7.7 9 8c.4.4 12.4 11.2 22.3 20 2 1.8 3.7 3.7 3.7 4.2 0 .4-205.2.8-456 .8s-456-.4-456-.8c0-.5 1.7-2.4 3.8-4.2 8.8-8 21.7-19.5 22.2-20 .3-.3 2.8-2.5 5.5-4.9 2.8-2.4 7.3-6.5 10-9 2.8-2.5 6.9-6.3 9.3-8.4l4.2-3.7h802.1zM293.8 460.3l.2 89.7-86.7-.2-86.8-.3-.3-88.5c-.1-48.7 0-89.1.3-89.8.3-1 18.2-1.2 86.7-1l86.3.3zm202.7-.3v89.5l-86.2.3-86.3.2V370l86.3.2 86.2.3zm203.5 0v90H527v-89.3c0-49.2.3-89.7.7-90 .3-.4 39.3-.7 86.5-.7H700zm203 0v90H730V370h173zm.5 161.5v41L620 663c-227.8.4-284.6.8-289 1.8-3 .7-7.7 1.8-10.5 2.3-25 5-49 15-70.5 29.5-6.3 4.2-11.7 7.9-12 8.3-.3.3-2.3 2-4.5 3.6-6.1 4.6-23.5 22.2-29.7 30-14.9 19.1-23.2 34.3-33 60.8l-1.1 2.7-24.6-.2-24.6-.3-.3-109.5c-.1-60.2 0-110.1.3-110.8.3-1 79.2-1.2 391.7-1l391.3.3zm-141 73.1c0 .6-4.3 5.8-9.6 11.5s-10.7 11.6-12 13.2l-2.4 2.7-236.5-.2-236.5-.3 5-3.2c9.9-6.2 25-13.3 35-16.5 14.4-4.5 25.3-6.7 38.5-7.7 16.1-1.3 418.5-.8 418.5.5m-430.7 58.6c1.6 1.6 1.7 48.4.1 49.4-.6.3-7.8.8-16.1 1-14.4.3-22.8 1.3-31.3 3.6-23.9 6.4-38.2 15.6-53.1 34.1-3.6 4.4-7.5 8.7-8.7 9.7-8.7 6.9-29.4 11.8-31.1 7.3-1.3-3.2 1-23.1 4.1-36.3 5.4-23.1 17.4-47.7 32.1-65.8l3.4-4.2h49.7c37.3 0 50 .3 50.9 1.2m99.7 24.8v25.5l-32 .3c-17.6.1-33 0-34.2-.3l-2.3-.5v-24.9c0-19 .3-25.1 1.3-25.4.6-.3 16.1-.5 34.2-.4l33 .2zm99 0v25.5h-68l-.3-24.5c-.1-13.4 0-25 .3-25.7.3-1.1 7.5-1.3 34.2-1.1l33.8.3zm99 0v25.5l-32.9.3c-23.4.2-33.3-.1-34.2-.9-1.9-1.6-2-47.9-.2-49.7.9-.9 9.4-1.2 34.3-1l33 .3zm99.3-24.8c1.7 1.7 1.7 47.9 0 49.6s-65.9 1.7-67.6 0c-.9-.9-1.2-7.8-1.2-24.8s.3-23.9 1.2-24.8c1.7-1.7 65.9-1.7 67.6 0m99 0c1.8 1.8 1.7 48.1-.2 49.7-.9.8-10.8 1.1-34.2.9l-32.9-.3-.3-24.5c-.1-13.4 0-25 .3-25.7.6-1.8 65.5-1.9 67.3-.1m99.2.3 3 1.6v45.8l-3 1.6c-2.5 1.3-7.8 1.5-35.2 1.3l-32.3-.3-.3-24.5c-.1-13.4 0-25 .3-25.7.3-1 7.5-1.3 32.5-1.3 26.8 0 32.6.3 35 1.5m-291 81.1c0 .4-.8 1.4-1.7 2.3-1 .9-4 4.1-6.7 7.1s-7.2 8-10 11-7.3 8-10 11-7.2 8-10 11-8.9 9.8-13.6 15-10.8 12-13.6 15-7.3 8-10 11-7.2 8-10 11c-5.1 5.5-11.2 12.3-17.4 19.3l-3.3 3.7-66.6-.2-66.6-.3-.6-6c-.6-5.9-3.5-18.6-4.9-21.5-.4-.8-1.4-2.9-2.1-4.5-4.3-9.6-14.1-20.9-23.8-27.4-8.3-5.5-12.6-7.3-26.7-11-2.3-.6-8.8-1.1-14.5-1.1-36.3.2-63.8 22.7-70.8 58-.6 3-1.2 7.3-1.4 9.5l-.2 4-14.5.3c-12.8.2-15.2 0-20.5-1.9-10.2-3.7-16.8-9.7-21.7-19.8-3.1-6.4-3.2-7-3.6-23.4l-.4-16.7h4.3c2.4 0 7.3-.5 10.9-1 21.3-3.3 36.6-12.2 48.4-28.3 8.6-11.8 22.2-20.6 37.8-24.6 7-1.9 14.2-1.9 175.6-2 92.5-.1 168.2.2 168.2.5m-297.3 77.5c17.5 6.5 27.3 20.9 27.3 40.1 0 28.4-27.9 48.6-55 39.7-13.3-4.3-21.7-12.9-27.9-28.2-.6-1.5-1.1-6.7-1.1-11.4 0-20 10.7-34.9 29.5-41.1 1.7-.6 7.1-1.1 12.2-1.1 7.1-.1 10.5.4 15 2m555.7 0c17.4 6.2 27.6 21.2 27.6 40.5 0 22.7-19 41.4-42.1 41.4-17.7 0-33.8-11.4-40-28.4-2.2-5.8-2.6-20.1-.8-25.7 4.4-13.7 14.7-24.2 28.4-28.7 5.7-1.9 20.3-1.4 26.9.9m-577.2 26.6c-9.2 4.5-10.6 17.2-2.7 24.2 3.1 2.7 4.3 3.1 9.5 3.1 5.6 0 6.2-.2 9.9-3.9 12.1-12.1-1.3-31-16.7-23.4m556 0c-6.8 3.3-9.7 11.1-6.8 18.6 2.3 5.9 6.7 8.7 13.9 8.7 5.3 0 6-.3 9.7-4 4-4 4.6-5.9 4.1-12.9-.7-9.3-11.9-14.9-20.9-10.4M348.5 83.4c-1.7.7-4.3 2.8-5.8 4.5-2.2 2.7-2.7 4.2-2.7 8.7 0 7 2 10.9 7 13.4 3.7 1.9 5.8 2 34.8 2 30.5 0 31 0 34.3-2.3 9.7-6.4 8.6-21.9-1.8-26.2-4.9-2.1-61.2-2.1-65.8-.1m129.6.7c-4.2 2.6-5.3 3.7-6.9 7.2-2.7 6.3-.2 14.4 5.7 18.4 3.4 2.3 3.8 2.3 34.1 2.3 24.3 0 31.5-.3 34.1-1.4 11.2-4.7 11.7-20.4.9-26.5-3.6-2-5.1-2.1-34.1-2.1s-30.6.1-33.8 2.1m131-.3c-5.6 2.8-7.6 6.4-7.6 13.7 0 5.4.4 6.8 2.5 9 5.1 5.4 5.5 5.5 38.5 5.5 33.8 0 34.2-.1 38.9-6.3 3.7-4.8 3.7-12.6 0-17.4-4.6-6-6.3-6.3-39.3-6.3-25.8.1-30 .3-33 1.8"/></svg>