<svg xmlns="http://www.w3.org/2000/svg" width="1365.333" height="1365.333" viewBox="0 0 1024 1024"><path d="M297.8 33.3c-7.4 3.4-9.8 8.5-9.8 21.3V64h-25.4c-27.2 0-30 .4-34.2 5.2-4.5 5.1-4.4 2.8-4.4 108.6 0 105.9 0 106.8 4.5 119.7 2.6 7.6 7.8 17.7 10 19.5.8.7 1.2 1.6.9 2.1-.5.9-147.7 1.3-148.6.4-.3-.3 6.5-14.6 15.1-31.8l15.6-31.2 29.5-.5c16.2-.3 30.4-.9 31.5-1.4 5.3-2.4 9.5-8.9 9.5-14.6 0-3.8-2.4-9.1-5.2-11.6-4.8-4.2-6.4-4.4-42.7-4.4-37.4 0-39.3.2-43.7 5.2C96.7 233.3 48 332.3 48 335.7c0 6.4 3.3 11.4 9.7 14.7 2.9 1.5 39.6 1.6 444.8 1.6H944v32H502.5c-339.2 0-442.1.3-444.2 1.2-4.1 1.7-7.3 4.8-8.9 8.7-1.7 4.1-2 43.6-.3 50.9 4.6 20.5 11.5 33.1 25 45.7l5.9 5.4v81.4c0 87.7-.1 85.6 5.2 90.3 3 2.7 7.2 4.4 10.7 4.4 5.8 0 12.3-4.2 14.7-9.5.5-1.1 1.1-35.8 1.4-77 .4-66 .7-75 2-74.6.8.2 5.7.6 10.8.9 8.7.4 16.1-.5 25.2-3 12.6-3.4 25.6-11.5 35.3-21.7 3.2-3.3 6.2-6.1 6.7-6.1s3.2 2.5 6.1 5.5c10.2 10.7 23.4 18.9 36.4 22.3 9.6 2.6 13.9 3.2 21.5 3.2 21.6 0 42.5-9.2 57.9-25.5 2.9-3 5.6-5.5 6.1-5.5s3.2 2.5 6.1 5.5c10.2 10.7 23.4 18.9 36.4 22.3 9.6 2.6 13.9 3.2 21.5 3.2 21.6 0 42.5-9.2 57.9-25.5 2.9-3 5.6-5.5 6.1-5.5s3.2 2.5 6.1 5.5c10.2 10.7 23.4 18.9 36.4 22.3 9.6 2.6 13.9 3.2 21.5 3.2 21.6 0 42.5-9.2 57.9-25.5 2.9-3 5.6-5.5 6.1-5.5s3.2 2.5 6.1 5.5c12.1 12.8 25.6 20.2 43.9 24.1 12.4 2.7 21 1.4 25.6-3.8 9.8-11.2 2.1-26.8-13.4-26.8-10.7 0-23.2-5.8-32.2-15-10.6-10.7-14-20-14-38v-11h96v11.7c0 12.1 1.4 22 4.5 30.8 7.7 22.1 27.1 41.5 48.7 48.9 30.7 10.3 62.6 2.4 84.7-20.9 2.9-3 5.6-5.5 6.1-5.5s3.5 2.8 6.7 6.1c16 16.9 37.9 25.8 60.5 24.7 5.1-.3 10-.7 10.8-.9 1.3-.4 1.6 13 2 114.6.3 64.7.9 115.9 1.4 117 2.4 5.3 8.9 9.5 14.6 9.5 6.1 0 12.2-4.2 14.8-10.3.9-2.1 1.2-32.5 1.2-124.1V496.4l8.8-9c12.2-12.5 17.6-23.1 22.1-42.7.7-3.1 1.1-23.3 1.1-58.4v-53.7L950.8 282c-13.8-27.8-26.1-51.6-27.2-52.8-4.5-5.1-5.8-5.2-50.2-5.2H832v-73.5c0-54.5-.3-74.1-1.2-76.2-4.5-10.7-17-13.5-25.6-5.9-5.4 4.7-5.2 1-5.2 109.4 0 70.1-.3 101.7-1.1 104.6-4.8 17.9-18.5 31.6-36.5 36.5-4.7 1.3-173.4 1.6-173.4.3 0-.7 9.4-5.2 11.1-5.2.5 0 1.7-.4 2.7-.9 8-4.1 25.7-9.3 43.7-12.9 10.9-2.2 20.4-3.6 36.5-5.1 5.8-.6 15.2-1.5 21-2.1s14.8-1.5 20-2c34.9-3.5 34.1-3.3 38.8-7.5 5.4-4.7 5.2.3 5.2-123.5s.2-118.9-5.2-123.5c-5.6-4.8-9.1-5.4-23-3.6-4 .6-12.5 1.5-18.8 2.1-11.8 1.1-24.1 2.3-41.5 4.1-14.7 1.4-26.5 2.9-31 3.9-2.2.5-6.7 1.4-10 2.1-14.4 2.9-37.7 9.7-46.4 13.5-2 .9-4.5 1.9-5.6 2.4-14.4 5.5-38.1 17.9-51.4 26.9-3.3 2.3-6.5 4.1-7.1 4.1s-3.8-1.8-7.1-4.1c-13.2-8.9-37.8-21.8-52.4-27.4-3.8-1.5-7.9-3.1-9-3.5-2.6-1.1-12.7-4.4-18.5-6-2.5-.7-5.6-1.6-7-2-2.4-.8-7.7-2-16.2-3.9-10.5-2.3-25.4-4.4-42.8-6.1-6.3-.6-15.5-1.5-20.5-2-4.9-.5-14.2-1.4-20.5-2s-14.8-1.5-18.8-2.1c-9.3-1.2-14-1-17.4.4m36.4 33.6c4 .6 12.5 1.5 18.8 2.1 49.9 4.7 69.2 8.4 97.5 18.8 12.5 4.6 29.5 12.5 39 18.2 2.8 1.7 5.7 3.3 6.5 3.7s4.8 2.8 8.8 5.5l7.2 4.9v185l-2.2-.7c-1.3-.3-3.4-1.4-4.8-2.4-4.3-3-29.9-15.1-39-18.5-2.5-.9-5.4-2.1-6.5-2.5-4.9-2.1-24.3-7.9-32.5-9.8-21.5-5-26.8-5.7-72.2-10.2-5.4-.6-14.2-1.5-19.5-2-5.4-.6-10.9-1.1-12.3-1.3l-2.5-.2-.3-95.8L320 66h3.5c1.9 0 6.7.4 10.7.9M736 161.5c0 75.6-.3 95.6-1.2 95.9-1.4.4-14.3 1.9-32.3 3.6-46 4.5-47.7 4.7-68 9.1-5.5 1.1-11.1 2.5-12.5 2.9s-4.5 1.3-7 2c-9.4 2.7-25.7 8.4-32.7 11.6-10.9 4.9-29.1 13.9-31.3 15.4-1.4 1-3.5 2.1-4.7 2.4l-2.3.7V120l7.6-5c4.1-2.7 7.7-5 8-5 .2 0 3.2-1.7 6.7-3.8 7.3-4.4 19.9-10.6 31.7-15.4C629 78 651 73.7 713.9 68c6.3-.5 11.7-1.2 11.9-1.5.3-.3 2.7-.5 5.4-.5h4.8zm-448 23.9c0 96.3-.1 93.6 5.2 98.1 3.8 3.3 6.6 4.5 10.3 4.5 2 0 6.6.4 10.3 1 3.7.5 12.1 1.4 18.7 2s16.1 1.5 21 2c5 .5 13.7 1.4 19.5 2 32 3.3 57.3 8.7 75.5 16 1.1.5 3.8 1.5 6 2.3 7.4 2.8 12.5 5.2 12.5 5.9 0 1.3-168.6 1-173.4-.3-2.2-.6-7-2.5-10.6-4.2-7.7-3.6-18.3-13.8-21.8-20.9-5.3-10.8-5.2-8.9-5.2-106.8V96h32zm630.1 102.3c8.6 17.2 15.4 31.5 15.1 31.8-.9.9-116.1.5-116.6-.4-.3-.5.1-1.4.9-2.1 2.2-1.8 7.4-11.9 10-19.5 3-8.7 4.5-18.6 4.5-30.3V256l35.2.2 35.3.3zM176 427.1c0 6.2-.5 13-1.1 15.3-5.8 21.8-25.6 37.6-46.9 37.6-12.5 0-24.4-5.2-34-15-10.6-10.7-14-20-14-38v-11h96zm128 0c0 6.2-.5 13-1.1 15.3-5.8 21.8-25.6 37.6-46.9 37.6-12.5 0-24.4-5.2-34-15-10.6-10.7-14-20-14-38v-11h96zm128 0c0 6.2-.5 13-1.1 15.3-5.8 21.8-25.6 37.6-46.9 37.6-12.5 0-24.4-5.2-34-15-10.6-10.7-14-20-14-38v-11h96zm128 0c0 6.2-.5 13-1.1 15.3-5.8 21.8-25.6 37.6-46.9 37.6-12.5 0-24.4-5.2-34-15-10.6-10.7-14-20-14-38v-11h96zm256 0c0 6.2-.5 13-1.1 15.3-5.8 21.8-25.6 37.6-46.9 37.6-12.5 0-24.4-5.2-34-15-10.6-10.7-14-20-14-38v-11h96zm128 0c0 6.2-.5 13-1.1 15.3-5.8 21.8-25.6 37.6-46.9 37.6-12.5 0-24.4-5.2-34-15-10.6-10.7-14-20-14-38v-11h96zm-582.7-305c-4.8 2.3-6.8 5-8.4 11.1-1.1 4-1 4.9 1.3 9.3 3.4 6.9 6.7 8.5 21.2 10.6 30.1 4.3 56.1 12 80 23.5 4.6 2.2 12.7 1.8 16.6-.9 7.1-4.8 9.1-15.5 4.2-22.4-1.9-2.7-11.1-8-19.7-11.4-13-5-23.5-8.6-31.5-10.9-2.5-.7-5.6-1.6-7-2-5.3-1.7-17-4.2-28.5-6-3.8-.6-9.4-1.6-12.4-2.1-8-1.3-11.1-1.1-15.8 1.2m-.9 64.4c-7.2 4.3-9.8 12.5-6.4 19.9 3.1 6.5 7.8 9 20 10.5 28.6 3.6 54.8 11.3 82 23.9 1.9.9 5.8 1.6 8.7 1.6 14.6-.3 20.8-19.1 9.1-27.7-12.4-9-54.4-23.1-82.8-27.6-23.8-3.9-25.1-3.9-30.6-.6M677 121.1c-18 2.9-18.3 2.9-32 6.1-21.9 5-53.9 17-62.8 23.5-8.2 6.1-8 18.5.3 24.9 4.3 3.2 12.1 3.8 17.5 1.2 15.1-7 28.2-12 38.5-14.8 1.7-.5 5.5-1.5 8.5-2.3 8.7-2.4 24.7-5.5 35-6.8 6.3-.8 10.9-2 13.6-3.5 10.3-5.8 10.3-20.9-.1-26.9-4.5-2.7-8.5-3-18.5-1.4m0 64c-18 2.9-18.3 2.9-32 6.1-21.9 5-53.9 17-62.8 23.5-8.2 6.1-8 18.5.3 24.9 4.3 3.2 12.1 3.8 17.5 1.2 15.1-7 28.2-12 38.5-14.8 1.7-.5 5.5-1.5 8.5-2.3 8.7-2.4 24.7-5.5 35-6.8 6.3-.8 10.9-2 13.6-3.5 10.3-5.8 10.3-20.9-.1-26.9-4.5-2.7-8.5-3-18.5-1.4M153.8 561.3c-1.4.7-3.6 2.1-4.8 3.2-5.3 4.8-5-5.5-5 194.1V944h-32V830.5c0-85.5-.3-114.1-1.2-116.2-5.8-13.5-23.8-13.5-29.6 0-1.7 4-1.7 247.4 0 251.4 1.7 4.1 4.8 7.3 8.7 8.9 5 2.1 839.2 2.1 844.2 0 3.9-1.6 7-4.8 8.7-8.9 1.7-4 1.7-167.4 0-171.4-5.8-13.5-23.8-13.5-29.6 0-.9 2.1-1.2 21.7-1.2 76.2V944H432V758.5c0-141.2-.3-186.1-1.2-188.2-.6-1.5-2.1-3.9-3.2-5.1-4.8-5.4 1.6-5.2-140-5.1-98.5 0-131.8.4-133.8 1.2M272 672v80h-9.4c-10.2 0-14.8 1.3-18.2 5.2-5.8 6.6-5.8 15 0 21.6 3.4 3.9 8 5.2 18.2 5.2h9.4v32h-96V592h96zm128 32v112h-96v-32h9.4c12.9 0 18.1-2.5 21.4-10.3 3.2-7.6-.8-17-8.7-20.3-2.1-.9-6.9-1.4-12.7-1.4H304V592h96zM272 896v48h-96v-96h96zm128 0v48h-96v-96h96zm-182.2-14.7c-13.1 5.9-12.8 23.8.5 29.5 7.7 3.3 17-.8 20.5-9.1 5.3-12.5-8.5-25.9-21-20.4m128 0c-13.1 5.9-12.8 23.8.5 29.5 7.7 3.3 17-.8 20.5-9.1 5.3-12.5-8.5-25.9-21-20.4m128-320c-3.9 1.8-6.8 4.7-8.4 8.6-2.1 5-2.1 263.2 0 268.2 1.6 3.9 4.8 7 8.9 8.7 4 1.7 391.4 1.7 395.4 0 4.1-1.7 7.3-4.8 8.9-8.7 2.1-5 2.1-263.2 0-268.2-1.6-3.9-4.8-7-8.9-8.7-4.4-1.9-103.3-1.7-107.8.2-12.9 5.4-12.9 23.8 0 29.2 2.7 1.1 11.3 1.4 44.7 1.4H848v128h-64v-33.5c0-34.8-.2-36.5-4.4-41.3-4.4-5-6.3-5.2-43.7-5.2-36.3 0-37.9.2-42.7 4.4-4.5 4-5.2 7.6-5.2 26.2V688h-41.4c-44.4 0-45.7.1-50.2 5.2-3.5 4-4.4 7.6-4.4 17.3v9.5h-25.4c-27.2 0-30 .4-34.2 5.2-4.3 4.9-4.4 6.1-4.4 49.3V816h-32V592h44c24.2 0 44 .3 44 .8 0 .4-12 12.6-26.6 27.2-15.4 15.5-27.1 27.9-28 29.9-5.5 13 7.7 26.2 20.7 20.7 2.1-.9 18.7-16.9 41.9-40l38.5-38.6h38.2c39.9 0 41.2-.1 46.1-4.4 8.6-7.6 5.8-21.8-5.1-26.4-4-1.7-232-1.6-235.9.1M752 688v16h-32v-32h32zm-64 48v16h-64v-32h64zm64 16v16h-32v-32h32zm-160 32v32h-32v-64h32zm256-24v8h-9.4c-12.9 0-18.1 2.5-21.4 10.3-3.2 7.6.8 17 8.7 20.3 2.1.9 6.9 1.4 12.7 1.4h9.4v16h-64v-64h64zm-160 40v16h-64v-32h64zm64 8v8h-32v-16h32z"/></svg>