<svg xmlns="http://www.w3.org/2000/svg" width="1365.333" height="1365.333" viewBox="0 0 1024 1024"><path d="M507.6 51.7c-1 .3-3.4 1.3-5.2 2.3-1.8 1.1-10.8 5.8-20.1 10.6-9.2 4.7-19.9 10.3-23.8 12.4-3.8 2-14.2 7.5-23 12s-19.1 9.9-23 12c-3.8 2-10.7 5.6-15.3 8-10.5 5.4-13.6 9.1-13.6 16.4 0 8.7 5.8 14.6 14.5 14.6 4.2 0 7.2-1.3 30.4-13.5 5.5-2.9 15.9-8.3 23-12 12.3-6.4 21-10.9 47.2-24.6 6.2-3.3 12.2-5.9 13.4-5.9 1.8 0 14.6 6.4 41.4 20.5 4.4 2.3 14.8 7.7 23 12 8.3 4.3 18.6 9.7 23 12s13.9 7.3 21 11c7.2 3.7 18 9.3 24 12.5 6.1 3.2 16.3 8.5 22.8 11.9 6.4 3.3 16.8 8.7 23 12 6.1 3.2 17.1 8.9 24.2 12.6 7.2 3.7 15 7.9 17.5 9.4l4.5 2.6 48.5.5 48.5.5v29l-52.8.3-52.7.2-12.8-6.6c-7-3.7-17.9-9.4-24.2-12.7s-16.9-8.8-23.5-12.2-17.3-9-23.7-12.4c-6.5-3.3-17.1-8.9-23.5-12.2-6.5-3.4-17.4-9.1-24.3-12.6-6.9-3.6-16.5-8.7-21.5-11.3-44.4-23.4-59.6-31-62.5-31-2.4 0-12 4.6-37.2 17.8-6.5 3.4-17.1 9-23.5 12.3-6.5 3.4-16.9 8.8-23 12-6.2 3.3-16.6 8.7-23 12-27.3 14.2-34.4 18-45.8 23.9-6.6 3.4-16 8.4-21 11-4.9 2.6-16.5 8.6-25.7 13.4l-16.7 8.6-52.8-.2-52.8-.3v-29l48.5-.5 48.5-.5 4.5-2.6c2.5-1.4 11.3-6.1 19.5-10.4 17.7-9.2 29.4-15.3 38.8-20.2 10.8-5.7 14.6-14.7 9.5-22.3-5.5-8-13.9-9.7-22.8-4.8-2.5 1.4-10.2 5.5-17.2 9.2-7.1 3.6-19 9.9-26.5 13.8l-13.8 7.3-49 .5-49 .5-4.9 2.9c-7.9 4.6-12.4 9.7-14.8 16.7-.7 1.9-1.5 11.5-1.8 21.4l-.5 18-69 .5-69 .5-5 2.9C10.4 238 4.7 243.9 3 248.2c-.6 1.8-1.6 4.1-2.1 5-.5 1-.9 11.3-.9 22.9v21.1l3 6.4c2 4.1 4.6 7.6 7.5 10l4.5 3.6V342c0 27.4.2 29.6 3.3 33.1 4.7 5.2 5.3 5.4 21.1 5.9l15.1.5v501l-16 .6c-14.1.5-16.6.8-20.9 2.9-6.1 2.9-11.8 8.5-14.1 13.6-.9 2.1-2.1 4.7-2.6 5.6-.5 1-.9 14.2-.9 29.3V962l2.5 3.9c1.4 2.1 3.7 4.4 5.2 5.2 3.9 2.1 1004.7 2.1 1008.6 0 1.5-.8 3.8-3.1 5.2-5.2l2.5-3.9v-27.5c0-15.1-.4-28.3-.9-29.3-.5-.9-1.7-3.5-2.6-5.6-2.3-5.1-8-10.7-14.1-13.6-4.3-2.1-6.8-2.4-20.9-2.9l-16-.6v-501l15.1-.5c15.8-.5 16.4-.7 21.1-5.9 3.1-3.4 3.3-5.7 3.3-32.9v-24.5l5.3-5.1c2.9-2.9 5.9-6.8 6.6-8.6.7-1.9 1.7-4.3 2.2-5.2 1.2-2.3 1.2-43.3 0-45.6-.5-.9-1.9-3.9-3.2-6.6-2.4-4.9-7.5-9.8-13.9-13.2-3.3-1.8-7.5-1.9-72.5-2.4l-69-.5-.5-18c-.3-9.9-.9-18.9-1.4-20-4.1-9.9-8.2-14.6-16.6-19.1-3.2-1.8-7.1-1.9-52.5-2.4l-49-.5-14.5-7.6c-8-4.2-19.4-10.3-25.5-13.4-18.4-9.6-32.4-16.9-45-23.5-6.6-3.4-16.5-8.6-22-11.5s-15.8-8.3-23-12c-7.1-3.7-17.5-9.1-23-12s-15.8-8.3-23-12C556 72 540.9 64.1 525.1 55.8c-7.2-3.7-13.5-5.3-17.5-4.1m8.4 102.6c1.4.8 9 4.8 17 8.9 8 4.2 19.5 10.2 25.5 13.3 28.3 14.8 33.8 17.7 46 24 7.2 3.7 17.5 9.1 23 12s15.2 7.9 21.5 11.2 16.7 8.7 23 12 17.4 9.1 24.5 12.8c7.2 3.7 15 7.9 17.5 9.4l4.5 2.6 50 .5 50 .5v29h-613v-29l50-.5 50-.5 5.5-3.1c5.4-3.1 15.1-8.2 41.5-21.9 7.2-3.7 17.5-9.1 23-12s15.9-8.3 23-12c7.2-3.7 17.5-9.1 23-12s15-7.8 21-11c6.1-3.1 17.5-9.1 25.5-13.3 37-19.3 42.6-22.1 44-22.2.8 0 2.6.6 4 1.3M175 286.6c.5 25.6.6 26 4.5 29.9 3.7 3.7 4.9 4 19.9 4.5l15.1.5v29h-169v-29l45.1-.5c48.6-.5 46-.2 51.1-5.9 4.1-4.6 4.1-13.6 0-18.2-5.2-5.7-1.8-5.4-58.6-5.9l-52.6-.5-.3-13.4c-.1-7.4 0-14.1.2-14.8.4-1.1 14-1.3 72.3-1.1l71.8.3zM993.5 276v14.5h-144l-.3-13.4c-.1-7.4 0-14.1.2-14.8.4-1.1 14-1.3 72.3-1.1l71.8.3zm-719 296v250.5h-29l-.3-249.5c-.1-137.2 0-250.1.3-250.8.3-1 3.9-1.2 14.7-1l14.3.3zM719 424l.5 102.5 2.3 3.3c3 4.1 7 6.2 12.2 6.2s9.2-2.1 12.2-6.2l2.3-3.3.5-102.5.5-102.5h29v501h-29l-.5-123.2-.5-123.1-3-3.8c-4.1-5-9.6-6.9-15-5.4-4.1 1.2-7.8 4-9.8 7.5-.9 1.5-1.3 34.4-1.7 125l-.5 123-30.2.3-30.3.2V715.1c0-113.5.1-110.8-4.4-115.9-4.8-5.4 1.7-5.2-141.5-5.2-122.8.1-132.9.2-136 1.8-1.9.9-4.4 3-5.5 4.5-2.1 2.8-2.1 3.3-2.6 112.5l-.5 109.7h-62l-.3-249.5c-.1-137.2 0-250.1.3-250.8.3-1 42.2-1.2 206.7-1l206.3.3zm259.5-88v14.5h-169l-.3-13.4c-.1-7.4 0-14.1.2-14.8.4-1.1 16.2-1.3 84.8-1.1l84.3.3zm-864 296v250.5h-29L85.2 633c-.1-137.2 0-250.1.3-250.8.3-1 3.9-1.2 14.7-1l14.3.3zm100-30v220.5l-8.6.7c-13.8 1-22.6 6.5-27.9 17.3-2.2 4.6-2.5 6.6-3 23.5l-.5 18.5h-29l-.3-249.5c-.1-137.2 0-250.1.3-250.8.3-1 7.8-1.2 34.7-1l34.3.3zm664 30v250.5h-29L849 864c-.5-16.9-.8-18.9-3-23.5-5.3-10.8-14.1-16.3-27.9-17.3l-8.6-.7-.3-219.5c-.1-120.7 0-220.1.3-220.8.3-1 7.8-1.2 34.7-1l34.3.3zm60 0v250.5h-29l-.3-249.5c-.1-137.2 0-250.1.3-250.8.3-1 3.9-1.2 14.7-1l14.3.3zm-442 91.5v99l-49.2.3-49.3.2V624l49.3.2 49.2.3zm131 0v99h-100l-.3-98c-.1-53.9 0-98.6.3-99.3.3-1 10.9-1.2 50.2-1l49.8.3zm191 144.5v14.5l-177.1.5c-155.3.4-177.3.7-179 2-3.9 3-6.3 6.4-6.9 9.7-1.2 6.5.9 11.6 6.9 16.3 1.7 1.3 33.4 1.6 266.5 2l264.6.5v29h-963v-29l192.6-.5c169.1-.4 192.8-.7 194.5-2 6-4.7 8.1-9.8 6.9-16.3-.6-3.3-3-6.7-6.9-9.7-1.7-1.3-15.7-1.6-107-2l-105.1-.5-.3-13.4c-.1-7.4 0-14.1.2-14.8.4-1.1 56-1.3 306.8-1.1l306.3.3zM495 351.9c-4.7.4-9.8 1.1-11.5 1.5-1.6.4-5 1.2-7.5 1.8-6.4 1.5-18.6 5.5-23.6 7.8-2.4 1.1-6.3 2.8-8.6 3.9-2.4 1-6.4 2.8-8.9 3.9-20.9 9.4-33.3 12.5-57.1 14.1-15.4 1.1-18.2 2.2-21.2 8.5-4.2 8.9.9 19.3 10.3 21.2 1.7.4 3.4 1 3.6 1.5.3.4-.4 3.4-1.5 6.6-1.2 3.2-2.8 7.8-3.6 10.3s-1.9 5.4-2.4 6.5-1.6 4-2.4 6.5-2.9 8.3-4.6 13-3.9 10.6-4.7 13.2l-1.6 4.8-5.1-.5c-9.8-1-16.6 5.2-16.6 15.2 0 5.3.2 5.6 5.4 10.6 5.8 5.6 18.5 12.6 30.1 16.5 8.4 2.9 14.9 3.7 30 3.7 10.4 0 17.8-.5 21-1.4 17.2-4.6 30.6-11.3 38.3-18.8 5.1-5 5.2-5.3 5.2-10.9 0-4.6-.5-6.4-2.6-9.1-3.4-4.5-8.6-6.6-14.5-5.9l-4.6.6-2.6-7.7c-1.4-4.3-4-11.6-5.7-16.3s-3.8-10.5-4.6-13-1.9-5.4-2.4-6.5c-1-2.4-5.8-15.8-7-19.8-.6-1.9-.5-2.9.3-3.3.7-.2 4.6-1.5 8.7-2.8 8.3-2.7 15.9-5.6 23.5-9.1 23.2-10.6 28.3-12.5 42.3-15.6 2.9-.6 5.9-.8 6.7-.5 1.3.5 1.5 10.1 1.5 76.1V534h-13.7c-11.7 0-14.3.3-17.9 2-5.2 2.6-7.4 5.7-8 11.8-.6 5.8 1.6 10.7 6.5 13.9l3.4 2.3h89.4l3.4-2.3c4.9-3.2 7.1-8.1 6.5-13.9-.6-6.1-2.8-9.2-8-11.8-3.6-1.7-6.2-2-17.9-2H527l.2-75.7c.3-74.2.3-75.8 2.2-76.1 2-.4 9.1.9 17.6 3.3 5.4 1.5 16.5 6 27.5 10.9 14.8 6.8 23.9 10.3 32.8 12.7 2.6.7 4.7 1.8 4.7 2.4 0 .5-1.2 4.2-2.6 8-1.4 3.9-3.2 9-4 11.5s-1.9 5.4-2.4 6.5-1.6 4-2.4 6.5-2.9 8.3-4.6 13c-4.1 11.2-7 19.4-7 19.7 0 .2-2.2.1-5-.3-9.7-1.3-17.8 6.6-16.7 16.2.6 6.1 2.6 8.6 11 14.2 18.5 12.3 35.9 16.9 59.2 15.9 18.9-.9 35-6.1 49.4-16 5.7-3.9 6.5-4.6 9-8.8 6.2-10.1-3.2-22.7-16-21.7l-4.4.3-2.1-6c-1.1-3.3-2.3-6.7-2.7-7.5-.3-.8-1.3-3.5-2.1-6s-2.9-8.3-4.6-13-3.8-10.5-4.6-13-1.9-5.4-2.3-6.5c-3.8-9.1-3.8-9 1.9-10 3-.5 4.9-1.7 7.5-4.8 3.1-3.6 3.5-4.7 3.5-9.9 0-5.4-.3-6.1-3.9-9.7-4.3-4.3-5.3-4.5-23.6-5.6-16.3-.9-31.9-4.7-46-11-7.3-3.3-14.6-6.6-27-12-5.9-2.6-19.2-6.4-29.5-8.4-7.3-1.4-34.3-2.1-45-1.2m-100.1 97.8c.7 2.1 1.6 4.7 2.1 5.8s1.6 4 2.4 6.5 2.9 8.3 4.6 13c4.8 12.8 5.3 15.1 4 16.4-1.5 1.5-28.5 1.5-30.1-.1-.8-.8-.6-2.5.9-7 1.2-3.2 3.3-9.2 4.7-13.3 1.5-4.1 3-8.4 3.5-9.5s1.9-5 3.1-8.8c1.3-3.7 2.6-6.7 2.9-6.7s1.2 1.7 1.9 3.7m240.3 2.5c1.7 5.4 3.3 10.1 8.9 24.8 1.7 4.7 3.4 9.9 3.6 11.6.5 3.1.4 3.1-4.9 3.7-6.6.8-15.9.8-21.8-.1-5.5-.9-5.5-1.3-1-13.2 1.7-4.7 4-11 5-14 4.7-14 6.5-18 7.8-18 .4 0 1.5 2.4 2.4 5.2"/></svg>