<svg xmlns="http://www.w3.org/2000/svg" width="1365.333" height="1365.333" viewBox="0 0 1024 1024"><path d="M11 69.2c-3.8 1-9 5.4-9 7.5 0 .7-.4 1.3-1 1.3-.5 0-1 2.5-1 5.5S.5 89 1 89c.6 0 1 .7 1 1.5s1.6 2.7 3.5 4.2L9 97.5l403.2.5 403.3.5.3 38.2.2 38.3H577.6c-131.1 0-239.8.3-241.5.6-1.7.4-4.7 2.2-6.5 4-7.1 7.1-5.4 18.5 3.4 23.5 2.1 1.2 23.6 1.5 135 1.9l132.5.5.3 52c.1 28.6 0 52.9-.2 54-.3 1.3-2 2.6-4.3 3.4-2.1.8-6.6 2.7-10.1 4.2-3.4 1.6-6.5 2.9-6.7 2.9s-3.4 1.3-7 3c-3.6 1.6-6.8 3-7 3s-3.4 1.3-7 3c-3.6 1.6-6.8 3-7 3-.3 0-2.7 1-5.3 2.1-2.6 1.2-6 2.7-7.7 3.4-5.5 2.3-10 4.2-14.7 6.4-2.6 1.1-5 2.1-5.3 2.1-.2 0-3 1.2-6.2 2.6s-7.1 3.2-8.8 3.9c-1.6.7-5.1 2.2-7.7 3.4-2.6 1.1-5 2.1-5.3 2.1-.2 0-3.4 1.3-7 3-3.6 1.6-6.8 3-7 3s-3.4 1.3-7 3c-3.6 1.6-6.8 3-7 3s-3.4 1.3-7 3c-3.6 1.6-6.8 3-7 3s-2.8 1.1-5.7 2.4c-12.7 5.8-17.9 7.5-19.6 6.6-2.3-1.3-15.1-7-15.7-7-.3 0-2.5-.9-5-2s-6.5-2.9-9-4-4.7-2-5-2c-.2 0-3.4-1.4-7-3-3.6-1.7-6.8-3-7-3s-3.4-1.4-7-3c-3.6-1.7-6.8-3-7-3s-3.4-1.4-7-3c-3.6-1.7-6.8-3-7-3-.3 0-2.7-1-5.3-2.1-6-2.7-8.5-3.8-20.7-8.9-5.5-2.4-12-5.1-14.5-6.2s-5.8-2.6-7.5-3.3c-1.6-.7-5.1-2.2-7.7-3.4-2.6-1.1-5-2.1-5.3-2.1-.2 0-3.4-1.4-7-3-3.6-1.7-6.8-3-7-3s-3.4-1.4-7-3c-3.6-1.7-6.8-3-7-3s-3.3-1.3-6.7-2.8c-3.5-1.6-7.8-3.4-9.6-4.1l-3.2-1.4.2-51.1.3-51.1 23.5-.5c22.3-.5 23.7-.6 26.6-2.7 8.3-5.9 8.3-18.7 0-24.6l-3.1-2.2h-138c-132.1 0-138.1.1-140.7 1.8-8.9 6.1-8.9 18.4.1 25.2 2.5 1.9 4.6 2 48.6 2.5l46 .5.3 49.6c.2 55.3.8 51-6.8 53.9-1.9.7-6.3 2.6-9.8 4.2-3.4 1.5-6.5 2.8-6.7 2.8s-3.4 1.3-7 3c-3.6 1.6-6.8 3-7 3s-3.4 1.3-7 3c-3.6 1.6-6.8 3-7 3s-3.4 1.3-7 3c-3.6 1.6-6.8 3-7 3-.3 0-2.7 1-5.3 2.1-4.6 2.1-8.2 3.7-15 6.5-8.8 3.8-10.3 4.7-13.1 8.1-5.4 6.5-3.6 16 3.9 21 5.8 4 11.6 3 29.8-5.3 2.9-1.3 5.5-2.4 5.7-2.4s3.4-1.4 7-3c3.6-1.7 6.8-3 7-3s3.4-1.4 7-3c3.6-1.7 6.8-3 7-3s2.8-1.1 5.7-2.4c12.8-5.7 22.5-9.6 24.1-9.6s1.7 1.6 1.5 19.2l-.3 19.3-7.5 3.2c-4.1 1.7-9.3 3.9-11.5 4.9-4.6 1.9-11.1 4.8-17.2 7.5-2.4 1.1-4.5 1.9-4.8 1.9-.2 0-3.4 1.3-7 3-3.6 1.6-6.8 3-7 3s-3.4 1.3-7 3c-3.6 1.6-6.8 3-7 3s-3.4 1.3-7 3c-3.6 1.6-6.8 3-7 3-1.1 0-10.1 4.4-12.7 6.2-1.5 1-3.4 3.3-4.2 5-1.8 3.5-2.1 11.3-.6 12.3 1.3.8 1.3 5.2 0 6-1.9 1.2-1.1 9.4 1.2 13 2.5 3.8 10.1 7.9 26.8 14.5 3 1.2 7.8 3.2 10.8 4.6 2.9 1.3 5.5 2.4 5.7 2.4s3.4 1.3 7 3c3.6 1.6 6.8 3 7 3s3.4 1.3 7 3c3.6 1.6 6.8 3 7 3s3.3 1.3 6.7 2.8c3.5 1.6 7.9 3.5 9.8 4.2 1.9.8 5.3 2.3 7.5 3.5l4 2v19c0 22 .8 20.9-10.9 15.5-3.7-1.6-6.9-3-7.1-3s-3.4-1.3-7-3c-3.6-1.6-6.8-3-7-3-.3 0-2.7-1-5.3-2.1-2.6-1.2-6-2.7-7.7-3.4-1.6-.7-5.1-2.2-7.6-3.3-2.5-1.2-7-3-9.9-4.2s-7.2-2.9-9.4-3.9c-13-5.9-15.7-6.3-21.5-3.1-4.9 2.8-8.1 8-8.1 13 0 6.8 5 12.4 14 16 1.9.7 6.3 2.6 9.8 4.2 3.4 1.5 6.5 2.8 6.7 2.8.3 0 2.7 1 5.3 2.1 2.6 1.2 6.2 2.8 8 3.5 1.7.8 4.7 2 6.5 2.8 1.7.7 5.3 2.3 7.9 3.5 2.6 1.1 5 2.1 5.3 2.1.2 0 3.4 1.4 7 3s6.8 3 7 3 3.3 1.3 6.7 2.8c3.5 1.6 7.9 3.5 9.8 4.2 1.9.8 4.5 2 5.8 2.8l2.2 1.4v49.9c0 27.5-.4 49.9-.9 49.9-.4 0-2.3-1-4.2-2.3-4.7-3.1-20.8-12.7-21.4-12.7-.3 0-2.4-.9-4.8-1.9-14.1-6.5-30.7-10.1-48-10.4-14.1-.2-16.2.5-20.2 6.4-3.3 5.1-3.3 10.8-.1 15.5 4 6 5.6 6.5 21.4 8 27.4 2.4 36.5 6.3 67.2 28l11 7.8v27.3c0 18.3-.3 27.3-1 27.3-.6 0-4.3-2.2-8.3-4.8-12.8-8.6-30.8-16.6-43.2-19.3-19.7-4.3-35.7-5-41.4-1.9-10.7 6.1-10.7 19.9 0 26 2.7 1.5 5.5 2 10.6 2 6.7 0 12.3.7 24.3 3.2 10.6 2.2 28.5 10.9 39.3 19.2 14.1 10.7 35.5 23.7 47.2 28.7 17.4 7.3 48.9 10.9 69.8 7.9 28.6-4.2 44.1-10.9 73.2-31.9 20.6-14.8 29.8-19.6 46-23.9 12.2-3.2 33.9-4.3 44.7-2.1 18.8 3.7 20.5 4.2 32.3 10.2 5.5 2.8 10.1 5.7 35.9 23.5 20.3 13.9 35.7 20.1 59 23.7 17 2.6 41.5 1.5 56.9-2.5 2-.6 5.2-1.4 7-1.9 9.7-2.5 26.9-11.4 39.8-20.3 37.5-26 42.3-28.4 64.9-32.3 17.1-2.9 37.5-1.4 55.7 4.3 9 2.9 29 14.9 46.1 27.9 2.9 2.2 7 4.9 9 6s6.2 3.4 9.2 5.1c3 1.6 7.4 3.6 9.7 4.2 3.7 1.1 4.6 1 8.7-1 6.4-3.1 8.7-6.7 8.7-13.6 0-7.4-2.6-10.7-12.7-15.9-4.3-2.2-9.6-5.4-11.9-7.1-9.9-7.5-30.4-21.1-39-25.9l-4-2.3-.3-28.6c-.2-22.6 0-28.6 1-28.6.7.1 3.8 1.9 6.8 4.1 21.9 15.8 38.2 25.2 51.5 29.7 5.8 1.9 8.5 2.6 20.5 5.4 7.4 1.6 43.6 1.6 51 0 12-2.8 14.7-3.5 20.5-5.4 13.5-4.5 25.7-11.5 47-26.7 11.7-8.4 26.3-16.8 35-20.3 5.7-2.3 15.5-4.1 28.7-5.2 15.8-1.5 17.4-2 21.4-8 3.2-4.7 3.2-10.4-.1-15.5-4-5.9-6.2-6.6-19.9-6.4-15.2.2-29.4 2.7-41.1 7.3-13.6 5.3-24.4 11.6-44 25.5-7.1 5.1-14.7 10.2-16.7 11.4-2.1 1.1-5.3 2.9-7 3.9-5.4 3-13.8 6-22.8 8.3-7 1.8-11.6 2.2-25.5 2.3-27.7.2-43.1-4.5-65.1-19.6-24.6-16.9-30.3-20.7-35.4-23.5l-5.5-2.9-.3-227.7L738 205h46.9c25.8 0 48.3-.3 50.1-.7 1.9-.3 5-2.3 7.2-4.5l3.8-3.8v-58.6c0-42.4-.3-59.1-1.2-60.7-1.7-3.3-5.6-6.3-9.8-7.6-4.9-1.5-818.7-1.4-824 .1m196.5 432.3v295.9l-7.5 1.2c-9.4 1.6-28.3 1.7-36.9.4-9.2-1.5-19.2-4.3-26.9-7.7l-4.2-1.8V205l37.8.2 37.7.3zm500-294.3c.3 1.3.4 122 .3 268.3l-.3 266-5-.2c-2.7-.1-11-.5-18.4-.9-14.7-.7-28 .4-41.5 3.7-4.3 1-8.7 1.9-9.7 1.9-1.8 0-1.9-7.3-1.9-269.8 0-148.4.3-270.2.7-270.5.3-.4 17.4-.7 37.9-.7H707zM246 343.7c1.9.8 5.1 2.2 7 3 1.9.9 5.1 2.2 7 3 1.9.9 5 2.2 6.8 2.9 1.7.8 4.7 2 6.5 2.8 6.7 2.8 10.3 4.4 14.9 6.5 2.6 1.1 5 2.1 5.3 2.1.2 0 3.4 1.3 7 3 3.6 1.6 6.8 3 7 3s3.4 1.3 7 3c3.6 1.6 6.8 3 7 3s3.4 1.3 7 3c3.6 1.6 6.8 3 7 3s2.8 1.1 5.7 2.4c3 1.4 7.8 3.4 10.8 4.6s7.8 3.2 10.8 4.6c2.9 1.3 5.5 2.4 5.7 2.4s3.4 1.3 7 3c3.6 1.6 6.8 3 7 3s3.4 1.3 7 3c3.6 1.6 6.8 3 7 3s3.4 1.3 7 3c3.6 1.6 6.8 3 7 3s3.4 1.3 7 3c3.6 1.6 6.8 3 7 3 .3 0 2.7 1 5.3 2.1 2.6 1.2 6.1 2.7 7.7 3.4 1.7.7 5.6 2.5 8.8 3.9s6 2.6 6.2 2.6c.3 0 2.7 1 5.3 2.1 2.6 1.2 6.1 2.7 7.7 3.4 5.5 2.3 10 4.2 14.7 6.4 2.6 1.1 5 2.1 5.3 2.1.2 0 3.4 1.3 7 3 3.6 1.6 6.8 3 7 3s3.4 1.3 7 3c3.6 1.6 6.8 3 7 3s3.4 1.3 7 3c3.6 1.6 6.8 3 7 3s2.8 1.1 5.7 2.4c3 1.4 7.8 3.4 10.8 4.6s7.8 3.2 10.8 4.6c2.9 1.3 5.5 2.4 5.7 2.4s3.4 1.3 7 3c3.6 1.6 6.8 3 7 3s3.3 1.3 6.7 2.8c3.5 1.6 7.9 3.5 9.8 4.2 1.9.8 4.9 2.1 6.5 3l3 1.7.3 19.1c.2 16.5 0 19.2-1.3 19.2-.8 0-4.4-1.4-8-3-3.6-1.7-6.8-3-7-3s-3.4-1.4-7-3c-3.6-1.7-6.8-3-7-3s-3.4-1.4-7-3c-3.6-1.7-6.8-3-7-3-.3 0-2.7-1-5.3-2.1-6.1-2.7-8.6-3.8-20.7-8.9-5.5-2.4-12.4-5.3-15.3-6.6s-5.5-2.4-5.7-2.4-3-1.2-6.2-2.6-7.1-3.2-8.8-3.9c-1.6-.7-5.1-2.2-7.7-3.4-2.6-1.1-5-2.1-5.3-2.1-.2 0-3.4-1.4-7-3-3.6-1.7-6.8-3-7-3s-3.4-1.4-7-3c-3.6-1.7-6.8-3-7-3-.3 0-2.5-.9-5-2s-6.5-2.9-9-4-4.7-2-5-2c-.2 0-3.4-1.4-7-3-3.6-1.7-6.8-3-7-3s-3.4-1.4-7-3c-3.6-1.7-6.8-3-7-3s-3.4-1.4-7-3c-3.6-1.7-6.8-3-7-3s-3.4-1.4-7-3c-3.6-1.7-6.8-3-7-3s-3.4-1.4-7-3c-3.6-1.7-6.8-3-7-3-.3 0-2.7-1-5.3-2.1-2.6-1.2-6-2.7-7.7-3.4-5.5-2.3-10-4.2-14.7-6.4-2.6-1.1-5-2.1-5.3-2.1-.2 0-3.4-1.4-7-3-3.6-1.7-6.8-3-7-3s-3.4-1.4-7-3c-3.6-1.7-6.8-3-7-3s-3.4-1.4-7-3c-3.6-1.7-6.8-3-7-3s-3.4-1.4-7-3c-3.6-1.7-6.8-3-7-3s-3.4-1.4-7-3c-3.6-1.7-6.8-3-7-3-.3 0-2.7-1-5.3-2.1-2.6-1.2-6.2-2.8-7.9-3.5-1.8-.8-4.9-2.1-6.8-3l-3.5-1.6v-38.9l2.3.6c1.2.4 3.8 1.4 5.7 2.2m354.8 22.1.2 19.1-4.7 2.2c-2.7 1.1-6.1 2.7-7.8 3.4-1.6.7-5.1 2.2-7.7 3.4-2.6 1.1-5 2.1-5.3 2.1-.2 0-3.4 1.3-7 3-3.6 1.6-6.8 3-7 3s-3.4 1.3-7 3c-3.6 1.6-6.8 3-7 3s-3.4 1.3-7 3c-3.6 1.6-6.8 3-7 3-.3 0-2.7 1-5.3 2.1-2.6 1.2-6.3 2.8-8.2 3.6-1.9.9-4.9 2.2-6.6 2.9-3.3 1.6-3.5 1.5-15.4-3.8-2.5-1.1-6-2.6-7.7-3.4-1.8-.8-5-2.1-7-3-2.1-.9-5.3-2.3-7-3-11.6-4.9-12.4-5.7-7.6-7.5 1.5-.6 4.2-1.7 6-2.5s4.8-2 6.6-2.8c1.7-.7 4.9-2.1 7-3 2-.9 5.2-2.2 7-3 6.7-2.8 10.3-4.4 14.9-6.5 2.6-1.1 5-2.1 5.3-2.1.2 0 3-1.2 6.2-2.6s7.2-3.2 8.8-3.9c1.7-.7 5.1-2.2 7.7-3.4 2.6-1.1 5-2.1 5.3-2.1.2 0 3.4-1.4 7-3 3.6-1.7 6.8-3 7-3s3.4-1.4 7-3c3.6-1.7 6.8-3 7-3s3.3-1.3 6.7-2.8c3.5-1.6 7.9-3.5 9.8-4.2 1.9-.8 5.1-2.2 7-3.2 1.9-.9 4-1.6 4.5-1.4.6.2 1.1 7.7 1.3 19.4m-499 74.4c-.3 27.5-.4 28.3-2.3 28-1.8-.4-3.4-1-14.7-6.1-2.6-1.1-5-2.1-5.3-2.1-.2 0-3.4-1.4-7-3-3.6-1.7-6.8-3-7-3s-3.4-1.4-7-3c-3.6-1.7-6.8-3-7-3-.3 0-2.7-1-5.3-2.1-2.6-1.2-6.2-2.8-8-3.6-2.7-1.2-3.1-1.7-2.1-2.9.6-.8 1.5-1.4 2-1.4s3.1-1 5.7-2.1c2.6-1.2 6.2-2.8 8-3.5 1.7-.8 4.9-2.1 7-3 2-.9 5.2-2.3 7-3 5.1-2.2 9.9-4.3 13.5-5.8 1.7-.8 5.2-2.2 7.7-3.2s6.1-2.6 8-3.6c7.4-3.7 7.1-5.2 6.8 26.4m143.4-24.4c2.6 1.2 5 2.2 5.3 2.2.2 0 3.4 1.3 7 3 3.6 1.6 6.8 3 7 3 .3 0 2.5.9 5 2s6.5 2.9 9 4 4.7 2 5 2c.2 0 3.4 1.3 7 3 3.6 1.6 6.9 3 7.4 3s1.4.7 2.1 1.5c1 1.2.8 1.6-1.5 2.5-1.4.5-5.1 2.1-8.1 3.5s-5.7 2.5-5.9 2.5-3.4 1.3-7 3c-3.6 1.6-6.8 3-7 3-.3 0-2.7 1-5.3 2.1-2.6 1.2-6 2.7-7.7 3.4-1.6.7-6.2 2.7-10.2 4.4-3.9 1.7-7.6 3.1-8.2 3.1-1.2 0-1.6-52.1-.5-53.3.4-.4 1-.5 1.3-.3.3.1 2.7 1.2 5.3 2.4M601 440.6c0 11.8-.4 21.4-.9 21.4-.9 0-5.5-1.8-13.1-5.2-2.5-1.1-5.8-2.6-7.5-3.3-1.6-.7-5.1-2.2-7.7-3.4-2.6-1.1-5-2.1-5.3-2.1-.2 0-2.9-1.1-5.9-2.5s-6.7-3-8.1-3.5c-2.3-.9-2.5-1.3-1.5-2.5.7-.8 1.6-1.5 2.1-1.5s3.1-1 5.7-2.1c2.6-1.2 6.2-2.8 8-3.5 5.5-2.4 10.1-4.3 13.5-5.8 1.7-.8 5.2-2.2 7.7-3.2s6.1-2.6 8-3.5c1.9-1 3.8-1.5 4.2-1.2.5.2.8 10.1.8 21.9m-253.4 18.9c3 1.4 5.7 2.5 5.9 2.5s2.8 1.1 5.7 2.4 8.1 3.6 11.6 5c11.7 4.7 14.2 6 14.2 7.3 0 .7-.4 1.3-1 1.3-.5 0-3.9 1.3-7.5 3-3.6 1.6-6.8 3-7 3s-3.4 1.3-7 3c-3.6 1.6-6.8 3-7 3-.3 0-2.7 1-5.3 2.1-2.6 1.2-6.2 2.8-7.9 3.5-1.8.8-4.9 2.1-6.8 2.9s-5.1 2.2-7 3-5 2.1-6.7 2.9c-1.8.7-5.4 2.3-8 3.5-2.6 1.1-5 2.1-5.3 2.1-.2 0-3 1.2-6.2 2.6s-7.1 3.2-8.8 3.9c-1.6.7-5.1 2.2-7.7 3.4-2.6 1.1-5 2.1-5.3 2.1-.2 0-3.4 1.3-7 3-3.6 1.6-6.8 3-7 3s-3.3 1.3-6.7 2.8c-3.5 1.6-7.9 3.5-9.8 4.2-1.9.8-5.1 2.2-7 3.1-1.9 1-3.8 1.5-4.2 1.2-.5-.2-.8-9.1-.8-19.6v-19.2l2.8-1.2c1.5-.7 4.5-2 6.7-2.9s6.4-2.7 9.3-4 5.5-2.4 5.7-2.4c.3 0 2.7-1 5.3-2.1 2.6-1.2 6.2-2.8 8-3.5 1.7-.8 4.7-2 6.5-2.8 1.7-.7 5.3-2.3 7.9-3.5 2.6-1.1 5-2.1 5.3-2.1.2 0 3-1.2 6.2-2.6s7.2-3.2 8.8-3.9c1.7-.7 4.7-2 6.8-2.9 2-.9 5.3-2.3 7.2-3.1s5-2.2 6.9-3c9.5-4.2 9.2-4.2 16.2-1m86.3 36.7c4.3 1.9 5.8 2.6 14.4 6.2 6.4 2.7 10.3 4.4 16 7 3.2 1.4 6 2.6 6.2 2.6.3 0 2.7 1 5.3 2.1 2.6 1.2 6.2 2.8 8 3.5 1.7.8 4.7 2 6.5 2.8 1.7.7 5.3 2.3 7.9 3.5 2.6 1.1 5 2.1 5.3 2.1.2 0 3.4 1.3 7 3 3.6 1.6 6.8 3 7 3s3.4 1.3 7 3c3.6 1.6 6.8 3 7 3s3.4 1.3 7 3c3.6 1.6 6.8 3 7 3 .3 0 2.7 1 5.3 2.1 4.7 2.2 9.2 4.1 14.7 6.4 1.7.7 5.1 2.2 7.7 3.4 2.6 1.1 5 2.1 5.3 2.1.2 0 3.3 1.3 6.7 2.8 3.5 1.6 7.9 3.5 9.8 4.2s4.1 1.8 4.8 2.3c.9.7 1.2 12.2 1.2 51.3v50.3l-5.7 4.4c-11.5 8.8-30.6 20.9-38.6 24.7-14.7 6.8-32.6 9.7-52.2 8.5-16.4-1-28.6-4-40.9-10.2-5.5-2.8-23-14.2-31.1-20.3-11.4-8.7-28.3-17.8-40-21.8-5.8-1.9-8.6-2.7-20.5-5.3-7.5-1.8-42.5-1.8-51-.1-25.6 5.1-39.4 11.9-73.5 36.1-3.8 2.8-7.6 5-8.2 5-1 .1-1.3-12.2-1.3-58.5v-58.5l5.8-2.5c3.1-1.4 6.6-2.9 7.7-3.3 2.2-1 7.5-3.3 12.8-5.5 1.7-.7 5.3-2.3 7.9-3.5 2.6-1.1 5-2.1 5.3-2.1.2 0 3.4-1.4 7-3 3.6-1.7 6.8-3 7-3s3.4-1.4 7-3c3.6-1.7 6.8-3 7-3s3.4-1.4 7-3c3.6-1.7 6.8-3 7-3s3.4-1.4 7-3c3.6-1.7 6.8-3 7-3s3.4-1.4 7-3c3.6-1.7 6.8-3 7-3s3.4-1.4 7-3c3.6-1.7 6.8-3 7-3s3.4-1.4 7-3c3.6-1.7 6.8-3 7-3 .3 0 2.5-.9 5-2s6.5-2.9 9-4 4.7-2 5-2c.2 0 3.4-1.4 7-3 3.6-1.7 6.8-3 7-3s3.3-1.3 6.7-2.9c3.5-1.5 7-3.1 7.8-3.4 2-.8 5.2 0 10.9 2.5m-60.4 183.9c8.5 2 16.9 5.1 22.3 8.1 8.7 4.8 11 6.3 16.5 10.1 21.8 15.4 31.3 21.5 39.7 25.4 12.4 5.9 12.3 5.9 20.5 8.1 13.9 3.8 20.8 4.6 39.5 4.6 11.3 0 21.2-.5 25.5-1.3 7.3-1.4 19.6-4.6 23-6 8-3.3 21.4-10.4 28.8-15.3 4.8-3.2 9.4-5.8 10.2-5.8 1.3 0 1.5 3.9 1.5 26.7 0 14.8-.4 27.3-.8 27.9s-4.2 3.5-8.6 6.5c-4.3 3-11.3 7.8-15.5 10.7-8.4 5.8-17.7 10.8-26.1 14-5.2 1.9-7.6 2.5-20.8 5.1-6.9 1.4-27.5 1.4-34.4 0-13.2-2.6-15.6-3.2-20.8-5.1-8.8-3.4-17.9-8.3-26.5-14.2-37.1-25.8-47.4-31.4-66.3-35.7-33.6-7.6-69.7-3.9-96.3 9.9-11.7 6.1-14.6 7.9-25.3 15.6-17.6 12.6-20.4 14.5-21 13.9-.3-.4-.6-13.6-.6-29.4v-28.8l5.8-2.7c5.2-2.6 13.8-8.1 38.6-25.2 17.6-12.1 34-18.2 52.1-19.6 10.4-.8 31 .5 39 2.5m614 61.4c-7.8 1.2-13.4 2.4-20.5 4.3-10.1 2.7-26.7 11.2-40.3 20.5-26 18-30.7 21-36.5 23.8-9.1 4.4-14.8 6.1-28.2 8.4-4.7.8-10.2 1.5-12.3 1.5-16.1.1-20.7 22.4-6 28.5 10.5 4.4 43.9-2.8 64.3-13.9 5.5-3 29.1-18.4 30-19.6.8-1.1 12-8.4 18.1-11.8 14.5-8.2 33.1-13.2 49.2-13.2 8.2 0 13-2.2 16.5-7.5 4.5-6.9 1.8-16.1-5.9-20.5-4.3-2.4-15.1-2.6-28.4-.5m-983 129c-4.2 4.2-4.5 4.8-4.5 10 0 3 .5 5.5 1 5.5.6 0 1 .6 1 1.4 0 2.1 5.5 6.4 9.8 7.6 2 .5 6.9 1 10.7 1 13 0 32.3 5 42.5 11 2.8 1.7 5.4 3 5.8 3 .4.1 4.1 2.5 8.2 5.5 16.5 11.8 35.8 24.4 42 27.2 27 12.7 61.7 16.2 92.5 9.2 10.7-2.4 17.1-4.7 28.5-10.2 8.1-4 13.7-7.6 39.5-25.3 16.1-11.1 27.5-16.1 44.3-19.4 6.9-1.3 35-1.3 41 .1 2.6.5 6.7 1.5 9.2 2.1 10.8 2.4 21.3 7.6 35.4 17.2 4.8 3.4 13.6 9.4 19.5 13.4 15.7 10.7 28.5 16.9 43.6 21 22.4 6.1 52.6 6.1 75 0 15.3-4.1 27.7-10.1 43.6-21 5.9-4 14.7-10 19.5-13.4 14.1-9.6 24.6-14.8 35.4-17.2 2.5-.6 6.6-1.6 9.2-2.1 6-1.4 34.1-1.4 41-.1 20.4 4 29.5 8.6 62.8 32.2 11.2 7.9 26.9 16.1 37.5 19.6 27.4 9 62.6 8.8 90.3-.4 16-5.4 27.5-12 53.1-30.7 19-13.9 40.4-21.6 60.1-21.7 11.4-.1 17.2-2.8 20.5-9.3 1.7-3.4 2-11.7.5-11.7-.5 0-1-.6-1-1.4s-1.7-2.8-3.7-4.5c-3.7-3.1-3.9-3.1-15.3-3.1-20.7.1-37.3 4.1-56.6 14-9.8 5-23 13.2-24.4 15-1.1 1.5-26.6 18.2-30.5 20-23.8 10.9-50.2 13.4-75.5 7.3-12.9-3.1-26.6-9.6-39.3-18.7-22.8-16.4-38-25.5-51.2-30.4-22-8.3-60.8-9.7-85-3.1-2.2.6-5.2 1.3-6.8 1.6-1.5.3-3 .9-3.3 1.4s-1.3.9-2.2.9c-3 0-20.6 9.5-31.7 17.1-5.9 4.1-14.8 10.2-19.9 13.7-19.3 13.2-31.8 17.9-53.8 20.2-7.9.8-13.7.8-21.5 0-22.1-2.3-35-7.1-53.9-20.2-25.4-17.5-31.4-21.4-40.3-25.9-5.3-2.7-10.4-4.9-11.3-4.9s-1.9-.4-2.2-.9-1.8-1.1-3.3-1.4c-1.6-.3-4.6-1-6.8-1.6-10.7-3-20.9-4.1-37.2-4.1-9.5 0-19.6.5-22.5 1-18.8 3.6-23.9 5.2-36.8 11.3-8.8 4.1-20.2 11.3-37.8 23.9-8.6 6.2-20.9 13.2-29.7 16.9-10.9 4.6-35.2 7.5-49.9 5.9-25.5-2.8-38.8-9-74.1-34.5-7.2-5.3-26.9-15.4-34.5-17.9-14.1-4.6-26.1-6.6-40.3-6.6H8.9z"/></svg>