<svg xmlns="http://www.w3.org/2000/svg" width="1365.333" height="1365.333" viewBox="0 0 1024 1024"><path d="M486 17.2c-11.5 2-29.1 6.7-36.5 9.8-18.4 7.6-29.8 14-43 24-18.8 14.4-33 30.4-46.9 53.2L358 107l-93.3.2c-104.5.3-96.4-.3-100.4 7.6-1.7 3.4-1.8 7.6-2.1 54.9l-.3 51.2-54.2.3c-50.1.3-54.5.4-57.5 2.1-5.5 3-11.2 8.7-13.5 13.6-2.1 4.4-2.2 6-2.5 36.1-.3 33.3-.1 35.8 4.4 43.1 5.4 8.8 12.1 11.9 26.9 12.6 6.3.4 11.3 1.1 11.7 1.7 1.1 1.7.9 501.8-.2 503.6-.7 1.1-2.7 1.4-8.5 1.1-4.2-.1-10.6.1-14.2.5-5.6.6-7.2 1.2-10.2 4l-3.6 3.2-.5 45.4-.5 45.3-6 .6c-6.8.7-10.1 1.9-13 4.5-4.2 3.8-4.5 6.4-4.5 33.3 0 28.5.3 30 6.3 34.3l3.2 2.3h973l3.2-2.3c6-4.3 6.3-5.8 6.3-34.3 0-26.9-.3-29.5-4.5-33.3-2.9-2.6-6.2-3.8-13-4.5l-6-.6-.3-44.7-.2-44.7-3.8-3.9c-3.3-3.5-4.4-4-10-4.6-3.4-.4-9.8-.6-14.1-.5s-8.4-.1-9-.5c-1.3-.8-1.6-502.3-.3-504.2.4-.6 5.4-1.3 11.7-1.7 14.9-.7 20.4-3.2 26.3-12 5.1-7.6 5.3-9.6 5-43.7-.3-30.1-.4-31.7-2.5-36.1-2.3-4.9-8-10.6-13.5-13.6-3-1.7-7.4-1.8-57.3-2.1-40.8-.2-54.1-.6-54.7-1.5-.4-.7-.8-23.9-.8-51.5 0-55.1 0-54.9-5.8-58.9-2.6-1.7-7.9-1.8-95.9-2.1l-93.2-.2-2-2.9c-1.2-1.6-2.1-3.2-2.1-3.6 0-2.9-17.6-25.1-28-35.3-26.1-25.7-58.3-41.7-95.9-47.7-10.6-1.7-42.9-1.9-52.1-.3m50.5 28.3c7.3 1.4 10.1 2 19 4.4 4.5 1.3 13.1 4.8 21.5 8.8 33.5 16.1 62 48.6 73.8 83.8 2.8 8.6 3.6 11.3 6.4 23.5.7 3.4 1.2 12.8 1.2 24.5s-.5 21.1-1.2 24.5c-2.8 12.2-3.6 14.8-6.3 23-10.4 31.3-35.8 62.9-62.9 78.4-21.5 12.3-39.7 18.1-64.7 20.7-16.7 1.7-38.3-.9-56.1-6.7-9.8-3.2-9.7-3.1-22.2-9.4-13.3-6.6-23.9-14.2-34.9-25-10.6-10.4-12.5-12.6-19.9-23.7-12.5-18.7-17.5-30.8-22.9-55.3-2.1-9.7-2.4-40.2-.4-51 7.3-40.3 29.3-74.4 62.2-96.6C448.2 56.4 464 50 489 45.1c7.6-1.5 38.6-1.2 47.5.4M345 136.2c0 .7-.5 3.1-1.1 5.3-5.7 21.8-6.3 26.7-6.1 50 .1 12.1.3 23.6.4 25.5l.3 3.5-72.9.3c-53 .1-73.3-.1-74.2-.9-1.1-.9-1.4-8.7-1.4-41.4 0-22.2.3-41 .6-41.9.6-1.4 8.3-1.6 77.5-1.6 60.9 0 76.9.3 76.9 1.2m487.5-.3c.9 1.5.6 83.4-.3 84.3-.4.4-33.6.7-73.8.6l-72.9-.3.2-3.5c.2-1.9.3-13.2.4-25 .2-22.8-.6-29.9-6-50.5-.6-2.2-1.1-4.6-1.1-5.3 0-.9 15.9-1.2 76.4-1.2 46.8 0 76.7.4 77.1.9M349.8 256c5.1 12.9 15.8 31.7 22.9 40.4 1.4 1.6 2 3.3 1.6 3.7-.5.5-70.6.8-156.4.7l-155.4-.3-.3-25.8L62 249l142.6.2 142.6.3zm612 18.7-.3 25.8-155.4.3c-85.8.1-155.9-.2-156.4-.7-.4-.4.2-2.1 1.6-3.7 8.4-10.2 18.2-28.1 24.8-45.2l.9-2.2h285zm-547.5 60.7c13 8.6 31.2 17.6 43.6 21.6 22.2 7.1 46.5 10 66.9 8 15.1-1.4 23.8-3 38-7.1 2-.6 4.7-1.3 6-1.6 1.2-.3 2.5-.9 2.8-1.4s1.3-.9 2.3-.9c2.9 0 26-11.9 36-18.6l9.6-6.4H918l-.2 253-.3 253.1h-31.3c-17.2 0-31.7-.3-32.2-.6-.7-.4-1-78.3-1-220.2 0-243.2.5-223.6-6.4-228.6l-3.1-2.2h-663l-3.1 2.2c-6.9 5-6.4-14.6-6.4 228.6 0 141.9-.3 219.8-1 220.2-.5.3-15 .6-32.2.6h-31.3l-.3-253.1-.2-253h298.5zm-114.5 76.2 2.2.6-.2 21.2-.3 21.1-50 .5c-27.5.3-50.6.3-51.2.1-1-.2-1.3-5.4-1.3-21.6 0-16.1.3-21.5 1.3-21.8 1.8-.8 96.8-.8 99.5-.1m131.7 21.7v21.8h-101l-.3-20.8c-.1-11.4 0-21.3.3-22 .3-1.1 10.5-1.3 50.7-1.1l50.3.3zM562.1 412c1.8 1 1.9 2.3 1.9 20.8 0 10.8-.4 20.3-.8 21-1.2 1.9-101.2 1.9-102.4 0-.4-.7-.8-10.2-.8-21 0-17.7.2-19.8 1.8-20.7 2.4-1.4 97.6-1.5 100.3-.1m131.4 21.3v21.8h-101l-.3-20.8c-.1-11.4 0-21.3.3-22 .3-1.1 10.5-1.3 50.7-1.1l50.3.3zm129.9-21.7c1.4.5 1.6 3.4 1.6 21.4 0 15.5-.3 21-1.2 21.6-.7.5-23.9.8-51.5.6L722 455v-21.4c0-19.6.2-21.5 1.8-21.9 2.6-.7 97.8-.8 99.6-.1m0 72c1.5.6 1.6 21.4 1.6 225.5V934H670v-10.4c0-8.5.3-10.5 1.6-11 .9-.3 7.8-.6 15.5-.6 16 0 20.2-1.3 26.3-8 6.8-7.5 7.1-9.1 7.1-33 0-20.1-.1-21.8-2.2-25.6-2.6-4.9-7.8-10.1-11.8-11.8-6.8-3-8.7-3.6-10.5-3.6-2 0-2-1-2-41.9v-41.9l8.3-.4c16.7-.7 29.5-10.6 34.6-26.7.7-2.1 1.1-15.1 1.1-35.2 0-35.6-.3-37.3-7.5-47.1-6.4-8.8-18.9-14.8-30.7-14.8H694v-16.6c0-18.4-1-23.2-6.4-31.2-1.7-2.6-5.3-6.3-8-8.3-9.2-6.9-8.9-6.9-66.3-6.9-33.5 0-52.1-.4-53.4-1-1-.6-1.9-1.9-1.9-3 0-1-.4-2.9-.9-4.2s-1.3-3.9-1.8-5.8c-6-20.7-9.3-26.6-17.3-30.7-4.3-2.1-5.6-2.2-26.2-2.3-21 0-21.9.1-26 2.4-5.2 2.8-11.1 10.2-12.8 15.9-.7 2.3-1.6 5.3-2 6.7s-1.3 4.5-2 7-1.6 5.5-2.1 6.8-.9 3.1-.9 4.2c0 1-.6 2.2-1.2 2.7-.7.4-25.6 1-55.3 1.3l-54 .5-5.5 2.8c-9.5 4.9-15.6 12.2-18.9 22.6-.6 1.9-1.1 10.9-1.1 20.2V622h-5.8c-11.8 0-24.3 6-30.7 14.8-7.2 9.8-7.5 11.4-7.5 47.7 0 21.7.4 33.3 1.1 35.2 7 17.3 19.4 26.3 36.2 26.3h6.7v42c0 41.1 0 42-2 42-3.9 0-12.6 4.1-16.3 7.7-7.8 7.6-8.2 9-8.2 33.8 0 21.3.1 22.1 2.3 26 3.5 5.8 7.1 9.4 12.4 12.1 4.3 2.2 5.9 2.4 18.7 2.4 7.7 0 14.6.3 15.5.6 1.3.5 1.6 2.5 1.6 11V934H199V709.1c0-179 .3-225 1.3-225.4 1.8-.8 621.2-.8 623.1-.1M525 542c.5.8 1.3 3.5 2 6s1.6 5.6 2.1 6.9c.6 1.3.7 2.6.4 3-.9.8-34.1.8-35 0-.3-.4-.2-1.7.4-3 .5-1.3 1.4-4.2 2-6.4 2.5-9.6.7-8.6 14.8-8.3 10 .2 12.7.6 13.3 1.8m-27.5 103.6v58.9l-69.7.3-69.8.2v-56.7c.1-49.1.3-57.1 1.6-58.8 1.5-2 3-2 68.7-2.5 37-.3 67.7-.5 68.2-.4.7 0 1 20.4 1 59M663 588.9l2.5 1.8v113.8h-139l-.3-58c-.1-31.9 0-58.5.2-59 .2-.7 23.3-.9 67.2-.7 63.3.2 67 .3 69.4 2.1m-333.2 95.3.2 33.8h-5.4c-4.4 0-5.8-.4-8-2.6l-2.6-2.7v-57.5l3.1-2.7c2.6-2.1 4-2.5 7.8-2.3l4.6.3zm377.1-31.6 3.1 2.6v57.5l-2.6 2.7c-2.2 2.2-3.6 2.6-8 2.6H694v-33.3c0-18.4.3-33.7.7-34 .3-.4 2.5-.7 4.9-.7 3.1 0 5.1.7 7.3 2.6m-41.1 129.1.2 48.3H358v-47.8c0-26.3.3-48.2.7-48.5.3-.4 69.5-.6 153.7-.5l153.1.3zm27 89.5.3 12.8H331v-12.3c0-6.8.3-12.7.7-13 .3-.4 81.7-.6 180.7-.5l180.1.3zm-522.9-6.8c.8.9 1.1 11 .9 35.2l-.3 33.9-51.2.3-51.3.2v-34.8c0-19.2.3-35.2.7-35.5.3-.4 23-.7 50.3-.7 40.9 0 50 .2 50.9 1.4m785.9 34.3.2 35.3H853v-34.9c0-27 .3-35 1.3-35.4.6-.3 23.7-.5 51.2-.4l50 .2zm-546.4 13.9c1.3.5 1.6 2.5 1.6 11V934h-29v-10.3c0-5.7.3-10.7.7-11 .8-.9 24.6-.9 26.7-.1m174.5.8c.8.9 1.1 4.7.9 10.7l-.3 9.4h-145l-.3-9.4c-.2-6 .1-9.8.9-10.7 1.7-2.1 142.1-2.1 143.8 0m57.9 9.8.3 10.8H613v-10.3c0-5.7.3-10.7.7-11.1.4-.3 6.8-.5 14.2-.4l13.6.3zm337.7 48.3v9h-935l-.3-7.9c-.2-4.4-.1-8.5.2-9.3.5-1.1 78.1-1.3 467.8-1.1l467.3.3zm-467-897.2c-4.4 2.4-10.9 6-14.5 8.1-19.8 11.6-38.4 30.7-45.7 46.6-4.3 9.4-8 22.8-8.6 30.9-.2 3.4-.3 3.5-4.9 3.6-6.3.3-10 3.2-13.7 10.8-6.5 13.3-9.1 25-9.1 40.7 0 26.8 9.5 49.7 28.4 68.6 10 9.9 26.4 19.8 38.6 23.3 2.5.8 5.6 1.7 7 2.1 1.4.5 6.9 1.4 12.3 2.1 9.6 1.1 24.7.2 31.7-2.1 1.4-.4 4.5-1.3 7-2.1 19.8-5.6 42.8-23.6 53.1-41.5 4.3-7.5 7.8-14.9 7.9-16.6 0-.9.4-1.9.9-2.2s1.1-1.8 1.4-3.3c.3-1.6 1.3-6.2 2.1-10.3 4.8-22.6-.8-51.2-13.7-69.9-5.7-8.4-9.1-11.9-32.4-33.8-11.9-11.2-14.6-14.2-17.4-20-3.1-6.5-3.3-7.4-3.3-18.3-.1-9.5-.4-12.1-2-14.5-3.2-5.1-5.6-6.5-11.6-6.4-4.5 0-6.9.7-13.5 4.2m1.1 36.9c2.3 10.8 10.6 22.7 25.4 36.6 28.4 26.6 32 30.8 36.7 43.2 3.3 8.9 4.3 14.5 4.3 24.3-.1 14.4-3.5 25.6-11.4 37.7-3.2 5-8.6 11-9.8 11-.4 0-.8-3.5-.8-7.8-.1-9.8-2-18-6.3-27.2-8.5-18-28.9-37-39.7-37-12.7 0-37 25-42.5 43.8-1 3.1-2.1 7-2.6 8.6s-.9 6.7-.9 11.2c0 4.6-.4 8.4-.9 8.4-1.4 0-8.2-8.2-12-14.4-6.3-10.5-9.1-21.3-9.1-35.1 0-11.6.5-12.4 5.8-8.7 4.8 3.4 9.1 4.3 13.4 3 8.2-2.4 11.9-9.4 9.8-18.6-.7-3-1.2-11.4-1.2-18.7-.1-11 .3-14.3 2.3-20.6 5-16.2 14.5-28.3 30.9-39.7 5.9-4.1 7.7-4.1 8.6 0m4 117c5.7 6 7.8 9.3 10.4 16.6 2.8 8 2.6 22.4-.4 28.4-4.1 8.3-11.8 12.1-19.9 9.8-9.5-2.6-13.7-9.9-13.7-23.9 0-9.2.8-12.7 4.3-20 2.7-5.6 11.3-15.1 13.6-15.1.9 0 3.5 1.9 5.7 4.2M450 752c-3.7 3.7-4 4.4-4 9.3 0 4.7.4 5.8 3.3 8.9 1.7 2 4.7 4.1 6.6 4.7 2.3.7 20.8 1.1 56.6 1.1 58.9 0 58 .1 62.9-6.3 3.4-4.4 3.6-11.5.5-15.8-4.3-6.1-2.4-5.9-64.9-5.9h-57zm-78.1 18.9c-8.4 7-6.4 19.4 4 23.7 5 2.1 32.7 2 38.1-.2 10.9-4.4 11.7-19.7 1.3-25.2-1.4-.8-8.7-1.2-21-1.2h-18.8zm236.6-1.7c-10.3 5.8-9.4 20.8 1.5 25.2 5.4 2.2 33.1 2.3 38.1.2 5.6-2.4 8.2-5.9 8.6-11.8.5-6.3-.9-9.4-5.6-12.5-3.2-2.2-4.3-2.3-22-2.3-12 .1-19.3.5-20.6 1.2m-156 20.7c-7 4.2-8.8 13.4-3.9 19.8 5 6.5 2.7 6.3 62.9 6.3s59 .1 63.9-6.2c4.7-6.3 2.9-15.8-3.7-19.8-3.1-1.9-5.4-2-59.7-2-53.3 0-56.7.1-59.5 1.9"/></svg>