<svg xmlns="http://www.w3.org/2000/svg" width="1365.333" height="1365.333" viewBox="0 0 1024 1024"><path d="M12.3 56c-1.3.5-3.2 2.4-4.3 4.2-1.9 3.2-2 5-2 42.8 0 37.4.1 39.7 2 42.7 1 1.7 2.8 3.7 4 4.3 1.4.8 9.9 1.1 25.4 1 17.9 0 23.6.2 24.4 1.2.6.8 1.2 8.1 1.4 18l.3 16.8 2.8 2.7 2.7 2.8 201.8.5c110.9.3 201.8.6 202 .8.1.1.1 30.7 0 67.9l-.3 67.8-22 .5c-24.8.6-28.1 1.4-34.3 8.4-6.6 7.5-6.2 1-6.2 108.7 0 96.8 0 98 2.1 102.3 2.1 4.6 6.7 9.3 10.9 11.2 7 3.2 8.8 3.4 29 3.4h21v382H340V816h10c10.3 0 14.2-1 17.3-4.4 2.4-2.7 2.7-4.3 3-18.1.2-13 .5-13.5 6.2-12.1l2.4.6.4 52.3c.3 56.2.1 54 5.9 63.7 3.3 5.6 7.9 10 14.3 13.5 4.3 2.4 6.1 2.8 13.1 2.9 6.9 0 8.7-.4 12.5-2.6 5.7-3.4 7.8-5.3 12.2-11 4.4-5.9 6.4-12.6 7.4-25.3 1.1-14.3-.1-48.7-2.1-55.5-.8-3-1.8-6.6-2.1-8-1.8-6.9-9.8-22.4-14.9-28.5-6.7-8.2-17.6-17.5-20.4-17.5-.5 0-1.6-.8-2.5-1.8-1.4-1.5-1.6-8.4-2-58.2-.3-54.2-.4-56.8-2.5-64.5-9-33.1-27-54.3-53.2-62.8l-4.5-1.5v-25.7l8-.6c11-.8 15.9-3.6 19.9-11.6 2.3-4.5 2.4-53.2.1-58.6-1.8-4.3-8.6-10.3-12.7-11.1-4-.8-335.6-.8-339.6 0-4.1.8-10.9 6.8-12.7 11.1-2.3 5.4-2.2 54.1.1 58.6 4 8 8.9 10.8 19.9 11.6l8 .6.3 197.2L32 946H22c-12.1 0-16 1.4-18.8 6.7-2.6 4.8-.5 11.7 4.4 14.3 2.4 1.3 65.8 1.5 504.9 1.5 500.7 0 502.3 0 504.5-2 7.1-6.4 6-15.6-2.3-19.3-1.6-.7-7.1-1.2-12.7-1.2h-10V552h5.6c11.3 0 18.7-3.8 22.3-11.4 2-4.3 2.1-6.1 2.1-30.3-.1-24.9-.1-26-2.4-30.3-1.5-3.1-3.8-5.5-7.1-7.5l-4.8-3H837.6c-170 0-170.1 0-173.6 2.1-1.9 1.1-5 4.2-6.8 6.8l-3.2 4.8v27c0 24.9.1 27.2 2 30.8 3.7 7.3 11 11 21.6 11h6.4v25.7l-7.2 2.4c-18 6-34.3 21.3-43.5 40.9-10 21.3-11.3 32.2-11.3 97.1 0 43.8-.1 47-1.7 47.6-3.6 1.3-12.9 8.3-17.4 13-6.8 7.1-12.9 16.9-18 28.8-7.4 17.4-9.3 66.2-3.2 84.5 3.6 11.1 13.4 20.5 24.1 23 9.1 2.1 20.1-1.8 28.1-10 3.3-3.5 5.1-6.4 9.2-15.5 1.1-2.4 1.4-13.9 1.7-55.3l.3-52.3 4.2.3 4.2.3.3 13c.2 13.5 1 16.7 4.7 18.8 1.1.7 7.2 1.4 13.5 1.7l11.5.5v130l-65.9.3c-52.1.2-66.1 0-66.8-1-.4-.7-.8-86.4-.8-190.4 0-145.7.3-189.3 1.2-190.2s7.3-1.2 22.5-1.2c19.6 0 21.7-.2 25.8-2.1 5.6-2.6 11.7-9.5 13.3-14.7 1.7-5.5 1.7-193.8.1-199.3-1.5-4.8-6-10.3-11.3-13.7-4.1-2.7-4.3-2.7-26.6-3.2-12.4-.3-23.1-.9-23.7-1.3-1-.6-1.3-15.3-1.3-67.7 0-65.1.1-67 1.9-68 1.3-.7 66-1 202-1H954l3.2-2.9 3.3-2.9.3-17.6.3-17.6h23.5c26 0 27.8-.4 31.4-6.3 1.9-3 2-5.2 1.9-42.2 0-34.6-.2-39.4-1.7-42.5-.9-1.9-2.8-4-4.2-4.7-2-1-101.2-1.3-500-1.2-293.2 0-498.4.4-499.7.9m983.5 47.2.2 25.8-482.6.2c-265.4.2-483.2-.1-484-.5-1.1-.7-1.4-5.1-1.4-25.6 0-13.6.3-25.1.7-25.4.3-.4 218-.6 483.7-.5l483.1.3zm-57 58-.3 9.3h-853l-.3-9.3-.3-9.2h854.2zm-411 100.6.2 68.2-16.2-.2-16.3-.3-.3-66.9c-.1-49.3.1-67.2.9-68.3.9-1.1 4.4-1.3 16.3-1.1l15.1.3zm63.7 185.7v94h-159l-.3-93c-.1-51.2 0-93.6.3-94.3.3-1 16.8-1.2 79.7-1l79.3.3zm-243.7 63.2c-.2 14.3-.6 18.8-1.5 18.7-.7-.1-73.5-.2-161.8-.3L24 529v-37h324zm652.2-.2V529l-160.5.1c-88.3.1-161.1.2-161.7.3-1 .1-1.4-4.4-1.6-18.7L676 492h324zM318 716.9v164.9l-2.2.6c-3 .8-256.6.8-259.5 0l-2.3-.6V552h264zm652 0v164.9l-2.2.6c-3 .8-256.6.8-259.5 0l-2.3-.6V552h264zm-442 38.6V947h-15.9c-13.6 0-16-.2-16.5-1.6-.8-2-.8-377.8 0-379.8.5-1.4 2.9-1.6 16.5-1.6H528zM348.6 604.7c6.7 3.6 16.8 15.2 21.3 24.5 8.4 17.5 8.3 16.7 8.8 75.6.3 37.2.1 52.7-.6 53.6-.7.8-2.6 1.3-4.4 1.2l-3.2-.2-.3-13.5c-.2-13.2-.3-13.6-3.1-16.9l-2.8-3.4-11.9-.6-11.9-.5-.3-60.5c-.1-33.3 0-61.1.3-61.7.5-1.4 1.6-1 8.1 2.4M684 663.4v61.4l-12.1.3-12.1.4-2.9 3.4c-2.8 3.4-2.9 3.7-3.1 17l-.3 13.5-3.2.2c-1.8.1-3.8-.4-4.4-1.2-1.8-2.2-.6-103.3 1.4-110.4 5.5-20.3 14.3-33.9 27-42.1 10.7-6.9 9.7-12.8 9.7 57.5M347.8 770.7l.2 23.3h-8v-22.8c0-12.6.3-23.2.7-23.6s2.1-.6 3.8-.4l3 .3zm336 0 .2 23.3h-8v-22.8c0-12.6.3-23.2.7-23.6s2.1-.6 3.8-.4l3 .3zm-276.9 25.9c6.5 7.4 9.1 12.8 14.2 29.4 1 3.4 1.4 11.3 1.4 31 0 25.1-.1 26.7-2.1 30-1.1 1.9-3.5 4.3-5.2 5.3-2.8 1.7-3.3 1.7-6 .3-1.6-.8-4-3.2-5.3-5.3l-2.4-3.8-.3-45.8c-.2-28.8.1-45.7.7-45.7.5 0 2.8 2.1 5 4.6m215.9 41.5-.3 44.4-2.8 4.7c-6.1 10.5-16.5 5.9-18.3-7.9-.9-7.8.1-50.3 1.4-53.3.5-1.4 1.6-4.5 2.3-7 3.1-10.9 14.7-28.6 17.1-26.2.6.6.8 18.9.6 45.3M317.5 926v20.5h-263l-.3-19.5c-.1-10.7 0-20 .2-20.7.4-1.1 25.7-1.3 131.8-1.1l131.3.3zm652 0v20.5h-263l-.3-19.5c-.1-10.7 0-20 .2-20.7.4-1.1 25.7-1.3 131.8-1.1l131.3.3zM464.4 381.5c-7.6 3.3-8.7 13.4-2 18.7 1.9 1.6 6.1 1.8 49.6 1.8s47.7-.2 49.6-1.8c6.5-5.2 5.6-15-1.7-18.8-4-2-90.8-2-95.5.1m.1 55.9c-7.6 3.3-8.8 13.5-2.1 18.8 1.9 1.6 6.1 1.8 49.8 1.8h47.6l3.1-3.1c5.5-5.4 3.6-14.5-3.6-17.5-4.7-2-90.3-2-94.8 0m-.5 56.3c-3.3 1.3-6 5.8-6 10 0 6 4 9.8 11.2 10.6 7.6 1 81.4.7 87.2-.2 3.7-.6 5.6-1.6 7.3-3.7 3.1-4 3.1-9.9-.1-13.9l-2.4-3-47.9-.2c-26.3-.1-48.5.1-49.3.4M96.4 578.6c-6.3 3.1-6.4 3.8-6.4 51.9 0 43.4.2 46.6 3.5 50.1 3.2 3.3 4.8 3.4 92.5 3.4 95.6 0 91.3.3 94.5-6 2.3-4.4 2.2-90.7-.1-95.1-3.1-6.1-.1-5.9-94.6-5.9-75.2 0-86.7.2-89.4 1.6m163.1 51.9v31l-72.9.3c-57.7.2-73.1 0-73.8-1-1.3-2.2-1-59.2.4-60.6.9-.9 18.2-1.2 73.8-1l72.5.3zm-161 79.2c-2.7.7-5.4 3.2-7.1 6.5-2 3.9-2.1 88.3 0 93.1 2.7 6.6 3.3 6.7 35.6 6.7 31.9 0 32.4-.1 35.6-6.1 2.1-4.1 2.1-90.3 0-94.4-3.1-5.9-3.5-6-34.1-6.2-15.4-.1-28.9.1-30 .4m41.3 21.9 2.2.6v61.9l-14.7-.3-14.8-.3-.3-30c-.2-27.3-.1-30.1 1.5-31.3 1.8-1.3 21.7-1.7 26.1-.6m49.5-21.9c-1.2.2-3.3 1.6-4.7 3-2.1 2.1-2.6 3.5-2.6 7.8 0 4.7.4 5.6 3.1 7.9l3.1 2.6h43.2c41.9 0 43.4-.1 45.9-2 3.7-2.9 5.2-8.1 3.6-12.5-2.6-7.1-1.6-7-47.9-7.1-22.8-.1-42.5 0-43.7.3m5.7 35c-3.5 2.4-4.7 4.3-5.4 8.3-.9 5.5.4 10.8 3.4 14 2.4 2.5 3.6 3 7.7 3 5.1 0 7.5-1.6 10.2-6.7 2.9-5.7-.4-17.4-5.5-19.3-3.8-1.5-7.7-1.2-10.4.7m31.2-.5c-3 1.5-6.2 7.8-6.2 12.1 0 8.2 4.8 13.7 11.8 13.7 7.5 0 12.2-7.1 10.8-16.4q-1.5-9.45-9.6-10.2c-2.5-.2-5.5.2-6.8.8m31.2-.2c-6.9 2.8-8.4 16.6-2.4 23 5.2 5.5 14.5 3.5 17.5-3.8 5-11.7-4.4-23.6-15.1-19.2m-61.5 33.5c-7.9 4.3-8.9 17.9-1.8 23.9 5.3 4.5 12.2 3 15.8-3.4 4.1-7.4 1.9-17-4.8-20.5-3.7-1.8-5.8-1.9-9.2 0m30.4.5c-5.6 3.4-7.7 11.4-4.8 18.3 3.4 8.1 11 10.1 17.2 4.3 3.5-3.1 3.7-3.6 3.7-9.7.1-7.2-1.8-11-6.5-13.5-3.7-1.9-5.8-1.8-9.6.6m30.9 0c-4.5 2.7-6.6 8-5.8 14.5 1.1 9.5 10.4 14.6 17.1 9.3 7.4-5.8 7-19.1-.8-23.8-4.1-2.5-6.4-2.5-10.5 0m491.1-199.5c-6.3 2.7-6.3 2.7-6.3 52 0 37.9.2 45 1.5 47.5 3.2 6.3-1.1 6 94.5 6 87.7 0 89.3-.1 92.5-3.4 3.3-3.5 3.5-6.7 3.5-50.1 0-38.5-.2-43.8-1.7-46.9-3.3-6.9 1.4-6.6-94.5-6.6-71.3.1-86.9.3-89.5 1.5m163.2 52v31h-147l-.3-30c-.1-16.5 0-30.5.3-31.2.3-1.1 15.3-1.3 73.7-1.1l73.3.3zm-161 79.2c-3.7 1-6.2 3.4-7.5 7.3-1.5 4.7-.2 8.9 3.8 12 2.4 1.9 4.2 2 45.9 2h43.5l2.9-2.9c2.4-2.5 2.9-3.8 2.9-7.9 0-5.7-2.9-9.5-8.1-10.6-3.7-.7-80.5-.6-83.4.1m118 .1c-3.2 1.1-4.9 2.5-6.8 5.4-1.5 2.5-1.7 6.8-1.7 47.3 0 48.2 0 48.3 5.4 51.9 2.2 1.4 6.3 1.6 31.6 1.6 25.7 0 29.4-.2 31.7-1.7 5.2-3.4 5.3-4.7 5.3-51.8 0-46.5 0-46.5-5-51-2.1-1.9-3.8-2-30.4-2.2-15.4-.1-29 .1-30.1.5m42.4 22.6c.8.9 1.1 10 .9 31.2l-.3 29.9-14.7.3-14.8.3v-30.9c0-17 .3-31.2.7-31.5.3-.4 6.6-.7 13.8-.7 10 0 13.5.3 14.4 1.4M755.7 745c-5.5 4.4-7.1 11.3-4.2 18.2.8 1.9 2.5 4.2 3.9 5.2 3.5 2.3 9.7 2.1 12.9-.5 5.2-4 5.9-15.6 1.4-21.3-3.2-3.9-10-4.7-14-1.6m31.7-1c-6.9 2.8-8.4 16.6-2.4 23 5.2 5.5 14.5 3.5 17.5-3.8 5-11.7-4.4-23.6-15.1-19.2m30.6.3c-5.2 2.6-7.7 13.5-4.5 19.7 2.1 4.2 5.3 6 10.3 6 5.5 0 9.6-3.9 10.6-10 .6-3.9-.5-10.2-2.1-12.6-3-4.1-9.5-5.5-14.3-3.1M756.3 778c-5.6 3.4-7.7 11.4-4.8 18.3 2.9 7 10.1 9.7 15.5 6 3.7-2.6 4.8-4.4 5.6-9 .9-6.1-1.3-12.2-5.5-15s-6.6-2.9-10.8-.3m30.9 0c-4.5 2.7-6.6 8-5.8 14.5.4 4 1.2 5.6 4.1 8.2 5.6 5.3 12.5 4.2 16.4-2.7 3.8-6.9 1.9-16.3-4.2-20-4.1-2.5-6.4-2.5-10.5 0m30.5.1c-5.9 4.5-7.5 13-3.6 19.9 7 12.4 23 3.8 20.3-10.8-.9-4.8-3-7.9-6.5-9.8-3.8-1.9-6.9-1.7-10.2.7"/></svg>