<svg xmlns="http://www.w3.org/2000/svg" width="1365.333" height="1365.333" viewBox="0 0 1024 1024"><path d="M200 1.2c-21.6 5.9-31.4 11.2-43.6 23.3-22.1 22.2-29.8 53.7-20.1 83 4.4 13.4 10.9 23.6 22.5 35l6.2 6.2-.2 40.9-.3 40.9-16.2.3-16.3.2-.2-41.1-.3-41.1h-15.4c-8.4 0-15.7.4-16.2.9s-1 18.9-1.1 40.8l-.3 40-16.2.3-16.3.2-.2-41.1-.3-41.1H50.1c-8.4 0-15.7.4-16.2.9s-1 18.9-1.1 40.8l-.3 40-16.3.3L0 231v33l16.3.2 16.2.3.3 15.4c.1 9-.1 15.8-.7 16.4s-7.6.9-16.5.8L0 296.9V396h1024v-99.1l-15.6.2c-8.9.1-15.9-.2-16.5-.8s-.8-7.4-.7-16.4l.3-15.4 16.3-.3 16.2-.2v-33l-16.2-.2-16.3-.3-.3-40c-.1-21.9-.6-40.3-1.1-40.8s-7.8-.9-16.2-.9h-15.4l-.3 41.1-.2 41.1-16.3-.2-16.2-.3-.3-40c-.1-21.9-.6-40.3-1.1-40.8s-7.8-.9-16.2-.9h-15.4l-.3 41.1-.2 41.1-16.3-.2-16.2-.3-.3-41.1-.2-41.1 4.2-3.9c22.1-19.7 32.5-48.5 27.4-75.5-2.5-13-6.3-22.4-13-32.4-10.4-15.6-28.7-28.8-46.1-33.3-2.2-.6-5.9-1.5-8.1-2.1-5-1.3-24.4-1.5-27.6-.2-1.3.5-4.8 1.4-7.8 2.1-3 .6-10.1 3.4-15.7 6.2-12.2 6-23.8 16.1-31.2 27.2-4.9 7.3-9.1 15.6-9.1 17.9 0 .7-.4 1.7-.8 2.3-2.2 2.4-3.7 13.7-3.7 26.9.1 12 .4 15.1 2.5 21.5 5.1 15.9 13 28.4 24.1 38.2l5.9 5.3v12.7c0 7.1-.3 12.8-.6 12.8-.7 0-1.5-.9-8.4-9-15.6-18.5-36.7-34.8-59.5-45.9-6-2.9-12.1-5.8-13.5-6.4-1.4-.5-3.4-1.3-4.5-1.8-4.1-1.7-18.5-5.8-27.5-7.8-16-3.5-18.8-3.6-134-3.6s-118 .1-134 3.6c-10.7 2.4-23.2 6.2-29.7 9-2.4 1.1-4.7 1.9-5.2 1.9-1.9 0-24.2 12-31.8 17.1-16.2 10.9-32.8 26.1-43.3 39.7-1.4 1.7-2.8 3.2-3.2 3.2-.5 0-.8-5.7-.8-12.8v-12.7l5.9-5.3c11.1-9.8 19-22.3 24.1-38.2 2.1-6.5 2.4-9.4 2.5-22 0-16.6-.7-20.2-6.6-34-7-16.3-21.6-31.6-38.2-39.8C246.1 6.4 239 3.6 236 3c-3-.7-6.5-1.6-7.8-2.1-3-1.2-23.7-1-28.2.3m31.7 35c33.9 12.5 43.3 55.7 17.7 81.2-9.5 9.6-21.6 14.6-35.1 14.6-7.9 0-12.7-1.2-21.2-5.3-12.2-5.8-21.9-17.4-26.2-31.2-1.6-5.2-1.6-20.8 0-26 5-16.2 16.9-28.3 33.6-34.3 7.6-2.8 22.5-2.3 31.2 1m592-1.1c17.7 7.3 28.4 18.2 33.4 34.4 1.6 5.2 1.6 20.8 0 26-4.3 13.8-14 25.4-26.2 31.2-8.5 4.1-13.3 5.3-21.2 5.3-13.5 0-25.6-5-35.1-14.6-9.8-9.7-14.6-21.2-14.6-35 0-23.6 17-44.2 40-48.5 5.6-1 20-.3 23.7 1.2M429.8 179.5c.1 25.8 0 48-.3 49.3-.5 2.2-.6 2.2-16.8 2l-16.2-.3-.3-47.4c-.1-30.4.1-47.8.8-48.5 1.6-1.6 8.8-2.4 21-2.2l11.5.1zm65.7 2v49h-33l-.3-48c-.1-26.4 0-48.6.3-49.3.3-1 4.3-1.2 16.7-1l16.3.3zm66 0v49h-33l-.3-48c-.1-26.4 0-48.6.3-49.3.3-1 4.3-1.2 16.7-1l16.3.3zm64.3-47.6 2.2 1.2-.2 47.7-.3 47.7-15.9.3c-12.1.2-16.1-.1-16.8-1-1-1.6-1.1-96.2 0-97.2 1.1-1.3 28.4-.1 31 1.3m-262 50.6c.1 23.1 0 43-.3 44.3-.5 2.2-.6 2.2-16.8 2l-16.2-.3v-72.8l4-2.3c2.2-1.3 8.3-4.4 13.5-7 5.2-2.5 10.2-5 11-5.4.8-.5 2.2-.8 3-.7 1.3.2 1.5 5.8 1.8 42.2m301-41.6c.9.4 6.4 3.1 12.2 6 5.8 2.8 12 6 13.8 7.1l3.2 2-.2 36.2-.3 36.3-15.9.3c-12.1.2-16.1-.1-16.8-1-.9-1.5-1.1-86.2-.1-87.1.9-.9 2-.9 4.1.2M231 263.6c0 78.5-.3 99.3-1.2 99.5-.7.2-8.2.3-16.5.1l-15.3-.3V164.5h33zm595 .1v99.2l-15.2.3c-8.4.2-15.9.1-16.5-.1-1-.2-1.3-21-1.3-99.5v-99.1h33zM297 210v21h-12.5c-11.8 0-12.5-.1-12.5-2 0-5.3 21.3-40 24.5-40 .3 0 .5 9.4.5 21m435.5-15.7c7.4 10.3 9.7 14 14.4 23.2 7.3 14 7.6 13.5-7.4 13.5H727v-21c0-23 .1-23.3 5.5-15.7M98.8 280.7c.2 12.7 0 16.3-1 16.4-1.2 0-29.3 0-31-.1-1 0-1-31.4-.1-32.4.4-.3 7.7-.5 16.2-.4l15.6.3zm66-.1c.2 12.4 0 16.3-1 16.5-.7.2-8.2.3-16.5.1l-15.3-.3v-15.8c0-8.7.3-16.1.7-16.5.4-.3 7.7-.5 16.2-.4l15.6.3zm331 32.4c.2 40 0 48.7-1.1 49.5-.9.7-40.8.9-116 .7L264 363v-48.8c0-26.9.3-49.2.7-49.5.3-.4 52.4-.6 115.7-.5l115.1.3zm264 .7.2 49.3-114.6.2c-63 .2-115.2-.1-116-.5-1.2-.7-1.4-8.3-1.4-49.1 0-26.5.3-48.6.7-48.9.3-.4 52.4-.6 115.7-.5l115.1.3zm132-33 .2 16.2-15.2.3c-8.4.2-15.9.1-16.5-.1-1-.2-1.3-4.3-1.3-16 0-8.7.3-16.1.7-16.5.4-.3 7.7-.5 16.2-.4l15.6.3zm66 0c.1 9-.1 16.3-.5 16.3-1.9.1-29.9.1-31 .1-1-.1-1.3-4-1.3-15.9 0-8.7.3-16.2.7-16.6.4-.3 7.7-.5 16.2-.4l15.6.3zm-793 66c.2 10.7-.1 16.3-.8 16.3-26.7.3-129.4-.1-130.1-.5-1-.7-1.3-30.8-.2-31.8.3-.4 29.9-.6 65.7-.5l65.1.3zm826-.8c.1 8.5-.1 15.8-.6 16.3-.6.6-96 1.2-130.2.8-1.1 0-1.4-31.2-.3-32.3.3-.4 29.9-.6 65.7-.5l65.1.3zm-800.3 85.2c-20.9 3.8-39.2 9.8-52.2 17.1-1.8 1-5 2.8-7 3.9-22.5 12.7-47 37.3-59.3 59.4-6.4 11.6-12 23.7-12 26 0 .7-.4 1.6-.9 1.9-.4.3-1.1 1.8-1.5 3.3-.3 1.6-1.5 6.2-2.6 10.3-5 18.4-5 18.8-5 131.9 0 83.5-.3 106.1-1.3 106.9-.6.5-3.4 1.2-6.2 1.6-8.7 1.2-15.2 4-23.2 10-6.3 4.9-9.8 8.9-13 15.1-6 11.8-6.3 13.6-6.3 44.8V892l173.3.2 173.2.3v32l-13.7.6c-15.6.7-20.2 1.9-29.8 8.3-5.7 3.8-9.8 7.9-13.6 13.6-2.8 4.3-3.6 5.9-6.4 12.5-.7 1.6-1.4 8.4-1.7 15-.2 6.6-.6 13-.9 14.2l-.4 2.3H0v33h1024v-33H744l-.4-2.2c-.3-1.3-.7-7.7-.9-14.3-.3-6.6-1-13.4-1.7-15-2.8-6.6-3.6-8.2-6.4-12.5-3.8-5.7-7.9-9.8-13.6-13.6-9.6-6.4-14.2-7.6-29.8-8.3l-13.7-.6v-32l173.3-.3 173.2-.2v-28.7c0-30.3-.1-30.9-5.2-42.2-6.7-14.8-21.2-25.5-37.3-27.7-2.7-.4-5.6-1.1-6.2-1.6-1-.8-1.3-23.5-1.3-107.4 0-58.5-.4-108.5-.9-111.1s-1.4-8-2.1-11.8c-3.7-20.8-16.4-48.8-30.4-67-24.6-31.7-59.5-53.8-97.1-61.4-13-2.7-18.1-3.1-34.4-3.1-16.4 0-24.1.8-37.6 3.9-51.8 12-95.6 49.7-115.5 99.6-8.9 22.1-12 40.9-12 72.2 0 11.2-.4 20.3-.9 20.3s-2.1-1.7-3.7-3.8c-14-18.6-41.5-38.9-65.9-48.6-13.2-5.3-21.6-7.5-38.9-10.6-7.7-1.3-37.5-1.3-45.2 0-17.3 3.1-25.7 5.3-38.9 10.6-24.4 9.7-51.9 30-65.9 48.6-1.6 2.1-3.2 3.8-3.7 3.8s-.9-9.1-.9-20.3c0-31.2-3.1-50-12-72.2-10.4-26.2-28.2-50.1-50-67.4-14-11.1-23.9-16.9-42.5-25.1-7.4-3.3-19.9-6.7-35-9.5-9-1.6-41.5-1.9-50-.4m39 32.4c14.3 1.9 22.6 3.8 32 7.5 6.3 2.4 20.9 9.9 26.5 13.7 27.1 18.1 48.1 48.3 55 79.3.7 3 1.8 7.1 2.3 9 1.6 5.3 2.2 216.7.6 218.6-1 1.2-20.2 1.4-131.3 1.4-99.9 0-130.5-.3-131.4-1.2-1.5-1.5-1.7-191.1-.2-206.9 3.2-33.5 15.7-60.6 38.5-83.4 18.8-18.8 43.3-32 67.5-36.4 19-3.4 25.3-3.6 40.5-1.6m594.5-.1c12.8 1.7 17.6 2.8 27.7 6.2 32.4 10.8 60.7 35.8 76.2 67.1 7.3 14.8 11.3 29.3 13.1 48.1 1.5 15.7 1.3 205.5-.2 207-.9.9-31.5 1.2-131.4 1.2-111.1 0-130.3-.2-131.3-1.4-1.8-2.1-.9-213 .8-220.1 3.4-13.7 6.2-22.7 9.2-29.2 1-2.4 1.9-4.5 1.9-4.7 0-1.2 9-15.9 13.1-21.4 13.5-17.9 29.2-31 48.4-40.2 12.6-6 16.9-7.5 30-10.6 5.1-1.2 20.7-3.1 26.5-3.3 3 0 10.2.6 16 1.3M521.6 595c13.4 1.3 22 3 31.9 6.2 14.6 4.8 32.4 14.9 44.7 25.5 12.1 10.3 25.7 28.2 32.7 42.8 5 10.4 6.3 13.9 9 24.5 4.2 16.5 4.3 19.1 3.9 127l-.3 103.5h-263l-.3-104c-.3-103.3-.2-108.3 3-123 5.6-25.7 20.9-51.4 41.7-69.9 14.6-13 34.1-23.5 52.6-28.4 7.6-2.1 10-2.5 21-3.7 6.1-.7 11.3-1.3 11.6-1.4.3 0 5.5.4 11.5.9M346.8 841.4c.2 10.1-.1 15.3-.9 16.2-1 1.2-25.2 1.4-155.8 1.4-86.9 0-155.2-.4-156-.9-1.1-.7-1.3-3.1-.9-11.4.4-9.6.7-10.9 3.2-14.2 5.2-6.8-6.3-6.4 159.6-6.2l150.5.2zm634.5-13.9c2 .8 4.8 3.1 6.3 5.1 2.5 3.2 2.8 4.5 3.2 14.1.4 8.3.2 10.7-.9 11.4-2.3 1.4-310.2 1.2-311.7-.3-1.3-1.3-1.8-29.9-.5-31.1.3-.4 68-.7 150.3-.7 130.3 0 150.2.2 153.3 1.5M700.1 959.4c3.6 1.5 6.7 4.6 8.7 8.6.8 1.6 1.2 6 1 12.5l-.3 10h-395l-.3-9.9c-.4-12.9 1.9-17.8 9.6-21.3 2.1-.9 47.7-1.2 187.8-1.2 157.4-.1 185.7.1 188.5 1.3M198 512v16h-15.3c-10.6 0-15.7.4-16.5 1.2-1.3 1.3-1.8 28.1-.6 31.2.5 1.4 2.9 1.6 16.5 1.6H198l.2 32.7.3 32.8h32l.5-32.5.5-32.5 16-.5 16-.5v-33l-16-.5-16-.5-.3-15.8-.3-15.7H198zm-57.5 149.7c-8.9 2-19.1 11-22.4 19.6-1.9 5.3-2.1 7.7-2.1 29.2 0 22.6.1 23.6 2.4 28.9 4.4 9.9 12.6 16.8 23.1 19.5 2.6.7 28.4 1.1 73.5 1.1 76.8 0 74.7.1 84.6-6.4 5.7-3.8 10.6-10.8 12.9-18.2 1.8-6 2.1-44.1.4-49.5-3.3-10.1-9.1-17.4-17.4-21.7l-5-2.7-74-.1c-40.7-.1-74.9 0-76 .3m140.3 47.7c.2 10.1-.1 15.3-.9 16.2-1 1.2-11.7 1.4-64.6 1.4-41.8 0-64.1-.4-65.4-1-1.7-1-1.9-2.3-1.9-15.9 0-8.1.3-15.1.7-15.4.3-.4 30.2-.6 66.2-.5l65.6.3zm512-197.7-.3 15.8-16 .5-16 .5v33l16 .5 16 .5.5 32.5.5 32.5h32l.3-32.8.2-32.7h15.9c13.6 0 16-.2 16.5-1.6 1.2-3.1.7-29.9-.6-31.2-.8-.8-5.9-1.2-16.5-1.2H826v-32h-32.9zm-58.3 150.2c-10.8 2.7-19.4 11.5-23.4 24-1.7 5.4-1.4 43.5.4 49.5 2.2 7.3 7 14 12.8 18 9.8 6.7 7.6 6.6 84.7 6.6 45.1 0 70.9-.4 73.5-1.1 10.6-2.7 18.7-9.6 23.1-19.6 2.5-5.5 2.5-5.9 2.2-30.2l-.3-24.6-2.9-5.8c-3-6.1-7.5-10.6-14.8-14.7l-4.3-2.5-74-.2c-40.7-.1-75.3.2-77 .6m141.3 47.6c.2 13.2.1 15.1-1.5 16.2-2.4 1.8-128.3 1.9-130.1.1-1.3-1.3-1.8-29.9-.5-31.1.3-.4 30.2-.6 66.2-.5l65.6.3zm-380-65.8-.3 15.8-15.7.5c-9.2.3-16.2.9-16.8 1.6-.7.7-1 6.5-.8 16.5l.3 15.4 16.5.5 16.5.5.3 32.7.2 32.8h32l.2-32.8.3-32.7 16.5-.5 16.5-.5.3-15.4c.2-10-.1-15.8-.8-16.5-.6-.7-7.6-1.3-16.8-1.6l-15.7-.5-.3-15.8-.3-15.7h-31.8zm-58.3 150.2c-8.5 2.1-16.7 8.9-21.4 17.6l-2.6 5V842c0 24.7.1 25.6 2.3 30.2 4.7 9.5 11.7 15.4 22.1 18.7 4.7 1.5 143.5 1.5 148.2 0 10.4-3.3 17.4-9.2 22.1-18.7 2.2-4.6 2.3-5.5 2.3-30.2v-25.5l-2.6-5c-3.4-6.3-9.9-12.8-15.8-15.7l-4.6-2.3-73.5-.2c-40.4-.1-74.8.2-76.5.6m140.3 48.3-.3 16.3h-131l-.3-16.3-.2-16.2h132z"/></svg>