<svg xmlns="http://www.w3.org/2000/svg" width="1365.333" height="1365.333" viewBox="0 0 1024 1024"><path d="M197 1c-.8.5-2.4 1-3.4 1-4 0-18.2 7.9-23.7 13.2-7.7 7.3-11.7 13.6-15.6 24.3-1.7 4.6-1.8 10.7-2.1 78.7L152 192H91.6c-40.6 0-61.4.4-63.7 1.1-10.8 3.4-19.2 10.8-23.5 20.5L2 219.1v158.3l2.2 3.2c3.1 4.6 6.1 5.9 12.9 5.9 5.1-.1 6.2-.5 9-3 6.1-5.9 5.9-2.7 5.9-84.1V225l2.3-1.5c2.1-1.3 9.6-1.5 59.8-1.3l57.4.3.5 73.5c.4 46.9 1 74.8 1.6 77 2.4 7.9 7.9 17.5 13.8 23.9 5.4 5.8 20.8 15.1 25 15.1.8 0 2.7.5 4.1 1.2l2.5 1.1-.2 289.6-.3 289.6-80.9.3c-71.2.2-81.2 0-83.3-1.3L32 991V710.8c0-277.7 0-280.2-2-284.2-2.7-5.6-7.6-8.6-14-8.6-4.5 0-5.4.4-9.5 4.3L2 426.7v570.2l2.4 5.5c3.3 7.4 10.2 14.7 16.8 17.5 2.9 1.3 6.1 2.7 7 3.2 1 .5 137.6.9 321.5.8 302.8 0 320-.1 322.8-1.8 4.9-2.9 7.5-7.6 7.5-13.8 0-5-.3-5.6-4.5-9.8l-4.4-4.5H528l-.5-2.3c-.3-1.2-.4-131.6-.3-289.7l.3-287.5 132.9-.3c105.7-.2 133.1 0 133.8 1 .9 1.5 1.1 573.1.2 576.6l-.6 2.2h-36.3c-35.9 0-36.2 0-39.5 2.2-4.9 3.4-7.2 8.3-6.6 14.1.6 5.5 2.1 8 7 11.3l3.5 2.4H858c77 0 136.8-.4 137.8-.9.9-.5 4.1-1.9 7-3.2 6.6-2.8 13.5-10.1 16.8-17.5l2.4-5.5V219.1l-2.4-5.5c-4.3-9.7-12.7-17.1-23.5-20.5-2.3-.7-23.1-1.1-63.7-1.1H872l-.2-73.8c-.3-68.3-.4-74.1-2.1-78.7-6.2-16.9-17.1-28.8-31.8-34.7C825.6-.1 827 0 770.2 0H716l-3.9 2.4c-8.9 5.7-9.4 18.7-.8 25 2.8 2 4.2 2.1 56.5 2.6l53.7.5 5.9 2.9c6.5 3.2 11.2 8.8 13.3 15.9 1.8 5.9 1.9 308.9.1 315.1-2.5 8.8-8.7 15.1-17.8 18.3-5.1 1.8-616.9 1.8-622 0-8.8-3.1-14.8-9.1-17.8-17.8-1.8-5.2-1.7-309.6.1-315.4 1.8-6 5.2-10.9 9.6-13.9 8.6-6-7-5.6 242-5.6 226.3 0 228.6 0 231.9-2 9.7-5.9 9.6-20.3-.3-26.1C663.7.2 650.7.1 431 .1 282.5.1 198 .4 197 1m792.8 222.6 2.2 1.5V991l-2.3 1.5c-2.1 1.3-12.1 1.5-83.3 1.3l-80.9-.3-.3-289.6-.2-289.6 2.5-1.1c1.4-.7 3.3-1.2 4.1-1.2 4.2 0 19.6-9.3 25-15.1 3.8-4.1 8.4-11.1 10.8-16.2 4.5-9.9 4.6-10.9 4.6-86.1 0-39.2.3-71.6.7-71.9.3-.4 26.3-.7 57.7-.7 50.1 0 57.4.2 59.4 1.6M496.8 702c.1 158.1 0 288.5-.3 289.8l-.5 2.2H230.2l-.6-2.3c-.8-2.9-.8-574.1 0-576.1.6-1.5 13-1.6 133.8-1.4l133.1.3zM380.1 440.1c-1.9 1.2-4.7 3.3-6.1 4.8-1.4 1.4-7.5 7.3-13.6 13.1-37.4 35.9-36.4 34.8-36.4 41.3 0 4.9 2.1 8.9 6.3 12.1 2.7 2.1 4.5 2.6 8.8 2.6 7.3 0 6.1 1 46.4-37.9 15.2-14.7 16.5-16.5 16.5-23.2 0-4-.6-6-2.6-8.6-4.9-6.4-12.8-8.2-19.3-4.2m-91.2 87.8c-2 1-8.4 6.4-14.1 12-11.9 11.5-13.8 15.1-11.7 22 1.5 5.2 6.6 10 11.2 10.8 7.4 1.2 10.2-.2 21-10.5 12.9-12.2 14.7-14.8 14.7-20.7 0-6.7-3.2-11.3-9.7-14.1-4.3-1.8-7-1.7-11.4.5m89.6 6.4c-1.6.8-9.7 7.9-18 15.8-8.2 8-17.6 16.9-20.9 19.9-8.5 8-9.9 10.3-9.9 16.6 0 6.4 3.3 11.6 9 13.9 8.3 3.5 12 1.4 32.8-18.7 8.3-7.9 16.8-16 18.9-17.9 5.4-4.7 9.6-11.5 9.6-15.7 0-4.1-3.4-10.6-6.7-12.8-3.4-2.1-11.2-2.7-14.8-1.1m15.9 87.2c-4.5 2-10 8.8-10.8 13.3-1.1 6.6-.7 121.4.5 125.5.5 2.1 2.4 5.3 4.1 7.3 5.3 6 7.4 6.4 32.4 6.4 21.6 0 22.6-.1 25.9-2.3 3.5-2.2 7.5-9 7.5-12.6 0-4.5-4.1-10.7-9-13.7-.8-.5-8.2-1.1-16.5-1.4l-15-.5v-93l15-.5c8.3-.3 15.7-.9 16.5-1.4 4.9-3 9-9.2 9-13.7 0-3.6-4-10.4-7.5-12.7-3.4-2.1-4.3-2.2-26.2-2.1-17 0-23.6.4-25.9 1.4M396 55.6c-22 3.8-39.3 19.4-44.9 40.5l-1.3 4.6-17.1.6c-14.4.4-18.2.9-23.2 2.8-15.6 5.8-29.2 20-34.2 35.8-1.6 5.1-1.8 10.9-1.8 67.6v62l2.3 6.2c6.5 17.6 17.4 28.3 36 35.3 1.8.7 10.8 1.5 20.4 1.9l17.1.6 2.9 7.9c3.5 9.8 7.3 15.9 14.1 22.3 6.4 6.1 11.4 9.3 19.2 12.3 5.5 2.2 7.8 2.4 28 2.8 25 .4 28.6-.1 34.5-5.4 7.5-6.8 7.4-6.4 8-48.7l.5-37.8h111l.5 37.8c.6 42.3.5 41.9 8 48.7 5.9 5.3 9.5 5.8 34.5 5.4 20.2-.4 22.5-.6 28-2.8 7.8-3 12.8-6.2 19.2-12.3 6.8-6.4 10.8-12.7 14.1-22.4l2.7-7.8 17.5-.6c10.5-.4 18.7-1.1 20.5-1.9 10.6-4.5 16.5-8.1 22-13.5 6.6-6.5 10.1-12.1 13.7-21.8l2.3-6.2V207c0-61-.1-62.6-2.1-68.2-6.1-16.5-18.6-29.2-34-34.7-4.9-1.7-9.4-2.2-23.2-2.8l-17-.6-1.3-4.6c-5-18.6-20-33.9-38.4-39.2-3.7-1-10.9-1.4-27.5-1.4-19.4 0-23 .2-26.1 1.7-4 2-9.3 7.5-11.2 11.7-.8 1.8-1.4 14.5-1.7 40.6l-.5 38h-111l-.5-38c-.3-26.1-.9-38.8-1.7-40.6-1.7-3.9-7-9.6-10.6-11.5-2.7-1.5-6.6-1.8-24.2-2-11.5-.1-22.1 0-23.5.2M426 207v121l-2.6.6c-4.5 1.1-25.6-.3-29.4-1.9-4.7-2.1-9.4-6.8-11.9-12.2-2.1-4.5-2.1-4.9-2.1-107.4 0-110.6-.2-105.7 5.1-112.5 1.2-1.6 4.3-4.2 6.8-5.7 4.4-2.9 4.7-2.9 19.3-2.9H426zM632.1 88.9c2.5 1.5 5.6 4.1 6.8 5.7 5.3 6.8 5.1 1.9 5.1 112.5 0 102.5 0 102.9-2.1 107.4-2.5 5.4-7.2 10.1-11.9 12.2-3.8 1.6-24.9 3-29.4 1.9l-2.6-.6V86h14.8c14.6 0 14.9 0 19.3 2.9m-283.1 45c.7 1.3 1 26.1 1 73.5 0 71 0 71.6-2.1 73.7-1.9 1.9-2.7 2-15.2 1.3-17-.9-22.2-3.5-26.6-13-2-4.3-2.1-6-2.1-62.4 0-55.1.1-58.3 1.9-61.8 2.4-4.6 6.5-8.8 11.1-11.3 2.9-1.5 5.8-1.8 17.2-1.9 12.6 0 13.8.2 14.8 1.9m357.8 0c4.7 2.4 8.9 6.6 11.3 11.3 1.8 3.5 1.9 6.7 1.9 61.6 0 63 .1 61.4-5.7 67.9-5.5 6.2-9.4 7.5-23.9 8.1-12.9.5-13.1.4-14.7-1.9-1.5-2.1-1.7-9-1.7-73.7 0-47.3.3-72 1-73.3 1-1.7 2.2-1.9 14.6-1.9 11.3 0 14.1.3 17.2 1.9M568 207v29H456v-58h112zm9.3 415.3c-3.3 2.2-7.3 9.1-7.3 12.6 0 4.5 4.1 10.7 9 13.7.8.5 8.3 1.1 16.5 1.4l15 .5v93l-15 .5c-8.2.3-15.7.9-16.5 1.4-4.9 3-9 9.2-9 13.7 0 3.6 4 10.4 7.5 12.6 3.3 2.2 4.3 2.3 26 2.3 20.4 0 22.9-.2 26.4-2 4.8-2.4 8.7-7 10.1-11.8 1.4-5.1 1.4-121.3-.1-126.5-.5-2.1-2.4-5.3-4.1-7.3-5.3-6-7.4-6.4-32.7-6.3-21.5 0-22.8.1-25.8 2.2m151.5 156c-2 1.2-9.3 7.6-16.1 14.3-10.7 10.4-12.5 12.6-13 16-1.4 8.7 3.9 16.8 11.8 17.9 7.7 1.2 10.3-.4 26.7-16.3 11.6-11.3 13.4-14.5 12.4-21.5-.8-4.9-2.8-7.7-7.6-10.6-4.5-2.7-9.6-2.7-14.2.2m-63.5 61.5c-2.9.9-4.6 2.4-17.3 14.6-5.8 5.6-20.6 19.8-33 31.6-40.9 39-42.6 40.8-44 45-1.1 3.3-1.1 4.7 0 7.9 2.5 7.6 7.1 11.1 14.7 11.1 7.1 0 5.7 1.2 72.4-63.2 28.3-27.3 29.5-29 26.9-36.7-2-6.2-6.7-10.1-12.6-10.6-2.7-.2-5.9-.1-7.1.3m53.2 38.1c-1.6 1-12.9 11.5-25 23.3l-22 21.5v5.9c0 9.8 5.6 15.4 15.1 15.4 6.5 0 7.6-.9 42.5-34.8 12.1-11.8 14.2-15.8 11.8-22.6-1.5-4.1-4.4-7.8-7.6-9.4-3.4-1.9-11.4-1.5-14.8.7"/></svg>