<svg xmlns="http://www.w3.org/2000/svg" width="1365.333" height="1365.333" viewBox="0 0 1024 1024"><path d="M166.9 225.4c-19.3 4.3-33.3 18.5-37.5 38-1.1 4.8-1.3 29.4-1.4 118.2v112.1l-2.3 3.4c-1.3 1.9-7.9 11.5-14.7 21.4-50 72.8-54.1 78.8-56.1 82.7-2.7 5.3-4.5 11.3-5.8 18.9-1.5 8.9-1.5 118.8 0 127.8 2.5 15 7.3 24.7 17.3 34.6 9.3 9.3 19.2 14.2 32.7 16.4 9.3 1.5 816.5 1.5 825.8 0 13.6-2.2 23.4-7.1 32.7-16.3 10-10.1 14.8-19.8 17.3-34.7 1.5-8.9 1.5-117.4 0-127.2-2.4-16.1-1.2-13.9-39.9-70.2-6.8-9.9-17.3-25.2-23.4-34-6-8.8-12-17.5-13.3-19.4l-2.3-3.4V381.6c-.1-90.6-.3-113.3-1.4-118.4-4.1-19.1-18.7-33.7-38-37.8-8.2-1.8-41-1.8-49.2 0-20.4 4.4-34.6 19-38.4 39.8l-1.2 6.7-7.7.3-7.6.3v31h63v-31l-7.7-.3c-7.7-.3-7.8-.3-7.8-3 0-3.7 3.3-8.8 7.2-11.2 3-1.8 5.1-2 24.6-2 20.1 0 21.4.1 24.5 2.2 1.9 1.2 4.3 3.6 5.5 5.5l2.2 3.3v89c0 48.9-.3 89-.7 89-.5-.1-2.1-2-3.7-4.3-2.7-3.8-17.1-24.9-36.2-52.7-10.8-15.8-18.5-23.2-29.9-28.7-14.5-7-18.2-7.3-98.7-7.3H624v-95.9l7.8-.3 7.7-.3v-31h-63v31l7.8.3 7.7.3V352h-16.4c-17.9 0-21.4.7-26.2 5.2-4.9 4.6-5.4 8.1-5.4 34.7V416h-64v-24.1c0-26.6-.5-30.1-5.4-34.7-4.8-4.5-8.3-5.2-26.2-5.2H432v-95.9l7.8-.3 7.7-.3v-31h-63v31l7.8.3 7.7.3V352h-70.7c-82.4 0-84.8.2-100.5 8.2-10.1 5.2-18.4 13.5-29 28.9-9.3 13.7-31.5 45.9-35.6 52-1.5 2.1-3 3.8-3.4 3.9-.5 0-.8-40.2-.8-89.3 0-87.2.1-89.3 2-92.5 4.1-6.7 6-7.2 29.8-7.2 20.1 0 21.4.1 24.5 2.2 4.1 2.6 7.7 7.9 7.7 11.2 0 2.4-.3 2.5-7.7 2.8l-7.8.3v31h63v-31l-7.6-.3-7.7-.3-1.2-6.7c-3.6-20.1-18.5-35.5-38.4-39.8-7.8-1.7-41.9-1.7-49.7 0M448 400v16h-78.7c-88.2 0-90.7.2-105.2 6.7-13.3 6-20.4 13.2-36.8 37.3-14.1 20.7-32.7 47.9-54.7 80-8.1 11.8-19.1 27.9-24.4 35.7-5.3 7.9-13.3 19.6-17.9 26-4.5 6.5-8.2 12.2-8.2 12.8 0 1 24.8 18 25.3 17.4.6-.7 13.2-19.1 25.2-36.7 6.6-9.7 18.5-27.2 26.4-38.7 16.1-23.5 30.9-45.2 51.5-75.5 15.1-22.2 18.7-26.2 26.1-30l4.9-2.5 40.3-.3c22.1-.1 40.2 0 40.2.3s-12.6 38.4-28.1 84.7c-15.4 46.2-27.8 84.7-27.5 85.4.3.8 1.3 1.4 2.3 1.4s6.3 1.6 11.8 3.6 11 3.7 12.3 3.8c2.2.1 3.8-4.3 32.2-89.4l29.8-89.5 50.6-.3 50.6-.2v64.8l-2.2.6c-1.3.3-4 .6-6 .6-5.8 0-23.2 3.9-34.8 7.7-15.9 5.2-29 13-38.7 23.1-18.2 18.8-18.1 43.7.2 62.6 9.5 9.8 22.7 17.7 38.5 22.9 11.6 3.8 29 7.7 34.8 7.7 2 0 4.7.3 5.9.6l2.3.6.2 56.2.3 56.1h31l.3-56.1.2-56.2 2.3-.6c1.2-.3 3.9-.6 5.9-.6 3.6 0 8.4-.9 20.8-3.7 20.9-4.8 39.3-13.9 50.9-25.2 15.8-15.3 19.6-33.9 10.7-52-3.4-6.9-12.4-16.8-19.8-21.9-6.8-4.7-19.2-10.7-27.8-13.5-11.6-3.8-29-7.7-34.8-7.7-2 0-4.7-.3-5.9-.6l-2.3-.6V448l50.6.2 50.6.3L659 538c16.4 49.2 30.3 89.6 30.8 89.8 1.5.5 27.6-8.4 28-9.6.1-.5-12.3-38.8-27.8-85.1-15.4-46.2-28-84.3-28-84.6s18.1-.4 40.3-.3l40.2.3 5.5 2.9c7.3 3.8 9.6 6.4 24.6 28.4 7 10.3 18.6 27.2 25.8 37.7 7.1 10.4 18.6 27.3 25.6 37.5 28.6 41.9 40.9 59.9 46 67.2 2.9 4.3 6 7.8 6.8 7.8 1.5 0 22.7-14.4 23.8-16.1.3-.6-1.4-4-3.9-7.7-4.5-6.6-17-24.8-48.1-70.4-33.4-48.7-41.6-60.7-51.1-74.8-17.3-25.5-23.6-32-37.6-38.3-14.6-6.6-15.8-6.7-105.4-6.7H576v-32l99.3.2 99.2.3 5.5 2.9c7.1 3.6 10 6.9 21.8 24 5.3 7.8 13.9 20.4 19.2 28.1s15.2 22.1 22 32 16.7 24.3 22 32 15.2 22.1 22 32c39.5 57.5 54.4 79.5 55.8 82.8 1.9 4.4 1.5 15.8-.7 21-2.6 6.1-8.2 12.1-13.6 14.6L924 656H749.9c-127.5 0-175.2.3-178 1.1-4.5 1.4-9.2 6.1-10.8 10.8-.7 2.3-1.1 18.4-1.1 51.7V768h-96v-48.1c0-33.2-.4-49.4-1.1-52-1.4-4.5-6.1-9.2-10.8-10.8-2.5-.8-50.4-1.1-177.6-1.1-193.4 0-177.5.6-185.7-6.8C83 644 80 636.7 80 628c0-3.8.5-8.2 1.2-9.7 1.2-2.7 12.7-20 33.2-49.8 9.5-13.8 19.4-28.3 44.6-65 11.2-16.4 19.7-28.7 33-48 5.3-7.7 15.7-22.8 23-33.5s15-21.7 16.9-24.3c3.7-4.9 11.2-10.5 16.6-12.5 2-.7 34.5-1.1 101.3-1.1l98.2-.1zm48 176.1v32.1l-2.7-.6c-1.6-.3-5.7-1-9.3-1.6s-8.2-1.5-10.2-2c-2.1-.6-5.3-1.4-7-1.9-12.4-3.2-29-13.1-32.9-19.5-8.9-14.7 12.8-29.8 53.6-37.4 9.5-1.8 8.5-5.3 8.5 30.9m41.5-30.6c8.5 1.2 21.4 4.6 28.8 7.6 30.2 12.5 34 27.4 10.4 40.8-4.9 2.8-14.8 7-19.4 8.2-1.8.5-5 1.3-7 1.9-2.1.5-6.7 1.4-10.3 2s-7.7 1.3-9.2 1.6l-2.8.6v-64.4l2.3.5c1.2.3 4.5.9 7.2 1.2M84.6 682.8c1.3 1.2 7.7 3 14.8 4.2 3.9.6 63.6 1 169.3 1H432v80H100l-4.5-2.1c-5.4-2.5-11-8.5-13.6-14.6-1.7-4.1-1.9-7.1-1.9-36.9 0-30.5.1-32.4 1.8-32.4 1 0 2.2.4 2.8.8M944 714.4c0 29.8-.2 32.8-1.9 36.9-2.6 6.1-8.2 12.1-13.6 14.6L924 768H592v-80h163.3c105.7 0 165.4-.4 169.3-1 7.1-1.2 13.5-3 14.9-4.2.5-.4 1.7-.8 2.7-.8 1.7 0 1.8 1.9 1.8 32.4"/></svg>