<svg xmlns="http://www.w3.org/2000/svg" width="1365.333" height="1365.333" viewBox="0 0 1024 1024"><path d="M490 17.1c-23.8 3.2-37.2 6.6-57.5 14.8-9.1 3.6-28.4 13.9-36.5 19.4-42.2 28.8-72 70.9-85 119.9l-1.3 4.8H169.4c-147.6 0-143-.1-148.2 4.4-5.3 4.6-5.2 3.8-5.2 75.6s-.1 71 5.2 75.6c4 3.5 7.6 4.4 17.3 4.4H48v576h-9.5c-12.7 0-18 2.5-21.1 9.9-2.1 4.9-2.1 71.3 0 76.2 1.6 3.9 4.8 7 8.9 8.7s967.3 1.7 971.4 0 7.3-4.8 8.9-8.7c2.1-4.9 2.1-71.3 0-76.2-3.1-7.4-8.4-9.9-21.1-9.9H976V336h9.5c9.7 0 13.3-.9 17.3-4.4 5.3-4.6 5.2-3.8 5.2-75.6s.1-71-5.2-75.6c-5.2-4.5-.6-4.4-148.2-4.4H714.3l-1.3-4.8c-13.7-51.6-47-96.6-91.7-124-7.1-4.4-25.7-13.8-32-16.3-1.3-.5-3.3-1.3-4.5-1.8-11-4.7-31-9.3-52.1-12.1-9.1-1.2-33.4-1.1-42.7.1M530.9 49c18.3 2.8 24.5 4.2 35.6 7.8 38 12.5 69.7 36.6 92.3 70.4 2.9 4.2 5.2 7.9 5.2 8.2s1.3 2.7 2.8 5.3c6.7 11.5 13.9 31.3 17.7 48.8 1.8 8 3.5 25.1 3.5 34.5s-1.7 26.5-3.5 34.5c-3.5 16.2-10.7 36.5-16.7 47.2-5 8.9-6.3 11.1-10 16.7C633.9 358 595.1 385 554 394.8c-8.3 2-10.5 2.4-21 3.8-16.9 2.2-39.5 1.4-55.5-2.1-17.5-3.8-37.3-11-48.8-17.7-2.6-1.5-5-2.8-5.3-2.8-1.1 0-16.3-10.7-22.9-16.1-7.7-6.3-20-18.7-26.2-26.4-17.5-21.8-30.6-50.7-35.2-77.5-2.6-15.5-3.1-20.4-3.1-32s.5-16.5 3.1-32c8.8-51.3 43.7-98.8 90.9-123.7 18.8-9.9 35.1-14.9 62-19.2 7.8-1.2 31.1-1.3 38.9-.1M304.1 222.3c-.3 22.4 4.1 49.5 11.1 68.7 1.1 3 2.2 6.4 2.5 7.5s1 2.5 1.4 3.1c.5.6.6 1.4.2 1.7-.3.4-61.5.7-136 .7H48v-96l128.1.2 128.1.3zM976 256v48H840.7c-74.5 0-135.7-.3-136-.7-.4-.3-.3-1.1.2-1.7.4-.6 1.1-2 1.4-3.1s1.4-4.5 2.5-7.5c6.9-18.9 11.4-46.1 11.2-68.2-.1-7.3-.1-13.6-.1-14.1.1-.4 57.7-.7 128.1-.7h128zm-634.4 86.7c15.8 22.4 39.2 44.7 60.9 58 10.7 6.5 28.2 15.1 37.5 18.3 1.9.7 4.4 1.6 5.5 2 1.1.5 3.1 1.1 4.5 1.5 1.4.3 4.1 1.1 6 1.6 23.7 6.8 56.2 9.7 76.3 6.9 16.5-2.3 22.5-3.3 27.7-4.7 3-.8 6.9-1.8 8.5-2.3 3.9-1 18.4-5.8 21-7 29.9-13.1 47.5-24.9 68.6-45.9 12.1-12.1 16.3-17.1 24.3-28.4l4.7-6.7H944v576h-32V726.5c0-141.2-.3-186.1-1.2-188.2-1.7-4.1-4.8-7.3-8.7-8.9-5-2.1-455.2-2.1-460.2 0-3.9 1.6-7 4.8-8.7 8.9-.9 2.1-1.2 47-1.2 188.2V912h-32V758.5c0-116.4-.3-154.1-1.2-156.2-.6-1.5-2.1-3.9-3.2-5.1-4.8-5.4 1.5-5.2-139.7-5.2-137.5 0-133.6-.1-138.7 4.4-5.5 4.8-5.2-3.4-5.2 162.2V912H80V336h256.9zM880 736v176h-32V806.6c0-113.6.2-109.4-5.2-114.2-4-3.6-7.6-4.4-18.5-4.4h-10.5l.6-3.3c1.5-7.8 1.8-17.9.6-22.4-3.4-13.4-14.4-27.8-25.2-33.1-10-4.9-13.3-5.2-53.8-5.2-44.4 0-46.5.3-58.1 8.1-14.8 9.9-23.1 26.3-21.5 42.6.3 3.7.9 8.3 1.2 10l.6 3.3h-20.4l.6-3.3c1.5-7.8 1.8-17.9.6-22.4-3.4-13.4-14.4-27.8-25.2-33.1-10-4.9-13.3-5.2-53.8-5.2-44.4 0-46.5.3-58.1 8.1-14.8 9.9-23.1 26.3-21.5 42.6.3 3.7.9 8.3 1.2 10l.6 3.3H464V560h416zm-512 32v144H144V624h224zm230.1-110.6c3.9 1.6 7 4.8 8.7 8.9 3.2 7.6-.8 17-8.7 20.3-4.5 1.9-71.4 2.1-75.8.2-13.3-5.7-13.6-23.6-.5-29.5 4.2-1.8 71.9-1.8 76.3.1m176 0c3.9 1.6 7 4.8 8.7 8.9 3.2 7.6-.8 17-8.7 20.3-4.5 1.9-71.4 2.1-75.8.2-13.3-5.7-13.6-23.6-.5-29.5 4.2-1.8 71.9-1.8 76.3.1M624 736v16H464v-32h160zm192 0v16H656v-32h160zM624 848v64H464V784h160zm192 0v64H656V784h160zm160 112v16H48v-32h928zM501 97.4c-11.3 2.8-22.9 11-29 20.6-3.8 5.9-8 17.8-8 22.6v3.4h31.5l1.3-4.3c4.6-14.7 23.9-15.7 30-1.4 4.2 9.8-3.9 21.7-14.9 21.7-3.5 0-7.7 1.7-10.7 4.4-4.2 3.8-5.2 7.8-5.2 22.2v13.3l-6.1 4.3c-3.4 2.4-9.1 6.4-12.8 9.1-3.6 2.6-9.7 7-13.6 9.7-3.8 2.7-10.1 7.2-14 10-3.8 2.8-10.1 7.3-14 10-3.8 2.7-10 7.1-13.6 9.7-3.7 2.7-9.5 6.8-13 9.3-6.5 4.5-12.8 9.1-18.7 13.6-9.6 7.4-7.4 22.3 4.1 27.2 2.1.9 31 1.2 117.6 1.2 123.9 0 118.9.2 123.7-5.2 5.6-6.3 5.8-14.8.5-21.2-.9-1-25.6-18.9-54.8-39.8L528 199.7v-10.5l5.4-2.6c11.3-5.5 19.8-15.6 24.2-28.7 7.3-21.6-3.6-46.4-24.9-56.7-10.6-5.2-21.3-6.4-31.7-3.8M519.3 233c4 2.7 10.2 7.1 13.8 9.7 3.7 2.7 9.5 6.8 13 9.3 3.5 2.4 8.2 5.8 10.5 7.5 2.3 1.6 6.6 4.8 9.7 7s5.7 4.3 5.7 4.7c0 .5-27 .8-60 .8s-60-.3-60-.8c0-.6 58.9-43.1 59.8-43.2.2 0 3.5 2.2 7.5 5M121.8 465.3c-1.4.7-3.6 2.1-4.8 3.2-4.8 4.3-5 6.4-5 43.6 0 36.3.2 37.9 4.4 42.7 4.8 5.4-1.5 5.2 139.6 5.2s134.8.2 139.6-5.2c4.2-4.8 4.4-6.4 4.4-42.8s-.2-38-4.4-42.8c-4.8-5.4 1.6-5.2-140-5.1-98.5 0-131.8.4-133.8 1.2M368 512v16H144v-32h224zM185.8 657.3c-3.9 1.8-6.8 4.7-8.4 8.6-1.9 4.5-2.1 71.4-.2 75.8 1.7 4.1 4.8 7.3 8.7 8.9 5 2.1 135.2 2.1 140.2 0 3.9-1.6 7-4.8 8.7-8.9 1.9-4.4 1.7-71.3-.2-75.8-1.6-3.9-4.8-7-8.9-8.7-4-1.7-136-1.6-139.9.1M304 704v16h-96v-32h96zm228.3 97.4c-2.3.6-4.5 1.4-4.9 1.9-.4.4-1.4.7-2.1.7-2.4 0-12.8 7.7-17.2 12.6-4.7 5.4-8.6 12.9-10.6 20.5-8.8 33 24.4 66.2 57.4 57.4 17-4.5 29-15.7 34.7-32.6 5.7-16.8 1.1-34.5-12.6-47.9-7-7-12.6-10.2-21.5-12.5-6.4-1.7-17.1-1.8-23.2-.1m17.8 32c3.9 1.6 7 4.8 8.7 8.9 5.2 12.3-8.2 25.7-20.5 20.5-4.1-1.7-7.3-4.8-8.9-8.7-5.5-13.1 7.6-26.2 20.7-20.7m174.6-31.9c-7.2 2-14.9 6-20.1 10.6-4.9 4.4-12.6 14.8-12.6 17.2 0 .7-.3 1.7-.7 2.1-1.5 1.4-3.2 10.3-3.3 16.3 0 13 4.4 23.6 14 33.3 9.7 9.8 21.5 15 34.2 15 12.1 0 24.2-5.2 33.3-14.4 19.2-19.2 19.2-48 .1-67.2-12.2-12.1-29.6-17.1-44.9-12.9m17.4 31.9c3.9 1.6 7 4.8 8.7 8.9 5.2 12.3-8.2 25.7-20.5 20.5-4.1-1.7-7.3-4.8-8.9-8.7-5.5-13.1 7.6-26.2 20.7-20.7"/></svg>