<svg xmlns="http://www.w3.org/2000/svg" width="1365.333" height="1365.333" viewBox="0 0 1024 1024"><path d="M264 1c0 .5-.6 1-1.3 1-2 0-6.3 5.1-7.6 8.9-.8 2.4-1.1 20.5-1.1 60.2V128h-26.7c-26.4 0-26.7 0-30.7 2.4-7.2 4.2-7.1 3.6-7.1 44v36.1l16.5 33 16.5 33 .3 87.7.2 87.8h-92.5c-70.8 0-93.6.3-97.2 1.2-2.8.8-6 2.6-8 4.6-3 3-3.3 3.8-3.3 9.3 0 5.7.7 7.4 17.2 40.7l17.3 34.7v451l-23.7.5c-22 .5-23.9.6-26.4 2.6-7.7 5.7-8.5 15.5-2 23.2 1.1 1.2 2.5 2.2 3.3 2.2.7 0 1.3.4 1.3 1 0 .7 168.3 1 503 1 290.4 0 503-.4 503-.9s.9-1.1 1.9-1.4c1.1-.2 3.1-2.3 4.5-4.6 4.5-7 2.9-15.5-3.8-20.5-2.5-2-4.4-2.1-26.4-2.6l-23.7-.5v-454l16.5-33c15.8-31.8 16.4-33.2 16.5-39.2 0-5.5-.3-6.5-2.9-9.2-6-6.3-2.6-6.1-104.3-6.1H801l.2-87.8.3-87.7 16.5-33 16.5-33v-36.1c0-40.4.1-39.8-7.1-44-4-2.4-4.3-2.4-30.7-2.4H770V71.1c0-39.7-.3-57.8-1.1-60.2-1.3-3.8-5.6-8.9-7.6-8.9-.7 0-1.3-.5-1.3-1 0-.7-15.4-1-44.2-1h-44.1l-3.4 2.6C664 5.9 662 9.9 662 15.2c0 5 2.6 9.8 6.7 12.5 2.4 1.6 6.1 1.9 36.8 2.3l34 .5v97l-23.7.3-23.7.2-.3-24.7c-.3-22.8-.5-25.1-2.4-28.7-1.2-2.5-3.5-4.8-6-6-3.9-2.1-4.1-2.1-171.4-2.1s-167.5 0-171.4 2.1c-2.5 1.2-4.8 3.5-6 6-1.9 3.6-2.1 5.9-2.4 28.7l-.3 24.7-23.7-.2-23.7-.3v-97l151-.5c141.9-.5 151.2-.6 154.2-2.3 4.3-2.3 6.3-6.4 6.3-12.7 0-6.4-1.9-10.2-6.5-12.9L585.9 0h-161C318.3 0 264 .3 264 1m231.5 110.5v15l-65.4.3c-47.5.1-65.8-.1-66.7-.9-1.9-1.5-2-26.9-.2-28.7.9-.9 16.6-1.2 66.8-1l65.5.3zm165.3-14.3c1.8 1.8 1.7 27.2-.2 28.7-.9.8-19.5 1-67.7.9l-66.4-.3-.3-14c-.1-7.6 0-14.5.2-15.2.7-1.8 132.6-1.9 134.4-.1m144 77 .3 15.8H219v-15.3c0-8.5.3-15.7.7-16 .3-.4 132.1-.6 292.7-.5l292.1.3zm-9.8 47c0 .7-4.2 9.6-9.3 19.8l-9.2 18.5h-529l-9.2-18.5c-5.1-10.2-9.3-19.1-9.3-19.8 0-.9 57.3-1.2 283-1.2s283 .3 283 1.2M770.5 642v351.5l-61.7.3-61.8.2-.2-135.2-.3-135.3-2.3-3.3c-4.8-6.6 4.6-6.2-133.2-6.2H386l-3.8 3.8c-2.7 2.7-4.1 5.1-4.5 7.8-.4 2.1-.7 63.4-.7 136.2V994l-61.7-.2-61.8-.3-.5-92c-.5-86.6-.6-92.3-2.3-94.8-5.7-8.7-18.7-8.9-25.1-.3-2 2.6-2.1 4.4-2.6 27.9l-.5 25.2h-135l-.3-100.8L87 658l67.7.2 67.8.3.5 28c.4 25 .7 28.3 2.3 30.7 2.1 3.1 9.1 6.8 12.8 6.8 4.2 0 11.1-4.2 13.1-8 1.7-3.3 1.8-12.2 1.8-214.1 0-115.8.3-210.9.7-211.2.3-.4 116.8-.6 258.7-.5l258.1.3zM221.4 482.6c1.4.5 1.6 3.3 1.6 20.4 0 15-.3 19.9-1.2 20.1-.7.2-32.9.3-71.4.1l-70.2-.2-9.7-19.5c-5.3-10.7-9.4-19.9-9-20.5.7-1.1 157-1.5 159.9-.4m740 .2c.5.8-17.4 37.6-19.1 39.3-1 1-138.8 1.4-140.4.4-1.5-1-1.2-39.2.4-39.8 2.1-.9 158.5-.8 159.1.1M222.8 590.7l-.3 36.8-67.7.3-67.8.2v-74h136zm714.2.3v37l-67.7-.2-67.8-.3-.3-36.8-.2-36.7h136zm-.2 167.7-.3 100.8h-135l-.3-99.5c-.1-54.7 0-100.1.3-100.8.3-.9 14.9-1.2 68-1.2H937zM496 869v125l-44.2-.2-44.3-.3-.3-123.5c-.1-67.9 0-124.1.3-124.8.3-.9 10.2-1.2 44.5-1.2h44zm120.5 0v124.5h-90l-.3-124.8L526 744l45.2.2 45.3.3zm-393.7 72.7-.3 51.8-67.7.3-67.8.2V890h136zm714.2.3v52l-67.7-.2-67.8-.3-.3-51.8-.2-51.7h136zM394.5 359.1c-16.7 2.9-23.4 5-27 8.6s-4.5 6.7-4.5 15.9c0 5.8-.2 6.4-2.2 6.9-1.3.3-12 .6-23.8.7-20.7.3-21.6.4-24.8 2.6-6.5 4.7-6.2-1.7-6.2 118.9v109.5l2.1 3.8c1.2 2.1 3.8 4.7 5.9 5.9l3.8 2.1h388.4l3.8-2.1c2.1-1.2 4.7-3.8 5.9-5.9l2.1-3.8V512.7c0-120.6.3-114.2-6.2-118.9-3.2-2.2-4.1-2.3-24.8-2.6-11.8-.1-22.5-.4-23.7-.7-2.1-.5-2.3-1.1-2.3-6.9 0-9.2-.9-12.3-4.6-16-2.3-2.3-4.8-3.6-8.6-4.4-2.9-.6-7.8-1.7-10.8-2.3-3.2-.7-13.4-1.2-24.5-1.2-18.1.1-23.9.7-40 4.2-9.3 2-27.4 8.9-34.8 13.3-2.6 1.5-5 2.8-5.3 2.8-.7 0-12.2 7.8-16.6 11.3l-3.7 3-7.3-5.4c-23.4-17.4-40.4-24.5-71.2-29.9-7-1.2-31.9-1.2-39.1.1m39 30.4c23.2 4.3 40.8 12.5 58.3 27.2l5.2 4.5v77.9c0 54.9-.3 77.9-1.1 77.9-.6 0-3.6-1.9-6.7-4.3-14.8-11.1-34.5-20-52.7-23.7-3.3-.6-6.9-1.4-8-1.7s-9.4-.8-18.5-1.2l-16.5-.6-.3-77.6-.2-77.7 3.7-1c5.8-1.5 27.8-1.3 36.8.3m196.7 1.1c.5.3.8 35.4.8 77.9V546l-2.2.4c-1.3.3-8 .7-15 1.1-15.1.6-22.4 1.9-37.8 6.6-12.2 3.8-25.9 10.4-37.9 18.6-5.1 3.4-9.7 6.3-10.2 6.3s-.9-33-.9-78.8v-78.8l2.8-2.5c13.2-12 35.4-23 54.6-27.1 8.6-1.8 21.5-2.6 33.6-2.1 6.3.3 11.8.7 12.2.9m-268.1 31.1c.5.5 1 33.7 1.1 73.8.3 81.9-.3 75.9 7.8 80.4 3.4 1.9 5 2.2 9.3 1.7 12.1-1.4 37.1-1.8 43.1-.6 11.5 2.2 16.6 3.5 23.1 6 9.9 3.7 32.4 17.7 32.5 20.2 0 .5-32.2.8-71.5.8H336v-91.3c0-50.3.2-91.6.4-91.8.8-.8 24.8-.1 25.7.8m325.7 90.7.2 91.6h-70c-38.5 0-70-.3-69.9-.8 0-1.2 5.2-4.9 14-10 9.1-5.2 15.8-8.1 25.9-11 14.9-4.4 17.1-4.7 40-4.7 21.4 0 22.7-.1 26-2.2 6.9-4.3 6.5.8 6.8-79.7.1-40.7.6-73.4 1.1-74 .6-.7 5.5-1 13.3-.9l12.3.1z"/></svg>