<svg xmlns="http://www.w3.org/2000/svg" width="1365.333" height="1365.333" viewBox="0 0 1024 1024"><path d="M31.4 27.9c-1.7 1.1-4.1 3.9-5.3 6.3L24 38.6v473.6c0 405.7.2 474 1.4 476.9 2.8 6.7 9.6 10.6 16.4 9.3 4.5-.9 9.7-6 11.1-10.9.8-2.9 1.1-67.2 1.1-227.8V536h286v225.5c0 221.4 0 225.7 1.9 229.4 2.7 5.2 6.4 7.4 12.6 7.4 5.7 0 9.3-1.8 12.2-6.1 1.7-2.6 1.8-12.1 2.1-229.5L369 536l143.3.2 143.2.3.5 226.8.5 226.7 2.8 3.5c5.2 6.5 15.2 6.8 21.2.5l3-3.1.5-227.2.5-227.2 143.2-.3L971 536l.2 226.4.3 226.5 2.1 2.7c3.7 5 7 6.8 12.3 6.7 5.7-.1 10.2-2.7 12.6-7.3 1.3-2.6 1.5-59.8 1.5-478.5 0-420.7-.2-475.9-1.5-478.5-5.1-9.8-18.2-10.8-24.7-1.8l-2.3 3.3-.3 235.3L971 506l-143.3-.2-143.2-.3L684 270c-.4-192-.7-235.9-1.8-237.8-2.1-3.6-7.2-6.2-12.2-6.2-5.1 0-9.2 2.3-12.1 6.6-1.8 2.8-1.9 9.4-1.9 238.1V506H369V271.7c0-221-.1-234.4-1.8-237.7-5.1-10.2-19.2-10.6-25.2-.8-2 3.3-2 5.6-2 238V506H54l-.2-234.3C53.5 50.4 53.4 37.3 51.7 34c-3.6-7.3-13.5-10.3-20.3-6.1m112 54.1c-8.7 2.3-15.2 5.2-22.4 10.1-15.9 11-24.8 24.1-30 44.4-.6 2.6-1 51.2-1 140 0 132.3.1 136.2 2 143.9 4.9 19.4 16.9 34.7 35.2 44.9 13.7 7.6 22.4 8.7 69.3 8.7 40.4 0 48.4-.6 60-4.5 13.1-4.5 27-15.4 34.7-27.3 7.2-11.2 10.1-19.3 11.7-32.7 1.5-12.3 1.5-252.6 0-265-3.7-31.8-23.5-54.9-53.6-62.5-7.2-1.8-11.2-2-53.3-1.9-40.7.1-46.2.3-52.6 1.9m106.9 30.8c7.5 3.7 15.6 11.2 18.7 17.2 5.2 10.3 5 2.2 5 146.6 0 93.7-.3 135.1-1.1 137.5-4.3 13.4-13.7 23.4-26.3 28-4.7 1.8-8.6 1.9-50.1 1.9s-45.4-.1-50.1-1.9c-10.4-3.8-18.3-10.8-23.6-21.1l-3.3-6.5v-275l3.2-6.6c5.5-11.2 17.2-20.8 28.2-23 2-.4 23.6-.7 48.1-.6l44.5.2zm-74.8 42.3c-2.2.5-6.5 1.5-9.5 2.1-7.5 1.6-18 5.5-20.2 7.5-3 2.7-2.4 11.3 2.1 26.3 2.1 7.2 4.3 8 17.3 6.6 11.3-1.3 50.1-1.3 65.4-.2 15 1.2 14.7 1.5 18.5-20.3 1.1-6.2 1-7.7-.2-10-2.4-4.4-12.8-8.3-31.4-11.6-9-1.6-35.6-1.9-42-.4m-26.8 195.4c-1.5 1.5-2.7 3.7-2.7 4.9 0 1.1-.9 5.2-2 9.1-2.5 9-2.6 15.7-.2 17.7 1.8 1.6 10.7 4.9 18.2 6.6 2.5.6 7 1.7 10 2.4 8 1.9 41.5 1.5 50-.5 17.8-4.3 23.9-6.6 26.3-9.9 1.9-2.6 1.9-2.8.2-11-.9-4.5-2.1-10-2.5-12-1-5.1-3.5-8.6-6.7-9.4-1.4-.4-5.3-.2-8.7.4-14.7 2.7-49.1 2.5-74.1-.4-4.5-.6-5.3-.3-7.8 2.1M463 81.5c-10.8 2.6-16.6 4.9-24 9.9-14 9.2-23.7 22.1-29.1 38.6l-2.4 7.5v279l2.3 7c6.5 19.4 19.6 34.5 37.2 43.1 13.7 6.6 20.6 7.4 67 7.4 40.8 0 48.2-.6 59.5-4.5 19.1-6.6 36.2-23.7 43-43 3.5-10.1 3.5-9.2 3.5-149.8 0-135.6 0-137.3-2.1-144.7-7.1-25.7-26.7-44.3-53.4-50.5-8.9-2-92.8-2-101.5 0m104.5 31.4c12.2 6 20.3 16.3 23.1 29.5 1.8 8.2 2 259.6.3 267.8-2.9 13.4-10.8 23.9-22.6 29.9l-6.7 3.4-46.5.3c-32.8.2-47.4-.1-49.6-.9-14.8-5.5-23.8-14.8-28.1-28.8-1.1-3.8-1.4-26.4-1.4-137.8V143.1l2.2-5.8c1.1-3.2 3.2-7.5 4.5-9.6 5.3-8.4 15.8-15.7 25.5-17.7 2.4-.4 24.1-.8 48.3-.7l44 .2zM492 155.2c-7.1 1.5-19.3 4.8-22 6-6.3 2.7-7.3 3.4-8.3 5.6-1.1 2.3-.3 9.3 2.2 21.1 1.1 5.2 4 9.4 7.1 10.1 1.3.3 6.4.1 11.4-.4 11.2-1.3 50.7-1.4 63.7-.2 14.9 1.4 16 .7 18.4-10.8 2.5-12.3 2.8-17.5 1-20.2-2.6-4-13.2-7.7-31.5-11-8.5-1.5-35.1-1.7-42-.2m-25.6 194.6c-2.1 2-2.7 3.8-6.3 19.2-1.9 8.1-1.9 8.6-.3 11.4 2.2 3.8 7.5 5.8 27.2 10.3 10.1 2.3 42.4 2.3 52 0 17.7-4.3 23.9-6.6 26.3-9.9 1.7-2.3 1.8-3.2.9-8.5-2.8-14.7-4.3-19.7-6.4-22-2-2.2-2.9-2.4-7.3-1.9-2.7.3-13.2 1.1-23.3 1.7-17.4 1.2-32.2.7-55.7-1.7-4.1-.4-5.4-.2-7.1 1.4m309.8-56.6.3 76.3 14.8.3 14.7.3V344c0-16.1.4-26.9 1-28.1 1-1.8 2.4-1.9 22.8-1.9 23.3-.1 28.8-.8 38.6-5.3 10.5-4.8 17.5-13.7 20.5-26.2.7-2.8 1.3-10.6 1.2-17.5 0-10-.4-13.8-2.1-18.9-4.5-13.6-11.9-20.8-27.2-26.7-3.7-1.5-9.9-1.8-44.6-2.1l-40.2-.5zm70.3-49.2c16.7 5.1 18.2 33.9 2.2 42.2-3.7 1.9-6.2 2.2-21.9 2.6-13.3.3-18.2.1-19.3-.8-1.2-1-1.5-4.8-1.5-22.1 0-18.1.2-21 1.7-22.4 1.5-1.5 3.6-1.7 18.2-1.2 9.1.2 18.4 1 20.6 1.7M149 564c-23 3.3-44.8 20.5-53.7 42.3-5.4 13.2-5.2 7-5.3 153.5 0 133.6 0 136.4 2 143.8 3.8 14.1 9.9 24.3 20.2 33.9 8.2 7.6 16.8 12.7 27.7 16.2l8.6 2.8h96l8.5-2.7c19.7-6.3 35.7-20.5 44.5-39.3 6.3-13.6 6.4-15.6 6.4-153.5.1-77.4-.3-127.8-.9-133-1.3-10.8-2.6-15.9-6.2-23.9-8.2-18.2-22.7-30.8-43.8-38.2-6.4-2.2-7.5-2.3-52.5-2.5-25.3-.1-48.5.1-51.5.6m96.1 30.1c3.5 1.2 7.7 3 9.4 4.2 5.3 3.6 12.6 11.1 14.7 15.1 5 9.6 4.8 3.9 4.8 146.7 0 93.3-.3 134.6-1.1 137-4.8 15-16.2 26-30.7 29.5-8.2 1.9-83.2 1.9-91.4 0-12.1-2.9-22.9-11.8-28.6-23.4l-2.7-5.7v-275l3.2-6.5c5.2-10.5 13.8-18.1 24.9-21.9 5.5-1.8 8.6-2 48.5-2 40.7-.1 42.9 0 49 2m-64.6 43.5c-14.5 2-32.1 7.4-34.7 10.6-2.1 2.4-2.3 8.5-.7 15.5 4.6 19 4.8 19.2 18.8 17.2 12.9-1.8 55.8-1.8 66.3 0 12.8 2.3 15.6-.1 17.9-14.6 2.2-14.6 2.2-14.6 0-17.4-2.2-2.9-12.3-6.6-25.1-9.4-7.2-1.6-35.9-2.8-42.5-1.9m-29.7 194.5c-1.4.6-2.9 1.8-3.3 2.7-1.9 4.6-5.5 21-5.5 24.7 0 6.6 2.3 8 20.5 12.6 14.5 3.7 41.1 5.1 52.7 2.8 13.5-2.7 16.8-3.5 23.7-5.9 5-1.7 8.1-3.4 9.4-5.2 1.9-2.6 1.9-2.8.2-11-.9-4.5-2-9.9-2.4-11.8-1.8-8.7-4.3-10.1-15.1-8.9-20.6 2.5-52.9 2.2-74.5-.6-1.6-.2-4.2.1-5.7.6M781.5 564c-14.6 2.3-30.7 10.9-40.4 21.5-6.3 6.9-13 18.3-15.2 25.9-3.9 12.9-3.9 13.7-3.9 148.6 0 139.7-.1 137.7 5 151.2 4.5 12 15.1 25.7 25.7 32.9 6.1 4.2 17.6 9.3 24.8 11 8.5 2 95.6 2 103 .1 29-7.9 48.2-27.4 54-55.3 1.3-6 1.5-26.5 1.5-140.7 0-130.6-.1-133.9-2-141.7-6.5-25.6-24.7-44.5-50.2-52.2-4.5-1.3-12.5-1.6-51.3-1.9-25.3-.1-48.2.1-51 .6m94.1 29.4c12.3 3.3 22.1 11.6 27.8 23.6l3.1 6.5v273l-3.4 7c-4 8.2-12 16.5-18.9 19.6-10.1 4.7-12.5 4.9-54.7 4.9-47.1-.1-49.3-.4-60.5-8.1-6.8-4.7-10.2-9-14.3-17.7l-3.2-6.7v-135c0-111.1.2-135.6 1.4-138.5 6-15.6 15.3-24.7 29.1-28.6 6.8-1.9 86.6-1.9 93.6 0M813 637.6c-13.2 1.5-30.7 6.9-34.4 10.6-3.3 3.3-3.2 4.3.2 20.3 2.5 11.3 5 14 12.1 13.2 27-3 57.1-3.2 73.4-.5 7.6 1.2 10.6.5 13.2-3.5 2.5-3.9 5.3-22.3 4.1-27.1-1-4-7.3-6.6-28.1-11.6-5-1.2-33.8-2.2-40.5-1.4M783.3 832c-2.8 1.1-3.7 3-5.7 11.5-.9 3.8-2.1 8.6-2.6 10.6-2.8 10.5 0 13 19.4 17.8 23.8 5.7 46.2 5.6 69.1-.4 15.4-4 18.5-6 18.5-11.6 0-2.1-.4-5.8-1-8.1-.5-2.4-1.7-7.2-2.5-10.7-.8-3.6-2.1-7.2-2.9-8-1.7-1.7-10.2-1.7-21.3-.1-8.6 1.2-41.9 1.3-51.5.1-13.1-1.7-17.3-1.9-19.5-1.1M454.5 701.2c-.3.7-.4 35-.3 76.3l.3 75h30l.5-27 .5-27 21-.6c26.4-.8 30.8-1.5 42.3-7.1 8.8-4.2 14.4-11.4 18.4-23.3 1.8-5.5 1.8-32.7-.1-37.5-6.5-16.9-14.8-24-33.1-28.6-7.7-1.9-78.8-2-79.5-.2m72.4 26.8c8 3.7 11.1 9.4 11.1 20.6 0 12.5-4.7 19.3-15.5 22.4-2.5.7-10.3 1-20.5.8l-16.5-.3-.3-21.5c-.1-11.8 0-22 .2-22.7.4-1 4.9-1.3 18.8-1.3 16.1 0 18.8.3 22.7 2"/></svg>