<svg xmlns="http://www.w3.org/2000/svg" width="1365.333" height="1365.333" viewBox="0 0 1024 1024"><path d="M368.5 1.1c-2.2.6-6.2 1.5-9 2-32.3 6.6-62 35.1-73.9 71.2-6.7 20.1-9.3 44.9-6.6 62.6 2.1 13.6 3.2 19.7 4.2 23 .8 2.6.7 3.5-.3 4.2-.8.5-32.6.9-70.7.9-76.2 0-73.8-.2-78.3 6.1l-2.4 3.4-.5 45.5c-.4 36.6-.8 46-1.9 48-1.4 2.5-4.1 6.8-11.5 18.3-2 3.2-4.5 7.3-5.5 9-1 1.8-4.1 6.9-7 11.4-2.8 4.6-7.4 12-10.2 16.5-2.9 4.6-6 9.7-7 11.5-1 1.7-3.3 5.6-5.2 8.5s-5.2 8.2-7.4 11.8-5.9 9.6-8.3 13.5c-4.2 6.9-8.4 13.6-16.3 26.5-5.3 8.6-13.2 21.2-17.4 27.7-1.8 2.9-3.3 5.5-3.3 5.8s-2 3.6-4.3 7.3C16 450.9 14 454 14 454.5c0 .4-1.7 3.2-3.8 6.3s-4.9 7.7-6.3 10.2c-1.3 2.5-2.8 4.8-3.2 5.1-1.1.8-.3 17.8 1.1 24.4 7.2 34.9 33.5 62.6 67 70.6l5.2 1.3V994H42.3c-36 0-36.2.1-40.3 7.9-4.1 8.2-1.3 15.8 7.7 20.9 1.8.9 20.2 1.2 82.6 1.2 88.9 0 84 .3 89.2-6.4 1.9-2.5 2.5-4.5 2.5-8.5 0-6.3-2-10.5-6.3-13.1-3-1.9-5.2-2-37.2-2-25.2 0-34.4-.3-35.3-1.2-1.6-1.6-1.8-417.9-.2-420.9.6-1 1.7-1.9 2.5-1.9 2.3 0 17.3-6.7 22.8-10.1 6.4-4.1 18.9-15.9 22.9-21.7 1.6-2.3 3.3-4.2 3.8-4.2s2.2 1.9 3.9 4.2c8.4 12.2 27.4 26.5 40.2 30.2 1.3.4 4.9 1.4 7.9 2.3 7.6 2.2 30.4 2.2 38 0 3-.9 6.6-1.9 7.9-2.3 13-3.8 31.8-17.9 40.3-30.2 1.6-2.3 3.3-4.2 3.8-4.2s2.2 1.9 3.9 4.2c8.4 12.2 27.4 26.5 40.2 30.2 1.3.4 4.9 1.4 7.9 2.3 3.8 1.1 9.6 1.6 19 1.6s15.2-.5 19-1.6c3-.9 6.6-1.9 7.9-2.3 13-3.8 31.8-17.9 40.3-30.2 1.6-2.3 3.3-4.2 3.8-4.2s2.2 1.9 3.9 4.2c8.4 12.2 27.4 26.5 40.2 30.2 1.3.4 4.9 1.4 7.9 2.3 7.6 2.2 30.4 2.2 38 0 3-.9 6.6-1.9 7.9-2.3 13-3.8 31.8-17.9 40.3-30.2 1.6-2.3 3.3-4.2 3.8-4.2s2.2 1.9 3.9 4.2c8.4 12.2 27.4 26.5 40.2 30.2 1.3.4 4.9 1.4 7.9 2.3 7.6 2.2 30.4 2.2 38 0 3-.9 6.6-1.9 7.9-2.3 13-3.8 31.8-17.9 40.3-30.2 1.6-2.3 3.3-4.2 3.8-4.2s2.2 1.9 3.9 4.2c8.4 12.2 27.4 26.5 40.2 30.2 1.3.4 4.9 1.4 7.9 2.3 7.6 2.2 30.4 2.2 38 0 3-.9 6.6-1.9 7.9-2.3 13-3.8 31.8-17.9 40.3-30.2 1.6-2.3 3.3-4.2 3.8-4.2s2.2 1.9 3.8 4.2c8.8 12.8 26.5 25.5 42.7 30.9 2.2.7 4.6 2 5.3 2.8 1.9 2.3 1.8 419.4-.2 421-.9.8-7.8 1.1-22.7.9l-21.4-.3L874 827c-.4-125.5-.8-167.2-1.7-169.2-.6-1.4-2.9-3.9-4.9-5.5l-3.7-2.8H660.3l-3.7 2.8c-2 1.6-4.3 4.1-4.9 5.5-.9 2-1.3 43.7-1.7 169.2l-.5 166.5-201.5.5c-163.9.4-201.9.7-203.8 1.8-6.4 3.7-8.4 15.6-3.7 21.8 1.4 1.8 3.9 4 5.6 4.8 2.9 1.5 39.3 1.6 384.6 1.6 303.2 0 381.8-.3 383.6-1.2 5.9-3.4 9.7-8.7 9.7-13.8 0-4.1-3.8-10.9-7.3-13-3-1.9-5.2-2-34.9-2H950V572.3l5.8-1.3c20.4-4.8 39.3-18 51.5-36 5.9-8.7 11.8-21.9 13.6-30.5.7-3.3 1.7-7.3 2.2-8.9 1.1-3.5 1.2-19.3.2-19.8-.5-.2-1.6-1.9-2.7-3.8-1-1.9-3.6-6.3-5.7-9.8-2.2-3.4-5.6-9-7.7-12.5-9.6-15.5-12.8-20.6-16.9-26.9-2.3-3.7-4.3-7-4.3-7.3s-2-3.6-4.3-7.3c-2.4-3.7-6.2-9.6-8.4-13.2s-5.8-9.5-8.1-13.3c-2.3-3.7-6.1-9.7-8.4-13.5-2.3-3.7-5.9-9.5-8-13-2.1-3.4-5.5-9-7.6-12.5-10.4-16.9-20.2-32.5-25.9-41.4-1.8-2.9-3.3-5.5-3.3-5.9 0-.3-1.3-2.4-2.9-4.7-2.7-4-7.9-12.4-14.2-23l-2.9-4.8v-88.6l-3.9-4.4-3.9-4.4-70.6-.3-70.7-.2-1-2.8c-.6-1.5-1.9-5.6-2.9-9.2-2.2-8.2-7.1-20.4-11.8-29.5-3.2-6.2-14.6-24.2-16.1-25.5-.3-.3-1.9-2.3-3.6-4.5-3.8-5.2-21.8-23.2-27-27-2.2-1.7-4.2-3.3-4.5-3.6s-3.9-2.9-8.2-5.7c-22.3-15-48.7-26.1-71.8-30.1-3.6-.7-9-1.7-12-2.3-3.6-.8-15.1-1-34-.7-64.5.9-71.4.3-97.5-9.2-7.5-2.7-16.2-5.3-29.5-9-17-4.6-45-7.1-54.5-4.8m29.4 30c11.6 1.9 23.1 5 44.6 12 32.7 10.6 37 11.1 76.4 10.7 46.4-.4 57.1-.1 69.1 2.3 5.8 1.1 11.9 2.4 13.5 2.9 1.7.6 5 1.6 7.5 2.4 16.9 5.3 38.6 16.8 50.9 27 20 16.7 32.5 32.2 42.1 52.1 5.9 12.5 6.5 14 10.5 29.1 1.8 7 3.5 21.4 3.5 30.8 0 15.8-2.4 30.2-8.2 48.1-5 15.6-15.7 35.2-26.1 48-5.5 6.7-20.2 21.3-25.2 25-2.2 1.7-4.2 3.2-4.5 3.6-1.7 1.9-14.5 9.7-23.3 14.2-12.4 6.3-16 7.8-25.7 11-6.4 2.1-10.3 3.2-23.5 6.3-1.1.2-7.2 1.1-13.5 1.9-37.8 4.9-80.5-3-116.5-21.5-13.1-6.8-27.6-15.6-29.5-18-.3-.3-2.1-1.7-4-3s-3.7-2.7-4-3-2.3-1.9-4.5-3.5c-5.3-4-27.9-26.5-34.1-34-9.5-11.4-23.4-31.3-29.4-42-4.4-7.8-13.6-26.1-15.4-30.5-1-2.5-2.4-5.9-3.1-7.5-9.8-22.6-17.5-56.2-17.5-76.4 0-11.7 2.5-26.1 6.5-37.6 6.8-19.7 23.1-38.2 40.2-45.6 12.5-5.4 28.7-7.2 43.2-4.8M292.3 195c.7 0 2.6 3.8 4.8 9.7 2.1 5.5 3.1 7.6 10.3 22.3 4.2 8.5 8.9 17.7 10.5 20.5 1.7 2.7 3 5.3 3.1 5.7 0 .5-36 .8-80 .8h-80v-28.8c0-16.9.4-29.2.9-29.8.8-.7 42.1-.9 130.4-.4m569.5 29.5.2 29.5h-62c-34.1 0-62-.2-62-.5s.9-3.8 1.9-7.8c3.6-13.7 6.1-31 6.1-41.9 0-4.6.2-8.7.4-8.9s26.2-.3 57.8-.2l57.3.2zm-635.6 61.9c-.2 1-1.4 4.2-2.7 7-2.1 4.7-3.1 6.9-8.5 19.1-1.1 2.5-3 6.6-4.1 9.2-1.2 2.7-3.2 7.2-4.5 10.1s-2.4 5.5-2.4 5.7-1.1 2.8-2.4 5.7-3.3 7.4-4.5 10c-3.7 8.3-6 13.7-8 18-4.1 9.3-6.4 14.5-8.7 19.6-1.3 2.9-2.4 5.5-2.4 5.7s-1.1 2.8-2.4 5.7c-2.3 5.1-4.6 10.3-8.7 19.5-1.1 2.4-2.7 6.2-3.8 8.5-2.4 5.4-5.5 12.6-8 18-1 2.4-2.6 6.1-3.5 8.3s-2.2 5.2-2.9 6.7l-1.2 2.8H95.3c-28.8 0-52.3-.3-52.3-.8 0-.4 1.1-2.4 2.5-4.4s2.5-3.9 2.5-4.3c0-.3 1.5-2.9 3.3-5.8 5.9-9.2 14.1-22.4 25.5-41 4.5-7.2 10.1-16.3 16.2-26.2 2.4-3.9 6.3-10 8.7-13.7 2.3-3.7 4.3-7 4.3-7.3 0-.5 2-3.8 11.7-18.7 2.3-3.7 4.3-7 4.3-7.3 0-.4 1.8-3.3 4-6.5s4-6.1 4-6.5c0-.3 2-3.6 4.3-7.3 2.4-3.7 6.2-9.6 8.4-13.2s5.7-9.3 7.9-12.8l3.9-6.2 36 .2c34.6.3 36 .4 35.7 2.2m108.8-1.2c0 1.3-.5 3.2-3.9 15.8-1.1 4.1-3.4 12.9-5.1 19.5s-4 15.3-5.1 19.2c-1 4-2.8 10.6-3.8 14.5-1.1 4-3.4 12.7-5.1 19.3s-4 15.3-5.1 19.2c-1 4-2.8 10.6-3.8 14.5-1.1 4-3.4 12.7-5.1 19.3s-4 15.4-5.1 19.5-2.7 10.3-3.6 13.7l-1.6 6.3h-53.4c-36.7 0-53.3-.3-53.3-1.1 0-.5.8-2.9 1.9-5.2 1-2.3 2.8-6.2 3.9-8.7 4.8-10.8 6.6-14.8 8.8-19.8 1.3-2.9 2.4-5.5 2.4-5.7s1.1-2.8 2.4-5.7 3.3-7.3 4.4-9.8 3-6.8 4.2-9.5c2.3-5.2 4.8-10.8 8.2-18.5 1.1-2.5 3.1-6.9 4.4-9.8s2.4-5.5 2.4-5.7 1.1-2.8 2.4-5.7c2.3-5.1 4.6-10.3 8.7-19.6 1.1-2.3 2.7-6.1 3.8-8.5 4.1-9.2 6.4-14.4 8.7-19.5 1.3-2.9 2.4-5.5 2.4-5.7s1.3-3.3 2.8-6.7c1.6-3.5 3.9-8.7 5.2-11.6l2.4-5.2h37.3c29.2 0 37.3.3 37.3 1.2m431 4c1.3 2.9 3.6 8.1 5.2 11.6 1.5 3.4 2.8 6.5 2.8 6.7s1.1 2.8 2.4 5.7c2.6 5.8 7 15.7 12.6 28.3 3.5 8 6.3 14.1 8.6 19.3 1.3 2.9 2.4 5.5 2.4 5.7s1.1 2.8 2.4 5.7c2.2 5 3.9 8.8 8.5 19 7 15.9 10.1 22.8 12.7 28.6 1.3 2.9 2.4 5.5 2.4 5.7s1.1 2.8 2.4 5.7 3.3 7.4 4.5 10c4.8 10.9 6.4 14.5 8.2 18.5 1.1 2.3 1.9 4.7 1.9 5.2 0 .8-16.6 1.1-53.3 1.1h-53.4l-1.6-6.3c-.9-3.4-2.5-9.6-3.6-13.7s-3.4-12.9-5.1-19.5-4-15.3-5.1-19.3c-1-3.9-2.8-10.5-3.8-14.5-1.1-3.9-3.4-12.6-5.1-19.2-3-11.6-4.6-17.5-9.1-34.3-4.7-17.4-4.8-15.4 1.3-23 4.9-5.9 10.7-14.5 19.2-28l2.6-4.2h37.6zm107.5 1c2.2 3.4 4.5 7.1 5.1 8.3.6 1.1 3.4 5.7 6.2 10.2 12 19.2 15.6 25 17.3 28 1 1.7 3.3 5.6 5.2 8.5 3.3 5.1 7.5 11.9 16 25.8 2.2 3.6 6 9.5 8.4 13.2 2.3 3.7 4.3 7 4.3 7.3s1.6 3 3.5 6 5.1 8 7.1 11.1c1.9 3 4.3 7 5.3 8.7 1.7 3 4.5 7.5 17.2 27.9 7.2 11.5 11.9 19.5 11.9 20.2 0 .3-23.5.6-52.3.6h-52.2l-1.2-2.8c-.7-1.5-2-4.5-2.9-6.7s-2.4-5.8-3.4-8-2.7-6-3.8-8.5-2.9-6.5-4-9-2.9-6.5-4-9c-4.8-10.8-6.6-14.8-8.8-19.8-1.3-2.9-2.4-5.5-2.4-5.7s-1.1-2.8-2.4-5.7c-2.3-5.1-4.6-10.3-8.7-19.6-1.1-2.3-2.9-6.3-4-9-1.2-2.6-3-6.7-4.1-9.2s-3.1-6.9-4.4-9.8-2.4-5.5-2.4-5.7-1.1-2.8-2.4-5.7c-2.2-5-3.9-8.8-8.5-19.1-3.1-6.9-6.2-13.9-8.2-18.4-3.1-6.9-3.8-9.1-3.2-9.7.4-.3 16.6-.6 36.2-.6h35.6zm-486.9 40.4c13.2 11.3 28.6 21.8 46.5 31.7l3.2 1.8-.7 7.7c-.4 4.2-1.1 12.4-1.6 18.2s-1.4 15.8-2 22.2c-.5 6.5-1.5 17.1-2.1 23.5-.6 6.5-1.3 15.8-1.7 20.8l-.7 9-54.2.3c-29.9.1-54.3-.1-54.3-.5 0-.5.5-2.4 1-4.3 1.9-7.4 7.2-27.8 9.1-34.8 1-3.9 2.8-10.5 3.8-14.5 1.1-3.9 3.4-12.6 5.1-19.2s4-15.3 5.1-19.3c1-3.9 2.8-10.6 3.9-14.7s2.9-11 4.1-15.3c1.1-4.2 2.4-9.3 2.9-11.2 1.4-5.8 4.7-18.4 5.4-20.3.3-.9.8-2.5 1.1-3.4.5-1.3 2.5.2 9.3 6.9 4.8 4.7 12.3 11.6 16.8 15.4m287.8 18.6c1.1 3.5 7 25.5 11.6 43.3 1.7 6.6 4 15.3 5.1 19.2 1 4 2.8 10.6 3.8 14.5 1.9 7 7.2 27.4 9.1 34.8.5 1.9 1 3.8 1 4.3 0 .4-24.4.6-54.2.5l-54.3-.3-.7-8.5c-.3-4.7-1.2-14.4-1.8-21.5-1.9-22.2-2.9-33.7-3.6-42.2l-.7-8.2 2.9-.7c28.3-6.6 59.6-20.9 76.7-35.1 3.5-2.9 4.3-2.9 5.1-.1m-202.7 29.3c9.2 2.9 12.3 3.7 24.6 6.4 14.3 3.2 32.2 5.1 48.7 5.1h14.6l1.2 11.2c.6 6.2 1.6 17.1 2.2 24.3.6 7.1 1.5 16.9 2.1 21.6.5 4.7.9 10.9.9 13.7v5.2H457.7l.7-9.3c.3-5 1.1-14.3 1.6-20.5.6-6.1 1.4-16 2-22 .5-5.9 1.4-16.2 1.9-23 1-11.3 1.5-14.2 2.6-14.2.2 0 2.6.7 5.2 1.5M139.5 497.2c.7 1.8-2.8 11.1-6.7 17.7-4.9 8.4-15.1 18.2-22.8 21.8-11.2 5.4-13 5.8-24 5.8s-12.9-.5-24-5.8c-7.6-3.7-17.9-13.5-22.8-21.8-3.9-6.6-7.4-15.9-6.7-17.7.3-.9 12-1.2 53.5-1.2s53.2.3 53.5 1.2m142 0c.7 1.8-2.8 11.1-6.7 17.7-4.9 8.4-15.1 18.2-22.8 21.8-11.2 5.4-13 5.8-24 5.8s-12.9-.5-24-5.8c-7.6-3.7-17.9-13.5-22.8-21.8-3.9-6.6-7.4-15.9-6.7-17.7.3-.9 12-1.2 53.5-1.2s53.2.3 53.5 1.2m142 0c.7 1.8-2.8 11.1-6.7 17.7-4.9 8.4-15.1 18.2-22.8 21.8-11.2 5.4-13 5.8-24 5.8s-12.9-.5-24-5.8c-7.6-3.7-17.9-13.5-22.8-21.8-3.9-6.6-7.4-15.9-6.7-17.7.3-.9 12-1.2 53.5-1.2s53.2.3 53.5 1.2m142 0c.7 1.8-2.8 11.1-6.7 17.7-4.9 8.4-15.1 18.2-22.8 21.8-11.2 5.4-13 5.8-24 5.8s-12.9-.5-24-5.8c-7.6-3.7-17.9-13.5-22.8-21.8-3.9-6.6-7.4-15.9-6.7-17.7.3-.9 12-1.2 53.5-1.2s53.2.3 53.5 1.2m142 0c.7 1.8-2.8 11.1-6.7 17.7-4.9 8.4-15.1 18.2-22.8 21.8-11.2 5.4-13 5.8-24 5.8s-12.9-.5-24-5.8c-7.6-3.7-17.9-13.5-22.8-21.8-3.9-6.6-7.4-15.9-6.7-17.7.3-.9 12-1.2 53.5-1.2s53.2.3 53.5 1.2m142 0c.7 1.8-2.8 11.1-6.7 17.7-4.9 8.4-15.1 18.2-22.8 21.8-11.2 5.4-13 5.8-24 5.8s-12.9-.5-24-5.8c-7.6-3.7-17.9-13.5-22.8-21.8-3.9-6.6-7.4-15.9-6.7-17.7.3-.9 12-1.2 53.5-1.2s53.2.3 53.5 1.2m142 0c.7 1.8-2.8 11.1-6.7 17.7-4.9 8.4-15.1 18.2-22.8 21.8-11.2 5.4-13 5.8-24 5.8s-12.9-.5-24-5.8c-7.6-3.7-17.9-13.5-22.8-21.8-3.9-6.6-7.4-15.9-6.7-17.7.3-.9 12-1.2 53.5-1.2s53.2.3 53.5 1.2M841.8 679.6l2.2.6-.2 156.7-.3 156.6h-163l-.3-156.7c-.2-148.6-.1-156.7 1.5-157.1 2.7-.7 157.5-.8 160.1-.1m-468.1-630c-15.2 4.1-30.1 16.5-37.4 30.9-6.3 12.6-8.6 23.4-8.6 39.5 0 13.3.5 17.3 4.5 34 2.6 10.7 5.2 18.8 12 36.5 1.6 4.1 14.2 29 17.2 34 15.4 25.6 25.1 38.2 43.2 56.1C435.9 311.5 472.4 331 512 338c25.4 4.5 53.8 3 78.5-4 2.2-.6 5-1.4 6.3-1.7 1.2-.3 2.5-.9 2.8-1.4s1.2-.9 2.1-.9 6.4-2.3 12.2-5.1c31.1-15.1 56.4-39.7 69.8-67.9 5.6-11.7 7.7-18.2 11.4-34.9 1.5-7 1.5-35.1 0-42.1-3-14-6.3-23.5-11.8-34-6.3-12.1-10.5-16-17.5-16-6.9.1-15.7 8.2-15.8 14.6 0 1.2 2.2 6.5 4.9 11.7 9.1 17.6 11.5 27.3 11.4 45.2-.1 14.4-2.2 25.1-7.4 37.7-13.9 33.8-44.5 59-81.9 67.6-13.5 3.1-17.7 3.5-33.5 3.5-18.7-.1-26.5-1.2-45-6.2-16.8-4.7-40.8-17.4-57-30.4-8.3-6.6-29.7-28.7-35.6-36.7-19.4-26.1-35.1-56.3-42-80.8-5.3-18.9-6.3-25-6.3-40.2 0-13.4.2-14.9 2.5-20 2.8-6 7-10.2 12.6-12.5 5.8-2.4 22-2 33.4 1 9.5 2.4 23.6 6.8 27.4 8.5 3.6 1.6 19.9 6.9 27.5 8.8 17.6 4.6 33.7 5.1 73.5 2.2 25.7-1.8 46.1-.4 60.8 4.4 2.3.8 5.4 1.7 6.9 2 7.2 1.6 14.6-3.7 16.7-11.9 1.1-4.3 1-5.2-1.1-9.3-2.7-5.3-6.2-7.5-17.1-10.4-20-5.3-42.3-6.9-68.2-4.8-37.7 3-54.1 2.3-70-2.8-6.4-2.1-19.5-7.2-26-10.2-9.2-4.2-20.5-8.4-28.5-10.6-9.8-2.7-26.1-3.1-34.3-.8m198.8 98c-23.4 3.3-42.1 19.4-49.1 42.3-.7 2.5-1.4 8.7-1.4 13.7 0 40.8 43.5 66.8 81.5 48.5 20.1-9.7 33.3-34.7 29.6-56.4-3.8-22.6-17.7-39-39.1-46.1-4.8-1.6-16.6-2.7-21.5-2m15.9 31.9c7.2 3 12.2 9.6 14.6 19 2.5 9.9-3.7 22.4-13.5 27.4-6.1 3-16.7 3.4-22.7.7-11.7-5.1-18.2-21.3-13.3-33 3-7.2 10.5-13.8 18-15.7 4-1.1 12.4-.3 16.9 1.6M163.2 649.9c-5.6.8-10.5 4.8-12 9.9-.9 2.9-1.2 33.4-1.2 121.4v117.5l2.3 4.3c1.3 2.5 3.7 5.1 5.7 6.2 3.4 1.8 10.5 1.8 221.2 1.6l217.7-.3 2.7-2.1c1.6-1.1 3.6-3.4 4.5-5 1.6-2.7 1.8-11.5 1.8-122.7.1-132.8.6-122.9-6.6-128.4l-3.6-2.8-214.1-.1c-117.8-.1-216 .2-218.4.5m412.3 130.4V881H378.6c-108.2 0-197.2-.3-197.7-.6s-.9-42.9-.9-100.4c0-94.3.1-99.9 1.8-100.3.9-.3 89.9-.4 197.7-.3l196 .1z"/></svg>