<svg xmlns="http://www.w3.org/2000/svg" width="1365.333" height="1365.333" viewBox="0 0 1024 1024"><path d="M161.5 27.7c-15.5 2-29.7 14.6-35.9 31.8-.7 1.9-1.2 21.9-1.6 56l-.5 52.9-6.5 1.7c-3.6.8-9 2.1-12 2.8s-9.3 2.1-14 3.2-10.4 2.4-12.7 3c-28.8 6.3-30.6 7-34.1 12.4L42 195v53.2c0 29.3-.4 53.8-.8 54.3-.4.6-2 1.7-3.5 2.5-4.4 2.2-7.2 5.6-8.5 9.8-.9 3-1.2 56.1-1.2 211.8l.1 207.9 2.2 4.5c1.2 2.5 3.7 5.5 5.6 6.7l3.4 2.3h52.5c51.5 0 52.5 0 56.2-2.1 2.1-1.2 4.7-3.8 5.9-5.9l2.1-3.8V403h712v333.2l2.1 3.8c1.2 2.1 3.8 4.7 5.9 5.9 3.7 2.1 4.7 2.1 56.2 2.1h52.5l3.4-2.3c1.9-1.2 4.4-4.2 5.6-6.7l2.2-4.5.1-207.9c0-155.7-.3-208.8-1.2-211.8-1.3-4.2-4.1-7.6-8.5-9.8-1.5-.8-3.1-1.9-3.5-2.5-.4-.5-.8-25-.8-54.3V195l-2.2-3.5c-3.3-5-6.3-6.2-25.3-10.5-3.8-.8-9.8-2.3-29.7-6.9-4.6-1.1-10.8-2.5-13.8-3.2-3-.6-6.6-1.5-8-1.9l-2.5-.7-.5-52.9c-.4-34-.9-54-1.6-55.9-3.1-8.4-6.2-13.5-11.8-19-10.9-10.7-23.9-15-38.5-12.6-13.9 2.3-26.8 12-33 25.1l-3.6 7.5-.3 54.2-.3 54.3-2.2 1.1c-1.2.7-3.6 1.6-5.4 2.1-1.8.4-4.8 1.2-6.5 1.7-8.8 2.5-27.9 7.3-32.5 8.1-2.9.6-7.9 1.5-11 2.1-35.7 6.6-85.4 7.6-121.8 2.4-8.8-1.3-17.4-2.7-24.5-4.2-4.1-.8-9.5-1.9-12-2.4-4-.8-10.1-2.3-20-5-9.2-2.4-17.6-5.3-18.2-6.3-.4-.6-.8-24.7-.8-53.6 0-55.9 0-55.1-5-64.8-2.4-4.6-10-12.9-14.5-15.9-7.1-4.7-14.6-6.8-24.5-6.8-20.3 0-33.4 9.5-42.6 31-.5 1.1-1.1 26.5-1.4 56.4l-.5 54.5-5.5 1.9c-5.7 2-6.4 2.2-19.5 5.7-8.3 2.1-10.9 2.7-23.5 5.3-50.3 10.3-104.9 10.3-155 0-4.1-.9-9.5-1.9-12-2.4-4.1-.8-15.8-3.7-23.7-6-1.8-.5-4.8-1.3-6.5-1.8-1.8-.5-4.5-1.3-6-1.9l-2.7-1.1-.3-54.3-.3-54.3-3.6-7.5c-8.5-17.9-27.3-27.9-47.4-25.3m16 35.4 3 2.9.3 118.5.2 118.5h-25V186c0-100.3.2-117.5 1.4-119.9 3.9-7.4 14.1-8.9 20.1-3m343.3.2 3.2 3.1V303h-24V66.2l3-3.1c5.1-5 12.4-5 17.8.2m341.9-1.6c5.6 3.7 5.3-2.6 5.3 124.3v117h-25l.2-118.4.3-118.5 2.9-3c1.6-1.6 3.8-3.2 5-3.4 3.2-.7 8.6.3 11.3 2M124 252.5V303H74v-45c0-35.2.3-45.1 1.3-45.4 1.5-.4 18.4-4.3 25.2-5.8 2.8-.6 7.9-1.9 11.5-2.9 3.6-.9 7.7-1.7 9.3-1.8l2.7-.1zm783.6-49.6c1.6.5 5.4 1.4 8.4 2 3 .7 9.1 2.1 13.5 3.1s10.7 2.5 14 3.3l6 1.4.3 45.2.2 45.1h-50V202h2.4c1.2 0 3.6.4 5.2.9m-685.1 2.6c9.5 2.6 15.8 4.2 22 5.5 3.3.7 6.6 1.8 7.3 2.3.9.8 1.2 10.5 1 45.1l-.3 44.1-18.9.3c-14.5.2-19.1-.1-19.8-1-.9-1.5-1.1-96.2-.1-97.1 1-1 2.6-.9 8.8.8m245.3 46c.1 25.8 0 48-.3 49.2-.5 2.3-.7 2.3-19 2.3H430v-45c0-35.2.3-45.1 1.3-45.4.6-.2 6.2-1.6 12.2-3 6.1-1.5 13-3.3 15.5-4.1 2.5-.7 5.4-1.2 6.5-1.1 2 .1 2 .9 2.3 47.1M571 206.9c7.3 2.1 14 3.7 21 5l3.5.6.3 45.3.2 45.2h-19.4c-16.8 0-19.5-.2-20-1.6-.9-2.3-.7-95.9.1-96.8 1-1 5.1-.3 14.3 2.3m239.8 44.6c.1 25.8 0 48-.3 49.3l-.5 2.2-18.3-.2-18.2-.3-.3-44.1c-.2-34.6.1-44.3 1-45.1.7-.5 7.4-2.4 14.8-4.2 7.4-1.9 14.4-3.7 15.5-4.2 1.1-.4 2.9-.7 4-.6 2 .2 2 1 2.3 47.2m-504.7-31c9.5.8 17.4 1.5 17.6 1.5s.3 18.2.3 40.5V303l-19.2-.2-19.3-.3-.3-41.4c-.2-31.7.1-41.6 1-42.2.7-.4 1.5-.6 1.9-.4.3.3 8.4 1.1 18 2m339.8-.4c7.5.6 15.4 1.4 17.6 1.8l4 .7v79.9h-39l-.3-41c-.1-22.5 0-41.6.3-42.4.3-.7 1.2-1 2.2-.7.9.4 7.8 1.2 15.2 1.7m-248.1 40.6-.3 41.8h-41l-.3-39.8c-.2-31.3 0-39.9 1-40.2 1.5-.6 30.3-3.2 36.6-3.4l4.2-.1zm343 0-.3 41.8-20.2.3-20.3.2v-81l2.8-.1c1.5 0 8.8-.6 16.2-1.3 7.4-.8 15.4-1.4 17.8-1.5l4.2-.1zm221.6 74.9c1.4.5 1.6 3 1.6 17.4s-.2 16.9-1.6 17.4c-2.1.8-898.7.8-900.8 0-1.4-.5-1.6-3-1.6-17.4 0-12.5.3-17 1.3-17.3 1.8-.8 899.2-.8 901.1-.1M124 559.5V716l-31.7-.2-31.8-.3-.3-155c-.1-85.3 0-155.6.3-156.3.3-.9 7.7-1.2 32-1.2H124zm839.5 0v156l-31.7.3-31.8.2V403l31.8.2 31.7.3zm-670.6 36.8c-2.6 1.7-36.3 45.3-54.3 70.2-.8 1.1-12.9 17.3-26.9 36-22.6 30.2-85.9 115-90.7 121.5-3.5 4.7-62.2 83.3-85.5 114.5-12.8 17.1-24.2 32.6-25.4 34.5-2.5 4.1-2.8 10.8-.6 15 .8 1.6 3.2 4.2 5.2 5.7l3.6 2.8h987.4l3.6-2.8c7.6-5.7 8.9-13.9 3.6-22.3-1.7-2.7-3.4-5.1-3.8-5.4-.3-.3-8.3-10.6-17.6-23s-22.4-29.8-29.2-38.8c-6.8-8.9-17.8-23.5-24.6-32.5-6.8-8.9-19.9-26.3-29.2-38.7s-17.2-22.7-17.5-23c-.5-.5-20.7-27.2-43.4-57.5-6.6-8.8-12.3-16.2-12.6-16.5-.5-.5-21.5-28.2-49.4-65.5-6.6-8.8-12.3-16.2-12.6-16.5s-4.8-6.1-9.9-13c-29.4-39.1-33-43.6-36.6-45.3-3.3-1.6-17.5-1.7-216.9-1.7H296.3zm33.1 30.1c0 .2-3.2 6-7.1 12.8-3.9 6.7-8 13.8-9 15.5-1.1 1.8-2.8 4.9-3.9 6.8s-2.8 5-3.9 6.7c-1 1.8-6 10.5-11.1 19.3s-10.1 17.5-11.1 19.2c-1.1 1.8-2.8 4.9-3.9 6.8-2.7 4.8-4.6 7.9-13 22.5s-10.3 17.7-13 22.5c-1.1 1.9-2.9 5.1-4 7-2.7 4.8-4.6 7.9-13 22.5-4 6.9-8.1 14-9.1 15.7-1.1 1.8-2.7 4.8-3.8 6.5-1 1.8-6.9 12.1-13.1 22.8s-12.1 21-13.1 22.7c-1.1 1.8-2.7 4.8-3.8 6.5-1 1.8-6.9 12.1-13.1 22.8s-12.1 21-13.1 22.7c-1.1 1.8-2.7 4.8-3.8 6.5-1 1.8-5.1 8.9-9.1 15.8-10.7 18.5-12.9 22.2-17.1 29.7-1.2 2.1-2.6 4.1-3.3 4.5-1.6 1.1-73.6 1-73.6-.1 0-.9 11.7-16.8 64.7-87.6 14-18.7 26.3-35.1 27.3-36.5 2.1-2.8 53.4-71.6 87.7-117.5 12.3-16.5 23-30.7 23.6-31.5.7-.8 2.3-3.1 3.7-5 1.3-1.9 2.9-4 3.5-4.7.5-.6 10-13.3 21-28.2l20-27 8.8-.1c4.8 0 8.7.2 8.7.4m334 3.1c3.6 6.3 5.8 10.2 9 15.5 1.8 3 4.1 7 5.1 8.7 1.1 1.8 2.7 4.8 3.8 6.5 1 1.8 3.3 5.8 5.1 8.8s4.1 6.8 5 8.5c1 1.6 4.1 7 7 12 2.9 4.9 6 10.3 7 12 1 1.6 4.1 6.9 6.9 11.7 2.8 4.9 7.4 12.7 10.2 17.5 2.8 4.9 5.9 10.1 6.9 11.8 1 1.6 4.1 7 7 12 2.9 4.9 6 10.3 7 12 .9 1.6 3.2 5.5 5 8.5s4.1 7 5.1 8.7c1.1 1.8 2.7 4.8 3.8 6.5 1 1.8 3.3 5.8 5.1 8.8s4.1 6.8 5 8.5c1 1.6 4.1 7 7 12 2.9 4.9 6 10.3 7 12 1 1.6 4.1 6.9 6.9 11.7 2.8 4.9 7.4 12.7 10.2 17.5 2.8 4.9 5.9 10.1 6.9 11.8 1 1.6 4.1 7 7 12 2.9 4.9 6 10.3 7 12 .9 1.6 3.2 5.5 5 8.5 3.2 5.4 5 8.5 8.9 15.4 1.1 1.8 3.8 6.4 6 10.1 2.3 3.7 4.1 6.9 4.1 7.1 0 .3 1.1 2.1 2.4 4.2 7.1 11.2 12.6 21.4 12.1 22.2-.9 1.4-685.5 1.4-685.5 0 0-.6 3.4-7 7.6-14.3s8.5-14.7 9.5-16.4c1.1-1.8 2.8-4.9 3.9-6.8 2.7-4.8 4.6-7.9 13-22.5s10.3-17.7 13-22.5c1.1-1.9 2.9-5.1 4-7 2.7-4.8 4.6-7.9 13-22.5s10.3-17.7 13-22.5c1.1-1.9 2.9-5.1 4-7 2.7-4.8 4.6-7.9 13-22.5s10.3-17.7 13-22.5c1.1-1.9 2.9-5.1 4-7 2.7-4.8 4.6-7.9 13-22.5 4-6.9 8.1-14 9.1-15.8 1.1-1.7 2.7-4.7 3.8-6.5 1-1.7 6.9-12 13.1-22.7s12.1-21 13.1-22.8c1.1-1.7 2.7-4.7 3.8-6.5 17.1-29.5 24.6-42.7 25.8-45l1.4-2.7 147.6.2 147.6.3zm71.1 22.2c10.6 14.2 19.6 26 19.9 26.3s6 7.7 12.6 16.5c22.7 30.3 42.9 57 43.4 57.5.3.3 8.2 10.6 17.5 23s22.3 29.7 29 38.5 17.7 23.4 24.6 32.5 20.1 26.6 29.4 39 17.2 22.7 17.5 23 5.3 6.8 11 14.5c5.8 7.7 14.9 19.8 20.2 26.8 5.4 7 9.8 13.4 9.8 14.2 0 1.3-5 1.5-35.7 1.5-19.7 0-36.3-.4-37-.8-.6-.4-3.5-4.8-6.3-9.7-2.9-5-6-10.4-7-12-1.7-3-7.9-13.6-17.3-29.5-2.7-4.7-5.7-9.9-6.7-11.5-.9-1.7-3.2-5.5-5-8.5s-4.1-7-5.1-8.8c-1.1-1.7-2.7-4.7-3.8-6.5-1-1.7-3.3-5.7-5.1-8.7s-4.1-7-5.1-8.8c-1.1-1.7-2.7-4.7-3.8-6.5-1-1.7-3.3-5.7-5.1-8.7s-4.1-7-5.1-8.8c-1.1-1.7-2.7-4.7-3.8-6.5-1-1.7-3.3-5.7-5.1-8.7s-4.1-6.9-5-8.5c-1-1.7-4-6.8-6.7-11.5-10.8-18.4-15.6-26.6-17.3-29.5-.9-1.7-3.2-5.5-5-8.5s-4.1-7-5.1-8.8c-1.1-1.7-2.7-4.7-3.8-6.5-1-1.7-3.3-5.7-5.1-8.7s-4.1-7-5.1-8.8c-1.1-1.7-2.7-4.7-3.8-6.5-1-1.7-3.3-5.7-5.1-8.7s-4.1-6.9-5-8.5c-1-1.7-4.1-7.1-7-12-2.9-5-6-10.4-7-12-1-1.7-4.1-6.9-6.9-11.8-2.8-4.8-7.4-12.6-10.2-17.5-2.8-4.8-5.9-10.1-6.9-11.7-.9-1.7-3.1-5.4-4.9-8.3-1.7-2.9-3.1-5.7-3.1-6.2 0-.6 3.5-1 7.9-1h7.8zm-225.6-17.2c-8.9 4.8-9.5 6.9-9.5 34.6 0 15.6.4 23.7 1.2 25.6 1.9 4.4 7.3 9 11.4 9.6 7.7 1.3 13.1-1.2 16.9-7.8 2.5-4.1 2.5-4.5 2.5-27.2 0-25.9-.5-28.3-6.5-32.9-4.5-3.4-11.6-4.2-16-1.9m0 120c-8.9 4.8-9.5 6.9-9.5 34.6 0 15.6.4 23.7 1.2 25.6 1.9 4.4 7.3 9 11.4 9.6 7.7 1.3 13.1-1.2 16.9-7.8 2.5-4.1 2.5-4.5 2.5-27.2 0-25.9-.5-28.3-6.5-32.9-4.5-3.4-11.6-4.2-16-1.9m0 120c-8.9 4.8-9.5 6.9-9.5 34.6 0 15.6.4 23.7 1.2 25.6 1.9 4.4 7.3 9 11.4 9.6 7.7 1.3 13.1-1.2 16.9-7.8 2.5-4.1 2.5-4.5 2.5-27.2 0-25.9-.5-28.3-6.5-32.9-4.5-3.4-11.6-4.2-16-1.9"/></svg>