<svg xmlns="http://www.w3.org/2000/svg" width="1365.333" height="1365.333" viewBox="0 0 1024 1024"><path d="M490 17.1c-23.8 3.2-37.2 6.6-57.5 14.8-9.1 3.6-28.4 13.9-36.5 19.4-42.2 28.8-72 70.9-85 119.9l-1.3 4.8h-93.8c-95.6 0-97.2.1-106.4 3.6-4.3 1.6-13.5 8.6-17.7 13.4-8.7 9.9-11.8 19.4-11.8 36v11H54.5c-26.4 0-28.6.3-33.3 4.4-5.4 4.8-5.2-.2-5.2 123.6s-.2 118.8 5.2 123.6c4 3.5 7.6 4.4 17.3 4.4H48v416h-9.5c-12.7 0-18 2.5-21.1 9.9-2.1 4.9-2.1 71.3 0 76.2 1.6 3.9 4.8 7 8.9 8.7s967.3 1.7 971.4 0 7.3-4.8 8.9-8.7c2.1-4.9 2.1-71.3 0-76.2-3.1-7.4-8.4-9.9-21.1-9.9H976V496h9.4c12.9 0 18.1-2.5 21.4-10.3.9-2.1 1.2-31 1.2-117.6 0-123.9.2-118.9-5.2-123.7-4.7-4.1-6.9-4.4-33.3-4.4H944v-11.1c0-12.5-.8-16.5-5.3-25.9-3.6-7.7-13.8-18.3-20.9-21.8-10.8-5.3-8.7-5.2-109.7-5.2h-93.8l-1.3-4.8c-13.7-51.6-47-96.6-91.7-124-7.1-4.4-25.7-13.8-32-16.3-1.3-.5-3.3-1.3-4.5-1.8-11-4.7-31-9.3-52.1-12.1-9.1-1.2-33.4-1.1-42.7.1M530.9 49c18.3 2.8 24.5 4.2 35.6 7.8 38 12.5 69.7 36.6 92.3 70.4 2.9 4.2 5.2 7.9 5.2 8.2s1.3 2.7 2.8 5.3c6.7 11.5 13.9 31.3 17.7 48.8 1.8 8 3.5 25.1 3.5 34.5s-1.7 26.5-3.5 34.5c-3.5 16.2-10.7 36.5-16.7 47.2-5 8.9-6.3 11.1-10 16.7-23.9 35.5-62.7 62.6-103.8 72.4-8.3 2-10.5 2.4-21 3.8-16.9 2.2-39.5 1.4-55.5-2.1-17.5-3.8-37.3-11-48.8-17.7-2.6-1.5-5-2.8-5.3-2.8-1.1 0-16.3-10.7-22.9-16.1-7.7-6.3-20-18.7-26.2-26.4-17.5-21.8-30.6-50.7-35.2-77.5-2.6-15.5-3.1-20.4-3.1-32s.5-16.5 3.1-32c8.8-51.3 43.7-98.8 90.9-123.7 18.8-9.9 35.1-14.9 62-19.2 7.8-1.2 31.1-1.3 38.9-.1M304.1 224v15.5l-96 .3-96.1.2v-9.4c0-12.8 2.4-17.9 9.8-21.3 2-.8 25.1-1.1 92.5-1l89.8.2zm597.6-14.8c7.8 3.3 10.3 8.5 10.3 21.4v9.4l-96.1-.2-96-.3v-15.3c0-8.3.1-15.4.1-15.7s40.3-.5 89.5-.5c66.9 0 90.1.3 92.2 1.2M311 276.7c3.2 11.9 8.1 25.5 13.1 36.1 1.7 3.4 2.8 6.6 2.5 7.1s-2.7 1.2-5.3 1.6c-19.1 2.8-36.3 11.6-52.1 26.6-10.8 10.4-20.6 15.8-33.2 18.5-20.4 4.4-39.4-1.7-56.7-17.9-17-16.1-30.6-23.1-53.1-27.6-11.1-2.3-30.5-.7-42.7 3.4-11.2 3.8-26.4 12.3-30.9 17.4-4.5 5-4.6 4.4-4.6-33.9v-36h261.7zM976 308c0 38.3-.1 38.9-4.6 33.9-5.2-5.8-22.6-15.2-33.4-18.1-24.6-6.6-44.9-4.7-67.5 6.3-9.1 4.4-16.3 9.6-25.8 18.6-14.1 13.2-28 19.2-44.7 19.2s-30.6-6-44.7-19.2c-16.8-15.9-33.2-24.4-52.6-27.2-2.6-.4-5-1.1-5.3-1.6s.8-3.7 2.5-7.1c5-10.6 9.9-24.2 13.1-36.1l1.3-4.7H976zm-851 45.4c12.2 3 21.2 8.1 31.7 17.9 9.3 8.8 16.6 14.1 25.8 18.6 11 5.4 13.3 6.1 26.5 8.6 12.5 2.4 26.3 1.6 41-2.3 5.3-1.5 6.9-2.1 15.5-6.3 9.2-4.5 16.5-9.8 25.8-18.6 14.8-13.9 28.4-19.3 48.3-19.3h9l3 4c7.8 10.6 42.4 41.3 49.3 43.8.9.3 3.4 1.7 5.6 3.2 8 5.3 26.6 13.8 40 18.2 35.5 11.7 68.3 13.8 105.5 6.7 30.7-5.8 61.5-19.7 86-38.7 9.3-7.2 29.8-27 34.4-33.2l3-4h9c20 0 34 5.7 48.8 19.9 8.4 8 16.2 13.5 25.3 18 11 5.4 13.3 6.1 26.5 8.6 12.5 2.4 26.3 1.6 41-2.3 5.3-1.5 6.9-2.1 15.5-6.3 9.2-4.5 16.5-9.8 25.8-18.6 14.1-13.2 28-19.2 44.7-19.2 11.8 0 22.5 3.2 33 9.8 3 1.9 11.2 9.1 18.3 15.9l12.7 12.5V464H48v-73.7l12.8-12.5C77 361.9 84.7 357 98.5 353.5c6.7-1.7 19.7-1.7 26.5-.1M944 704v208H560V726.6c0-200.3.3-189.4-5.2-194.2-1.2-1.1-3.6-2.6-5.1-3.2-2.1-.9-52.8-1.2-213.6-1.2-227.9 0-214.8-.3-219.7 5.2-1.1 1.2-2.6 3.6-3.2 5.1-.9 2.1-1.2 47-1.2 188.2V912H80V496h864zm-624 32v176H144V560h176zm208 0v176H352V560h176zm448 224v16H48v-32h928zM502.5 82.4c-13.1 6-22.4 24.9-22.4 45.6 0 20.9 9.3 39.7 22.7 45.7 2.9 1.2 7 2.3 9.2 2.3 17.1 0 32-22.3 32-48 0-20.7-9.5-39.7-22.8-45.7-6.6-2.9-12.2-2.9-18.7.1M399 130.7c-6.2 3.1-11.7 9.7-13.7 16.2-4.5 14.3 3.5 39.5 17 54.2 9.5 10.3 21.6 16.9 31 16.9 5.2 0 13.5-4 17.1-8.2 5.8-6.7 7.6-11.7 7.6-20.5-.1-10.5-2-18-7.6-29.3-8.8-17.8-25.4-31-39.9-31.7-5-.3-7 .1-11.5 2.4m201.3 1.4c-11.3 5.6-20.4 15.1-26.7 28.1-5.7 11.6-7.6 18.6-7.6 28.9 0 9.5 2.3 15.2 8.5 21.5 4.1 4.1 11.4 7.4 16.3 7.4 14.3 0 32.4-14.3 41.7-33 6.6-13.2 9.2-28.6 6.3-38.1-3.4-10.7-14-18.8-24.8-18.9-4.5 0-7 .8-13.7 4.1M497 193.6c-11 2.6-12.7 3.1-19.2 6.2-10.9 5.3-22.6 14.8-29.7 24.2-1.4 1.9-2.8 3.7-3.1 4s-1.7 2.1-3 4-2.7 3.7-3 4-1.7 2.1-3 4-2.7 3.7-3 4c-2.7 2.1-11.6 17.3-13.2 22.4-5.1 16.6-5 28.8.5 44.4 5.4 15.4 21.5 31.5 36.9 36.9 11.3 4 14.4 4.2 54.8 4.2 43.7 0 46.4-.2 59-6.2 26.8-12.7 41.7-41.8 35.6-69.7-1.9-8.5-3-11.9-5.1-16.1-1.9-3.6-9.4-15-10.5-15.9-.3-.3-1.7-2.1-3-4s-2.7-3.7-3-4-1.7-2.1-3-4-2.7-3.7-3-4-1.9-2.3-3.5-4.5c-8.9-11.9-26.8-24.5-39.4-27.7-16.4-4.1-28.3-4.8-39.1-2.2m25.4 31.5c11.7 3.1 24.7 12.5 31.6 22.9 1.3 1.9 2.7 3.7 3 4 1.8 1.6 12.9 17.2 14.7 20.5 6.2 11.7 5.8 22.1-1.4 33.2-3.7 5.7-11.3 11.2-17.9 13.1-5.8 1.7-75.1 1.7-80.8 0-16.6-4.8-27.4-23.5-22.5-38.9 1.1-3.6 4.8-11.1 5.9-11.9.3-.3 1.7-2.1 3-4s2.7-3.7 3-4 1.7-2.1 3-4c2.9-4.1 3.2-4.5 9.8-12.6 7.9-9.6 15.8-15.1 25.9-17.8 6.1-1.7 17.3-1.9 22.7-.5m79.4 304.2c-3.9 1.8-6.8 4.7-8.4 8.6-2.1 5-2.1 295.2 0 300.2 1.6 3.9 4.8 7 8.9 8.7 2.1.9 38.3 1.2 149.6 1.2 158.5 0 150.9.3 155.7-5.2 1.1-1.2 2.6-3.6 3.2-5.1.9-2.1 1.2-38.3 1.2-149.7s-.3-147.6-1.2-149.7c-.6-1.5-2.1-3.9-3.2-5.1-4.8-5.5 2.9-5.2-156-5.1-110.8 0-147.8.4-149.8 1.2M880 688v128H624V560h256zM741.2 578.5c-23.2 10.6-28.5 48.3-9.5 68.2 5.3 5.5 13.6 9.3 20.3 9.3 17.2 0 32-18.6 32-40 0-27.3-22.3-46.8-42.8-37.5m75.3 37.4c-6.6 1.7-11.3 4.8-18.5 12-15.1 15.3-17.9 29.7-9 47 5.6 11 21.3 15.9 34.7 10.9 14.9-5.5 25.1-16.3 30.3-31.9 5-15.4-.4-29.6-13.7-35.9-5.2-2.4-18.2-3.6-23.8-2.1m-149 1.5c-10.1 3-14.3 6.7-17.5 15.3-2.5 6.8-2.5 13.3 0 21.2 5.2 15.7 15.3 26.4 30.3 31.9 11.3 4.2 23.1 2.1 30.3-5.5 4.1-4.2 7.4-14.8 7.4-23.3 0-14.1-6.3-25.8-18-33.6-5.1-3.5-6.4-4-13.8-6-6.2-1.6-13.1-1.6-18.7 0m75.5 56.1c-14.9 2.8-22.7 7.4-36.4 21.5-10.8 11.2-14.7 17.4-17.2 27.8-6.2 26.2 10.2 52.7 37.1 59.7 7.8 2.1 43.2 2.1 51 0 9.5-2.4 16.6-6.5 23.5-13.5 15.7-15.6 19.2-37.5 9.4-57.7-3.6-7.2-20.9-25.4-28.7-30.1-6.7-4.1-14.1-6.7-22.8-8.1-7.6-1.3-7.3-1.3-15.9.4m17.6 32.5c5.8 2.5 18.6 14.8 21.4 20.5 4.1 8.5 1.1 18-7.4 23-4.2 2.4-4.8 2.5-22.6 2.5s-18.4-.1-22.6-2.5c-5.6-3.3-9.4-9.6-9.4-15.6 0-5.7 3.4-11.2 12.3-19.6 10.4-10 18.6-12.4 28.3-8.3"/></svg>