<svg xmlns="http://www.w3.org/2000/svg" width="1365.333" height="1365.333" viewBox="0 0 1024 1024"><path d="M335 69.1c-42.1 5.6-65 14.7-105.2 41.6-37.5 25.2-49.2 30.4-85.8 38.3-3.1.7-20.2 1.5-39 2-36.5.9-37.7 1-47.2 7.1-7.3 4.7-12 10.8-16.5 21.4-.4 1.1-1 169.4-1.3 374l-.5 372-14.5.5c-16.2.6-18.7 1.4-22.8 7.6-4.5 6.8-1.8 16 5.9 20.4l3.7 2h1000.4l3.7-2c7.7-4.4 10.4-13.6 5.9-20.4-4.1-6.2-6.6-7-22.8-7.6l-14.5-.5-.5-372c-.3-204.6-.9-372.9-1.3-374-4.5-10.6-9.2-16.7-16.5-21.4-9.5-6.1-10.7-6.2-47.2-7.1-19.1-.5-35.9-1.3-39-2-35.9-7.8-48.4-13.3-84-37.1-23.5-15.7-36.4-23.1-49.4-28.3-18.9-7.5-34.9-11.5-58.9-14.6-4.8-.6-45.5-1-106.3-1-108.7 0-101.7-.4-106.8 6.3-3.7 4.8-3.7 12.6 0 17.4 5.1 6.7-1.8 6.3 106.5 6.3 63.2 0 100.5.4 104.8 1 15.2 2.4 19.9 3.3 25.1 4.7 3 .8 6.9 1.8 8.5 2.3 8.3 2.2 20.4 7.2 32 13.2 3.3 1.7 16.6 10.2 29.5 18.8 27.5 18.3 43.9 26.9 62 32.6 25.8 8.1 35 9.4 72.6 10.2 33.4.8 33.5.8 37.1 5.2 1 1.2 1.2 82 1.3 370.8V926l-30.2-.2-30.3-.3-.5-190c-.5-184.7-.6-190.1-2.4-192.8-5.8-8.5-18.9-8.7-24.8-.4l-2.3 3.2-.5 190-.5 190-29.2.3-29.3.2V767.3c0-123.1-.3-159.7-1.3-162.8-2.5-8.4-7.3-13.6-15.2-16.9-3.4-1.4-30.8-1.6-275.6-1.6-211.5 0-272.4.3-274.6 1.2-8.6 3.8-13.5 9-16 17.3-1.8 5.6-1.8 138.1-.1 142.2 4 9.5 14.9 12.9 23 7.2 6-4.3 5.8-2.2 5.8-73.1V616l71.3.2 71.2.3v309l-71.2.3-71.3.2v-65c0-71.6.3-68.5-6.2-73.2-2.5-1.7-4.6-2.3-9-2.3-5 0-6.1.4-8.9 3-6.1 5.8-5.9 3.5-5.9 73.5v64l-29.2-.2-29.3-.3v-491h701l.5 32c.6 35.8.4 35.1 7.9 39.3 7 4 14.2 2.1 19.5-5.1 2.1-2.8 2.1-3.8 2.1-45v-42.2l-2.3-3.3c-1.3-1.8-3.6-3.9-5.2-4.7-2.6-1.3-47.7-1.5-373-1.5s-370.4.2-373 1.5c-1.6.8-3.9 2.9-5.2 4.7l-2.3 3.3-.5 256-.5 256-30.2.3-30.3.2V556.8c.1-288.8.3-369.6 1.3-370.8 3.6-4.4 3.7-4.4 37.1-5.2 34.4-.7 46.1-2.1 65.1-7.9 24.8-7.5 39-14.5 68.3-34.1 21-14 24.5-16.2 33.2-20.9 6.1-3.2 17-7.9 18.5-7.9.7 0 1.6-.4 1.9-.9s1.6-1.1 2.8-1.4c1.3-.3 3.9-1 5.8-1.5 13.2-3.8 15.3-4.2 34.1-7.2 3.8-.6 25.3-1 50.5-1.1 48.2-.1 47.1.1 51.8-6.3 2.9-3.9 2.9-13.3 0-17.3-4.6-6.2-4.4-6.2-53.9-6.1-24.7 0-47.9.4-51.5.9M601 640v24H423v-48h178zm173 131v155l-71.2-.2-71.3-.3-.3-153.5c-.1-84.4 0-154.1.3-154.8.3-.9 15.6-1.2 71.5-1.2h71zm-173 39v116H423V694h178zM378.5 149.7c-3.1.8-7.3 5.2-8.6 9-.6 2-.8 5.4-.4 7.8.5 3.5 1.5 5.2 4.6 7.9 3.6 3 5 3.5 11.2 4.1 4 .3 63.9.5 133.2.3l126-.3 3.5-2.5c4.8-3.3 5.8-4.8 6.6-9.7.8-5.3-.8-10.2-4.7-13.9l-3-2.9-133.2-.1c-73.3-.1-134.1 0-135.2.3m-137.9 66.6c-2.3 1.3-4.8 3.8-6 6.2-2 3.9-2.1 5.5-2.4 57.9-.3 60.7-.2 62.2 6.2 67.1 6.7 5.1 15.2 4.2 20.6-2.3l3-3.7v-20.3c0-23.9 1.2-33.3 4.6-38 4.3-5.6 10.4-4 14.5 3.8.9 1.8 1.4 9.9 1.9 28 .6 27.1.8 28.3 5.8 32.7 7.7 6.6 21.9 1.7 23.8-8.2.3-2 .4-15.6.2-30.3-.5-24.2-.7-27.3-2.7-33.1-6.5-18.7-19-27.1-38.6-25.9-6.8.5-8.5.3-8.9-.9-.3-.8-.6-6.9-.6-13.5 0-11.5-.1-12.3-2.6-15.5-2.7-3.6-8-6.3-12.3-6.3-1.4 0-4.4 1-6.5 2.3m-96 3.6c-1.5 1-3.7 3.2-4.7 4.7-1.8 2.8-1.9 5.7-1.9 59.9v57l3.1 3.7c5.5 6.7 14.2 7.5 21 1.8 4.9-4 5.9-8.5 5.9-26.4V306h9.3c15.7 0 26.9-4.4 36-13.9 13.8-14.4 16.4-31.5 7.8-50.5-2.7-5.7-12.2-15.6-18-18.5-8.8-4.5-12.5-5.1-34.6-5.1-18.9 0-21.3.2-23.9 1.9m45.1 30.7c6.5 4.9 8.1 12.4 4 18.5-3.4 5.1-7.8 6.8-17.4 6.9H168v-28h9.2c8.2 0 9.4.2 12.5 2.6m205.1-1.2c-1.5.6-4.1 2.5-5.8 4.1-2.9 2.8-3 2.8-7.2 1.4-2.7-.9-8.4-1.4-15.3-1.4-10.7 0-11.2.1-18.8 3.9-29.6 14.7-36.2 52-13.2 75.2 8.3 8.4 16.8 12.5 28.5 13.8 4.9.5 10 0 20.6-2 2.4-.5 3.6 0 6.3 2.5 6.1 5.7 15.3 5.1 20.9-1.3 4.1-4.7 4.4-8.7 4-51.6l-.3-35.5-2.4-3.4c-2.5-3.4-9.1-7.1-12.6-7-1.1 0-3.2.6-4.7 1.3m-20.4 35c1.8.7 4.7 3.1 6.4 5.2 2.8 3.4 3.2 4.6 3.2 10 0 10.4-6.2 16.7-16.3 16.7-11.9-.1-19.5-10-16.2-21.2 3-9.8 13.3-14.7 22.9-10.7m310.1-35.2c-1.6.6-4.4 2.4-6.2 4.1-3.2 3-3.3 3-7.5 1.6-2.7-.9-8.3-1.4-15.3-1.3-10.4 0-11.4.2-18 3.4-8.3 4-18.7 14-22.4 21.4-14.7 29.9 4.2 64.3 37.4 68 4.5.5 11.3-.2 20.3-2 2.7-.5 3.7-.2 6.3 2.4 6.8 6.7 19.1 4.6 23.3-4 2.3-4.4 2.4-81.4.2-85.6-1.9-3.7-5.5-6.7-9.5-8.1-4-1.3-4.6-1.3-8.6.1m-18 36.4c1.4.9 3.7 3.6 5 5.9 4.4 7.5 2.6 15.9-4.7 21.8-3.3 2.6-4.6 3-9.8 3s-6.5-.4-9.8-3c-7.3-5.9-9.1-14.3-4.7-21.8q3.6-6.3 9-7.8c3.5-1 12.3.1 15 1.9m-180-35.2c-5.4 2.4-8.3 6.8-9 13.8-.4 3.5-.5 22.1-.3 41.4l.3 35.1 2.5 3.6c3.2 4.7 6.2 6.2 12.4 6.2 3.7 0 6-.6 8.2-2.2 5.7-4.1 6.4-7 6.4-28 0-27.7.7-34.7 3.8-37.8 4.7-4.8 11.6-2.1 13.2 5 .5 2.2 1 14.2 1 26.6 0 12.5.3 24.1.6 25.9 2 9.6 16.1 14.2 23.6 7.7 5.1-4.5 5.3-5.4 5.8-34.2.5-29.3.7-30.3 6.3-32.6 2.4-1 3.2-.9 5.5.8 4.4 3.3 5 7.7 5.1 33.9.1 26.6.5 28.4 6.4 32.6 2.4 1.7 4.5 2.3 8.9 2.3 5 0 6.1-.4 8.9-3 5.6-5.3 5.9-7 5.9-34.7 0-26.9-.8-34.1-4.9-43.1-7.9-17.3-31.5-24.3-50.7-15l-5.1 2.5-4.4-2.3c-9.6-4.9-19.2-6-28.9-3.4-4.8 1.3-5.7 1.3-7.7 0-3.3-2.2-10.3-2.8-13.8-1.1m-59.2 1.8c-6 4.3-5.8 2.9-6.1 46.6-.3 35.8-.1 40.6 1.4 43.7 2.5 5.3 6.8 7.9 12.9 8 6.3 0 9.2-1.4 12.5-6.2 2.4-3.6 2.5-4.1 2.8-25.6l.4-21.9 10-9.6C472.3 276.5 474 274 474 268c0-8.3-5.8-14.3-14-14.4-2.6-.1-5.9.6-7.4 1.4-2.2 1.1-3.1 1.2-4.4.2-6.1-4.4-8-5.2-12.7-5.2-3.6 0-5.9.6-8.2 2.2m319.7.1c-15.6 6.1-25.1 15.4-31.1 30.2-2 5.1-2.4 7.7-2.4 17 0 11.8 1.1 16.6 5.5 24.8 6.4 11.7 17.2 20.6 30.5 24.9 5.3 1.7 23 1.7 27.5-.1 12.7-4.8 22.1-12.7 23.4-19.4 1.1-5.7-.3-10.5-3.9-14.2-6-5.9-14.6-5.7-21.5.5-11.6 10.5-30 2.7-31.7-13.4-1.8-17.1 14.3-27.7 30.9-20.2 8.1 3.6 8.7 3.7 12.8 2.5 4.2-1.3 8.1-4.3 9.8-7.6 1.8-3.2 1.5-11.1-.5-14.5-2.3-3.7-9.4-8.1-17.4-10.8-8.8-2.8-24.2-2.7-31.9.3m61.1 1.6c-6.9 6.9-6.7 8.7 4.9 41.1 2.3 6.3 5 14 6 17 3 9 7.1 20.4 8 22.5 2.2 5.1 2 6.8-2.4 19.9-5.4 15.6-5.8 20.4-2 25.3 7.1 9.3 20.1 8.2 25.3-2.2 1.1-2.2 3.6-8.7 5.5-14.5 7-21 12.7-37.5 13.6-39.5.5-1.1 2.5-6.7 4.4-12.5 2-5.8 6-17.7 9-26.5 7.4-21.3 7.2-27.7-.7-32.5-3.6-2.3-11.6-2.7-15-.8-5.2 2.7-6.4 5.1-13.9 27.5-2.9 8.4-5.5 15.3-5.8 15.3-.4 0-1.4-2.1-2.3-4.8-2.9-8.7-9.4-26.7-11-30.3-2.4-5.8-7.3-8.9-14-8.9-5.3 0-6 .3-9.6 3.9m-303.6 202c-6 3.6-6.9 6.2-7.5 21.1l-.5 13.5-13.6.5c-12 .5-13.9.8-16.7 2.9-6.7 4.7-8.4 14.5-3.6 20.9 3.9 5 7.7 6.2 20.3 6.2 6 0 11.6.3 12.5.6 1.3.5 1.6 2.5 1.6 11.8 0 13.9 1 17.6 5.8 21.6 3.1 2.5 4.5 3 9.2 3s6.1-.5 9.2-3c4.8-4 5.8-7.7 5.8-21.6 0-9.3.3-11.3 1.6-11.8.9-.3 6.5-.6 12.5-.6 7.1 0 12.1-.5 14.3-1.4 10.4-4.3 11.7-19.1 2.4-25.7-2.8-2.1-4.7-2.4-16.7-2.9l-13.6-.5-.5-13.5c-.4-12.1-.7-13.8-2.8-16.8-1.3-1.8-3.6-3.9-5.2-4.7-4-2.1-10.9-1.9-14.5.4"/></svg>