<svg xmlns="http://www.w3.org/2000/svg" width="1365.333" height="1365.333" viewBox="0 0 1024 1024"><path d="M542.5 1.6c-2.7.7-6.8 1.7-8.9 2.3-5.3 1.3-18.2 7.7-23.1 11.4-5.8 4.4-98.7 97.1-104.9 104.7-13.5 16.4-20.1 41.4-16.3 61 2.4 11.9 3.3 14.8 7.3 22.9 7.5 15.1 20.4 28 35.5 35.5 8.8 4.3 11.8 5.2 25.2 7.4 8.8 1.4 10.6 1.4 19.5 0 5.3-.9 11.5-2.1 13.6-2.6 7-1.9 18.9-8.4 26.1-14.3 8-6.5 99.6-98.3 104.2-104.4 4.3-5.7 10.8-19.8 12.9-28 2.4-9.5 2.4-27.5 0-37-4.2-16.3-14.5-32.4-27.4-42.7-6.9-5.5-19.3-12.3-25.3-13.8-1.9-.5-6.1-1.6-9.4-2.4-7.3-1.9-22.1-1.9-29 0m23.6 39.5c11.3 3.7 20.5 10.8 25 19.2 6.6 12.7 6.5 24.8-.2 37.7-2.8 5.3-34.4 38-36.8 38-2.1 0-54.1-52-54.1-54.1 0-2.4 32.7-34 38-36.8 9.3-4.9 20.5-6.5 28.1-4m-42.1 125c0 2.3-32.7 34-38 36.8-12.3 6.5-23.8 6.6-37 .4-15.3-7.2-24.6-28.1-19.6-44.3 2.8-9.2 6.1-13.6 23.3-31l17.3-17.5 27 27c14.8 14.8 27 27.7 27 28.6M48 109.5c-12.6 2.9-21 7.5-30 16.5-8.9 9-13.5 17.3-16.9 31-1.7 6.6-1 234.5.7 241.5 6 25 19.6 46.1 38.3 59.3l3.9 2.7v523.3l-14.8.4c-14.3.3-15 .4-19.1 3.1-9.1 6-12.5 16.4-8 24.4 3 5.4 3.8 6.3 8.8 9.5l4.5 2.8h993.2l4.5-2.8c5-3.2 5.8-4.1 8.8-9.5 4.5-8 1.1-18.4-8-24.4-4.1-2.7-4.8-2.8-19.1-3.1l-14.8-.4V460.5l3.9-2.7c18.7-13.2 32.3-34.3 38.3-59.3 1.7-7 2.4-234.9.7-241.5-3.4-13.7-8-22-16.9-31-9.3-9.3-18.8-14.3-31.8-16.9-6.9-1.4-177.3-1.5-182.1-.1-4.8 1.3-9.3 4.7-12 8.8-3.4 5.2-3.4 15.5 0 20.3 2.7 3.9 4.2 5.2 8.4 7.7 2.8 1.6 10 1.7 92.1 2.2l89 .5 4.2 2.8c2.3 1.5 5.4 4.6 6.9 6.9l2.8 4.2.3 62.8.3 62.8H39.9l.3-62.8.3-62.8 2.8-4.2c1.5-2.3 4.6-5.4 6.9-6.9l4.2-2.8 130-.5 130.1-.5 4.2-2.4c2.4-1.4 5.5-4.3 7-6.5 2.2-3.4 2.7-5.2 2.7-10.6 0-5.5-.5-7.2-2.9-10.8-1.6-2.4-4.7-5.3-6.9-6.5l-4.1-2.2-130.5-.2c-102.7-.1-131.7.2-136 1.2m116 246.7c-.1 32.3-1 39-6.9 49.8-7.4 13.7-18.5 22.8-34 27.9-9.3 3.1-32.9 3.1-42.2 0-15.5-5.1-26.6-14.2-34-27.9-5.9-10.8-6.8-17.5-6.9-49.8V328h124zm164 0c-.1 32.3-1 39-6.9 49.8-7.4 13.7-18.5 22.8-34 27.9-9.3 3.1-32.9 3.1-42.2 0-15.5-5.1-26.6-14.2-34-27.9-5.9-10.8-6.8-17.5-6.9-49.8V328h124zm164 0c-.1 32.3-1 39-6.9 49.8-7.4 13.7-18.5 22.8-34 27.9-9.3 3.1-32.9 3.1-42.2 0-15.5-5.1-26.6-14.2-34-27.9-5.9-10.8-6.8-17.5-6.9-49.8V328h124zm164 0c-.1 32.3-1 39-6.9 49.8-7.4 13.7-18.5 22.8-34 27.9-9.3 3.1-32.9 3.1-42.2 0-15.5-5.1-26.6-14.2-34-27.9-5.9-10.8-6.8-17.5-6.9-49.8V328h124zm164 0c-.1 32.3-1 39-6.9 49.8-7.4 13.7-18.5 22.8-34 27.9-9.3 3.1-32.9 3.1-42.2 0-15.5-5.1-26.6-14.2-34-27.9-5.9-10.8-6.8-17.5-6.9-49.8V328h124zm164 0c-.1 32.3-1 39-6.9 49.8-7.4 13.7-18.5 22.8-34 27.9-9.3 3.1-32.9 3.1-42.2 0-15.5-5.1-26.6-14.2-34-27.9-5.9-10.8-6.8-17.5-6.9-49.8V328h124zm-792.3 90.7c8.7 8.7 15.8 13.9 25.8 18.9 16.1 8.1 26.2 10.2 48.5 10.2s32.4-2.1 48.5-10.2c10-5 17.1-10.2 25.8-18.9 3.8-3.8 7.2-6.9 7.7-6.9s3.9 3.1 7.7 6.9c8.7 8.7 15.8 13.9 25.8 18.9 16.1 8.1 26.2 10.2 48.5 10.2s32.4-2.1 48.5-10.2c10-5 17.1-10.2 25.8-18.9 3.8-3.8 7.2-6.9 7.7-6.9s3.9 3.1 7.7 6.9c8.7 8.7 15.8 13.9 25.8 18.9 16.1 8.1 26.2 10.2 48.5 10.2s32.4-2.1 48.5-10.2c10-5 17.1-10.2 25.8-18.9 3.8-3.8 7.2-6.9 7.7-6.9s3.9 3.1 7.7 6.9c8.7 8.7 15.8 13.9 25.8 18.9 16.1 8.1 26.2 10.2 48.5 10.2s32.4-2.1 48.5-10.2c10-5 17.1-10.2 25.8-18.9 3.8-3.8 7.2-6.9 7.7-6.9s3.9 3.1 7.7 6.9c8.7 8.7 15.8 13.9 25.8 18.9 16.3 8.2 26.1 10.2 49.3 10.2H940v76l-170.8.2-170.8.3-4.2 2.8c-2.3 1.5-5.4 4.6-6.9 6.9l-2.8 4.2v299.2l2.8 4.2c1.5 2.3 4.6 5.4 6.9 6.9l4.2 2.8 170.8.3 170.8.2v104H504l-.2-208.8-.3-208.8-2.8-4.2c-1.5-2.3-4.6-5.4-6.9-6.9l-4.2-2.8H166.4l-4.2 2.8c-2.3 1.5-5.4 4.6-6.9 6.9l-2.8 4.2-.3 208.8L152 984H84V476h17.3c23.1 0 32.9-2 49.2-10.2 10.3-5.1 17.9-10.7 25.7-18.9 3.5-3.7 6.8-6.7 7.5-6.8.6-.1 4.2 3 8 6.8M464 788v196H192V592h272zm476-72v124H624V592h316zm-678.6-68c-4.8 1.5-10.8 7.9-12.3 13.1-.9 3.3-1.1 25.3-.9 90.9.3 84.7.3 86.6 2.3 90.4 1.2 2.1 4 5.2 6.3 6.9 3.8 2.8 5.1 3.1 11.2 3.1s7.4-.3 11.2-3.1c2.3-1.7 5.1-4.8 6.3-6.9 2-3.8 2-5.4 2-92.4s0-88.6-2-92.4c-3.1-5.7-9-9.6-15.6-10.1-3-.2-6.8 0-8.5.5m132.8 121.1c-4.9 1.5-11.8 8.9-13.3 14.1-2.8 10.4 5.1 22.2 16.2 24.3 11.9 2.2 24.4-10.5 22.4-22.6-.8-4.8-5.2-10.9-9.8-13.8-4.1-2.5-10.9-3.4-15.5-2M256.9 893.4c-11.4 8.4-11.4 24 0 31.9 4 2.7 5.4 3.1 11.1 3.1s7.1-.4 11.1-3.1c11.4-7.9 11.4-23.5 0-31.9-4.1-3-5.3-3.4-11.1-3.4s-7 .4-11.1 3.4m519.4-269.5c-4.7 1.2-8 3.6-11.1 8.3l-2.7 4.1-.5 29.6-.5 29.6-29.7.5-29.6.5-4.3 3c-6.3 4.4-8.4 8.6-8.3 16.5 0 8.3 3.3 13.8 10.3 17.2 4.4 2.2 5.7 2.3 33.3 2.6l28.7.3.3 29.2c.3 33.3.6 34.4 8.5 39.9 3.8 2.6 5.5 3.1 10.7 3.1 7.2.1 11.3-1.8 15.3-6.7 4.7-6 5.3-9.8 5.3-38.9V736h26.6c29 0 33.2-.6 38.8-5.2 5.1-4.2 6.9-8.1 6.9-15.4 0-6.6-1.8-10.4-7.1-15-4.4-3.9-8.7-4.4-37.6-4.4H802l-.1-27.8c-.1-28.3-.3-30.2-4.2-36.7-3.8-6.2-13.4-9.6-21.4-7.6"/></svg>