<svg xmlns="http://www.w3.org/2000/svg" width="1365.333" height="1365.333" viewBox="0 0 1024 1024"><path d="M506 46.9c-1.4.5-5 1.4-8 2-3 .7-7.5 1.7-10 2.2-6.2 1.4-12.8 2.9-17.5 3.9-4.4.9-10.4 2.3-17.7 3.9-2.7.6-6.9 1.6-9.5 2.2-7.8 1.7-12.5 2.7-18.3 3.9-6.4 1.4-12.6 2.7-19 4.1-2.5.6-6.4 1.5-8.7 2-2.4.5-6.3 1.3-8.8 1.9-2.5.5-6.4 1.4-8.7 1.9-2.4.5-6.3 1.4-8.8 2-2.5.5-6.5 1.4-9 2-2.5.5-6.7 1.5-9.5 2.1-2.7.6-6.8 1.5-9 2-4.7 1-11.3 2.5-17.5 3.9-2.5.5-7 1.5-10 2.1-8.3 1.8-19.2 4.1-27.7 6.1-2.7.6-6.7 1.5-9 2-2.4.5-6.2 1.3-8.5 1.9-2.4.5-6.8 1.4-9.8 2.1-10.3 2.2-14.5 4.4-17.3 9.4-.9 1.4-1.4 15.6-1.7 47.2l-.5 45.3-41 .2c-45.7.3-43.9.1-49.5 7.2-1.3 1.6-1.6 9-2 47.5l-.5 45.6-68.5.5c-49.3.4-69.2.8-71.1 1.7-1.5.6-4 2.9-5.8 5L0 314.5v54.7c0 70.8-2.7 65 30.5 65.8l21 .5v454l-21.2.5c-19.4.5-21.4.7-23.9 2.6-6.2 4.6-6.2 4.7-6.3 41.2-.1 32.8-.1 33.3 2.2 36.7 1.2 1.9 3.8 4.3 5.8 5.5l3.7 2h1000.4l3.7-2c2-1.2 4.6-3.6 5.9-5.5 2.2-3.4 2.2-3.9 2.1-36.7-.1-36.5-.1-36.6-6.3-41.2-2.5-1.9-4.5-2.1-23.9-2.6l-21.2-.5v-454l21-.5c23.3-.6 24.4-.9 28.4-7.6 2-3.4 2.1-4.9 2.1-58V315l-2.2-3.5c-4.8-7.3-1.4-6.9-77.8-7.5l-68.5-.5-.5-45.6c-.4-38.5-.7-45.9-2-47.5-5.6-7.1-3.8-6.9-49.5-7.2l-41-.2-.5-45.3c-.3-31.6-.8-45.8-1.7-47.2-2.8-5-7-7.2-17.3-9.4-3-.7-7.4-1.6-9.7-2.1-2.4-.6-6.2-1.4-8.5-1.9-2.4-.5-6.5-1.5-9.3-2.1-2.7-.6-6.9-1.6-9.2-2.1-2.4-.5-6.2-1.3-8.5-1.9-2.4-.5-6.8-1.4-9.8-2-3-.7-7.3-1.6-9.5-2-2.2-.5-6.5-1.4-9.5-2.1-3-.6-6.8-1.5-8.4-2s-5.2-.9-7.9-.9c-13.7 0-19.7 16.2-9.5 25.7 2.2 2.1 8.2 3.9 24.3 7.3 2.8.6 7 1.6 9.5 2.1 5.2 1.2 11.8 2.7 17.8 4 2.3.5 6.1 1.3 8.5 1.8 2.3.5 6.2 1.4 8.7 2 2.5.5 7 1.5 10 2.2 3 .6 6.5 1.5 7.8 2l2.2.9-.2 36.5-.3 36.6h-73l-3-2.8c-1.6-1.6-5.9-6-9.5-9.8-3.6-3.9-13.3-14.2-21.5-23-8.3-8.8-17.5-18.6-20.5-21.9-7.8-8.3-10.3-9.8-16-9.8-3.6 0-7 1-13.7 4.2-9.9 4.8-11.2 5.3-16.8 6.9-19.3 5.2-35.4 2.1-49.9-9.7-10.1-8.3-11.7-9.2-15.6-9.2s-5.5.9-15.6 9.2c-12.4 10.1-25 13.6-40.6 11.2-11.9-1.8-14.7-2.6-25.5-7.9-15-7.4-19.3-6.7-29.8 4.7-4.3 4.7-19.6 21-41.5 44.3-4.1 4.4-8.8 9.2-10.5 10.8l-3 2.8h-73l-.3-36.6-.2-36.5 2.2-.9c1.3-.5 5-1.5 8.3-2.1 3.3-.7 7.4-1.6 9-2 1.7-.4 5.7-1.3 9-2 8.3-1.6 12.6-2.6 23-5 13.6-3.2 14.5-3.4 32-7 4-.9 9-2 17.8-3.9 2.6-.6 6.8-1.6 9.5-2.2 2.6-.6 6.6-1.5 9-2 2.3-.5 6.1-1.3 8.5-1.8 2.3-.5 6.3-1.4 9-2 2.6-.6 6.7-1.6 9.2-2.1 2.5-.6 6.5-1.5 9-2 2.5-.6 6.4-1.4 8.8-2 2.3-.5 6.7-1.4 9.7-2.1 3-.6 9.3-2 14-3.1 4.7-1 10.4-2.3 12.8-2.9 2.3-.5 6.1-1.3 8.5-1.9 2.3-.5 7.8-1.7 12.2-2.6s10-2.1 12.5-2.6c5.6-1.3 6.4-1.3 12 0 2.5.5 9.2 2 15 3.2s12.1 2.6 14 3 6 1.3 9 2 7.1 1.6 9 2 6 1.3 9 2 7.1 1.6 9 2c25.3 5.8 28.1 5.8 33.6.4 5.8-5.9 5.8-14.9 0-20.7-3.2-3.2-5.5-4.1-17.1-6.7-2.5-.6-6.5-1.5-9-2-2.5-.6-6.5-1.5-9-2-2.5-.6-6.5-1.5-9-2-2.5-.6-6.6-1.5-9.2-2.1-2.7-.6-6.8-1.5-9.3-2-2.5-.6-6.5-1.5-9-2-9.5-2.1-12.7-2.8-18-3.9-3-.7-7.1-1.6-9.1-2.1-4.3-1.1-8.4-1-11.9 0m9.8 119c8.7 6.1 22.6 11.2 36 13.2 13.6 1.9 34.6-1.7 47.4-8.2 1-.5 2.8-.9 4.1-.9 2.3 0 5.3 2.9 36.2 36 3.8 4.1 7.3 7.6 7.8 7.8 1.3.7.7 2.3-3.1 8-19.7 29.4-21.3 63-4.3 92.6 1.2 2.1 4.4 7.1 7.1 11.2 8.3 12.1 10.9 17.1 14.2 26.7 2.9 8.7 3.1 10.1 3.2 24.7.1 15.7-.3 18.4-4.6 31.5-3.2 9.7-11.4 25.3-18.6 35.5-8.3 11.8-29.6 33.3-42.2 42.7-21.2 15.8-45.7 29.1-76.2 41.2l-10.8 4.3-13.2-5.3c-23.2-9.2-50.9-24-69.2-36.9-34.7-24.5-59.2-57.4-68.7-92.5-.9-3.3-1.4-10.2-1.3-20.5.1-14.6.3-16 3.2-24.7 3.3-9.6 5.9-14.6 14.2-26.7 11.4-17.1 15.1-25.4 17.6-40.6 1.7-10.8 1.7-16.5 0-26.5-2.4-13.7-7.2-25.6-14.6-36.5-4-5.9-4.7-7.5-3.2-8.2.4-.2 7.2-7.3 15.2-15.8s17.2-18.3 20.4-21.7c6-6.3 8.4-7.4 12.4-5.4 12.8 6.5 33.8 10.1 47.4 8.2 13.5-2 27.9-7.3 35.8-13.2 3.2-2.3 4.6-2.3 7.8 0M353 236c3.1 3.3 7.9 12.4 9.8 18.5 4.3 13.7 2.7 29.5-4.5 44.2l-2.5 5.3H179v-34.9c0-27 .3-35 1.3-35.4.6-.3 39.2-.6 85.5-.6l84.4-.1zm490.4-2.4c1.4.5 1.6 4.6 1.6 35.5V304H668.2l-2.5-5.3c-5.3-10.8-6.1-14.5-6.2-27.7 0-8.1.5-13.7 1.3-16 3-7.6 7.5-16.1 10.2-19l2.8-3h84c46.2 0 84.7.3 85.6.6M336.5 334.9c.3.5-.1 2.7-.9 4.8-1.3 3.6-2.1 6.6-4.4 15.8-2.5 9.8-2.3 34.9.4 46.7l.6 2.8h-43.8c-24.2 0-45.6.3-47.8.7-7.7 1.2-13.9 11.2-11.5 18.4.7 1.9 2.1 4.5 3.3 5.8 4.5 5.1 4.9 5.1 59 5.1h50.5l1.8 2.7c1 1.6 2.5 4.1 3.3 5.8 2.4 5 13 20.6 19.1 28 7.1 8.8 18.4 20.3 26.9 27.5 3.6 3 6.7 5.7 7 6s3.4 2.7 7 5.3c3.6 2.7 7.3 5.5 8.4 6.3 7.3 6.1 50.8 29.7 63.1 34.4 1.1.4 3.4 1.3 5 2 1.7.7 4.1 1.7 5.5 2.3 1.4.5 3.4 1.3 4.5 1.8 1.1.4 5.6 2 9.9 3.4 9.4 3.1 11.3 2.8 27.4-3.6 1.2-.5 3.3-1.4 4.7-1.9 1.4-.6 3.5-1.4 4.8-1.9 1.2-.5 4.2-1.8 6.7-2.8 5.6-2.3 34.1-16.5 39.5-19.7 31.3-18.6 53.3-36.8 71.4-59.1 6.1-7.4 16.7-23 19.1-28 .8-1.7 2.3-4.2 3.3-5.8l1.8-2.7 129.7.2 129.7.3.3 227.2.2 227.3H791l-3.5 2.3c-3.6 2.3-6.1 6.4-7.1 11.4-.8 4.6 3.3 11.4 8.6 14l4.4 2.3H994v28H30v-28h699.4l4.4-2.1c5.7-2.8 8.2-6.9 8.2-13.7 0-4.9-.3-5.6-4.5-9.7l-4.4-4.5H586v-86.1c0-61.6-.3-87.3-1.1-90-.7-2.1-2.7-5.3-4.6-7.1l-3.4-3.3H447.1l-3.4 3.3c-1.9 1.8-3.9 5-4.6 7.1-.8 2.7-1.1 28.4-1.1 90V890H82l.2-227.3.3-227.2 49.5-.5c39.3-.4 49.9-.8 51.5-1.9 4.1-2.7 6.5-7.7 6.5-13.6 0-5-.3-5.8-3.8-9.3-2.7-2.7-5.1-4.1-7.8-4.5-2.1-.4-36.4-.7-76.1-.7H30v-34.8c0-19.2.3-35.2.7-35.5 1-1.1 305.1-.8 305.8.2m657.3 34.8.2 35.3H691.8l.6-2.8c4.2-18.3 2.2-47.2-4.3-63.5-.6-1.6-.9-3.3-.5-3.8.3-.5 61.1-.8 153.2-.7l152.7.3zM554.7 733.4c1.1.4 1.3 15.7 1.1 78.3l-.3 77.8h-87l-.3-77.5c-.2-64.4 0-77.7 1.1-78.5 1.4-1 82.8-1.1 85.4-.1m-47.2-487.3c-3.9 1.1-7.4 4.9-11.5 12.4-1.8 3.3-4.5 8.2-6 11-2.9 5.2-9.8 18.2-13.2 24.7-2.1 4.1-3.6 4.7-15.8 6.8-3.6.6-8.3 1.5-10.5 2-2.2.4-7.1 1.3-11 2-18.9 3.1-22.1 4.2-25.4 8.9-2.4 3.3-2.9 11.7-1 15.4 1.1 2.1 4.9 6.3 27.6 29.9l10.3 10.6-.6 4.9c-.3 2.6-.9 7.5-1.4 10.8s-1.4 10-2 15c-.6 4.9-1.5 11.4-2.1 14.4-.5 3-.9 6.7-.9 8.3 0 4.2 3.6 10.6 7.3 12.8 5.9 3.7 9.9 2.8 28.9-6.3 27.7-13.4 30.5-14.7 31.8-14.7s4.1 1.3 31.8 14.7c18.3 8.8 22.1 9.7 27.9 6.8 7.1-3.5 9.1-9.2 7.5-20.7-.7-4.6-1.7-11.6-2.2-15.6-1.9-14-2.9-21.7-3.5-26l-.5-4.3 10.3-10.7c5.7-5.9 14.5-15.1 19.5-20.5l9.2-9.7v-6.1c0-9.8-3.7-13.5-15.5-15.7-3.3-.7-10.5-2-16-3.1-5.5-1-13.4-2.4-17.5-3.1-11.9-1.9-13.6-2.7-15.8-6.8-3.8-7.2-10.5-19.8-13.2-24.7-1.5-2.8-4.4-8.1-6.4-11.9-4.2-8-6.4-10.2-11.5-11.6-4.1-1.1-4.5-1.1-8.6.1m6.8 49.6c1.5 4.5 12.8 24.1 15.5 26.9 3.1 3.1 4.8 3.6 20.2 6.4 13.1 2.3 16.1 3.2 15.8 4.5-.2.8-4.9 6-10.4 11.7-5.6 5.7-10.9 11.9-11.9 13.8-1.8 3.5-1.8 5 .5 20.5 1.8 12.3 2.3 17.5 1.6 17.5-.3 0-6.8-3-14.4-6.7-18.6-9.1-19.9-9.1-38.5.1-7.6 3.7-14.1 6.5-14.4 6.2-.6-.6.8-12.1 2.8-23.5 2.1-12.1 1.2-14-13-28.4-5.3-5.4-9.7-10.4-9.9-11.1-.3-1.4 2.6-2.2 15.8-4.6 15.4-2.8 17.1-3.3 20.2-6.4 2.7-2.8 14-22.4 15.5-26.9.3-.9 1.3-1.7 2.3-1.7s2 .8 2.3 1.7m-383.8 246c-1.1.3-3.2 1.4-4.8 2.5-5.8 4.1-5.7 3.1-5.7 58.6 0 56.2-.1 54.8 6.3 59.4l3.2 2.3h104l3.1-2.2c6.5-4.6 6.4-3.8 6.4-59.3s.1-54.7-6.4-59.3l-3.1-2.2-50.5-.2c-27.8 0-51.4.1-52.5.4m82 30.3c.9 1.5.7 61.2-.3 62.2-.4.4-14.5.7-31.3.6l-30.4-.3-.3-30.5c-.1-16.8 0-31 .3-31.7.6-1.6 61-1.9 62-.3m78.6-29.7c-1.9.7-4.8 2.9-6.5 5l-3.1 3.9v103.3l2.2 3.1c5.2 7.3 2 6.9 59.5 6.9 50.6 0 51.7 0 54.4-2.1 1.5-1.1 3.7-3.3 4.8-4.8 2-2.7 2.1-4 2.4-52.2.2-32.9-.1-50.8-.8-53.4-1.3-5-4.9-8.6-9.7-9.9-5.6-1.6-98.7-1.4-103.2.2m82.3 29.3c1.4.5 1.6 4.2 1.6 31.4s-.2 30.9-1.6 31.4c-.9.3-14.7.6-30.8.6-21.4 0-29.5-.3-30.4-1.2-1.7-1.7-1.7-59.9 0-61.6.9-.9 9-1.2 30.4-1.2 16.1 0 29.9.3 30.8.6m255.3-29.2c-4.6 1.7-7.4 4.7-8.8 9.5-.7 2.4-.9 20.6-.7 53.3.3 48.3.4 49.7 2.4 52.4 1.1 1.5 3.3 3.7 4.8 4.8 2.7 2.1 3.8 2.1 54.4 2.1h51.7l3.1-2.2c7.3-5.2 6.9-2 6.9-59.5v-51.6l-3.1-3.9c-1.7-2.1-4.6-4.3-6.5-5-5.2-1.8-99-1.7-104.2.1m83.1 29.8c1.7 1.7 1.7 59.9 0 61.6-.9.9-9 1.2-30.4 1.2-16.1 0-29.9-.3-30.8-.6-1.4-.5-1.6-4.3-1.6-31.4 0-23.7.3-30.9 1.3-31.3.6-.3 14.5-.6 30.8-.6 21.7-.1 29.8.2 30.7 1.1m79.7-30.5c-3.5.9-7.2 4.1-8.9 7.7-1.4 3-1.6 9.4-1.6 53.6 0 55.5-.1 54.7 6.4 59.3l3.1 2.2h104l3.3-2.3c6.4-4.6 6.2-2.9 6.2-59.2s.2-54.6-6.2-59.2l-3.3-2.3-50.5-.2c-27.8 0-51.4.1-52.5.4m82 61.3v31.5l-30.4.3c-16.8.1-30.9-.2-31.3-.6-1-1-1.2-60.7-.3-62.2.4-.7 11.8-.9 31.3-.8l30.7.3zm-744 100.7c-1.1.3-3.1 1.5-4.3 2.6-5.3 4.9-5.2 3.8-5.2 59.2v51.6l4.5 4.4 4.4 4.5H233l3.5-2.3c6.7-4.3 6.6-2.9 6.3-60.7l-.3-52-3.8-3.7-3.7-3.8-51.8-.2c-28.4 0-52.6.1-53.7.4m83.2 29.6c.2.3.4 14.3.4 31.3v30.9l-31.6.3-31.5.2v-31.3c0-17.3.2-31.6.4-31.8.6-.5 61.7-.1 62.3.4m76.9-28.8c-3.6 1.9-6.4 5.1-7.4 8.4-.4 1.4-.7 25.3-.7 53.1v50.5l2.3 3.3c4.6 6.4 2.9 6.2 59.2 6.2s54.6.2 59.2-6.2l2.3-3.3v-104l-2.2-3.1c-4.6-6.5-3.8-6.4-59.5-6.4-42.9 0-50.7.2-53.2 1.5m84.4 29c.6.4 1 12.5 1 31.6V796l-31.7-.2-31.8-.3-.3-29.8c-.1-16.7.2-30.5.7-31.5.8-1.6 3.5-1.7 31-1.5 16.6.1 30.6.5 31.1.8m253.2-28.8c-1.8.9-4.3 3-5.5 4.7l-2.2 3.1v104l2.3 3.3c4.6 6.4 2.9 6.2 59.2 6.2s54.6.2 59.2-6.2l2.3-3.3V766c0-27.8-.3-51.7-.8-53.2-.9-3.3-5-7.6-8.4-8.9-1.4-.5-24-.9-52.6-.9-44.2 0-50.6.2-53.5 1.7m85 29.7c.5.8.7 14.9.6 31.3l-.3 29.8h-63l-.3-30.4c-.1-17.7.2-30.8.7-31.5.7-.8 9.8-1 31.2-.9 25.6.2 30.4.4 31.1 1.7m78.2-30.7c-1.2.2-3.6 2-5.5 3.9l-3.4 3.5v107.1l4.4 3.9 4.4 3.9h104.8l4.4-4.5 4.5-4.4v-51.6c0-55.8.1-54.2-5.5-59.5l-2.7-2.5-51.6-.1c-28.4-.1-52.6 0-53.8.3m83.4 60.8.2 31.5-31.5-.2-31.6-.3v-30.9c0-18.4.4-31.2 1-31.5.5-.3 14.6-.5 31.3-.4l30.3.2z"/></svg>