<svg xmlns="http://www.w3.org/2000/svg" width="1365.333" height="1365.333" viewBox="0 0 1024 1024"><path d="M45 1c-.8.5-2.4 1-3.5 1-3.5.1-11 6.5-13.3 11.4-2.1 4.4-2.2 5.7-2.2 42.8s.1 38.4 2.1 41.8c3.2 5.4 6 8 11.2 10.6L44 111v308.6c0 339-.5 311.8 6 316.4 2.2 1.6 4.5 2.1 8.5 2.1 6.6 0 10.3-2.2 13.1-7.8 1.8-3.7 1.9-13 2.2-311.6L74 111h413v818h-81V820.5c0-74.9-.3-110-1.1-113.7-1.2-5.8-4.6-12.3-7.8-15-1.1-1-3.8-2.6-6-3.8-4-2-5.4-2-110.4-2-116.8 0-109.8-.4-117.1 6-1.8 1.7-4.3 5-5.5 7.5-2.1 4.5-2.1 4.7-2.1 115.4 0 61-.3 111.6-.6 112.5-.5 1.4-5.1 1.6-41 1.6H74v-67.6c0-47.8-.3-68.8-1.1-71.5-.7-2.1-2.7-5.3-4.6-7.1-3.2-3.1-3.9-3.3-10-3.3-6.5 0-6.6 0-10.4 4.4l-3.9 4.3-.2 70.2-.3 70.1-13.5.6c-11.4.6-14.1 1-17.5 2.9-4.7 2.7-7.9 6.1-10.6 11.4-1.7 3.7-1.9 6.3-1.9 32.7 0 31.4.2 32.6 6.1 39.4 3.1 3.5 6.2 5.3 12.8 7.4 4.8 1.6 981.4 1.6 986.2 0 6.6-2.1 9.7-3.9 12.8-7.4 5.9-6.8 6.1-8 6.1-39.4 0-26.4-.2-29-1.9-32.7-2.7-5.3-5.9-8.7-10.6-11.4-3.5-2-5.9-2.3-18.3-2.8l-14.2-.5.2-143.1.3-143.1 6-.5c6.7-.6 9.5-1.8 14.3-6.4 6.8-6.3 6.7-5.9 6.7-48.6 0-41.1.2-39.6-5-46.1-5.3-6.6-12.4-8.9-27.8-8.9-12.4 0-16.2 1-20.3 5.6-5.8 6.4-5.5 14.3.8 20.6 3.8 3.8 3.9 3.8 11.7 3.8 4.4 0 8.6.3 9.5.6 1.4.5 1.6 3.7 1.6 25V612l-229.7-.2-229.8-.3-.3-22.8c-.1-14.6.1-23.5.8-24.7 1.1-2 3.1-2 190.6-2 165.6 0 189.9-.2 192.4-1.5 7.8-4.1 10.1-15.1 4.4-22.1-4-5-7.9-6.2-19.5-6.3-10.8-.1-9.9.5-12.8-9.1-.6-1.9-1.9-6.2-3-9.5-1-3.3-3.3-10.7-5.1-16.5-1.7-5.8-4-13-5-16s-3.2-10.2-5-16c-1.7-5.8-4-13-5-16s-3.2-10.2-5-16c-1.7-5.8-4-13-5-16s-3.2-10.2-5-16c-1.7-5.8-4-13-5-16s-3.2-10.2-5-16c-1.7-5.8-4-13-5-16-.9-3-2.8-8.9-4-13-1.3-4.1-3.5-11.3-5-16s-3.7-11.9-5-16c-1.2-4.1-3.1-10-4-13-1-3-3.3-10.2-5-16-1.8-5.8-4-13-5-16s-3.3-10.2-5-16c-1.8-5.8-4-13-5-16s-3.3-10.2-5-16c-1.8-5.8-4-13-5-16-1.8-5.5-4.8-15.3-10.9-35-1.8-5.8-4.1-13-5.1-16-1.1-3-2.2-7.1-2.5-9.1-.6-3.3-.4-3.7 3.7-6.4 15.2-10 23.6-29.6 19.7-46.3-5.6-24.6-30.8-40.9-53.8-34.7-18.1 4.8-30.4 17.8-34.1 36.3-1.6 8-.1 17.9 4.2 26.9 3.1 6.6 12.1 16.4 16.9 18.5 1.6.7 3.1 1.8 3.3 2.4s-.8 4.9-2.3 9.5c-1.6 4.6-3.8 11.8-5.1 15.9-1.2 4.1-3.1 10-4 13-1 3-3.3 10.2-5 16-1.8 5.8-4 13-5 16s-3.3 10.2-5.1 16c-6.1 19.7-9.1 29.5-10.9 35-1 3-3.2 10.2-5 16-1.7 5.8-4 13-5 16s-3.2 10.2-5 16c-1.7 5.8-4 13-5 16-.9 3-2.8 8.9-4 13-1.3 4.1-3.5 11.3-5 16s-3.7 11.9-5 16c-1.2 4.1-3.1 10-4 13-1 3-3.3 10.2-5 16-1.8 5.8-4 13-5 16s-3.3 10.2-5 16c-1.8 5.8-4 13-5 16s-3.3 10.2-5 16c-1.8 5.8-4 13-5 16s-3.3 10.2-5 16c-1.8 5.8-4.1 13-5 16-1 3-3 9.3-4.4 14-1.5 4.7-3 9.1-3.4 9.8-.7.9-8.7 1.2-36.8 1l-35.9-.3-.3-208.5c-.1-114.7 0-209.4.2-210.5.3-1.2 2-2.8 3.8-3.7 7.8-3.7 11.7-8.7 13.7-17.8 1.5-6.3 1.4-64.5 0-71.2-2-9.2-6.6-14.4-16.1-17.9C513.6 0 508.7 0 280 0 131 0 46 .4 45 1m460.4 31.6c.3.9.6 11.6.6 23.9 0 17.5-.3 22.5-1.4 23.4-1 .8-60.4 1-224.7.9l-223.4-.3-.3-24.8L56 31h224.4c203.7 0 224.4.1 225 1.6m232.7 48.8c4.3 1.8 7.3 5.1 9 9.8 2.4 6.9-2.4 15.2-10.1 17.8-7.4 2.4-15.2-2-18.1-10.2-2.2-6.5 1.7-14.2 8.9-17.4 3.7-1.7 6.3-1.7 10.3 0m-3.1 99.8c.7 2.4 2.1 6.8 3 9.8 1 3 3.3 10.2 5 16 1.8 5.8 4 13 5 16s3.3 10.2 5 16c1.8 5.8 3.9 12.5 4.7 14.9.7 2.4 1.1 5.1.7 6-.3.9-3.1 3.8-6.2 6.5s-8.5 7.6-12 10.8c-3.5 3.3-6.7 5.8-7.2 5.6s-4.3-3.5-8.6-7.3c-4.2-3.9-9.9-9.1-12.7-11.6l-5.1-4.5 2.8-9c1.6-4.9 3.7-11.4 4.6-14.4 1-3 3.3-10.2 5-16 1.8-5.8 4.3-13.7 5.5-17.5 1.3-3.9 3.5-11.2 5.1-16.3 1.5-5 3.1-9.2 3.4-9.2.4 0 1.3 1.9 2 4.2m-31.1 116c3.3 2.9 6 5.8 6 6.4.1.6-4.3 5.1-9.6 10-5.4 4.9-10.4 9.5-11.1 10.1-3.4 3.3-3.3 1.6 1.1-11.7.8-2.5 2.5-8 3.8-12.2 1.3-4.3 2.7-7.8 3.2-7.8.4 0 3.4 2.4 6.6 5.2m69 5.5c1.8 6 3.7 11.9 4.1 13.3 2.5 7.5 2.8 9 2.2 9-.4 0-2.7-1.9-5.2-4.2-2.5-2.2-7.6-7-11.5-10.5l-7-6.5 6.5-5.9c3.6-3.2 6.7-5.9 7-5.9s2.1 4.8 3.9 10.7m-33.2 27.5c3.2 2.8 10.7 9.7 16.7 15.2 6 5.6 11.7 10.7 12.7 11.4 1.1.7 1.9 1.7 1.9 2.3 0 .5-14.9.9-38.2.9h-38.3l6-5.8c3.3-3.1 10.7-10 16.5-15.2 5.7-5.2 11.5-10.5 12.8-11.8 1.2-1.2 2.7-2.2 3.2-2.2.6 0 3.6 2.3 6.7 5.2m31.3 60.5c0 1.3-1.2 2.5-13 13.3-6.3 5.8-14.1 13-17.3 16s-6.3 5.7-6.8 5.8c-1.2.5-4.2-2.1-34.1-29.7-2.7-2.4-4.8-4.8-4.8-5.2 0-.5 17.1-.9 38-.9s38 .3 38 .7m-100.5 19.1c3.3 3.1 11.2 10.4 17.5 16.2s14 12.8 17 15.7l5.5 5.3-5.5 5.3c-3 2.9-10.2 9.5-16 14.7s-11.2 10.2-12 11-6.2 5.8-12 11-10.7 9.7-11 10c-.6.6-21.3 19.5-25.5 23.3-5 4.5-5.4 3.9-2.6-4.2 1-3.1 3.3-10.3 5.1-16.1 1.7-5.8 4-13 5-16s3.2-10.2 5-16c1.7-5.8 4-13 5-16 .9-3 2.8-8.9 4-13 1.3-4.1 3.5-11.3 5-16s3.3-10.5 4-13c1.8-6.1 2.8-8 4.3-8 .7 0 3.9 2.6 7.2 5.8m136.6 2.8c1.5 4.3 4.1 12.6 5.9 18.4 1.7 5.8 4 13 5 16s3.2 10.2 5 16c1.7 5.8 4 13 5 16s3.2 10.2 5 16c2.8 9.4 4.4 14.2 8.1 25.8 1.9 5.9.5 5.4-9.1-3.8-.3-.3-5.7-5.2-12-11s-14-12.8-17-15.6-8-7.3-11-10-6.2-5.6-7-6.4-6.2-5.8-12-11-12.1-11-14-12.8l-3.5-3.2 3.5-3.3c1.9-1.7 8.7-7.9 15-13.7 10.7-9.8 14.1-12.9 24.5-22.3 2.2-2 4.5-3.5 5-3.3.6.1 2.2 3.8 3.6 8.2m-66.6 61.2c5.3 5.1 19.4 18 34 31.2 11.2 10.2 17.3 15.8 23 21.2l6 5.8h-69.7c-38.4 0-69.8-.4-69.8-.8 0-.5 1.7-2.4 3.8-4.2 4.6-4.2 23.5-21.3 24.2-22 .3-.3 5.7-5.2 12-11s13.7-12.6 16.5-15.1c9.4-8.7 12-10.8 13-10.9.6 0 3.7 2.6 7 5.8m207.4 169.6c.8 1 1 39.2.9 143.2l-.3 141.9-214.9.3c-171.3.2-215.1 0-215.8-1-1.2-2-1-281.5.2-283.9 1.1-1.9 4.5-1.9 214.9-1.9 178.8 0 214 .2 215 1.4M265.8 820.5c.1 57.2 0 105-.3 106.2l-.5 2.3h-79V716l39.8.2 39.7.3zm110 0c.1 57.2 0 105-.3 106.2l-.5 2.3h-79V716l39.8.2 39.7.3zm618 155.7.2 16.8H30v-16.3c0-9 .3-16.7.7-17 .3-.4 217.1-.6 481.7-.5l481.1.3zM578.5 701.7c-6.9 1.6-14.2 7.5-17.3 14.1-1.6 3.4-1.7 9-1.7 70.2 0 66.1 0 66.5 2.1 70.5 2.8 5.1 6.8 9.1 11.9 11.9 4 2.1 4.6 2.1 60.5 2.1h56.5l4.6-2.7c5.4-3.2 9.3-7.5 11.4-12.5 2.2-5.3 2.2-133.3 0-138.6-1.9-4.7-6-9.3-10.9-12.5l-4.1-2.7-55.5-.2c-30.5 0-56.4.1-57.5.4m99.3 84-.3 54.8-43.4.3c-34.1.2-43.6 0-44.3-1-.9-1.5-1.1-104.8-.2-107.2.5-1.4 5.4-1.6 44.5-1.6H678zm87.7-84.1c-5.4 1.3-11.8 5.8-15.1 10.8-4.3 6.5-4.4 8.4-4.4 73.3 0 68.3 0 68.9 6.2 75.9 1.7 1.9 5.2 4.7 7.7 6.2l4.6 2.7H821c62.5 0 58.5.4 66.4-6.6 4.2-3.6 6.1-7.2 7.6-14.2 1.7-7.8.9-126.8-.9-132.1-1.4-4.4-7.8-11.7-12.5-14.3-2.8-1.7-7.5-1.8-58.6-2-30.5 0-56.4.1-57.5.3m100 84.4v54.5h-89l-.3-53.5c-.1-29.4 0-54.1.3-54.8.3-1 9.8-1.2 44.7-1l44.3.3zM621.5 7.2c-4.1 1.5-5.2 2.4-9.5 8.9-9 13.2-16.8 31.9-20.5 49.4-1.4 6.3-3.5 24.2-3.5 29.5s2.1 23.2 3.5 29.5c3.7 17.5 11.5 36.1 20.6 49.6 4.6 6.8 9.2 9.4 15.7 8.6 12.1-1.3 16.8-14.1 9.3-25-13.5-19.7-21-49.9-18.2-73.5 2.5-20.3 8.7-37.9 18.3-52 6.2-9.1 4.4-19.5-4.3-23.9-4.8-2.5-6.9-2.7-11.4-1.1m214.1.2c-2.4.7-5 2.5-7 4.9-2.6 3.2-3.1 4.8-3.1 9.1s.7 6.4 3.6 11.2c10.5 17.1 14.1 26.9 17.4 46.4 1.7 10.1 1.9 20.9.4 29.9-1.4 9-5 23.4-6 24.6-.5.5-.9 1.5-.9 2.2 0 2-3.9 9.9-9.4 19.3-4.6 7.6-5.1 9.1-5.1 14.2.1 5.1.4 6.1 3.4 9.2 1.9 1.9 5.1 3.9 7.6 4.6 8.9 2.5 15.7-3.4 24.9-21.6 8.9-17.7 12.4-29.1 15.6-51.1 4.2-28.9-4.9-67.2-22.2-93-6.3-9.5-11.5-12.2-19.2-9.9M662.3 35.6C657 36.8 647.7 51.5 643 66c-2.6 8-5 21.7-5 28.9 0 12.9 4.1 29.5 10.6 42.8 6.5 13.2 13 18.3 21.2 16.8 11.1-2.1 15.7-13.6 9.4-23.6-8.7-13.8-12.5-30.1-10.3-43.7 1.9-11.6 4.7-19.2 10.3-28.1 2.1-3.4 2.8-5.7 2.8-9.7 0-4.5-.4-5.6-3.7-9.3s-4.4-4.2-8.8-4.6c-2.7-.2-6-.1-7.2.1M792 36.8c-7.6 4.1-10.2 13.2-6 20.7 4.9 8.6 5.7 10.3 7.7 15.5 7.4 19.1 5 37.6-7.5 59.3-6.4 11 1.7 23.6 14.3 22.3 4.3-.4 5.5-1.1 9.1-5 5.1-5.6 12.2-19.6 14.5-28.6 4.9-19.1 4.9-32.8 0-52-2.4-9.7-8.9-22.5-14.6-28.7-3.5-3.8-4.7-4.5-9-4.9-3.8-.4-5.9-.1-8.5 1.4M224.2 179.5c-7.8 2.4-12.6 6.6-16.2 14.2-1.9 4.1-2 6.4-2 69.7 0 72.3-.3 69 6.6 76.5 1.9 2.2 5.5 4.9 7.9 6 4.4 2.1 5.7 2.1 59.9 2.1 60 0 58.8.1 65.5-5.6 1.7-1.4 4.4-4.7 5.9-7.3l2.7-4.6v-67c0-75.5.5-70.6-7.8-78.2-7.9-7.3-8.1-7.3-66.6-7.2-40.1 0-52.6.3-55.9 1.4m100.6 83.7.2 54.8h-89v-54.3c0-29.9.3-54.7.7-55 .3-.4 20.3-.6 44.2-.5l43.6.3zM226 440c-8.5 1.8-14 6.3-17.8 14.3-2.2 4.7-2.2 5-2.2 69.3 0 45.6.3 65.8 1.1 68.5 1.6 5.1 6 10.3 11.7 13.7l4.7 2.7h114.2l4.9-3c6.4-4 11.1-10.9 11.9-17.8.3-2.8.5-33.6.3-68.2l-.3-63-2.3-4c-2.9-4.7-7.4-9-12.2-11.3-3.1-1.5-8.9-1.7-57-1.8-29.4-.1-55.1.1-57 .6m97.8 29.8c1 .7 1.2 12.3 1 54.8l-.3 53.9-44.2.3-44.3.2v-54.3c0-29.9.3-54.7.7-55 .9-1 85.5-.8 87.1.1"/></svg>