<svg xmlns="http://www.w3.org/2000/svg" width="1365.333" height="1365.333" viewBox="0 0 1024 1024"><path d="M481.5 1.1c-3.3.5-9.6 1.4-14 2-8.9 1.1-18 2.6-24 3.9-2.2.5-6.5 1.4-9.5 2.1-3 .6-6.6 1.5-8 1.9s-4.5 1.3-7 2c-30.1 8.5-67.8 25-75 32.9-6.7 7.2-7.3 16.1-1.7 24.7 3.6 5.4 8.4 7.8 15.7 7.9 6.1 0 7.4-.5 21-7.3 8-3.9 14.9-7.2 15.3-7.2s2.6-.9 5-1.9c4.8-2.2 17.6-6.9 22.5-8.2 1.7-.5 4.8-1.4 6.7-1.9 9.9-2.8 12.9-3.5 26.5-6.3 28.7-5.7 57.6-7.2 85.5-4.2 19.8 2.1 31.1 4.1 47.5 8.4 14.7 3.9 20.8 5.9 36.3 12 17.7 7 46.6 22.8 61.6 33.7 24.2 17.6 47.6 40.4 63.4 61.4 3.9 5.2 8.3 11.1 9.7 13 7.2 9.7 20.5 33.6 27.9 50.1 4.3 9.8 10.6 27.2 13.1 36.4 6.1 22.1 8.1 32.8 10.5 55 3.5 32.5.7 69.4-7.5 101.5-4 15.6-8.8 30.1-13.1 39.7-1 2.4-1.9 4.6-1.9 4.9 0 1.3-12.4 26.1-16.1 32.3-2.2 3.4-3.9 6.5-3.9 6.7 0 .8-10.2 15.7-15.4 22.4-10.5 13.8-18.5 23-19.8 23-.4 0-.8-14.3-.8-31.8 0-30.7.1-31.8 2.2-35.2 4.7-7.7 15.8-29.1 15.8-30.4 0-.4.9-2.8 2.1-5.4 3.5-7.8 3.7-8.4 6.7-17.7 3.9-12.2 4.8-15.2 8.1-30.8 6.6-30.4 6.7-70.9.1-101.2-5.9-26.9-10.8-41.2-22.5-65-7.8-15.7-20.3-35.5-30.8-48.4-12.5-15.5-34.9-36.5-51.3-48.1-9.7-6.8-23.4-15-34.4-20.5-9-4.5-13.2-6.4-23.5-10.6-5.4-2.2-24.9-8.2-31.5-9.7-48.4-11.1-94.9-9.3-140.5 5.4-6.2 2-11.7 3.9-18 6.4-1.1.4-8.5 3.9-16.5 7.8-27.8 13.6-47.6 27.7-69.6 49.6-17.9 17.9-27.3 30.2-41.7 54.1-4.6 7.8-12.7 24.2-15.7 32-.4 1.1-1.2 3.1-1.8 4.5-2.5 5.8-8.1 24-10.1 33.2-.6 2.7-1.5 6.7-2.1 9-6.6 29.3-6.6 68.9.1 102.3.9 4.7 1.6 7.5 4.1 17 1.2 4.6 6.5 21 7.7 24 6.8 16.7 13.6 30.5 20.9 42.5 2.1 3.4 2.2 4.5 2.2 35.2 0 17.5-.4 31.8-.8 31.8-2.6 0-35.2-42.2-35.2-45.6 0-.3-.9-1.9-2-3.4-2.6-3.7-15.1-28.1-17.4-34-1-2.5-2.4-5.9-3.1-7.5C229 441.1 222.9 422 220 409c-9.9-44.7-10.7-84.3-2.3-126 2.8-13.6 3.6-17.2 6.2-26.3.6-1.7 1.4-4.8 1.9-6.7 1.2-4.1 5.8-17.2 7.7-21.5.7-1.7 2-4.8 3-7 .9-2.2 4.4-9.6 7.8-16.5 5.7-11.5 6.2-13 6.2-19-.1-5.2-.6-7.2-2.5-10.1-2.7-4.1-6.8-7-12.3-8.8-5.1-1.7-12.5.2-17.5 4.5-7.7 6.5-24.6 45.1-33.2 75.4-.7 2.5-1.6 5.6-2 7s-1.3 5-1.9 8c-.7 3-1.6 7.3-2.1 9.5-6.1 27.5-8.7 69.5-6 95.3 2.9 26.8 4 33.7 9.6 56.7 10.3 42.8 33 89.8 59.7 123.5 10.9 13.8 16.8 20.3 31.9 35.2l17.8 17.7v150l-4.2 1.1c-12.7 3.3-21.8 8.5-33.7 19.6-11.5 10.7-16.2 13.4-23.8 13.4-6 0-10.7-2.5-19.3-10.4-14.9-13.6-23.6-19-35.3-22.1-7.4-1.9-23-1.9-30.4 0-8.9 2.3-19.4 8.2-27.4 15.3-4.1 3.6-9.4 8.2-11.8 10.4-5.5 4.8-10 6.8-15.7 6.8-6.2 0-12.1-3.1-20.4-10.8-18.1-16.8-28.7-22.1-45.6-23-12.4-.6-17.1 1.7-22.3 11.1-7 12.7 4.3 28.7 20.3 28.7 2 0 5.1.7 6.8 1.6 2.4 1.3 18.8 15 20.8 17.4.3.4 3.2 2.4 6.5 4.6 16 10.7 36 13.3 54 6.9 9.6-3.4 19.7-10.5 35-24.8 3.9-3.6 9.3-5.7 14.9-5.7 8 0 11 1.6 21.6 11.4 17.8 16.4 31.2 22.6 48.7 22.6 16 0 32.2-6.9 45.3-19.2 7.7-7.3 14.2-12.8 15.1-12.8.5 0 .9 5.6.9 12.5 0 10.6.3 13.2 2 16.3 4.5 8.4 8.9 11.2 17.8 11.2 6.9 0 10.3-1.3 14.4-5.7 6.2-6.5 5.8 6.5 5.8-183.6 0-188.7-.4-176.6 5.5-183.5 5.2-6.1 5.2-6.1 62.2-6.2l51.8-.1.5 42.8c.4 38.2.7 43.1 2.2 45.8 4.5 7.8 9 10.5 17.6 10.5 6.9 0 10.3-1.3 14.3-5.7 5.5-5.9 5.4-4.8 5.9-50.6l.5-42.8 91.8.1c101.1 0 96.8-.2 102.2 6.2 5.9 6.9 5.5-5.2 5.5 184 0 171.3 0 173.9 2 177.6 4.5 8.4 8.9 11.2 17.8 11.2 6.9 0 10.3-1.3 14.4-5.7 4.7-4.9 5.8-9.1 5.8-22.3 0-6.6.4-12 .9-12 .9 0 7.3 5.4 15.3 12.9 13.4 12.5 29.2 19.1 45.1 19.1 17.8-.1 31.4-6.4 48.7-22.6 10.5-9.8 13.6-11.4 21.6-11.4 6.9 0 11.1 2.1 19.5 9.7 15 13.5 20.8 17.4 30.4 20.8 18 6.4 37.2 3.9 53.8-6.8 3.4-2.2 6.4-4.3 6.7-4.6 1.7-2.3 18.3-16.2 20.8-17.5 1.7-.9 4.8-1.6 6.8-1.6 16 0 27.3-16 20.3-28.7-5.2-9.4-9.9-11.7-22.3-11.1-16.6.9-26.2 5.6-44.1 21.7C945.3 781 940 784 933.6 784c-6.5 0-10.1-2-21.6-12.1-19.6-17.3-29.9-21.9-48.5-21.9-19.3 0-30.3 5.1-50.5 23.6-8.6 7.9-13.3 10.4-19.3 10.4-7.6 0-12.3-2.7-23.8-13.4-11.9-11.1-21-16.3-33.6-19.6l-4.3-1.1V600l17.8-17.7c16.7-16.6 22.3-23 34.8-39.3C807 513.9 829 470 838 436.5c7.7-28.7 10.1-41.5 13-70.3 2.6-26.4 0-67.4-6-94.7-.5-2.2-1.4-6.5-2.1-9.5-.6-3-1.5-6.6-1.9-8s-1.3-4.5-2-7c-1.7-5.9-6.9-21.9-8-24.5-.4-1.1-1.8-4.7-3-8-4.2-11-21-44.4-26-51.5-1-1.4-3.2-4.9-4.9-7.9-3.7-6.3-20.8-29.2-27.7-37.1-6.3-7.2-29.5-30.5-35.9-35.9-2.7-2.3-9.3-7.4-14.5-11.3-5.2-4-11.1-8.4-13-9.8-3.5-2.7-16.4-10.9-24.4-15.6-8.3-4.8-33.3-17.1-42.5-20.7-9-3.7-24.8-9-34.1-11.7-2.5-.7-5.6-1.6-7-2s-5-1.3-8-1.9c-3-.7-7.3-1.6-9.5-2.1-7.6-1.7-23.5-4.1-36-5.5-8.9-1.1-56.8-1.3-63-.4M536 121.5c14.7 1.8 24 3.5 34.5 6.5 2.2.6 5.4 1.5 7 1.9 3.3.9 5.9 1.8 9 3.1 1.1.4 4.7 1.8 8 3.1 23.6 9 53 28.6 72.9 48.5 24.3 24.3 46.7 61.3 54.7 90.1.5 1.8 1.4 5 2 7 4.8 16.9 7.9 39.8 7.9 58.3s-3.1 41.4-7.9 58.2c-.6 2.1-1.5 5.3-2 7-.5 1.8-1.6 5.3-2.6 7.8-.9 2.5-2.6 6.9-3.7 9.7-1.1 2.9-2.4 5.3-2.9 5.3s-3-1.6-5.5-3.5c-4.8-3.7-9.7-6.2-18-9.2-4.6-1.7-14.6-1.8-177.4-1.8s-172.8.1-177.4 1.8c-8.3 3-13.2 5.5-18 9.2-2.5 1.9-5 3.5-5.5 3.5s-1.8-2.4-2.9-5.3c-1.1-2.8-2.8-7.2-3.7-9.7-1-2.5-2.1-6-2.6-7.8-.5-1.7-1.4-4.9-2-7-10.3-36.3-10.3-79.7.1-116.7.6-2.2 1.5-5.4 1.9-7 .9-3.3 1.8-5.9 3.1-9 .4-1.1 1.8-4.7 3.1-8 3.8-9.9 13.5-28 21.1-39.4 21.5-32.3 50-57.2 85.7-75.2 7.5-3.8 14.2-6.9 14.9-6.9s2-.4 3-.9c4-2 9.6-4 17.2-6.1 2.5-.7 5.6-1.6 7-2 5.9-1.8 20.5-4.4 32.5-5.9 11.2-1.4 34-1.2 46.5.4M277.8 95.4c-4 1.7-8.7 6.6-10.4 10.5-6.1 14.4 7.6 31.2 22.3 27.3 8.3-2.3 13.2-7.2 15.5-15.5 2.2-8.2-2.6-17.8-10.7-21.6-5-2.3-12.4-2.7-16.7-.7M623.6 530c-5.4 2.7-7.1 4.5-9.5 9.6-2.1 4.3-2.1 5.8-2.1 68.4 0 63.2 0 64.1 2.1 68.5 5.9 12.6 21.9 15.3 31.8 5.4 6.3-6.2 6.1-3.9 6.1-74 0-63 0-64-2.1-68.4-4.7-10-16.6-14.3-26.3-9.5m-240.2 84.9c-2.2 1-5.1 3.1-6.3 4.7-5.2 6.6-5.1 5.9-5.1 63.6 0 51.8.1 54 2 57.6 4.5 8.4 8.9 11.2 17.8 11.2 6.9 0 10.3-1.3 14.4-5.7 5.9-6.1 5.8-5.4 5.8-63.6 0-57.2.1-56.6-5.1-63.1-4.8-6.2-15.5-8.3-23.5-4.7m160 100c-2.2 1-5.1 3.1-6.3 4.7-5 6.3-5.1 7.4-5.1 43.6 0 31.8.1 34.1 2 37.6 4.5 8.4 8.9 11.2 17.8 11.2 6.9 0 10.3-1.3 14.4-5.7 5.6-5.9 5.8-7.3 5.8-43.6 0-35.6-.1-36.8-5.1-43.1-4.8-6.2-15.5-8.3-23.5-4.7M11 851.9c-4.1 2.2-6 4.2-8.9 9.4C-5 874 6.3 890 22.4 890c2 0 5.1.7 6.8 1.6 2.4 1.3 18.8 15 20.8 17.4.3.4 3.2 2.4 6.5 4.6 16 10.7 36 13.3 54 6.9 9.6-3.4 19.7-10.5 35-24.8 3.9-3.6 9.3-5.7 14.9-5.7 8 0 11 1.6 21.6 11.4 17.8 16.4 31.2 22.6 48.7 22.6 16.4 0 32.4-7 46.8-20.6 12.1-11.3 15.8-13.4 23.8-13.4 7.4 0 11.2 2.1 21.6 11.6 12.7 11.7 23.5 18.4 33.5 20.6 19.5 4.4 41.8-.9 55.2-13.1 19.8-18 21.6-19.1 30.1-19.1 5.7 0 12.2 2.2 14.3 4.9 1.1 1.3 16.7 14.9 20 17.3 10.5 7.7 23 11.8 35.9 11.8 6.9 0 9.4-.4 19.6-3.3 7.9-2.2 15.7-7.3 28.7-18.7 5.7-5 11.6-9.7 13.2-10.5s5.6-1.5 9.1-1.5c8.1 0 11.8 2.3 29 18.4 3.1 2.9 13 9.2 16.7 10.5 1.8.7 4.2 1.7 5.3 2.1 7.5 3.1 23.5 3.6 34.1 1.2 10-2.2 20.8-8.9 33.5-20.6 10.3-9.5 14.2-11.6 21.6-11.6 7.8 0 11.2 1.8 22.4 12 10.4 9.6 19.9 15.7 25.3 16.5 10.2 1.6 20.7-5.6 22.2-15 1.5-10.2-1.6-16.7-10.7-22.9-2.7-1.8-7.6-5.8-10.7-8.8-11.9-11.4-23-18-35.3-20.8-10.8-2.4-28.7-.5-38.9 4.3-5.1 2.4-14.7 9.2-20 14.3-12 11.4-17.2 14.4-24.9 14.4-6.2-.1-11.3-2.9-21.2-12-11-10.1-18.1-14.8-28.4-19-8-3.3-25.5-4-35.2-1.5-3.2.8-8.9 3-12.8 4.9-6.8 3.4-9.9 5.8-23.5 18-7.7 7-12.8 9.6-19 9.6s-11.3-2.6-19-9.6c-13.6-12.2-16.7-14.6-23.5-18-3.8-1.9-9.6-4.1-12.8-4.9-9.7-2.5-27.2-1.8-35.2 1.5-10.6 4.3-17.1 8.7-28.4 19-9.9 9.1-15 11.9-21.2 12-6.8 0-11-2.2-20.7-10.8-4.8-4.2-8.9-7.9-9.2-8.2-.8-1-12.3-8.5-15-9.7-10.2-4.8-28.1-6.7-38.9-4.3-12.6 2.9-21.4 8.1-35.3 20.8-17.6 16-25.9 16.3-41.8 1.8-20.1-18.3-31.3-23.6-50.5-23.6-17.9 0-28.9 4.8-47 20.7-13 11.3-16.4 13.3-23.1 13.3-6.2 0-12.1-3.1-20.4-10.8-11.7-10.8-20.6-17-28.5-19.7-11.6-4-24.7-4.6-30.5-1.6m842.3.7c-9.1 5.4-12.2 17.8-6.8 27 3 5.1 6.4 7.6 12.7 9.3 11.6 3.2 24-6.8 24-19.3 0-5.3-1.3-8.6-5.2-13-4.3-4.8-8.3-6.6-14.9-6.6-4.2 0-6.7.7-9.8 2.6m139.2-2.1c-.5.2-3.5 1-6.5 1.9-11 3.3-17.9 7.8-31.5 20.5-2.7 2.6-7 6.1-9.5 7.8-8.4 5.7-11 10.1-11 18.1 0 7.1 1.8 11 7.1 15.6 4.4 3.7 10.3 5.2 16.4 4 3-.5 15-7.3 16.5-9.3 1.7-2.3 18.3-16.2 20.8-17.5 1.7-.9 4.8-1.6 6.8-1.6 16 0 27.3-16 20.3-28.7-4.9-8.8-9.6-11.3-20.6-11.2-4.3 0-8.2.2-8.8.4M11 951.9c-4.1 2.2-6 4.2-8.9 9.4-7 12.7 4.3 28.7 20.3 28.7 2 0 5.1.7 6.8 1.6 2.4 1.3 18.8 15 20.8 17.4 1.4 1.7 13 8.9 17 10.5 7.1 2.8 11.8 3.7 22 4.2 8.9.4 11.4.1 20.5-2.9 10.3-3.4 20.1-10.2 36-25.1 3.9-3.6 9.3-5.7 14.9-5.7 8 0 11 1.6 21.6 11.4 13.7 12.6 27 20.5 34.7 20.6 1.2 0 2.5.4 2.8 1 .4.6 5.3 1 11.5 1s11.1-.4 11.5-1c.3-.6 1.7-1 2.9-1 6.3 0 21.6-8.8 31.6-18.1 12.7-11.9 16.2-13.9 24.3-13.9 7.4 0 11.2 2.1 21.6 11.6 12.6 11.7 23.4 18.3 33.5 20.7 6 1.4 23.4 2 26.5.9 1.4-.6 5.2-1.7 8.3-2.7 3.1-.9 8.4-3.3 11.7-5.3 5.9-3.7 7.4-4.8 18.1-14.5 9.5-8.6 13.5-10.7 20.7-10.7 6.9 0 10.8 1.7 17.1 7.4 12 10.8 15.6 13.8 20.4 16.8 7.8 4.9 14.6 7.8 18.3 7.8 1.3 0 2.7.4 3 1 .8 1.3 22.2 1.3 23 0 .3-.5 1.7-1 3-1 2.3 0 4.5-.7 10.5-3.3 5.7-2.5 13.3-8 23.1-16.6 5.7-5.1 11.7-9.8 13.3-10.6s5.6-1.5 9-1.5c7.5 0 12.2 2.7 24.4 14 9.5 8.8 18 14.2 26 16.5 3.1 1 6.9 2.1 8.3 2.7 3.1 1.1 20.5.5 26.5-.9 10.1-2.4 20.9-9 33.5-20.7 10.3-9.5 14.2-11.6 21.6-11.6 7.8 0 11.2 1.8 22.4 12 12.8 11.7 26.7 20 33.5 20 1.2 0 2.6.5 2.9 1 .8 1.3 22.2 1.3 23 0 .3-.6 1.7-1 3-1 2.6 0 4.8-.8 13.4-4.8 5.4-2.5 12.8-8 21.1-15.8 10.5-9.8 13.6-11.4 21.6-11.4 7 0 11.2 2.1 20.1 10.2 11.8 10.8 15.5 13.6 21.8 16.7 12.1 5.9 18.4 7.3 29.5 6.8 10.2-.5 14.9-1.4 22-4.2 4-1.6 15.6-8.8 17-10.5 2-2.4 18.4-16.1 20.8-17.4 1.7-.9 4.8-1.6 6.8-1.6 16 0 27.3-16 20.3-28.7-5.2-9.4-9.9-11.7-22.3-11.1-17.5.9-26.3 5.5-46.4 23.9-7.4 6.8-13.6 9.9-19.6 9.9-6.5 0-10.1-2-21.6-12.1-19.6-17.3-29.9-21.9-48.5-21.9-19.2 0-30.4 5.3-50.5 23.6-8.6 7.9-13.3 10.4-19.3 10.4-7.3 0-12.9-3-22.4-12.1-12-11.5-23.1-18.1-35.4-20.9-10.8-2.4-28.7-.5-38.9 4.3-5.1 2.4-14.7 9.2-20 14.3-7.6 7.3-12.9 11.3-16.9 13-4.1 1.7-11 1.8-14.8.2-3.1-1.3-10.3-6.9-17.6-13.7-7.6-7.1-15.4-12.1-25.2-16.1-8-3.3-25.5-4-35.2-1.5-8.4 2.2-19 7.7-25.3 13.2-3 2.6-8.1 7.2-11.5 10.2-7.2 6.5-12.5 9.1-18.5 9.1-6.7 0-11.4-2.7-23.9-13.9-12-10.7-20.7-15.8-31.4-18.6-9.7-2.5-27.2-1.8-35.2 1.5-10.6 4.3-17.1 8.7-28.4 19-9.9 9.1-15 11.9-21.2 12-6.8 0-11-2.2-20.7-10.8-4.8-4.2-8.9-7.9-9.2-8.2-.8-1-12.3-8.5-15-9.7-6.8-3.2-13.3-4.7-22.9-5.1-11.7-.5-18.2.6-27.7 4.8-8.1 3.6-11.7 6.2-21.5 15.1-12.6 11.4-17 13.9-24.6 13.9-6.7 0-10.1-2-23.2-13.8-4.1-3.7-8.8-7.7-10.5-9-4.6-3.5-14.4-8-20.9-9.7-7.4-1.9-23-1.9-30.4 0-8.9 2.3-19.4 8.2-27.4 15.3-4.1 3.6-9.4 8.2-11.8 10.4-5.5 4.8-10 6.8-15.7 6.8-6.2 0-12.1-3.1-20.4-10.8-11.7-10.8-20.6-17-28.5-19.7-11.6-4-24.7-4.6-30.5-1.6"/></svg>