<svg xmlns="http://www.w3.org/2000/svg" width="1365.333" height="1365.333" viewBox="0 0 1024 1024"><path d="M273 1c-.8.4-3.1 1.4-5 2.1-5.3 2-11.4 8.8-13.9 15.3-2 5.3-2.1 7.5-2.1 36.6v31h-69.2c-72.1 0-74.3.1-90.3 4.4C48.9 102.1 11.3 142 3 185.5c-.6 3.3-1.6 7.6-2.1 9.6-.5 2.2-.9 162-.9 409.2v405.6l2.1 3.8c1.2 2.1 3.1 4.6 4.3 5.6 5.1 4.4 7.3 4.7 40.5 4.7 29.7 0 32-.1 35.9-2 4.9-2.4 8.6-7 10.1-12.5.7-2.7 1.1-24.8 1.1-67.8V878l29.8.2 29.7.3.5 15.5c.5 16.4 1.3 19.7 6.2 25.1 1.3 1.5 4.1 3.7 6.3 5 3.9 2.3 4.6 2.4 35.2 2.7l31.2.4.3 43.2.3 43.3 2.7 3.6c5.3 6.8 11.8 8.3 19 4.3 7.9-4.4 7.8-3.6 7.8-50.3 0-22.6.3-41.8.6-42.7.6-1.5 23.4-1.6 248.4-1.6s247.8.1 248.4 1.6c.3.9.6 20.1.6 42.7 0 46.7-.1 45.9 7.8 50.3 7.2 4 13.7 2.5 19-4.3l2.7-3.6.3-43.3.3-43.2 31.2-.4c30.6-.3 31.3-.4 35.2-2.7 4.6-2.7 7.8-6.1 10.3-11.1 1.3-2.7 1.8-7 2.2-19l.5-15.5h60l.5 67.1.5 67.1 2.6 3.4c1.5 1.9 4.5 4.4 6.9 5.6 4.1 2.2 4.9 2.3 36.6 2.3 30.9 0 32.5-.1 36.1-2.1 4.7-2.6 5.6-3.5 8.2-8.2l2.1-3.8V604.3c0-246.6-.4-407-.9-409.2-.5-2-1.5-6.3-2.2-9.6-3.2-16.1-11.3-34.2-21.2-47.5-17.5-23.4-42.2-40.6-68.2-47.6-16-4.3-18.2-4.4-90.2-4.4H772V55c0-29.1-.1-31.3-2.1-36.6-2.5-6.5-8.6-13.3-13.9-15.3-1.9-.7-4.3-1.7-5.2-2.2C748.5-.3 275.1-.2 273 1m468.8 90.2.2 60.8H419.3l-4.3 2.3c-5.9 3.1-8.3 7.6-7.6 14.6.3 3.7 1.2 6.1 2.8 7.8 5.2 5.6-6 5.3 173.7 5.3 165.3 0 166 0 170.8-2.1 5.5-2.3 11.8-8 13.8-12.4 3.1-7.1 3.5-10.4 3.5-30.6V116h68.3c71.7 0 74.1.1 87.5 4.6 29 9.8 52.2 33.2 61.2 61.8 4 13.1 5.2 21.4 4.8 35.6l-.3 12.5h-963l-.3-12.5c-.6-24.3 5.5-44.8 18.9-63.2 11.5-15.8 32.1-30.2 49.9-35 14.4-3.8 14.8-3.8 84.7-3.8H252v20.9c0 20.2.4 23.5 3.5 30.6 2 4.4 8.3 10.1 13.8 12.4 4.7 2 6.7 2.1 46.2 2.1 43.6 0 44.2-.1 48.3-4.6 7.3-8 4.5-19.7-5.7-24-2.7-1.1-10.6-1.4-39.7-1.4H282V91.7c0-33.2.3-60.7.7-61 .3-.4 103.7-.6 229.7-.5l229.1.3zm-678 536.6-.3 365.7h-33l-.3-366.2-.2-366.2 15.2-.3c8.4-.2 16.1.1 17.1.5 1.6.7 1.7 18.9 1.5 366.5m866.4-366c.4.4.9 102.6 1 226.9l.3 226.2 3.3 3.4c1.8 1.9 5.1 4 7.3 4.7 5.4 1.8 11.1-.2 15.4-5.4l3-3.8.3-226.4c.1-148.4.6-226.4 1.2-226.4.6-.1 7.9-.1 16.3-.1l15.2-.1.3 366.6.2 366.6-16.2-.2-16.3-.3-.5-109.7c-.5-109.3-.5-109.7-2.6-112.5-6.8-9.2-18.4-9.7-24.6-1-2.3 3.2-2.3 3.7-2.8 40.2l-.5 37-30.2.3-30.3.2v-6.3c0-15.6-10-31-24.6-38l-6.9-3.2-23.5-.5-23.5-.5-.3-34.2-.2-34.1 28.7-.4c28-.3 28.9-.4 32.8-2.7 5.5-3.2 8.2-5.8 11.3-11.1l2.7-4.5v-69c0-76.9.4-72.3-7-79.7-2-2-5.3-4.5-7.4-5.5-3.5-1.7-16.9-1.8-340.1-1.8-329.8 0-336.6 0-340.4 1.9-4.7 2.4-10.2 7.9-12.4 12.6-1.5 3.2-1.7 10.3-1.7 72.5v69l2.7 4.6c2.9 5 7 8.9 12.2 11.7 2.7 1.4 7.1 1.7 31.9 2l28.7.4-.2 34.1-.3 34.2-23.5.5c-28.9.6-32.1 1.6-43.2 13.3-7.6 7.9-11.8 18.1-11.8 28.3v6.4H94V554.7c0-161.4.2-293.6.4-293.8.8-.8 835 .1 835.8.9m-93.4 381.1c.2 44.5 0 56.6-1 57.3-1.5.9-644.8 1.1-647.2.2-1.4-.6-1.6-6.5-1.6-56.8 0-31 .3-56.6.7-56.9.3-.4 146.5-.6 324.7-.5l324.1.3zm-76.4 89.7c.3.9.6 15.8.6 33.3 0 23.3-.3 32-1.2 32.9-1.7 1.7-493.9 1.7-495.6 0-.9-.9-1.2-9.6-1.2-32.9 0-17.5.3-32.4.6-33.3.6-1.5 23.4-1.6 248.4-1.6s247.8.1 248.4 1.6m72.8 98.5c1.3.5 3.3 2.5 4.6 4.3 2.2 3.2 2.2 3.6 2 32.2l-.3 28.9h-655l-.3-28c-.1-15.4 0-28.9.2-30.1.6-2.4 3.3-5.6 6.1-7.2 2.7-1.6 639.3-1.7 642.7-.1m-506.8-753c-10.3 5-11.1 19.1-1.4 25.6l3.3 2.3h367.4l3.4-2.3c9.7-6.5 8.7-20.8-1.8-25.7-4.3-2-5.4-2-185.5-2-178.7.1-181.4.1-185.4 2.1"/></svg>