<svg xmlns="http://www.w3.org/2000/svg" width="1365.333" height="1365.333" viewBox="0 0 1024 1024"><path d="M39.9 54.2c-2 1.1-4.6 3.8-5.8 5.8L32 63.8v896.4l2.1 3.8c1.2 2.1 3.8 4.7 5.9 5.9l3.8 2.1h936.4l3.8-2.1c2.1-1.2 4.7-3.8 5.9-5.9l2.1-3.8V63.8l-2.1-3.8c-1.2-2.1-3.8-4.7-5.9-5.9l-3.8-2.1H871.6c-120.4 0-111.8-.5-117.3 6.7l-2.8 3.6-.5 56.6-.5 56.6-38 .5c-42.6.6-42.2.5-46.4 8-2.1 3.8-2.1 4-2.1 112.3v108.5l-29.4.4-29.4.3-3.9 3.1c-7.1 5.8-6.8 2.2-7.1 70.1-.1 33.7-.5 61.3-.8 61.3s-2.6-2.4-5.2-5.3c-8.3-9.3-11.9-12.4-15.2-13.1-4.2-.8-117.8-.8-122 0-3.3.7-6.9 3.8-15.2 13.1-2.6 2.9-4.9 5.3-5.2 5.3s-.7-27.6-.8-61.3c-.3-67.9 0-64.3-7.1-70.1l-3.9-3.1-29.4-.3-29.4-.4V296.3c0-108.3 0-108.5-2.1-112.3-4.2-7.5-3.8-7.4-46.4-8l-38-.5-.5-56.6-.5-56.6-2.8-3.6c-5.5-7.2 3.2-6.7-117.4-6.7H43.5zm200.9 295.1.2 264.8-11.7 12.7c-6.5 7-12.4 13.4-13.3 14.2-.8.8-8 8.5-16 17s-15.2 16.2-16 17c-.8.9-4.9 5.1-9 9.5-21.2 22.6-39.2 41.7-45 48-3.6 3.8-7.2 7.7-8 8.5-.8.9-4.9 5.1-9 9.5s-14.3 15.2-22.6 24c-8.2 8.8-17.2 18.4-19.8 21.3-2.7 2.8-5.3 5.2-5.7 5.2-.5 0-.9-158.1-.9-358.5V84l88.3.2 88.2.3zM960 442.5c0 200.4-.4 358.5-.9 358.5-.4 0-3-2.4-5.7-5.3-2.6-2.8-11.6-12.4-19.8-21.2-8.3-8.8-18-19.1-21.6-23-3.6-3.8-7.6-8.1-9-9.5s-5.4-5.7-9-9.5c-9.7-10.5-51.3-54.7-54-57.5-.8-.9-4.9-5.1-9-9.5-27.4-29.1-37.3-39.7-42.3-45.2L783 614V349.7c0-145.4.3-264.7.7-265 .3-.4 40.2-.7 88.5-.7H960zm-632-10.9v223.6l-2.6 3.2c-1.4 1.7-4.5 5.1-6.8 7.6-2.2 2.5-5.9 6.5-8 9-2.2 2.5-7.4 8.3-11.6 13s-9.4 10.5-11.6 13c-7.4 8.5-12.7 14-13.6 14-.4 0-.8-114.1-.8-253.5V208h55zm423 29.9c0 149.7-.4 253.5-.9 253.5s-6.2-6-12.7-13.2c-6.5-7.3-12.1-13.5-12.4-13.8s-3.9-4.3-8-9c-4.1-4.6-9.4-10.5-11.6-13-2.3-2.5-5.4-5.9-6.8-7.6l-2.6-3.2V208h55zm-355.2-23.9 2.2.6V577l-7.2 8.2c-4 4.6-8.1 9.2-9.1 10.3-1.1 1.1-6 6.6-11 12.2-5 5.7-9.4 10.3-9.9 10.3-.4 0-.8-40.5-.8-89.9 0-84.8.1-90 1.8-90.4 2.6-.7 31.4-.8 34-.1m266 0 2.2.6v89.9c0 49.5-.4 89.9-.8 89.9-.5 0-1.9-1.2-3.2-2.8-2.6-3-18.2-20.4-19-21.2-.3-.3-3.8-4.2-7.8-8.8L626 577v-69.4c0-65.3.1-69.5 1.8-69.9 2.6-.7 31.4-.8 34-.1M496 570c0 15 .2 17.5 2 20.9 5.7 11.2 21.1 11.6 27.5.7 2.4-4.1 2.5-5 2.5-21.4V553h33.8l2.7 3.2c1.5 1.8 4.6 5.3 6.9 7.8 2.2 2.5 7.5 8.4 11.6 13 4.1 4.7 7.7 8.7 8 9s3.9 4.3 8 9 7.7 8.7 8 9 4.3 4.8 9 10 8.7 9.7 9 10 3.9 4.3 8 9 7.7 8.7 8 9 8 8.8 17 19 16.7 18.7 17 19 3.9 4.3 8 9 7.7 8.7 8 9 4.3 4.8 9 10 8.7 9.7 9 10 3.9 4.3 8 9 7.7 8.7 8 9 3.9 4.3 8 9 7.7 8.7 8 9 4.3 4.8 9 10 8.7 9.7 9 10 3.9 4.3 8 9 7.7 8.7 8 9 4.3 4.8 9 10 8.7 9.7 9 10 3.9 4.3 8 9 7.7 8.7 8 9 8 8.8 17 19 16.7 18.7 17 19 3.9 4.3 8 9 7.7 8.7 8 9 4.3 4.8 9 10 8.7 9.7 9 10 2.3 2.5 4.4 5c2.2 2.5 7.4 8.3 11.6 13 9.5 10.4 13 14.6 13 15.4 0 .3-85 .6-189 .6H528v-5.7c0-7.2-3.3-13.3-8.7-15.9-11.6-5.6-23.3 2.5-23.3 15.9v5.7H307c-103.9 0-189-.3-189-.6 0-.7 3.8-5.4 9.4-11.4 2.3-2.5 11.5-12.8 20.6-23 9-10.2 16.7-18.7 17-19s3.9-4.3 8-9 7.7-8.7 8-9 4.3-4.8 9-10 8.7-9.7 9-10 3.9-4.3 8-9 7.7-8.7 8-9 4.3-4.8 9-10 8.7-9.7 9-10 3.9-4.3 8-9 7.7-8.7 8-9 8-8.8 17-19 16.7-18.7 17-19 3.9-4.3 8-9 7.7-8.7 8-9 4.3-4.8 9-10 8.7-9.7 9-10 3.9-4.3 8-9 7.7-8.7 8-9 3.9-4.3 8-9 7.7-8.7 8-9 4.3-4.8 9-10 8.7-9.7 9-10 2.3-2.5 4.4-5c2.2-2.5 7.4-8.3 11.6-13s9.4-10.5 11.6-13c2.1-2.5 4.1-4.7 4.4-5s4.3-4.8 9-10 8.7-9.7 9-10 3.9-4.3 8-9 8.3-9.4 9.3-10.5c1.1-1.1 7.8-8.6 15-16.8l13.1-14.7H496zM241 708.5v44.4l-9.2 10.3c-5 5.7-12.6 14.1-16.8 18.8s-9.4 10.5-11.6 13c-2.1 2.5-4.1 4.7-4.4 5s-4.3 4.8-9 10-8.7 9.7-9 10-3.9 4.3-8 9-7.7 8.7-8 9-8 8.8-17 19-16.7 18.7-17 19-3.9 4.3-8 9-7.7 8.7-8 9-4.3 4.8-9 10-8.7 9.7-9 10c-.6.6-7.7 8.5-16.4 18.3-6.7 7.6-6.9 7.7-11.7 7.7H64v-90.5l4.2-4.5c7.3-7.9 32.2-34.4 33.8-36 .8-.9 4.4-4.7 8-8.5 5.8-6.3 23.8-25.4 45-48 4.1-4.4 8.2-8.6 9-9.5.8-.8 8-8.5 16-17s15.2-16.2 16-17c.8-.9 4.4-4.7 8-8.5 23.9-25.7 35.4-37.4 36.1-36.9.5.3.9 20.5.9 44.9M813 693c7.4 8 14.6 15.6 16 17s5.4 5.7 9 9.5c9.7 10.5 51.3 54.7 54 57.5 2.2 2.3 14.5 15.4 31 33 8 8.5 17.7 18.9 21.6 23s9 9.5 11.2 12l4.2 4.5V940h-9.8l-10.7-12c-5.9-6.6-11.2-12.6-11.9-13.3-.6-.6-4.5-5-8.6-9.7s-7.7-8.7-8-9-4.3-4.8-9-10-8.7-9.7-9-10-3.9-4.3-8-9-7.7-8.7-8-9-4.3-4.8-9-10-8.7-9.7-9-10-3.9-4.3-8-9-7.7-8.7-8-9-8-8.8-17-19-16.7-18.7-17-19-3.9-4.3-8-9-7.7-8.7-8-9-2.6-2.8-5.2-5.7l-4.8-5.2v-44.4c0-24.4.3-44.7.7-45.1.8-.8 6.8 5.3 29.3 29.4M115.9 149.4c-4.6 1.4-7.8 4.2-9.5 8.3-4.6 10.8 2.9 22.4 14.3 22.2 9.4-.1 15.3-6.3 15.3-15.9 0-5-.4-6.1-3.5-9.7-2.5-2.9-4.7-4.4-7.9-5.2-2.5-.6-4.6-1.1-4.8-1s-1.9.6-3.9 1.3m58.9 0c-7.6 3.3-12 11.6-10 18.5 2.3 7.6 8 12.1 15.5 12.1 14.2 0 21.1-18.1 10.5-27.6-4.4-4.1-11-5.3-16-3M108 220.1c-1.9 1.1-4.5 3.6-5.8 5.4L100 229v60.6c0 60.3 0 60.6 2.2 64.5 1.4 2.5 3.6 4.5 6.5 5.9 4.1 1.9 6.2 2 41.7 2 41.7 0 42.3-.1 47.3-6.7l2.8-3.6V228.3l-2.8-3.6c-5.2-6.8-4.3-6.7-47.4-6.7-37.2 0-38.9.1-42.3 2.1m60.5 69.9v39.5l-18.2.3-18.3.2v-80l18.3.2 18.2.3zm-55 133.7c-2.2.3-5.5 1.6-7.3 2.9-6.5 5-6.2 2.2-6.2 68.7 0 66-.1 64.3 5.8 68.6 5.6 3.9 9.2 4.2 46.7 3.9 40.3-.3 40.7-.4 45.5-7.5l2.5-3.7V433.5l-2.3-3.3c-4.8-6.7-4.8-6.7-44.7-6.8-19.8-.1-37.8.1-40 .3m53.9 31.9c1.4.5 1.6 5 1.6 40V535l-2.2.5c-1.3.3-9.5.4-18.3.3l-16-.3-.3-39c-.1-21.4 0-39.6.3-40.2.3-1 4.6-1.3 16.9-1.3 9 0 17.1.3 18 .6m671.2-306c-7.1 2.6-10.6 7.4-10.6 14.5 0 11.5 12.6 19.4 22.8 14.3 6.6-3.3 10.4-11.7 8.2-18.3-1.6-5.1-6.4-9.6-11.5-11-4.7-1.3-4-1.3-8.9.5m58.8-.1c-1.8.8-4.6 3.1-6.3 5.2-2.7 3.2-3.1 4.6-3.1 9.4 0 9.5 5.9 15.7 15.3 15.8 8.6.2 15.7-6.7 15.7-15.2 0-11.9-11.2-19.7-21.6-15.2m-66 70.4c-1.7 1-4.2 3.4-5.5 5.3l-2.4 3.3v123.2l2.8 3.6c5 6.6 5.6 6.7 47.3 6.7 35.5 0 37.6-.1 41.7-2 2.9-1.4 5.1-3.4 6.5-5.9 2.2-3.9 2.2-4.2 2.2-64.5V229l-2.2-3.5c-1.3-1.9-3.9-4.3-5.9-5.5-3.5-1.9-5.2-2-42.5-2-36.4 0-39.1.1-42 1.9M892 290v40l-18.2-.2-18.3-.3-.3-38.5c-.1-21.2 0-39.1.3-39.7.3-1 4.9-1.3 18.5-1.3h18zm-56 133.9c-4.4.9-8.3 3.5-10.7 6.9-1.7 2.5-1.8 6.4-1.8 64.3v61.5l2.5 3.7c4.8 7.1 5.2 7.2 45.5 7.5 37.5.3 41.1 0 46.7-3.9 5.9-4.3 5.8-2.6 5.8-68.6 0-67 .3-63.7-6.7-69l-3.6-2.8-37.1-.2c-20.4-.1-38.7.2-40.6.6m55.5 71.6v40l-16 .3c-8.8.1-17 0-18.2-.3l-2.3-.5v-39.4c0-30.6.3-39.5 1.3-39.9.6-.3 8.9-.5 18.2-.4l17 .2zm-385 158.2c-2.6.7-7.3 5.1-9.1 8.5-1.1 2.1-1.4 8.4-1.4 29.9 0 27.1 0 27.2 2.5 31.4 6.1 10.4 20.9 10.4 27 0 2.5-4.2 2.5-4.2 2.5-31.7 0-26.9-.1-27.6-2.2-30.8-3.5-5.1-7.1-7.2-12.5-7.6-2.6-.1-5.7 0-6.8.3m1.5 131.6c-1.9.5-4.8 2.1-6.3 3.5-5.6 5.3-5.7 5.9-5.7 35.2 0 29.4.1 30 5.7 35.2 7.6 7.1 19.7 4.5 24.9-5.4 1.1-2.1 1.4-8.4 1.4-29.8s-.3-27.7-1.4-29.8c-3.7-7-11.5-10.8-18.6-8.9"/></svg>