<svg xmlns="http://www.w3.org/2000/svg" width="1365.333" height="1365.333" viewBox="0 0 1024 1024"><path d="M434.5 227.1c-12.6 3-21.4 6.8-32.2 14.1-15.4 10.3-28.3 27.2-33.2 43.8-.7 2.5-1.8 5.7-2.3 7.2l-1 2.8H235.3c-123.3 0-130.4-.1-130.9-1.8-1.7-5.6-5.1-10.5-8.9-12.8l-4.2-2.4H12.7l-4.3 2.5c-2.3 1.4-4.8 3.8-5.6 5.5-.7 1.6-1.6 3-2 3-.5 0-.8 25.9-.8 57.5V404l2.6 4c1.4 2.2 4.2 4.8 6.1 6 3.3 1.9 4.9 2 43.6 1.9 36.1 0 40.5-.2 43.1-1.8 3.7-2.1 6.3-5.6 8.1-10.7l1.3-3.9h206.7l.3 17.2.2 17.3h-28.1c-26.5 0-28.3.1-31.8 2-2 1.2-4.6 3.6-5.8 5.5-1.3 1.9-9.2 24.2-17.7 49.7l-15.4 46.3-65.9.5-65.8.5-3.7 2.3C71 545.1 70 548 70 565.4c0 16.9.1 16.6-7 21.3-9.6 6.5-18.8 18.6-23.9 31.5-2.9 7.3-3.6 12.2-3.6 23.8 0 14.3 1 18.8 6.8 31 3.3 7 5.6 10.1 13.1 17.6 11.7 11.6 21.9 17 36.8 19.3 4 .6 6.9 2.2 9.8 5.1.3.3 3 2.5 6 5s5.7 4.7 6 5 3 2.5 6 5 5.7 4.7 6 5 3 2.5 6 5 5.7 4.7 6 5 3 2.5 6 5 5.7 4.7 6 5 3 2.5 6 5 5.7 4.7 6 5 3 2.5 6 5 6.4 5.3 7.5 6.4c6.4 5.9 19.9 13.6 30 17.1 13.7 4.7-1.8 4.5 327.5 4.5 329.2 0 313.9.2 327.5-4.5 2.7-1 7.4-2.9 10.5-4.3 3-1.4 7-2.9 8.8-3.4 1.7-.4 4.7-1.2 6.5-1.7 1.7-.6 4.8-1.4 6.7-2 1.9-.5 5.2-1.5 7.3-2 2-.6 5.4-1.6 7.5-2.2 6.9-1.9 9.6-2.7 27.2-7.9 9.6-2.9 21.8-6 27-7 13.6-2.5 14.6-2.8 23.5-7.1 16.6-8 30.6-24.5 35.4-41.9.7-2.5 1.7-5.9 2.2-7.6 1.2-3.9 1.2-20.9 0-24.8-.5-1.7-1.5-5.1-2.2-7.6-1.4-4.9-7.8-17.6-10.6-21.1-1-1.2-3.2-3.8-5-5.8-2.6-3.1-5.8-11.8-19.3-52.1-16.8-50.3-17.7-52.4-24-55.4-1.6-.7-13.3-1.3-33.5-1.6l-31-.5-16-47.7c-11.8-35.3-16.7-48.4-18.5-50.3-5.3-5.6-3.4-5.5-71-5.7l-62.5-.3-.5-63.5-.5-63.5-2.3-3.2c-1.2-1.8-3.7-4.3-5.5-5.5-3-2.2-4.3-2.3-24.1-2.8-23.1-.6-21.4 0-23.7-8-3.4-12.2-11.8-26-21.8-36.1-12.4-12.4-26.1-19.6-44.1-23.5-5.3-1.1-21.8-1.4-87.5-1.3-46.6.1-82.7.5-85 1m165.6 34.3c7.8 1.6 12.4 3.6 20 8.7 8.1 5.4 17.9 18 17.9 23 0 1.9-1.8 1.9-117.6 1.9H402.8l.7-2.7c1-4.3 7.2-12.8 13.4-18.5 7.2-6.7 12.8-9.5 25.1-12.7 1.9-.5 36.8-1 77.5-1 59.3-.1 75.3.2 80.6 1.3M68.8 313.2c1.4 1.4 1.7 65.4.4 67.6-.7.9-4.8 1.2-17.3 1l-16.4-.3-.3-33.5c-.1-18.4 0-34.1.3-34.7.6-1.8 31.6-1.8 33.3-.1M312 347v17H104v-34h208zm382 0v17l-25.7.2-25.8.3v34l25.5.5 25.5.5.3 17.3.2 17.2-173.2-.2-173.3-.3-.3-50.5c-.1-27.8 0-51.1.3-51.8.3-.9 36-1.2 173.5-1.2h173zm143.9 122.8c1.8 3.4 22.8 67.2 22.3 67.7-.7.7-610.2.7-610.2 0 0-1.6 22.3-67.2 23.2-68.3.8-.9 58.5-1.2 282.4-1.2 269.8 0 281.4.1 282.3 1.8m104.6 105c1.5 2.2 16.9 49.1 16.4 49.7-.4.4-17-.4-51.1-2.5-8.7-.6-22.9-1.4-31.5-2-8.7-.5-23.7-1.4-33.3-2s-24.6-1.5-33.2-2c-8.7-.6-22.9-1.4-31.5-2-8.7-.5-23.7-1.4-33.3-2s-24.6-1.5-33.2-2c-8.7-.6-22.9-1.4-31.5-2-8.7-.5-23.4-1.4-32.8-2-9.3-.5-24.2-1.5-33-2-8.8-.6-23.2-1.5-32-2s-23.4-1.4-32.5-2-23.9-1.5-33-2-23.7-1.4-32.5-2c-8.8-.5-23.6-1.5-33-2-9.3-.5-24.2-1.5-33-2-8.8-.6-23.2-1.5-32-2s-23.4-1.4-32.5-2-23.9-1.5-33-2c-22.4-1.3-45.2-2.7-65-4-9.1-.6-23.8-1.5-32.7-2-41.3-2.5-49.8-3-64.3-4-8.5-.5-19.9-1.3-25.2-1.6-5.4-.4-9.8-1-9.8-1.3s183.9-.5 408.7-.3c385.3.2 408.7.4 409.8 2m-822.9 36.3c7.1 3.5 12.9 9.3 16.5 16.7 1.9 3.9 2.3 6.3 2.3 14.2 0 11.5-2.1 16.8-9.9 24.5-7.5 7.6-13 9.8-24 9.8-7.6 0-9.9-.4-14.6-2.6-6.9-3.2-13.7-10-17.2-17.1-2.3-4.6-2.7-6.8-2.7-13.8 0-11.9 3-19 11.1-26.3 6.8-6.1 13-8.4 23.2-8.4 7.9-.1 9.5.2 15.3 3M211 614c8.5.5 23.2 1.4 32.5 2 9.4.6 24 1.5 32.5 2 30.1 1.8 49.7 3 65.5 4 16.1 1 38.4 2.4 59.3 3.6 6.1.4 11.2 1 11.2 1.3s-1.9 1.2-4.2 1.9c-26.1 8.1-47.9 29.9-56.6 56.7-4.3 13.2-4.9 33.8-1.3 46.8 2.4 8.9 6.3 17.9 10.9 25.2 1.7 2.7 2.8 5.3 2.6 5.7-.7 1.1-49.1 1-49.8 0-.3-.5.5-2.4 1.8-4.3 6.1-9.2 10.9-21.8 13.2-34.4 1.8-10 1.7-16.8-.1-27-6.2-35.2-30.4-61-66-70.7-6.7-1.8-31.3-1.8-38 .1-20.7 5.6-32.2 12.4-45.6 27-3.8 4.1-6.9 7.8-6.9 8.3 0 .4-.4.8-.9.8-.6 0-.7-1.1-.1-2.8.5-1.5 1.4-6 2-10 1.4-8.9.1-19.9-3.6-30.6-1.3-3.8-2.4-7.2-2.4-7.4 0-.5 19.5.3 44 1.8m294 18c9.1.5 23.7 1.4 32.5 2 8.8.5 24.1 1.4 34 2 24.6 1.3 26.4 1.8 20.4 5.4-9.6 5.7-22.8 21.7-28.7 34.8-2.7 5.9-3.5 8.6-6.1 18.4-1.9 7-1.3 27.8.9 36.9 1.1 4.4 2.4 8.9 2.9 10 3 7 5.9 12.5 8.3 16.2 1.5 2.3 2.8 4.6 2.8 5.2 0 .8-10.5 1.1-34 1.1s-34-.3-34-1.1c0-.6 1.3-2.9 2.9-5.2 5.2-7.7 9.3-17.5 12-29.1 1.8-7.5 1.5-28.9-.5-36.6-1.9-7.8-6.1-18.5-8.4-22-.9-1.4-1.9-3.2-2.2-4-.5-1.4-8.8-12.1-11.3-14.5-5.8-5.8-14.6-12.2-22-16-4.9-2.6-9.2-4.9-9.5-5.2-.5-.6 11.2-.1 40 1.7m229 14c8 .5 19.8 1.2 26.3 1.6 6.4.4 11.7 1.1 11.7 1.6 0 .4-2.7 4-6 8-9.4 11.1-15.7 25.2-18.5 41.3-1.8 10.1-1.8 15.9 0 26 2.2 12.8 7 25.1 13.2 34.5 1.3 1.9 2.3 3.8 2.3 4.2 0 1.1-49.8 1-50.4-.1-.3-.5.3-1.9 1.3-3.2 4.2-5.4 9.7-17.8 12.8-28.9 2.1-7.5 2.1-31.4 0-39-5-18-11.8-29.9-23.6-41.5-2.8-2.7-5.1-5.3-5.1-5.9 0-.5 4.2-.6 10.8-.2 5.9.4 17.2 1.2 25.2 1.6m-475.7 15.9c16.4 5.4 27.8 16.9 34.8 35.1 1.9 4.7 1.9 24.3 0 29-2.7 7.2-5.6 12.6-9 17.3-3.8 5.1-13.1 12.8-18.4 15.1-6.8 2.9-8.4 3.4-15.4 4.6-6 1.1-8.6 1.1-14.5 0-7.1-1.2-8.7-1.7-15.5-4.6-5.2-2.3-14.6-9.9-18.4-15.1-3.5-4.5-5.8-9-9-17.3-1.9-4.7-1.9-24.3-.1-29 7-18.1 18.1-29.6 33.9-34.9 8-2.7 23.8-2.8 31.6-.2m188.6-.8c19.1 6.1 33.4 20.8 37.7 38.7 2.5 10.8 1.3 23-3.4 33.3-1.9 4.1-7.6 12.5-10.6 15.5-2.7 2.6-11 8.5-13.9 9.7-6.8 3-8.4 3.5-15.4 4.7-12 2.2-24.7-.8-36.3-8.4-9.7-6.3-17-16.3-21-28.9-2.8-8.7-2.5-22 .8-31 5.7-15.9 18.5-28.2 34.3-33.1 5.4-1.7 23-2 27.8-.5m210.7.9c17.7 5.8 30.3 19.2 35.3 37.6 1.4 5.3 1.4 18.5 0 23.8-5.8 21.5-20.8 35.2-43.2 39.6-5.5 1.1-8.1 1.2-14.3.1-20.8-3.5-34.2-14.5-42.4-34.6-4-9.9-3.9-22.3.5-35 3.7-10.8 14.9-23.2 25.5-28.2 9.9-4.7 11.7-5.1 22.6-5.2 7.5-.1 11.6.4 16 1.9m191.4.4c13.8 4.7 24.4 13.7 30.5 26.1 4.4 8.7 5.9 16.7 5.2 27-.7 9.9-3.6 18.1-9.3 26.1-7 10-12 13.1-27.4 17.4-2.5.7-5.8 1.7-7.4 2.3s-6.6 1.1-11 1.1c-21.1.2-40.3-15.9-46.5-39-1.4-5.3-1.4-18.5 0-23.8 8.1-29.5 38.3-46.5 65.9-37.2m121.3 1c6.5 3.2 12.4 9.3 15.8 16.4 2 3.9 2.3 6.3 2.3 14.7.1 8.9-.2 10.6-2.6 15.1-3.2 6-10.8 13.2-17.5 16.5-6.8 3.2-20.7 3.2-27.6-.1-18-8.5-25.7-29.3-17.3-46.5 3.2-6.5 10-13.7 14.9-15.9 1.8-.7 4.3-1.8 5.7-2.4 1.4-.7 6.5-1.1 11.5-.9 7.6.2 9.9.7 14.8 3.1m-811.2 27.3c-.7 3.2-1.7 7.7-2.2 10s-.9 6.2-.9 8.7-.3 4.6-.6 4.6c-1.2 0-14.4-11.5-14.4-12.5 0-.6 1.3-1.9 3-2.8 1.6-1 5.8-4.7 9.2-8.2s6.5-6.2 6.7-5.9c.2.2-.1 3-.8 6.1m275.6-326.1c-.4.4-.7 8.3-.7 17.6V399h34l-.2-17.3-.3-17.2-16.1-.3c-8.8-.1-16.3.1-16.7.4m70 0c-.4.4-.7 8.3-.7 17.6V399h34l-.2-17.3-.3-17.2-16.1-.3c-8.8-.1-16.3.1-16.7.4m68.7.7c-.2.7-.3 8.5-.2 17.2l.3 16h34l.3-15.9c.2-10.8-.1-16.3-.9-17.2-1.6-2-32.7-2-33.5-.1M232.1 688.2c-5.2 2.6-10.7 8-12.8 12.8-2.5 5.6-2.2 17.5.7 22.5 10.5 18.5 35.5 18.5 46 0 2.9-5 3.2-16.9.7-22.5-5.5-12.5-22.3-18.7-34.6-12.8m17.6 18.6c3 3.5 2.9 6.3-.3 10.1-2 2.5-3.4 3.1-6.4 3.1s-4.4-.6-6.4-3.1c-3-3.6-3.3-6-.9-9.5 3.3-5.1 10.1-5.4 14-.6m173.4-18.6c-22.5 10.9-18.8 43 5.7 48.8 15.1 3.6 31.2-9.7 31.2-25.6 0-6.8-3.5-14.4-8.9-19.2-7-6.3-19.5-8.1-28-4m17 17.4c2.7 2.4 2.5 9.1-.3 12.1-5.1 5.4-14 1.4-14-6.3 0-7.4 8.7-10.9 14.3-5.8m191.2-17.4c-6 2.8-11 8.4-13.3 14.6-2.5 6.7-2.5 10.8 0 17.4 3.3 8.6 8.9 13.8 17.7 16.3 7.7 2.3 15.1.8 21.9-4.4 12.5-9.5 13.9-26.7 3-38.5-6.7-7.3-20.3-9.8-29.3-5.4m16.3 17.2c2.1 1.7 2.8 3.3 2.8 5.9 0 7.5-7.9 11.3-13.8 6.6-2.1-1.6-2.6-2.9-2.6-6.3 0-7.7 7.8-11.3 13.6-6.2m174.9-17.3c-9.8 4.8-14.8 12.8-14.8 23.4 0 12.7 6.6 21.3 19.3 25.1 7.3 2.2 14.9.6 21.5-4.5 7.4-5.6 9.9-10.9 9.9-20.6 0-8.4-1.6-12.8-6.7-18.3-6.2-6.7-20.8-9.3-29.2-5.1m16.6 17.8c3.1 3.1 3.6 5.9 1.7 9.4-1.7 3.4-3.9 4.6-8 4.7-2.8 0-4.1-.6-5.7-2.6-3-3.8-3.4-6-1.6-9.4 2.9-5.6 9.1-6.5 13.6-2.1"/></svg>