<svg xmlns="http://www.w3.org/2000/svg" width="1365.333" height="1365.333" viewBox="0 0 1024 1024"><path d="M362 1c-.8.5-2.4 1-3.6 1-2.6 0-13.3 3.5-19.4 6.3-19.9 9.2-37.1 28.5-44.5 50.2-3.6 10.6-3.8 14.8-4.4 80.5l-.6 65.5-108 .5c-107.7.5-108 .5-113.2 2.7-10.7 4.3-17.2 9.2-23.7 17.7-7.7 10.1-10.5 19.8-10.6 36.3v11.2l-4.7.7c-10.5 1.5-20.9 9-25.4 18.3-1.2 2.5-2.6 5.4-3.1 6.3-1.1 2.4-1 118.4.1 120.6.5.9 1.7 3.5 2.6 5.6 4 9 13.3 16.1 24.8 18.7l5.7 1.4v480.4l-5.5 2.5c-3 1.3-7.6 4.2-10.1 6.3-5.5 4.5-13.4 16-15.3 22.3-.7 2.5-1.7 5.3-2.2 6.2-1.2 2.3-1.2 19.3 0 21.6.5.9 1.5 3.7 2.2 6.1 1.6 5.3 7.2 14.3 12 19 4.7 4.8 13.7 10.4 19 12 2.4.7 5.2 1.7 6.1 2.2 2.5 1.3 942.5 1.2 943.3-.1.3-.6 1.5-1 2.7-1 1.1 0 5-1.4 8.7-3.2 12-5.7 23.8-19.6 27.3-32.5 1.5-5.3 2.2-21.2 1-23.7-.5-1.2-1.6-4.1-2.3-6.6-2-6.4-9.7-17.8-15.2-22.3-2.5-2.1-7.1-4.9-10.2-6.3l-5.5-2.5V444.5l5.7-1.4c8.1-1.9 14.2-5.2 19-10.4 3.7-4 4.9-6.1 8.2-14 1.4-3.4 1.6-117.8.2-120.5-.5-.9-1.9-3.8-3.1-6.4-4.4-9.2-14.8-16.7-25.2-18.2l-4.8-.7v-11.2c-.1-16.5-2.9-26.2-10.6-36.3-6.5-8.5-12.9-13.3-23.6-17.7-5.3-2.2-5.4-2.2-113.3-2.7l-108-.5-.6-65.5c-.4-41.6-1-67.1-1.7-70-3.5-14.8-6-20.7-13.3-31.5-12-17.8-30-30-52.9-35.8C660.1.2 364.3-.5 362 1m295.6 33.9c1.6.5 4.9 1.5 7.4 2.2 16.3 4.8 30.3 21 33.9 39.4.9 4.5 1.1 46.6.9 169.5l-.3 163.5h-375l-.3-163.5c-.2-122.9 0-165 .9-169.5 3.6-18.3 17.6-34.6 33.9-39.4 1.9-.6 4.9-1.5 6.5-2 3.9-1.2 288.1-1.4 292.1-.2M290 256v17l-110.7-.2-110.8-.3-.3-8.5c-.4-11.3 1-16.2 6.1-20.5 2.1-1.9 4.9-3.6 6.1-3.8 1.1-.2 48.8-.5 105.9-.6L290 239zm658.4-13.6c5.9 4.4 7.7 9.7 7.4 20.8l-.3 9.3-110.7.3-110.8.2v-34l105.3.2 105.4.3zM289.5 358.5v51h-255l-.3-50c-.1-27.5 0-50.6.3-51.3.3-1 26.4-1.2 127.7-1l127.3.3zm700 0v51h-255l-.3-50c-.1-27.5 0-50.6.3-51.3.3-1 26.4-1.2 127.7-1l127.3.3zm-33.7 102.2-.3 16.8h-887l-.3-16.8L68 444h888zm-732.3 55c-.5 2.1-1.1 94.2-1.4 204.8l-.6 201h-153L68.2 718c-.1-111.9 0-204.1.3-204.8.3-.9 16.9-1.2 78.1-1.2h77.6zm271 201.3v204.5h-238l-.3-197.5c-.2-148.9.1-198.2.9-200.5 1.6-4 5.7-8.4 9.4-10 2.5-1.1 23.6-1.3 115.5-1.2l112.5.2zm262.6-203.6c4 1.7 8.1 5.9 9.8 10.1.8 2.3 1.1 51.6.9 200.5l-.3 197.5h-238l-.3-203.5c-.1-111.9 0-204.1.3-204.8.7-1.9 222.9-1.8 227.6.2M955.5 717v204.5h-153l-.6-201c-.3-110.6-.9-202.7-1.4-204.8l-.7-3.7 77.8.2 77.9.3zm26 241.5c4.7 2.7 8.5 9.2 8.5 14.4 0 6.2-4.8 13.1-10.9 15.7-2.9 1.2-69 1.4-467.2 1.4-356 0-464.5-.3-466.6-1.2-6.4-2.7-11.3-9.6-11.3-15.9 0-5.1 3.8-11.7 8.4-14.4l4.1-2.5h930.8zm-533-889q-28.8 6.15-44.4 29.4c-6.6 9.9-8.5 14.9-10.6 28.6-1.9 11.5-2.2 174.6-.4 187.2 2.7 19.3 11 34.3 25.3 45.7 9.9 7.9 21.1 12.6 34.9 14.5 10.5 1.5 106.9 1.5 117.4 0 32.9-4.6 55.6-27.3 60.2-60.2.7-5.1 1.1-36.6 1.1-93 0-86.2-.3-94.9-3.8-106.3-3.9-12.9-14.9-27.3-26.7-35.1-9.7-6.3-14.8-8.4-27-10.9-9.6-1.9-116.9-1.8-126 .1m122 33.9c10.9 2.9 18.4 8.7 23.4 18.1l2.6 5v190.1l-2.5 5c-3.2 6.3-10.1 13.2-16.4 16.4l-5 2.5H450.5l-5-2.9c-7-4-11.6-8.6-15-15.3l-3-5.6V126.5l2.6-5c4.9-9.2 12.5-15.2 22.9-18.1 6.8-1.8 110.6-1.9 117.5 0m-81.7 188c-3.5 1.5-7.6 5.4-9.4 8.8-3.6 6.9-.1 17.4 7.1 21.5 3.8 2.2 5.1 2.3 25.3 2.3 24.7 0 27.1-.6 31.7-8.3 5.3-9.2 1.6-20.1-8.4-24.3-4.4-1.8-42.2-1.9-46.3 0M318 547.7c-4.5 1.9-24.7 21.8-26.6 26.2-1.8 4.3-1.8 7.9.1 12.5 2.3 5.5 7 9.4 12.1 10.2 8.9 1.3 10.8.3 24-12.9 10.7-10.7 12.3-12.7 12.9-16.4 1.4-8.5-2.4-16-9.9-19.4-4.9-2.2-7.9-2.3-12.6-.2m84.5.4c-5.6 2.7-107.9 105-110.5 110.5-2.6 5.3-2.5 10 .3 14.9 3.4 6 7.8 8.5 14.9 8.5 4.6 0 6.7-.5 9.1-2.2 4.9-3.5 105.5-104.4 107.7-108.1 2.4-3.8 2.6-11.6.6-15.5-3-5.6-10.2-10.3-16-10.2-1.2.1-3.9 1-6.1 2.1m17 187.6c-6.7 3.5-9.5 8-9.5 15.4 0 6.2 2.9 11.2 8.5 14.4 4.1 2.4 4.7 2.5 24.8 2.5q20.55 0 23.4-1.2c6.3-2.7 11.3-9.6 11.3-15.8 0-5.8-4.7-12.8-10.7-15.9-1.4-.7-9.6-1.1-23.5-1.1-17.5.1-21.8.4-24.3 1.7m137-.5c-6 3.3-10.5 10.1-10.5 15.8 0 6.2 5 13.1 11.3 15.8q2.85 1.2 23.4 1.2c20.1 0 20.7-.1 24.8-2.5 5.6-3.2 8.5-8.2 8.5-14.6 0-7.1-2.9-11.8-9.2-15-3.3-1.7-6.1-1.9-25-1.9-13.6 0-22 .5-23.3 1.2"/></svg>