<svg xmlns="http://www.w3.org/2000/svg" width="1365.333" height="1365.333" viewBox="0 0 1024 1024"><path d="M15.5 5.7c-3 .5-8.1 3.6-10.2 6.3-.7.8-2.2 3.4-3.3 5.7-2 4.3-2 4.6-2 337.2 0 220.9.3 333.2 1 333.6.5.3 1 1.5 1 2.5 0 1.1 1.7 3.7 3.7 5.8 5.2 5.4 13.2 7.8 20.9 6.3 3-.6 7.8-1.5 10.6-2 2.9-.5 8.1-1.4 11.6-2 3.4-.6 9-1.6 12.5-2.2 13.5-2.4 16.4-2.9 22.7-3.9 3.6-.6 8.7-1.6 11.4-2.2 5-1.1 14.1-.6 23.6 1.2 3 .6 8 1.5 11 2s8.2 1.4 11.5 2 8.5 1.5 11.5 2 8.2 1.4 11.5 2c19.8 3.6 25.4 3.9 31.3 1.5 4.1-1.7 10.2-8.1 10.2-10.7 0-.9.5-2 1-2.3.6-.4 1-6.7 1-15.6V658h608v13.1c0 7.1.5 15.1 1.1 17.6 2.6 10 14.1 16.6 25.2 14.4 2.9-.6 8.1-1.5 11.7-2.1 3.6-.7 8.8-1.6 11.5-2 2.8-.5 7.9-1.4 11.5-2 13.7-2.4 16.7-2.9 23-4 3.6-.6 8.7-1.6 11.4-2.2 5-1.1 14.1-.6 23.6 1.2 3 .6 8 1.5 11 2s8.2 1.4 11.5 2 8.5 1.5 11.5 2 8.2 1.4 11.5 2c19.8 3.6 25.4 3.9 31.3 1.5 4.1-1.7 10.2-8.1 10.2-10.7 0-.9.4-2 1-2.3.7-.4 1-112.7 1-333.6 0-332.6 0-332.9-2-337.2-2.6-5.4-3.7-6.7-8-9.7l-3.5-2.5-496-.1c-272.8-.1-497.3.1-499 .3M91.8 49c1 9.5 5.5 27.5 9.2 36.5.5 1.1 1.7 4 2.7 6.5 10 24.9 30.8 52.1 52.3 68.2 3 2.3 6.7 5.3 8.3 6.7l2.7 2.5v243.8c0 222.2-.1 243.9-1.6 244.5-1.4.5-7.5-.3-20.4-2.7-2.5-.5-7.6-1.4-11.5-2.1-3.8-.7-7.6-1.9-8.2-2.8-1-1.2-1.3-49-1.3-231.7V188.2l-3.2-4.8c-8.1-11.9-25.1-12.1-33.3-.5l-3 4.3-.5 232.1c-.3 127.7-.6 232.2-.8 232.3-.1.1-2.3.4-4.9.8-2.7.3-7 1.1-9.8 1.6-12.3 2.3-19.3 3.3-23 3.4l-4 .1-.3-304.5c-.1-167.5 0-305.1.3-305.8.3-1 5.9-1.2 25.2-1l24.8.3zm251 2.1c.7 2.8 1.2 6 1.2 7.1 0 1.9 1 5.7 5.2 20.3.6 2.2 1.5 4.4 2 5 .4.5.8 1.5.8 2.2 0 .8 2 5.8 4.6 11.1 2.8 6 4.3 10.5 4 11.8-.7 2.6-13.7 15.1-23.1 22.1-23.8 17.9-58.3 27.5-87.3 24.4-6.4-.7-13.4-1.7-15.4-2.2-10.4-2.5-12.7-3.2-17.8-5.1-18.7-7-33.4-16.3-47-29.8-13.9-13.7-22.3-26.7-31-47.5-1.5-3.6-4.8-15.9-5.5-20.3l-.7-4.2h208.9zM640 48c0 4.8-6.9 26.9-9.2 29.5-.4.5-.8 1.4-.8 2.1 0 1.9-9.1 17.2-14.2 23.9-19.7 25.7-46 42-80.3 49.7-7.7 1.7-40.4 1.8-46 .1-2.2-.7-7.7-2.1-12.2-3.2-4.4-1.1-11.1-3.4-14.7-5.1-3.7-1.6-6.9-3-7.3-3-.3 0-4.9-2.5-10.1-5.7-7.7-4.6-20.6-14.5-25.7-19.8-4.2-4.4-12-14.3-16.1-20.5C399 89.5 392 76.2 392 74.6c0-.4-.9-2.5-1.9-4.9-1.1-2.3-2.5-6.7-3.1-9.7-.7-3-1.6-6.5-2.1-7.8S384 49 384 48c0-2 1.7-2 128-2 127.7 0 128 0 128 2m250.4 2.7c-2 14-11 34.7-21.2 48.9-13.2 18.5-30.5 33.2-49.7 42.4-32.2 15.6-64.5 17.8-98 6.8-11.2-3.7-26.2-11.7-36.4-19.3-9.5-7.2-22.1-19.5-22.1-21.6 0-.6 1.3-3.9 2.9-7.3 7.3-15.3 12-30.1 15.1-47.4l1.3-7.2h208.8zM982.5 352v305.5l-4-.1c-3.7-.1-10.7-1.1-23-3.4-2.7-.5-7.1-1.3-9.7-1.6-2.7-.4-4.9-.7-5-.8-.2-.1-.5-104.6-.8-232.3l-.5-232.1-3-4.3q-6-8.4-16.5-8.4c-7.3 0-12.6 2.8-16.7 8.9l-3.3 4.8v230.2c0 182.7-.3 230.5-1.2 231.7-.7.9-4.4 2.1-8.3 2.8-3.8.7-9 1.6-11.5 2.1-12.9 2.4-19 3.2-20.4 2.7-1.5-.6-1.6-22.3-1.6-244.5V169.4l2.8-2.5c1.5-1.3 4.7-4 7.2-5.9 23.6-17.9 41.5-41.3 54.3-71 4.5-10.4 10.7-33.5 10.7-39.9 0-1.5.3-3.1.7-3.5.4-.3 11.7-.5 25.2-.4l24.6.3zM394.8 150c23.5 22 51.6 36.7 81.7 42.8 15.7 3.2 17.8 3.4 39.1 2.9 22.5-.5 30.1-1.6 46.4-6.5 24-7.3 49.1-22 68.2-40 4.4-4.2 7.2-6.1 8-5.6.7.4 4.9 4 9.3 8 11.4 10.3 25.3 19.9 38 26.4 11.2 5.6 32.2 13 43 15 3.3.6 8 1.5 10.5 2.1 2.5.5 12.4.9 22 1 18 0 29.8-1.3 44-5 4.1-1 8.2-2 9-2.2 1.3-.4 1.5 23.9 1.8 213.3L816 616H208l.2-213.8c.3-189.4.5-213.7 1.8-213.3.8.2 3.1.7 5 1.2 1.9.4 5.5 1.3 8 1.9 11 2.7 23.6 3.9 40 4 9.6 0 19.1-.4 21-.9s6.9-1.4 11-2.1c10.7-1.8 29.8-8.3 42-14.3 12.6-6.1 29.6-17.9 40.5-28.1 4.4-4.2 8.5-7.4 9.2-7.3.6.1 4.2 3.1 8.1 6.7M192 723.5c-11.5 2-14.7 3-24 7.7-6.9 3.5-10.3 6.1-18.2 14.1-5.4 5.3-9.8 10.2-9.8 10.7s-1.3 3.1-2.8 5.7c-2.6 4.4-4.9 10.4-7.4 19.3-.6 1.9-1.3 14.3-1.7 27.5l-.6 24-15 .7c-8.2.5-16.1 1.2-17.5 1.7s-4.5 1.5-7 2.2-7.4 2.9-11 4.8c-17.6 9.3-29.8 24.1-36.7 44.9-2.5 7.7-2.6 7.8-3 49.5l-.5 41.7h-9c-10.6 0-15.4 1.2-20.1 5.1-4.1 3.4-7.7 10.5-7.7 15.4 0 3.4 2.7 10.3 5.3 13.5.7.9 2.8 2.7 4.7 4l3.5 2.5h997l3.5-2.5c1.9-1.3 4-3.1 4.7-4 2.6-3.2 5.3-10.1 5.3-13.5 0-4.9-3.6-12-7.7-15.4-4.7-3.9-9.5-5.1-20.1-5.1h-9l-.4-41.3c-.3-24.2-.9-42.4-1.5-44.2-.6-1.7-1.6-5-2.4-7.5-1.6-5.7-8.3-18.8-11.6-22.6-11.3-13.3-23-21.7-35.3-25.3-2.5-.7-5.6-1.7-7-2.2s-9.2-1.2-17.5-1.7l-15-.7-.6-24c-.4-13.2-1.1-25.6-1.7-27.5-2.5-8.9-4.8-14.9-7.4-19.3-1.5-2.6-2.8-5.2-2.8-5.7s-4.4-5.4-9.8-10.7c-7.9-8-11.3-10.6-18.2-14.1-16.2-8.2-23.9-9.2-71.5-9.2-37.3 0-46.4.6-58.9 3.8-6.4 1.7-17.7 7.9-25 13.7-3.8 3-7 5.5-7.2 5.5-.1 0-2.6-2-5.6-4.6-11.1-9.5-24.5-15.3-40.1-17.4-4.3-.5-24.4-1-44.7-1s-40.4.5-44.7 1c-8.7 1.2-20.1 4.5-25 7.2-9 4.9-11.1 6.3-15.7 10.4-2.8 2.4-5.3 4.4-5.6 4.4s-2.8-2-5.6-4.4c-4.6-4.1-6.7-5.5-15.6-10.4-5-2.7-16.4-6-25.1-7.2-4.3-.5-24.4-1-44.7-1s-40.4.5-44.7 1c-9.8 1.3-20.4 4.6-26.6 8.2-2.6 1.5-5.1 2.8-5.4 2.8-.4 0-3.2 2.2-6.2 4.8-3.1 2.7-6.1 5.1-6.7 5.5-.7.4-4.3-1.8-8-4.8-7.3-5.9-18.6-12-25-13.7-12.7-3.2-21.4-3.8-59.9-3.7-26.9.1-41.3.5-46.5 1.4m95 41.8c7.6 2.7 15 8.8 18.7 15.7 3.8 6.9 4.4 11.7 4.1 32l-.3 19.5-15.3.7c-12.4.6-16.7 1.2-23 3.3-9.6 3.3-19.2 8.5-25.7 14.2-2.7 2.4-5.4 4.3-6 4.3-.5 0-3.2-2-6-4.4-2.7-2.5-6.8-5.4-9-6.6s-5.6-3-7.5-4c-8-4.2-17-6.1-31.7-6.7-10.2-.4-14.6-1-15.4-2-1.7-1.9-.6-40.6 1.2-45.5 3.2-8.6 12-17.4 20.2-20.4 4.7-1.7 90.9-1.8 95.7-.1m184.4 1.1c10.3 4.6 17.3 13.9 19.5 26.1 1.6 8.5 1.5 38-.1 39.2-.7.6-7.7 1.3-15.6 1.6-21 1-34.2 5.7-47.8 17.3-2.8 2.4-5.6 4.4-6.3 4.4-.6 0-2.8-1.5-4.8-3.3-7.1-6.3-17.7-12.4-25.3-14.6-2.5-.7-5.6-1.7-7-2.2s-9.2-1.2-17.5-1.7l-15-.7v-22c0-21.6.1-22.1 2.6-27.5 3.9-8.2 10.4-14.1 19.4-17.6 2.1-.8 16.5-1.2 47.7-1.3l44.7-.1zm178.6-1.1c8.6 3.1 16 9.7 19.7 17.6 2.6 5.4 2.7 6.3 3.1 27.3l.4 21.7-2.4.5c-1.2.3-8.3.7-15.7 1-10.4.5-14.9 1.2-20.7 3.1-9.7 3.2-18.1 7.9-25 13.7-3.1 2.7-6 4.8-6.5 4.8s-3.8-2.4-7.3-5.3c-6.7-5.4-16.2-10.7-23.1-12.8-2.2-.6-5.1-1.6-6.4-2.1s-8.9-1.1-17-1.5c-8-.3-15.2-1-15.8-1.6-1.7-1.2-1.8-30.7-.2-39.2 2.2-12.1 9.1-21.4 19.2-26l5.2-2.4H602c33.5-.1 45.4.2 48 1.2m182 0c8.5 3 15.9 9.7 20.1 18.6 2.1 4.3 2.3 5.9 2.3 26.6l.1 22-15 .7c-16.6.9-25.7 3.1-36.2 8.9-5.2 2.8-12.4 8-16.1 11.6-2.1 2-3.4 1.6-8.7-3-6.5-5.6-16.1-10.9-25.6-14.1-6.2-2.1-10.6-2.7-23-3.3l-15.4-.8-.3-18c-.3-18.9.5-26 4-32.8 3.1-6.2 8.6-11.5 15.2-14.7l6.1-2.9 44.5-.1c32.8 0 45.4.4 48 1.3M194.9 875.6c10.2 3.5 16.7 9.2 20.9 18.2l2.7 5.7v78h-140l-.3-34c-.4-43.6.4-49.2 9.1-58.3 4.6-4.9 8.4-7.4 14.1-9.3 4.5-1.6 10-1.8 47.1-1.8 35.1-.1 42.7.2 46.4 1.5m182.4.3c10 3.2 18 11.1 21.4 21 .9 2.7 1.3 13.7 1.3 42.3V978H260v-37.6c0-32.2.2-38.2 1.7-42.6 3.3-10.2 10.6-17.8 20.8-21.7 4.6-1.8 8.4-1.9 47.1-2 38.4-.1 42.6.1 47.7 1.8m179.8-.8c6.7 2.1 12 5.3 15.8 9.4 3.6 3.9 4.8 6 8 13.8.7 1.9 1.1 14.8 1.1 41.2V978H442v-38.5c0-26.4.4-39.3 1.1-41.2 3.2-7.8 4.4-9.9 8-13.8 3.7-4 9-7.2 15.4-9.3 4.3-1.5 86.2-1.5 90.6-.1m183.1.6c10.6 3.4 18.7 11.5 22.1 22.1 1.5 4.4 1.7 10.4 1.7 42.6V978H624v-38.8c0-28.6.4-39.6 1.3-42.3 3.4-9.7 11.4-17.7 21-21 4.6-1.6 9.7-1.8 47-1.8 36.3-.1 42.5.1 46.9 1.6m181.2-.2c6.6 2 10.7 4.7 15.9 10.5 7.9 8.8 8.2 10.8 8.2 54v37.5h-140v-78l2.7-5.8c3.1-6.6 9.9-13.6 15.5-15.9 2.1-.9 4.9-2 6.3-2.6 1.6-.7 17.7-1.1 44.5-1.1 34.3-.1 42.9.2 46.9 1.4"/></svg>