<svg xmlns="http://www.w3.org/2000/svg" width="1365.333" height="1365.333" viewBox="0 0 1024 1024"><path d="M24.9 40.9c-2.8 1.7-5.1 4.2-6 6.2-1.2 2.9-1.4 52-1.4 349.9s.2 347 1.4 349.9c.9 2 3.2 4.5 6 6.2l4.5 2.9h34.8c32.8 0 35.1-.1 39.1-2 2.4-1.1 5.1-3.4 6.2-5.3 2-3.1 2-7.3 2.5-267.7l.5-264.5h84l.5 36.6.5 36.6 2.8 3.6c5.4 7.2-4.5 6.7 142.7 6.7 144.7 0 136.6.3 142.1-5.7 4.4-4.7 4.9-9.6 4.9-45.2V216h44v33.6c0 36.1.4 39.8 4.9 44.7 5.5 6-2.6 5.7 142.1 5.7 147.2 0 137.3.5 142.7-6.7l2.8-3.6.5-36.6.5-36.6h84L912 481c.5 260.4.5 264.6 2.5 267.7 1.1 1.9 3.8 4.2 6.2 5.3 4 1.9 6.3 2 39.1 2h34.8l4.5-2.9c2.8-1.7 5.1-4.2 6-6.2 2.1-5.1 2.1-694.7 0-699.8-.9-2-3.2-4.5-6-6.2l-4.5-2.9h-34.8c-32.8 0-35.1.1-39.1 2-8.2 3.9-8.1 3.6-8.7 45l-.5 36.5h-84l-.5-36.6-.5-36.6-2.8-3.6c-5.4-7.2 4.5-6.7-142.7-6.7-144.7 0-136.5-.3-142.2 5.7-4.4 4.7-4.8 8.4-4.8 44.5V122h-44V88.4c0-36.1-.4-39.8-4.9-44.7-5.5-6 2.6-5.7-142.1-5.7-147.2 0-137.3-.5-142.7 6.7l-2.8 3.6-.5 36.6-.5 36.6h-84L112 85c-.6-41.4-.5-41.1-8.7-45-4-1.9-6.3-2-39.1-2H29.4zM80 397v327.1l-15.2-.3-15.3-.3-.3-325.5c-.1-179 0-326.1.3-326.8.3-.9 4.4-1.2 15.5-1.2h15zm377.5-228v98.5h-228l-.3-97.5c-.1-53.6 0-98.1.3-98.8.3-1 23.7-1.2 114.2-1l113.8.3zm337 0v98.5h-228l-.3-97.5c-.1-53.6 0-98.1.3-98.8.3-1 23.7-1.2 114.2-1l113.8.3zm180 228v326.5l-15.2.3-15.3.3V69.9l15.3.3 15.2.3zm-778-228v14.5h-84l-.3-13.4c-.1-7.4 0-14.1.2-14.8.4-1.1 8.6-1.3 42.3-1.1l41.8.3zm337.5 0v15h-44v-30h44zm377.5 0v14.5h-84l-.3-13.4c-.1-7.4 0-14.1.2-14.8.4-1.1 8.6-1.3 42.3-1.1l41.8.3zM306.8 83.6c-3.7 2-6.5 6.2-7.7 11.5-.6 2.4-1.1 14.9-1.1 27.6V146h-9c-8 0-9.5.3-13.1 2.6-2.6 1.6-4.7 4.1-6 6.7-2.1 4.8-2.3 7.2-.9 11.3 1.6 4.7 62.1 84.5 65.9 87.1 6.2 4.2 14.5 2.8 20.2-3.4 4.5-4.7 60.3-79.6 61.7-82.6 2.5-5.6 1.4-11-3.3-16.5-3.5-4.2-6.8-5.2-16.5-5.2h-9v-25.3c0-24.2-.1-25.5-2.2-29.7-1.3-2.5-3.8-5.5-5.7-6.7-3.4-2.3-3.7-2.3-37-2.2-27 .1-34.1.4-36.3 1.5m49.2 56.5c0 17.3.4 26.8 1.1 28.2 1.6 3 6 7.7 7.4 7.7.6 0 1.9.6 3 1.3 1.7 1.3.9 2.6-11 18.5-7 9.5-13.1 17.2-13.4 17.2s-6.4-7.8-13.4-17.2l-12.8-17.1 4.3-2.4c2.4-1.3 5.3-3.9 6.6-5.8 2.1-3.4 2.2-4.2 2.2-29.3 0-14.2.3-26.2.7-26.5.3-.4 6.2-.7 13-.7H356zm287.9-55.8c-1.9 1.2-4.4 4.2-5.6 6.7-2.2 4.2-2.3 5.5-2.3 29.7V146h-9c-9.7 0-13 1-16.5 5.2-3.3 3.8-4.5 6.6-4.5 10.2 0 1.9.6 4.8 1.3 6.3 1.3 3 57.1 77.9 61.6 82.6 5.7 6.2 14 7.6 20.2 3.4 4.5-3 64.2-82.5 65.9-87.8 2.2-6.7-1.5-15-8.2-18.3-2.1-1.1-5.9-1.6-11.9-1.6h-8.8l-.3-25.8c-.3-29.1-.8-31.3-7.9-35.8L714 82h-33.3c-33 0-33.4 0-36.8 2.3M694 141c.6 30.1.8 30.9 8.7 35.3l4.4 2.4-12.8 17.1c-7 9.4-13.1 17.2-13.4 17.2s-6.4-7.7-13.4-17.2c-11.9-15.9-12.7-17.2-11-18.5 1.1-.7 2.4-1.3 3-1.3 1.4 0 5.8-4.7 7.4-7.7.7-1.4 1.1-10.9 1.1-28.3v-26.1l12.8.3 12.7.3zM298.5 428.5c-6.2 2.9-5.5 1.9-19.6 29.2-5.1 9.8-12.2 23.6-15.9 30.8-6.3 12.1-10.4 20-29.5 57-4.1 8-10.9 21-15 29s-10.8 20.9-14.9 28.7c-4 7.9-10.8 20.9-15 29-4.2 8.2-11 21.4-15.2 29.5-11.8 22.7-21.9 42.4-29.9 57.8-4 7.7-10.7 20.6-14.9 28.7-4.2 8.2-11 21.3-15.1 29.3s-10.9 21-15 29-10.9 21.1-15.1 29.2c-9.7 18.8-20.6 39.9-30 58-4.1 7.9-10.8 20.9-15.1 29-18.1 35-22.3 43.9-22.3 47.1 0 5.1 3.4 10.8 8.3 13.7l4.4 2.5h966.6l4.4-2.5c4.9-2.9 8.3-8.6 8.3-13.7 0-3.2-3.9-11.5-17.5-37.3-3.2-6.1-8.2-15.6-11.1-21.3-13.6-25.9-16.8-31.9-22-42-3.1-5.9-7.8-14.8-10.4-19.7-2.6-5-7.6-14.4-11-21s-8.4-16.1-11-21c-2.6-5-7.3-13.8-10.4-19.8-3.1-5.9-8.1-15.4-11.1-21.2s-8-15.2-11-21-8-15.2-11-21-8-15.2-11-21-8-15.3-11.1-21.3c-3.1-5.9-7.8-14.8-10.4-19.7-2.6-5-7.6-14.4-11-21s-8.4-16.1-11-21c-2.6-5-7.6-14.4-11-21s-8.4-16.1-11-21c-2.6-5-7.6-14.4-11-21s-8.4-16.1-11-21c-2.6-5-7.2-13.7-10.2-19.5-5.3-10-9.6-18.2-22.4-42.8-3.1-5.9-8.4-15.9-11.6-22.2-7.9-15.1-11.3-20.4-14.6-22.7-2.6-1.7-11-1.8-212.7-2-179.2-.2-210.4 0-213 1.2m33.4 32.7c0 1.3-44.3 112.5-98.2 247.3l-98.2 245-38.2.3c-21.1.1-38.3-.1-38.3-.6 0-.4 1.4-3.4 3.1-6.7s6.8-13.2 11.4-22c19.9-38.5 24.1-46.7 30.5-59 3.7-7.2 10.4-20 14.7-28.5 4.4-8.5 11.5-22.1 15.7-30.3 4.2-8.1 11-21.2 15.1-29.2s10.9-21.1 15.1-29.3c4.2-8.1 11-21.2 15.2-29.2 4.1-8 10.5-20.4 14.2-27.5 3.7-7.2 10.4-20 14.7-28.5 4.4-8.5 11.4-22 15.5-30 4.2-8 11-21.3 15.3-29.5 4.3-8.3 10.8-20.9 14.5-28 3.7-7.2 10.5-20.2 15-29s11.3-21.9 15-29c3.7-7.2 10.7-20.7 15.5-30 4.8-9.4 10.1-19.6 11.8-22.8l3.1-5.7h8.8c8.5 0 8.8.1 8.7 2.2m323.7 3.5c1.4 3.2 3 6.7 3.4 7.8s1.3 3.3 2 5c1.4 3.3 2.9 7 4 10 .5 1.1 1.5 3.6 2.3 5.5s6.1 15 11.7 29 10.9 27.1 11.7 29c2.2 5.2 4.6 10.9 6.3 15.5.5 1.1 1.5 3.6 2.3 5.5s6.1 15 11.7 29 10.9 27.1 11.7 29 1.9 4.5 2.4 5.7c.5 1.3 1.4 3.4 1.9 4.8.6 1.4 1.4 3.5 1.9 4.7.5 1.3 1.6 3.9 2.4 5.8s6.1 15 11.7 29 10.9 27.1 11.7 29 1.9 4.5 2.4 5.7c.5 1.3 1.4 3.4 1.9 4.8.6 1.4 1.4 3.5 1.9 4.7 1.1 3 2.6 6.5 4.4 10.8.8 1.9 6.1 15 11.7 29s10.9 27.1 11.7 29c1.8 4.3 3.3 7.8 4.4 10.7.5 1.3 1.4 3.5 2 5 .7 1.6 1.5 3.7 1.9 4.8.5 1.1 1.5 3.6 2.3 5.5s6.1 15 11.7 29 10.9 27.1 11.7 29 1.8 4.4 2.3 5.5c1.7 4.6 4.1 10.3 6.3 15.5 3.8 8.8 21.7 54.1 21.7 55 0 1.1-681.2 1.5-682.3.4-.3-.3-.2-1.4.2-2.3.9-1.7 2.7-5.9 4.4-10.1.5-1.4 1.3-3.3 1.8-4.2.5-1 .9-2.3.9-2.8 0-.6.9-3 2-5.2 1.1-2.3 2-4.5 2-5s.9-3 2.1-5.6 2.6-5.8 3.1-7.2c.6-1.4 1.4-3.3 1.9-4.2.5-1 .9-2.2.9-2.8s.9-2.9 1.9-5.3c1-2.3 40.7-101.4 88.1-220.2 47.5-118.8 86.7-216.8 87.2-217.8.8-1.6 8.7-1.7 143.3-1.7H653zm52.4-2.2c1.6 2.8 8.4 15.8 19.8 37.5 2.7 5.2 7.5 14.3 10.6 20.2 3.1 6 8.1 15.6 11.2 21.5 3.1 6 8.1 15.5 11.2 21.3 3 5.8 7.9 15.2 11 21 3 5.8 7.9 15.1 10.8 20.7 3 5.7 7.8 14.9 10.8 20.5 2.9 5.7 7.8 15 10.8 20.8 3.1 5.8 8 15.2 11 21 3.1 5.8 8.1 15.4 11.3 21.5 3.2 6 7.9 15 10.5 20 2.6 4.9 7.6 14.4 11 21s8.4 16 11 21c2.6 4.9 7.6 14.4 11 21s8.4 16 11 21c2.6 4.9 7.6 14.4 11 21s8.4 16 11 21c2.6 4.9 7.8 14.8 11.5 22 3.7 7.1 8.5 16.1 10.5 20 2 3.8 6.8 12.8 10.5 20 3.7 7.1 8.7 16.6 11 21 15.4 29.2 18.4 35.3 17.8 35.9-.3.3-17.5.6-38.2.6h-37.6l-1.3-3.2c-2.9-7.1-3.3-8.1-6.1-15.1-.5-1.2-1.6-3.8-2.4-5.7s-6.1-15-11.7-29-10.9-27.1-11.7-29c-2.2-5.2-4.6-10.9-6.3-15.5-.5-1.1-1.5-3.6-2.3-5.5s-6.1-15-11.7-29-10.9-27.1-11.7-29c-1.5-3.6-2.6-6.2-4.2-10.3-2-5.1-4.2-10.5-6.4-15.7-.8-1.9-6.1-15-11.7-29s-10.9-27.1-11.7-29-1.9-4.5-2.4-5.8c-.5-1.2-1.3-3.3-1.9-4.7-.5-1.4-1.4-3.6-2-5-.5-1.4-1.4-3.5-1.9-4.8-.5-1.2-1.6-3.8-2.4-5.7s-6.1-15-11.7-29-10.9-27.1-11.7-29-1.9-4.5-2.4-5.8c-.5-1.2-1.3-3.2-1.8-4.5-.5-1.2-1.6-3.8-2.4-5.7s-7-17.2-13.7-34-12.9-32.1-13.7-34-1.8-4.4-2.3-5.5c-1-2.7-2.5-6.2-4.3-10.5-.8-1.9-6.1-15-11.7-29s-10.8-26.7-11.5-28.2-1.6-4.2-2-5.8l-.7-3.1 8.8.3c8.5.3 8.8.4 10.4 3.3m-201.5 27.2c-2.6.7-7.3 5.1-9.1 8.5-1.1 2.1-1.4 8-1.4 26.5 0 22.3.1 24 2.1 27.2 3.9 6.4 6.7 8.1 13.9 8.1s10-1.7 13.9-8.1c2-3.2 2.1-4.9 2.1-27.2 0-25.8-.1-26.7-5.8-32-2.3-2.2-4.1-2.9-8.3-3.2-3-.2-6.3-.1-7.4.2m0 120c-2.6.7-7.3 5.1-9.1 8.5-1.1 2.1-1.4 8-1.4 26.5 0 22.3.1 24 2.1 27.2 3.9 6.4 6.7 8.1 13.9 8.1s10-1.7 13.9-8.1c2-3.2 2.1-4.9 2.1-27.2 0-25.8-.1-26.7-5.8-32-2.3-2.2-4.1-2.9-8.3-3.2-3-.2-6.3-.1-7.4.2m0 120c-2.6.7-7.3 5.1-9.1 8.5-1.1 2.1-1.4 8-1.4 26.5 0 22.3.1 24 2.1 27.2 3.9 6.4 6.7 8.1 13.9 8.1s10-1.7 13.9-8.1c2-3.2 2.1-4.9 2.1-27.2 0-25.8-.1-26.7-5.8-32-2.3-2.2-4.1-2.9-8.3-3.2-3-.2-6.3-.1-7.4.2m0 120c-2.6.7-7.3 5.1-9.1 8.5-1.1 2.1-1.4 8-1.4 26.5 0 22.3.1 24 2.1 27.2 3.9 6.4 6.7 8.1 13.9 8.1s10-1.7 13.9-8.1c2-3.2 2.1-4.9 2.1-27.2 0-25.8-.1-26.7-5.8-32-2.3-2.2-4.1-2.9-8.3-3.2-3-.2-6.3-.1-7.4.2"/></svg>