<svg xmlns="http://www.w3.org/2000/svg" width="1365.333" height="1365.333" viewBox="0 0 1024 1024"><path d="M526.6 30.1c-3.3 1.1-8 3.5-10.5 5.2-5.9 4-87 61.8-93.6 66.7-4.4 3.3-11.7 8.5-35.3 25.3-3.7 2.6-9.8 7-13.7 9.7-3.8 2.7-9.2 6.6-12 8.5-2.7 1.9-5.7 4.1-6.6 4.9-.9.7-4.4 3.3-7.9 5.7-3.4 2.4-9.2 6.5-12.9 9.2-8 5.7-18.3 13-27.3 19.4-3.7 2.7-25.2 18.1-47.8 34.3s-44.1 31.6-47.8 34.3c-8 5.6-18.1 12.9-27.7 19.7-12.3 8.8-20.9 14.9-25.7 18.3-2.5 1.8-6.1 4.4-7.8 5.7s-5.3 3.9-7.8 5.7c-5 3.5-14.5 10.3-25.3 18-3.7 2.7-8.9 6.3-11.5 8.2C83 344.6 80 348.3 80 359.9c0 8.9.6 10 24.3 43 11.3 15.8 14.6 19.1 21.6 21.6 8.6 3 17.3.9 27.1-6.6 8.8-6.8 17-12 18-11.4.6.4 1 34.1 1 94.5 0 91.8 0 94-1.9 95-1.3.6-22 1-60.3 1-39.4 0-59.6.4-62.3 1.1-5.2 1.4-13.8 10-15.6 15.4-1 3-1.4 17.7-1.9 60.5l-.5 56.5-6.9.8c-9.5 1-16.1 5.6-20.2 14.1l-2.4 5v77.3c0 77.2 0 77.3 2.2 81.9C4.7 915 10 920.5 15 922.8c3.2 1.6 23.4 1.7 260 2l256.5.2 1.8 4.5c2 4.7 7.3 10.5 12.2 13.2 2.3 1.2 6.6 1.7 17.5 2.1 8.6.2 14.8.9 15.2 1.5.3.6.9 3.1 1.3 5.6 1.5 10.9 8.8 23.8 17.7 31.3 5.2 4.4 15 9.6 21.9 11.7 4.6 1.4 22.3 1.4 26.8 0 6.5-2.1 16.2-7.1 21-10.9 9.9-7.9 18.3-23.2 19.3-35.5l.3-3h124l.8 4c4.8 23.1 18.3 38.6 39.3 45 6.4 1.9 22.4 1.9 28.8 0 8.5-2.6 15.8-6.7 22-12.6 9.2-8.6 14.2-18 17.3-32.4l.8-4 19-.6c13.8-.4 19.7-.9 21.5-2 4.8-2.7 7.8-5.6 10.9-10.4l3.1-4.9V677.1l5.3-7.8c5.7-8.4 15.1-21.7 24.7-35.3 16.8-23.5 20-28.8 20-33 0-10.1-11.6-17.8-20.7-13.8-3.6 1.7-6.1 4.1-10.3 10.3-1.8 2.7-8.3 12-14.4 20.5-6 8.5-14.1 20-18 25.5-3.8 5.5-8.6 12.3-10.7 15-2.1 2.8-4.3 7.1-4.8 9.5-.7 2.9-1.1 38-1.1 100.2V864h-30v-79.5c0-87 .3-82-6-88-2.7-2.6-3.8-3-8.8-2.9-6.5 0-10.4 2-13 6.8-1.5 2.7-1.8 7.5-2.2 34.6l-.5 31.5h-80l-.5-39c-.6-43.3-.3-41.4-7.6-49.5-5-5.5-12.2-8-22.9-8H764v-79.4c0-87.8.4-82.9-6.6-90.5-1.9-2.2-5.5-4.9-7.9-6L745 492H542.6c-220.6 0-205.4-.4-212.5 5.6-1.7 1.4-4.4 4.7-5.9 7.3l-2.7 4.6L321 702l-.5 192.5h-48l-.5-19c-.3-10.5-.9-19.9-1.4-21-3.9-8.8-15-11.8-22.9-6.3-4.8 3.4-5.2 5-5.7 26.3l-.5 20h-211V760.9h31.3c17.1 0 31.6.1 32.1.1s1.1 9.6 1.3 21.3l.3 21.3 3.5 4.8c6.2 8.6 7.8 9.1 35.5 9.4 26.5.3 28.2 0 35-5.9 6-5.3 6.5-7.7 6.5-30 0-11.4.4-20 1-20.4.5-.3 14.9-.6 32-.6s31.5.3 32 .6c.6.4 1 7.6 1 16.6 0 17.5.6 20.1 5.7 23.7 8.2 5.8 19.1 2.5 23.1-7.1 1.6-3.7 1.6-38.1 0-44.5-2.5-10.1-10.6-17.6-20.4-18.8-2.7-.3-5.9-.7-7.1-1l-2.3-.4v-56.3c-.1-44.3-.4-57-1.4-60-1.9-5.2-6-10.3-10.9-13.4-3.7-2.4-5.5-2.8-15.2-3.2l-11-.6-.2-107-.3-107 4.8-3.2c8.1-5.6 14.6-10.3 16.3-11.7.9-.7 4.4-3.3 7.9-5.7 6.4-4.5 10.6-7.5 30.7-21.8 19.8-14.2 24.4-17.5 28.7-20.6 4.2-3.1 92.3-66.1 104.4-74.8 8.6-6 18.9-13.4 27.3-19.4 3.7-2.7 9.5-6.8 13-9.2 3.5-2.5 6.6-4.7 6.9-5.1s3.4-2.6 6.9-5.1c3.5-2.4 9.3-6.5 13-9.2 3.6-2.6 9.8-7 13.6-9.7 3.9-2.7 10.2-7.2 14-10 3.9-2.8 10.2-7.2 14-10 3.9-2.7 13.9-9.9 22.3-15.9 8.5-6.1 16-11.1 16.9-11.1 1.3 0 8.5 4.5 12.3 7.7.8.7 3.8 2.9 6.5 4.8 4.9 3.5 12.3 8.7 26 18.5 9.7 6.9 19.8 14.1 27.7 19.7 3.7 2.7 28.3 20.3 54.8 39.3s51.1 36.6 54.8 39.3c8.9 6.3 19.2 13.6 27.3 19.4 3.7 2.7 9.5 6.8 13 9.2 3.5 2.5 6.6 4.7 6.9 5.1s3.4 2.6 6.9 5.1c3.5 2.4 9.3 6.5 13 9.2 7.9 5.6 18.1 12.9 27.3 19.4 3.7 2.7 19.8 14.2 35.7 25.6l29.1 20.8v129.4c0 128.6 0 129.4 2.1 132.9 3 5.2 6.5 7 13.1 7 5 .1 6.1-.3 8.8-2.9 6.4-6.1 6 2.7 6-126 0-83.6.3-117.5 1.1-117.5 1 0 5.2 2.9 18.3 12.5 9.5 7 17.1 8.8 25.6 6 6.5-2.2 11.8-6.8 18.1-16 2.7-3.8 7.1-10.2 9.9-14 19.7-27.6 21.3-31.4 17-42.7-1.2-3.3-3.6-6.9-6.2-9.4-3.5-3.4-30.3-22.8-76.6-55.7-7.8-5.5-17.8-12.6-27.7-19.7-13.7-9.8-21.1-15-26-18.5-2.7-1.9-5.7-4.1-6.6-4.9-.9-.7-4.5-3.3-8-5.6-3.5-2.4-6.6-4.6-6.9-5s-3.4-2.6-6.9-5.1c-3.5-2.4-9.3-6.5-13-9.2-8-5.7-18.3-13-27.3-19.4-3.7-2.7-25.2-18.1-47.8-34.3s-44.1-31.6-47.8-34.3c-8-5.6-18.1-12.9-27.7-19.7-13.7-9.8-21.1-15-26-18.5-2.7-1.9-5.7-4.1-6.6-4.9-.9-.7-4.4-3.3-7.9-5.7-3.4-2.4-9.2-6.5-12.9-9.2-3.6-2.6-10-7-14.1-9.9-4.1-2.8-7.7-5.4-8-5.8s-3.2-2.5-6.5-4.8-9.6-6.7-14-9.9c-10.7-7.8-14.4-9.9-21.7-12.3-8.3-2.7-22.9-2.7-31.2.1M559.2 65c5.6 3.8 13.5 9.2 17.3 12 9.2 6.6 19.9 14.2 25.7 18.3 2.5 1.8 6.1 4.4 7.8 5.7s5.3 3.9 7.8 5.7c2.6 1.8 7.9 5.6 11.7 8.3 7.8 5.6 14.8 10.6 32.2 22.9 6.5 4.6 13.4 9.6 15.3 11 3 2.3 84.9 61 103.8 74.4 8.6 6 18.9 13.4 27.3 19.4 3.7 2.7 9.5 6.8 12.9 9.2 3.5 2.4 7 5 7.9 5.7.9.8 3.9 3 6.6 4.9 4.9 3.5 12.3 8.7 26 18.5 9.9 7.1 19.9 14.2 27.7 19.7 51.4 36.5 83.7 60 83.8 60.9 0 .6-2.1 4.1-4.7 7.6-6.7 9.2-15.3 21.2-16.3 22.8-.4.7-1.5 1-2.3.7-.9-.3-18.7-12.9-39.7-27.9-20.9-15-41.1-29.4-44.8-32.1-7.6-5.4-17.5-12.4-27.7-19.7-3.8-2.8-10.1-7.3-14-10-3.8-2.7-10-7.1-13.6-9.7-3.7-2.7-9.5-6.8-13-9.2-3.5-2.5-6.6-4.7-6.9-5.1s-3.4-2.6-6.9-5.1c-3.5-2.4-9.3-6.5-13-9.2-8-5.7-18.3-13-27.3-19.4-3.7-2.7-25.2-18.1-47.8-34.3s-44.1-31.6-47.8-34.3c-8-5.6-18.1-12.9-27.7-19.7-12.3-8.8-20.9-14.9-25.7-18.3-2.5-1.8-6.1-4.4-7.8-5.7-9-6.9-31.8-22.3-35.3-23.8-4.2-1.8-13.2-1.5-17.7.7-2.1 1-15.4 10.1-29.5 20.2s-28.6 20.5-32.3 23.2c-8.9 6.3-19.2 13.6-27.3 19.4-3.7 2.7-9.5 6.8-13 9.2-3.5 2.5-6.6 4.7-6.9 5.1s-3.4 2.6-6.9 5.1c-3.5 2.4-9.3 6.5-13 9.2-8.1 5.8-18.4 13.1-27.3 19.4-3.7 2.7-28.3 20.3-54.8 39.3s-51.1 36.6-54.8 39.3c-7.9 5.6-18 12.8-27.7 19.7-3.8 2.8-10.1 7.3-14 10-8.7 6.2-18.3 13.1-26.5 19s-17.8 12.8-26.5 19c-11.2 8-19.8 14.1-28.4 20.2-4.4 3.2-8.5 5.8-9 5.8-.8 0-5.3-6-20.4-27.1-1.6-2.1-2.5-4.4-2.2-4.9.4-.6 3.9-3.3 7.8-6 4-2.8 10.4-7.2 14.2-10 12.3-8.8 20.9-14.9 25.7-18.3 2.5-1.8 6.1-4.4 7.8-5.7s5.3-3.9 7.8-5.7c4.8-3.4 13.4-9.5 25.7-18.3 9.6-6.8 19.7-14.1 27.7-19.7 3.7-2.7 25.2-18.1 47.8-34.3s44.1-31.6 47.8-34.3c8-5.6 18.1-12.9 27.7-19.7 12.3-8.8 20.9-14.9 25.7-18.3 2.5-1.8 6.1-4.4 7.8-5.7s5.3-3.9 7.8-5.7c4.8-3.4 13.4-9.5 25.7-18.3 10-7.2 20-14.3 27.7-19.7 3.7-2.7 24.4-17.4 46-32.9s40.2-28.6 41.3-29.2 4.8-1.2 8.2-1.2c5.9 0 6.4.2 16.5 7M734 536v14h-43c-30.9 0-43.7.3-45.7 1.2-9.5 4-12.9 14.9-7.1 23.1 3.7 5.2 3.2 5.2 50.8 5.7l44.5.5.3 14.3.3 14.2-191.3-.2-191.3-.3v-28l117-.5c90.9-.4 117.5-.8 119.2-1.7 1.2-.7 3-2.5 4.1-4 5.8-8.2 2.4-19.1-7.1-23.1-2.1-.9-31.3-1.2-118.2-1.2H351v-13.3c0-7.4.3-13.7.7-14 .3-.4 86.5-.7 191.5-.7H734zm-524.2 91c.9 0 1.2 11 1.2 51.4 0 45.9-.2 51.5-1.6 52-2.9 1.1-145.4.7-147.5-.4-1.8-1-1.9-2.7-1.9-51.5 0-42.6.2-50.5 1.4-51.2 1.1-.6 101.7-.8 148.4-.3m524 27.7.3 15.3h-39.2c-27.3 0-40.4.4-43.3 1.2-5.1 1.5-9.6 4.4-12.7 8.3-5.6 7-5.4 5.2-5.9 47.5l-.5 39.5-5.5.8c-6.9.9-10.6 2.7-15.1 7-7.5 7.3-7.4 6.6-7.7 50.5l-.3 39.2h-26.4c-25 0-26.8.1-31.1 2.1-9 4.3-14.4 12.2-14.4 21.2 0 3.4-.5 5.9-1.4 6.6-.9.8-7.2 1.1-20.2.9l-18.9-.3-.5-94.5c-.5-86.1-.7-94.8-2.2-98.1-2.2-4.6-6.4-9.1-11.4-12.1l-3.9-2.3-61-.5-61-.5-.3-22.5c-.1-12.3 0-23 .2-23.7.4-1.1 37.4-1.3 191.3-1.1l190.8.3zm39 76.8c.1 17 0 32-.3 33.3l-.5 2.2-54.3-.2-54.2-.3-.3-32c-.1-17.6 0-32.6.3-33.2.3-1.1 11.6-1.3 54.7-1.1l54.3.3zm-312.3 23v37h-109l-.3-36c-.1-19.8 0-36.6.3-37.3.3-1 11.7-1.2 54.7-1l54.3.3zm-314.7 19.9.3 13.7-10.3-.3-10.3-.3-.3-12.4c-.1-6.8.2-12.8.7-13.5.6-.7 4.3-1.1 10.3-1l9.3.2zm597.7 56.1v33h-109l-.3-32c-.1-17.6 0-32.6.3-33.2.3-1.1 11.6-1.3 54.7-1.1l54.3.3zm140 0v33h-109l-.3-33.3-.2-33.2 54.7.2 54.8.3zm-423 28v36h-109l-.3-35c-.1-19.2 0-35.6.3-36.3.3-1 11.7-1.2 54.7-1l54.3.3zm483.5 46V915H562v-21h382zm-288.3 42.2c.8 1.9-3 9.3-6.6 12.9-4.5 4.6-9.4 6.4-16.9 6.4-5.8 0-7.5-.4-11.3-2.9-5.6-3.6-8.4-6.7-10.4-11.5-2.8-6.7-3.1-6.6 22-6.6 20.1 0 22.6.2 23.2 1.7m232.3 1.1c0 5.7-6.8 13.8-14.3 17-3.6 1.5-13.8 1.5-17.4 0-7.5-3.2-14.3-11.3-14.3-17V945h46zM335.6 340c-5.2 2.6-8.2 5.5-11.4 11l-2.7 4.5v79l2.7 4.6c3.2 5.4 7.5 9.3 12.5 11.4 5.4 2.3 77.4 2.2 82.8-.1 8.2-3.4 13.2-9.2 15.3-17.6.8-3.1 1.2-15.9 1.2-37.8s-.4-34.7-1.2-37.8c-2.1-8.4-7.1-14.2-15.3-17.6-3.2-1.4-9.4-1.6-41.9-1.6-35.8.1-38.3.2-42 2m69.9 55v26.5h-54l-.3-25.5c-.1-14 0-26 .3-26.7.3-1.1 6.2-1.3 27.2-1.1l26.8.3zm94.9-55c-5.1 2.2-10.8 7.8-13.1 12.8-1.6 3.3-1.8 7.7-1.8 42.2 0 43-.1 42.4 7.1 49.6 7.4 7.3 7.9 7.4 50.4 7.4 41.9 0 41.6 0 49-6.6 2.5-2.2 4.7-5.6 6-9 1.9-5.1 2-7.7 2-41.4s-.1-36.3-2-41.4c-1.3-3.4-3.5-6.8-6-9-7.4-6.6-7.1-6.6-49.4-6.5-34.7 0-38.5.2-42.2 1.9m69.6 55v27l-27.2-.2-27.3-.3-.3-25.5c-.1-14 0-26 .3-26.7.3-1 6.6-1.3 27.5-1.3h27zm94.5-54.9c-5.4 2.6-10 7.3-12.5 12.6-1.9 4.1-2 6.2-2 42.3 0 36.5.1 38.2 2.1 42.5 2.4 5.2 8.3 10.8 13.5 13 5.4 2.2 77.4 2.2 82.8 0 5.2-2.2 11.1-7.8 13.5-13 2-4.3 2.1-6 2.1-42.5s-.1-38.2-2.1-42.5c-1.1-2.4-3.8-6-6-7.9-7.3-6.6-7-6.6-49.3-6.6-35.9.1-38.3.2-42.1 2.1M734 395v27h-54v-54h54z"/></svg>